<?xml version="1.0" encoding="UTF-8" standalone="no"?>
<svg
   xmlns:dc="http://purl.org/dc/elements/1.1/"
   xmlns:cc="http://creativecommons.org/ns#"
   xmlns:rdf="http://www.w3.org/1999/02/22-rdf-syntax-ns#"
   xmlns:svg="http://www.w3.org/2000/svg"
   xmlns="http://www.w3.org/2000/svg"
   viewBox="0 0 114.52 41.573334"
   height="41.573334"
   width="114.52"
   xml:space="preserve"
   id="svg2"
   version="1.1"><metadata
     id="metadata8"><rdf:RDF><cc:Work
         rdf:about=""><dc:format>image/svg+xml</dc:format><dc:type
           rdf:resource="http://purl.org/dc/dcmitype/StillImage" /></cc:Work></rdf:RDF></metadata><defs
     id="defs6" /><g
     transform="matrix(1.3333333,0,0,-1.3333333,0,41.573333)"
     id="g10"><g
       transform="scale(0.1)"
       id="g12"><path
         id="path14"
         style="fill:#231f20;fill-opacity:1;fill-rule:nonzero;stroke:none"
         d="m 202.465,169.922 h 62.883 c 0,0 2.488,9.453 -8.711,23.625 -22.121,22.859 -46.969,7.699 -46.969,7.699 -12.184,-6.461 -27.832,-33.312 -18.652,-71.836 11.449,-38.535 55.437,-46.4647 82.765,-37.5194 18.094,5.918 28.524,18.9644 33.543,27.1484 1.61,6.621 2.762,13.242 3.492,19.824 H 202.465 v 31.059 z M 71.3867,133.98 c -11.0703,0 -20.039,8.965 -20.039,20.043 0,11.071 8.9687,20.04 20.039,20.04 11.0781,0 20.0391,-8.969 20.0391,-20.04 0,-11.078 -8.961,-20.043 -20.0391,-20.043 z M 194.238,306.984 C 110.797,328.145 25.9844,277.668 4.82422,194.223 -16.3438,110.777 34.1367,25.9922 117.578,4.82031 176.863,-10.2188 236.816,10.9336 274.164,54.3516 c -16.422,-3.9258 -35.43,-4.2188 -56.289,2.9687 -69.859,24.1211 -82.777,88.7497 -65.371,133.9847 17.383,45.238 78.281,66.363 120.531,36.039 41.586,-29.828 37.922,-86.567 37.789,-88.383 8.414,76.074 -40.289,148.652 -116.586,168.023 z m 614.61,-192.711 c -4.473,-11.894 -16.875,-18.8472 -31.75,-20.3121 v -0.0195 c -2.957,-0.4883 -6.434,-0.9766 -9.883,-0.4883 -9.922,0 -18.348,4.961 -21.824,12.4019 -3.977,7.442 -1.496,14.883 0.996,19.356 5.945,10.41 16.355,12.402 30.761,15.371 v 0 c 4.442,0.488 9.383,1.484 14.825,2.969 10.918,2.48 13.398,4.472 18.855,8.441 0,-3.969 0.5,-32.25 -1.98,-37.719 z m 44.636,-6.445 v 53.578 c -0.488,13.887 -0.488,27.778 -3.464,40.68 -2.989,12.898 -14.387,34.227 -51.106,38.699 -6.934,0.488 -14.363,0.488 -21.797,0.488 h -0.019 c -12.403,-0.488 -25.293,-2.468 -35.703,-6.437 -21.825,-8.934 -32.743,-30.262 -32.743,-52.59 h 39.688 c -0.996,11.406 7.441,21.836 15.371,24.809 3.484,1.48 8.437,2.472 13.406,2.472 9.914,0.489 19.824,-1.984 26.77,-8.433 4.472,-4.457 5.957,-10.41 4.472,-16.86 -2.492,-10.421 -13.898,-13.89 -31.261,-16.382 v 0 c -5.957,-0.989 -12.879,-1.481 -20.301,-2.465 -20.832,-2.481 -50.606,-12.903 -57.539,-43.145 -2.481,-11.914 -0.488,-33.7498 17.851,-48.1248 12.403,-9.4336 29.774,-13.9063 43.164,-13.3984 5.957,0 11.903,0.4882 16.875,1.4843 v 0.0196 c 13.868,2.9687 24.766,9.414 35.165,17.832 0.5,-2.4805 2.98,-11.8945 4.96,-14.375 h 41.672 c -6.437,12.8906 -5.461,31.7383 -5.461,42.1483 z M 486.895,216.965 c -17.364,19.348 -44.153,27.793 -71.43,23.82 -24.801,-3.969 -42.656,-17.859 -55.063,-37.699 -6.449,-11.41 -10.906,-24.313 -12.898,-36.715 -3.969,-30.262 4.465,-80.8476 57.551,-100.6913 24.789,-9.4336 56.047,-5.957 79.855,11.4062 13.391,9.9219 26.797,32.2461 27.774,46.1331 h -44.141 c -1.492,-5.957 -4.961,-13.887 -12.898,-19.844 -17.864,-12.8906 -38.2,-4.4727 -47.129,1.992 -13.391,9.922 -17.852,26.289 -18.352,49.598 0,12.398 3.473,32.238 13.895,41.672 11.406,9.429 25.296,11.898 38.683,7.937 14.395,-4.472 25.305,-20.34 24.309,-34.719 H 404.555 V 138.59 h 108.129 c 0.996,11.414 -0.977,22.324 -2.969,32.742 -3.465,15.371 -12.891,34.234 -22.82,45.633 z m 127.988,-46.129 c -13.399,2.48 -28.77,2.977 -36.699,11.898 -3.477,3.969 -3.477,10.918 -1.496,14.887 5.46,10.914 18.859,14.391 31.75,13.406 11.406,0 21.824,-5.964 26.289,-15.886 1.992,-3.969 2.488,-8.438 2.976,-12.895 h 36.699 c 0.5,14.391 -5.449,29.27 -14.375,38.695 -11.414,11.903 -38.203,24.305 -71.425,19.344 -17.872,-2.472 -41.68,-12.902 -49.629,-36.203 -6.942,-21.836 0,-41.672 13.398,-52.09 16.875,-12.914 48.625,-16.371 61.524,-19.359 14.882,-2.969 22.316,-4.961 24.796,-13.379 1.493,-5.469 0.997,-11.914 -2.48,-16.387 -9.426,-12.3826 -28.77,-13.3787 -44.141,-8.9061 -12.902,3.9454 -18.359,14.3751 -20.84,28.2811 h -38.691 c 0,-12.91 3.965,-21.855 10.418,-32.2654 8.43,-13.3985 23.313,-24.2969 45.137,-27.7735 23.808,-3.9843 48.117,-0.9961 62.511,6.9336 8.426,4.9805 14.883,11.4063 20.34,18.3594 7.93,9.9219 14.883,34.7459 2.473,56.5629 -10.91,18.847 -35.715,22.804 -58.535,26.777 v 0" /></g></g></svg>