<?xml version="1.0" standalone="no"?>
<!DOCTYPE svg PUBLIC "-//W3C//DTD SVG 1.1//EN" "http://www.w3.org/Graphics/SVG/1.1/DTD/svg11.dtd" >
<svg>
<metadata>
Created by FontForge 20120731 at Wed Feb  6 11:03:42 2019
 By www-data
Copyright 2004-08 by Ole Schaefer, published by primetype GmbH, primetype.com for the primetype library. All Rights Reserved. Extraversion Notes Soft
</metadata>
<defs>
<font id="NotesEsa-BoldItalic" horiz-adv-x="525" >
  <font-face 
    font-family="NotesEsa"
    font-weight="700"
    font-style="italic"
    font-stretch="normal"
    units-per-em="1000"
    panose-1="2 0 8 6 3 0 0 9 0 4"
    ascent="806"
    descent="-194"
    x-height="500"
    cap-height="710"
    bbox="-605.341 -250 1483 937.519"
    underline-thickness="50"
    underline-position="-50"
    slope="-10"
    stemh="125"
    stemv="135"
    unicode-range="U+000D-FB02"
  />
<missing-glyph 
d="M62 0v710h401v-710h-401zM182 120h161v470h-161v-470z" />
    <glyph glyph-name="fi" unicode="fi" 
d="M587 691l-18 -97c-2 -11 -9 -19 -20 -19h-99c-11 0 -18 8 -16 19l18 97c2 11 9 19 20 19h99c11 0 18 -8 16 -19zM550 481l-82 -462c-2 -11 -9 -19 -20 -19h-99c-11 0 -18 8 -16 19l65 366h-135l-94 -534c-2 -11 -9 -22 -23 -24l-95 -13c-13 -2 -23 5 -21 19l98 552h-31
c-11 0 -18 8 -16 19l14 77c2 11 9 19 20 19h33l13 72c21 117 89 148 166 148c42 0 74 -10 74 -10c11 -1 18 -10 16 -22l-15 -83c-2 -11 -10 -15 -22 -14c0 0 -25 4 -39 4c-23 0 -42 -7 -49 -44l-9 -51h251c11 0 18 -8 16 -19z" />
    <glyph glyph-name="fl" unicode="fl" 
d="M587 691l-119 -672c-2 -11 -9 -19 -20 -19h-99c-11 0 -18 8 -16 19l119 672c2 11 9 19 20 19h99c11 0 18 -8 16 -19zM417 688l-15 -83c-2 -11 -10 -15 -22 -14c0 0 -25 4 -39 4c-23 0 -42 -7 -49 -44l-9 -51h51c11 0 18 -8 16 -19l-14 -77c-2 -11 -9 -19 -20 -19h-53
l-94 -534c-2 -11 -9 -22 -23 -24l-95 -13c-13 -2 -23 5 -21 19l98 552h-31c-11 0 -18 8 -16 19l14 77c2 11 9 19 20 19h33l13 72c21 117 89 148 166 148c42 0 74 -10 74 -10c11 -1 18 -10 16 -22z" />
    <glyph glyph-name=".notdef" 
d="M62 0v710h401v-710h-401zM182 120h161v470h-161v-470z" />
    <glyph glyph-name=".null" horiz-adv-x="0" 
 />
    <glyph glyph-name=".null" horiz-adv-x="0" 
 />
    <glyph glyph-name="CR" unicode="&#xd;" horiz-adv-x="280" 
 />
    <glyph glyph-name="space" unicode=" " horiz-adv-x="280" 
 />
    <glyph glyph-name="exclam" unicode="!" horiz-adv-x="255" 
d="M317 691l-77 -437c-2 -11 -10 -19 -21 -19h-99c-11 0 -17 8 -15 19l77 437c2 11 9 19 20 19h99c11 0 18 -8 16 -19zM222 126l-19 -107c-2 -11 -9 -19 -20 -19h-109c-11 0 -18 8 -16 19l19 107c2 11 10 19 21 19h109c11 0 17 -8 15 -19z" />
    <glyph glyph-name="quotedbl" unicode="&#x22;" horiz-adv-x="430" 
d="M502 691l-49 -277c-2 -11 -9 -19 -20 -19h-99c-11 0 -18 8 -16 19l49 277c2 11 9 19 20 19h99c11 0 18 -8 16 -19zM307 691l-49 -277c-2 -11 -9 -19 -20 -19h-99c-11 0 -18 8 -16 19l49 277c2 11 9 19 20 19h99c11 0 18 -8 16 -19z" />
    <glyph glyph-name="numbersign" unicode="#" horiz-adv-x="500" 
d="M575 541l-13 -77c-2 -11 -10 -19 -21 -19h-38l-31 -180h36c11 0 17 -8 15 -19l-13 -77c-2 -11 -10 -19 -21 -19h-38l-23 -131c-2 -11 -9 -19 -20 -19h-99c-11 0 -18 8 -16 19l23 131h-80l-23 -131c-2 -11 -9 -19 -20 -19h-99c-11 0 -18 8 -16 19l23 131h-36
c-11 0 -17 8 -15 19l13 77c2 11 10 19 21 19h38l31 180h-36c-11 0 -17 8 -15 19l13 77c2 11 10 19 21 19h38l23 131c2 11 9 19 20 19h99c11 0 18 -8 16 -19l-23 -131h80l23 131c2 11 9 19 20 19h99c11 0 18 -8 16 -19l-23 -131h36c11 0 17 -8 15 -19zM368 445h-80l-31 -180
h80z" />
    <glyph glyph-name="dollar" unicode="$" horiz-adv-x="500" 
d="M574 677l-15 -88c-2 -11 -10 -15 -22 -14c0 0 -108 20 -167 20c-69 0 -92 -20 -102 -68l-3 -15c-1 -6 -2 -11 -2 -16c0 -29 18 -47 46 -57l69 -25c63 -23 128 -67 128 -162c0 -13 -2 -26 -4 -40l-5 -30c-20 -122 -75 -172 -178 -187l-17 -96c-2 -11 -9 -19 -20 -19h-99
c-11 0 -18 8 -16 19l17 95c-64 7 -127 22 -127 22c-11 2 -18 9 -16 20l17 91c2 11 10 16 22 14c0 0 118 -26 170 -26c76 0 106 22 114 77l3 20c1 6 1 11 1 16c0 37 -23 58 -59 71l-69 25c-61 22 -112 69 -112 152c0 11 1 23 3 36l4 25c18 111 85 162 176 178l17 96
c2 11 9 19 20 19h99c11 0 18 -8 16 -19l-17 -95c60 -6 110 -18 110 -18c11 -2 20 -10 18 -21z" />
    <glyph glyph-name="percent" unicode="%" horiz-adv-x="1070" 
d="M1047 234c0 -13 -1 -26 -3 -39l-3 -19c-18 -114 -102 -186 -227 -186c-111 0 -178 65 -178 166c0 13 1 26 3 40l3 19c19 119 103 186 226 186c111 0 179 -66 179 -167zM892 690l-440 -671c-7 -10 -14 -19 -25 -19h-111c-11 0 -19 11 -12 21l439 670c7 10 14 19 25 19h112
c14 0 19 -10 12 -20zM559 553c0 -13 -1 -26 -3 -39l-3 -19c-18 -114 -102 -186 -227 -186c-111 0 -178 65 -178 166c0 13 1 26 3 40l3 19c19 119 103 186 226 186c111 0 179 -66 179 -167zM913 225c0 35 -18 61 -60 61c-49 0 -69 -31 -77 -76l-4 -24c-1 -7 -2 -14 -2 -20
c0 -35 18 -61 60 -61c49 0 69 31 77 76l4 24c1 7 2 14 2 20zM425 544c0 35 -18 61 -60 61c-49 0 -69 -31 -77 -76l-4 -24c-1 -7 -2 -14 -2 -20c0 -35 18 -61 60 -61c49 0 69 31 77 76l4 24c1 7 2 14 2 20z" />
    <glyph glyph-name="ampersand" unicode="&#x26;" horiz-adv-x="683" 
d="M686 14c0 -7 -6 -14 -15 -14h-126c-11 0 -21 10 -27 18l-25 33c-63 -43 -134 -61 -196 -61c-129 0 -204 61 -204 169c0 13 1 26 3 40l4 26c13 86 78 132 142 168c-24 34 -44 73 -44 119c0 10 1 19 3 30l4 21c19 99 95 157 215 157c106 0 170 -61 170 -144
c0 -11 -1 -22 -3 -33l-4 -21c-14 -76 -71 -122 -145 -170l67 -90c7 20 13 43 18 68l11 61c2 11 11 19 22 19h97c13 0 18 -8 16 -19l-13 -71c-13 -69 -37 -125 -67 -171l93 -125c3 -3 4 -7 4 -10zM453 534c1 10 1 14 1 17c0 26 -15 49 -53 49c-42 0 -62 -27 -65 -54l-1 -9
c0 -3 -1 -6 -1 -9c0 -29 16 -58 40 -91c47 34 75 62 79 97zM423 147l-115 157c-43 -27 -68 -52 -75 -89l-2 -11c-1 -7 -2 -13 -2 -20c0 -38 21 -74 79 -74c33 0 76 9 115 37z" />
    <glyph glyph-name="quotesingle" unicode="'" horiz-adv-x="235" 
d="M307 691l-49 -277c-2 -11 -9 -19 -20 -19h-99c-11 0 -18 8 -16 19l49 277c2 11 9 19 20 19h99c11 0 18 -8 16 -19z" />
    <glyph glyph-name="parenleft" unicode="(" horiz-adv-x="325" 
d="M460 821l-13 -74c-2 -11 -9 -17 -20 -17c-85 0 -112 -52 -126 -130l-87 -490c-17 -95 4 -130 77 -130c15 0 19 -8 17 -19l-13 -74c-2 -11 -9 -17 -20 -17c-154 0 -223 88 -193 255l88 495c30 168 113 220 274 220c11 0 18 -8 16 -19z" />
    <glyph glyph-name="parenright" unicode=")" horiz-adv-x="325" 
d="M368 585l-88 -495c-30 -168 -113 -220 -274 -220c-11 0 -18 8 -16 19l13 74c2 11 9 17 20 17c85 0 112 52 126 130l87 490c17 95 -4 130 -77 130c-15 0 -19 8 -17 19l13 74c2 11 9 17 20 17c154 0 223 -88 193 -255z" />
    <glyph glyph-name="asterisk" unicode="*" horiz-adv-x="536" 
d="M574 562c6 -9 2 -20 -7 -26l-109 -69l87 -95c7 -8 6 -18 -2 -26l-60 -56c-8 -8 -20 -6 -27 2l-90 98l-92 -99c-8 -8 -19 -10 -27 -2l-60 57c-8 8 -10 18 -2 26l88 95l-109 68c-9 6 -13 17 -7 26l45 69c6 9 17 13 26 7l78 -48v102c0 11 8 19 19 19h82c11 0 19 -8 19 -19
v-102l78 49c9 6 20 2 26 -7z" />
    <glyph glyph-name="plus" unicode="+" 
d="M544 391l-15 -82c-2 -11 -9 -19 -20 -19h-133l-25 -141c-2 -11 -9 -19 -20 -19h-89c-11 0 -18 8 -16 19l25 141h-131c-11 0 -18 8 -16 19l15 82c2 11 9 19 20 19h133l25 141c2 11 10 19 21 19h89c11 0 17 -8 15 -19l-25 -141h131c11 0 18 -8 16 -19z" />
    <glyph glyph-name="comma" unicode="," horiz-adv-x="245" 
d="M217 126l-20 -116l-73 -171c-5 -11 -13 -19 -24 -19h-49c-11 0 -18 7 -14 18l53 162h-21c-11 0 -18 8 -16 19l19 107c2 11 12 19 23 19h107c11 0 17 -8 15 -19z" />
    <glyph glyph-name="hyphen" unicode="-" horiz-adv-x="350" 
d="M369 391l-15 -82c-2 -11 -9 -19 -20 -19h-214c-11 0 -18 8 -16 19l15 82c2 11 9 19 20 19h214c11 0 18 -8 16 -19z" />
    <glyph glyph-name="period" unicode="." horiz-adv-x="245" 
d="M217 126l-19 -107c-2 -11 -9 -19 -20 -19h-109c-11 0 -18 8 -16 19l19 107c2 11 10 19 21 19h109c11 0 17 -8 15 -19z" />
    <glyph glyph-name="slash" unicode="/" horiz-adv-x="425" 
d="M500 689l-307 -671c-5 -11 -13 -18 -24 -18h-107c-11 0 -17 10 -12 21l307 671c5 11 13 18 24 18h106c11 0 18 -10 13 -21z" />
    <glyph glyph-name="zero" unicode="0" horiz-adv-x="500" 
d="M556 543c0 -20 -2 -41 -6 -63l-48 -270c-26 -147 -98 -220 -244 -220c-127 0 -188 67 -188 177c0 20 2 41 6 63l48 270c26 147 97 220 243 220c127 0 189 -67 189 -177zM420 525c0 46 -20 70 -70 70c-60 0 -81 -38 -94 -110l-46 -260c-3 -15 -4 -29 -4 -41
c0 -46 20 -69 69 -69c60 0 82 38 95 110l46 260c3 15 4 28 4 40z" />
    <glyph glyph-name="one" unicode="1" horiz-adv-x="500" 
d="M489 106l-16 -87c-2 -11 -9 -19 -20 -19h-379c-11 0 -18 8 -16 19l16 87c2 11 9 19 20 19h133l78 445l-144 -27c-11 -2 -18 6 -16 17l15 83c2 11 11 20 22 23l148 44h116c11 0 18 -8 16 -19l-100 -566h111c11 0 18 -8 16 -19z" />
    <glyph glyph-name="two" unicode="2" horiz-adv-x="500" 
d="M550 566c0 -15 -1 -32 -4 -49l-6 -35c-38 -222 -305 -163 -337 -326l-6 -31h261c11 0 18 -8 16 -19l-16 -87c-2 -11 -11 -19 -22 -19h-377c-11 0 -18 8 -16 19l27 148c45 249 318 212 337 325l5 30c1 5 1 10 1 14c0 35 -25 59 -83 59s-167 -16 -167 -16
c-11 -1 -20 3 -18 17l15 85c2 11 11 20 23 21c0 0 89 18 166 18c135 0 201 -53 201 -154z" />
    <glyph glyph-name="three" unicode="3" horiz-adv-x="500" 
d="M531 568c0 -14 -2 -28 -4 -44l-4 -26c-11 -73 -47 -107 -97 -130c42 -24 69 -64 69 -122c0 -11 -1 -23 -3 -35l-7 -43c-23 -142 -120 -178 -255 -178c-72 0 -177 24 -177 24c-12 2 -18 10 -16 21l15 87c2 11 10 16 21 15c0 0 101 -22 166 -22c73 0 105 22 114 71l7 37
c1 7 2 15 2 21c0 44 -34 60 -94 60h-104c-11 0 -18 9 -16 20l15 87c2 11 11 18 22 18h85c76 0 109 19 119 75l3 17c1 7 2 14 2 20c0 35 -21 54 -80 54c-63 0 -162 -17 -162 -17c-11 -1 -19 4 -17 15l15 88c2 11 10 18 22 19c0 0 74 20 161 20c123 0 198 -44 198 -152z" />
    <glyph glyph-name="four" unicode="4" horiz-adv-x="500" 
d="M537 241l-15 -87c-2 -11 -11 -19 -22 -19h-41l-21 -116c-2 -11 -11 -19 -22 -19h-97c-11 0 -18 8 -16 19l21 116h-271c-11 0 -18 8 -16 19l19 106l185 432c5 11 13 18 24 18h142c11 0 16 -10 11 -21l-200 -429h128l39 221c2 11 11 19 22 19h97c11 0 18 -8 16 -19
l-39 -221h41c11 0 17 -8 15 -19z" />
    <glyph glyph-name="five" unicode="5" horiz-adv-x="500" 
d="M587 691l-15 -87c-2 -11 -10 -19 -21 -19h-273l-29 -161c31 17 68 30 108 30c99 0 156 -53 156 -150c0 -17 -1 -35 -5 -55l-12 -66c-28 -152 -113 -193 -258 -193c-87 0 -176 24 -176 24c-12 2 -18 10 -16 21l15 87c2 11 10 16 21 15c0 0 101 -22 166 -22
c83 0 106 29 117 88l9 49c2 9 2 17 2 24c0 36 -20 53 -56 53c-53 0 -91 -30 -127 -55h-84c-11 0 -19 7 -17 21l70 396c2 11 9 19 20 19h389c11 0 18 -8 16 -19z" />
    <glyph glyph-name="six" unicode="6" horiz-adv-x="500" 
d="M555 680l-15 -84c-2 -11 -8 -18 -22 -16c0 0 -86 15 -128 15c-81 0 -121 -39 -135 -115l-10 -56c32 17 70 30 114 30c108 0 155 -64 155 -152c0 -16 -2 -33 -5 -51l-11 -61c-23 -127 -92 -200 -235 -200c-124 0 -195 65 -195 172c0 15 1 31 4 48l47 265
c31 176 129 245 280 245c65 0 141 -19 141 -19c14 -2 17 -10 15 -21zM377 276c0 37 -22 53 -61 53c-30 0 -63 -12 -92 -26l-17 -95c-2 -10 -3 -19 -3 -28c0 -44 24 -65 71 -65c60 0 81 34 91 88l9 51c1 8 2 15 2 22z" />
    <glyph glyph-name="seven" unicode="7" horiz-adv-x="500" 
d="M592 691l-19 -106l-307 -567c-6 -11 -13 -18 -24 -18h-145c-11 0 -14 11 -8 22l319 563h-261c-11 0 -17 8 -15 19l15 87c2 11 11 19 22 19h407c11 0 18 -8 16 -19z" />
    <glyph glyph-name="eight" unicode="8" horiz-adv-x="500" 
d="M560 559c0 -12 -1 -25 -4 -39l-4 -22c-14 -76 -54 -115 -103 -135c37 -27 64 -68 64 -127c0 -11 -1 -22 -3 -34l-4 -26c-21 -137 -115 -186 -248 -186c-118 0 -199 64 -199 176c0 13 1 26 3 40l4 26c12 80 58 124 113 147c-33 23 -55 58 -55 110c0 12 1 25 4 39l4 22
c22 122 112 170 235 170c110 0 193 -58 193 -161zM423 531c0 34 -22 64 -73 64c-59 0 -79 -28 -87 -69l-2 -10c-1 -6 -2 -11 -2 -17c0 -35 23 -64 73 -64c58 0 79 27 87 69l2 10c1 6 2 11 2 17zM380 236c0 40 -23 74 -80 74c-67 0 -91 -37 -100 -85l-3 -16
c-1 -8 -2 -15 -2 -22c0 -43 27 -72 79 -72c57 0 91 29 101 84l3 16c1 7 2 14 2 21z" />
    <glyph glyph-name="nine" unicode="9" horiz-adv-x="500" 
d="M556 546c0 -17 -2 -34 -5 -52l-46 -264c-32 -182 -116 -240 -267 -240c-65 0 -142 18 -142 18c-10 1 -19 8 -17 21l16 85c2 11 9 18 22 16c0 0 86 -15 128 -15c81 0 113 44 126 120l10 59c-30 -17 -66 -28 -106 -28c-109 0 -162 61 -162 153c0 15 1 30 4 47l9 54
c22 131 97 200 235 200c134 0 195 -71 195 -174zM421 530c0 42 -22 65 -70 65c-60 0 -82 -34 -92 -88l-7 -38c-1 -8 -2 -15 -2 -22c0 -38 22 -56 58 -56c30 0 64 10 94 22l16 89c2 10 3 20 3 28z" />
    <glyph glyph-name="colon" unicode=":" horiz-adv-x="245" 
d="M280 481l-19 -107c-2 -11 -9 -19 -20 -19h-109c-11 0 -18 8 -16 19l19 107c2 11 10 19 21 19h109c11 0 17 -8 15 -19zM217 126l-19 -107c-2 -11 -9 -19 -20 -19h-109c-11 0 -18 8 -16 19l19 107c2 11 10 19 21 19h109c11 0 17 -8 15 -19z" />
    <glyph glyph-name="semicolon" unicode=";" horiz-adv-x="245" 
d="M280 481l-19 -107c-2 -11 -9 -19 -20 -19h-109c-11 0 -18 8 -16 19l19 107c2 11 10 19 21 19h109c11 0 17 -8 15 -19zM217 126l-20 -116l-73 -171c-5 -11 -13 -19 -24 -19h-49c-11 0 -18 7 -14 18l53 162h-21c-11 0 -18 8 -16 19l19 107c2 11 12 19 23 19h107
c11 0 17 -8 15 -19z" />
    <glyph glyph-name="less" unicode="&#x3c;" 
d="M577 576l-19 -103c-2 -11 -11 -17 -22 -21l-278 -107l240 -107c9 -4 16 -14 14 -25l-15 -91c-2 -11 -14 -18 -23 -13l-356 173c-9 4 -16 15 -14 26l15 88c2 11 12 17 23 22l415 172c13 5 22 -3 20 -14z" />
    <glyph glyph-name="equal" unicode="=" 
d="M565 511l-14 -82c-2 -11 -10 -19 -21 -19h-389c-11 0 -17 8 -15 19l14 82c2 11 9 19 20 19h389c11 0 18 -8 16 -19zM523 271l-15 -82c-2 -11 -9 -19 -20 -19h-389c-11 0 -18 8 -16 19l15 82c2 11 9 19 20 19h389c11 0 18 -8 16 -19z" />
    <glyph glyph-name="greater" unicode="&#x3e;" 
d="M544 391l-15 -88c-2 -11 -12 -17 -23 -22l-415 -172c-13 -5 -22 3 -20 14l19 104c2 11 11 17 22 21l278 107l-240 107c-9 4 -16 14 -14 25l15 90c2 11 14 18 23 13l356 -173c9 -4 16 -15 14 -26z" />
    <glyph glyph-name="question" unicode="?" horiz-adv-x="455" 
d="M503 578c0 -10 -1 -20 -2 -31l-2 -15c-9 -71 -43 -105 -79 -131l-25 -18c-36 -26 -71 -49 -81 -106l-4 -23c-2 -11 -11 -19 -22 -19h-97c-11 0 -18 8 -16 19l8 43c20 106 66 143 111 171l24 15c22 14 41 26 46 51l1 5c1 4 1 8 1 12c0 26 -19 44 -65 44
c-55 0 -138 -16 -138 -16c-11 -1 -19 6 -17 17l15 86c2 11 11 18 22 19c0 0 71 19 146 19c105 0 174 -45 174 -142zM292 126l-19 -107c-2 -11 -11 -19 -22 -19h-107c-11 0 -18 8 -16 19l19 107c2 11 12 19 23 19h107c11 0 17 -8 15 -19z" />
    <glyph glyph-name="at" unicode="@" horiz-adv-x="1000" 
d="M986 280c0 -205 -99 -280 -232 -280c-70 0 -113 27 -137 67c-37 -29 -88 -57 -147 -57c-96 0 -149 61 -149 152c0 15 1 31 4 48l22 120c21 113 80 170 213 170c89 0 197 -35 197 -35c10 -3 16 -12 14 -23l-39 -222c-2 -14 -4 -29 -4 -42c0 -32 9 -58 38 -58
c43 0 75 51 75 160v40c0 150 -68 270 -295 270c-220 0 -295 -141 -295 -320v-40c0 -161 73 -300 295 -300h146c11 0 19 -8 19 -19v-92c0 -11 -8 -19 -19 -19h-146c-288 0 -440 151 -440 430v40c0 278 151 450 440 450c292 0 440 -161 440 -400v-40zM624 371
c-25 5 -49 9 -63 9c-56 0 -76 -28 -84 -75l-16 -90c-2 -11 -3 -21 -3 -31c0 -31 12 -54 49 -54c27 0 58 10 87 23c0 5 -1 10 -1 15c0 20 2 41 6 62z" />
    <glyph glyph-name="A" unicode="A" horiz-adv-x="605" 
d="M592 20c1 -11 -7 -20 -18 -20h-103c-11 0 -17 8 -18 19l-11 101h-227l-46 -101c-5 -11 -12 -19 -23 -19h-115c-11 0 -16 9 -11 20l313 671c5 11 15 19 26 19h130c11 0 19 -8 20 -19zM431 245l-31 288l-131 -288h162z" />
    <glyph glyph-name="B" unicode="B" horiz-adv-x="600" 
d="M626 539c0 -99 -45 -152 -113 -180c47 -26 76 -71 76 -141c0 -158 -102 -218 -259 -218h-251c-11 0 -18 8 -16 19l119 672c2 11 9 19 20 19h218c128 0 206 -52 206 -171zM486 519c0 53 -36 71 -97 71h-90l-30 -170h95c76 0 122 23 122 99zM454 221c0 53 -34 79 -97 79
h-109l-32 -180h115c77 0 123 25 123 101z" />
    <glyph glyph-name="C" unicode="C" horiz-adv-x="475" 
d="M554 679l-15 -89c-2 -11 -11 -15 -23 -13c0 0 -60 15 -109 15c-85 0 -119 -59 -133 -142l-33 -190c-3 -18 -5 -35 -5 -51c0 -55 23 -91 93 -91c47 0 109 9 109 9c12 1 19 -5 17 -16l-16 -90c-2 -11 -11 -19 -23 -20c0 0 -54 -11 -108 -11c-136 0 -208 77 -208 204
c0 22 3 46 7 71l36 205c29 166 114 250 274 250c67 0 122 -19 122 -19c12 -2 17 -11 15 -22z" />
    <glyph glyph-name="D" unicode="D" horiz-adv-x="610" 
d="M632 504c0 -22 -2 -45 -6 -69l-33 -190c-28 -162 -118 -245 -278 -245h-236c-11 0 -18 8 -16 19l119 672c2 11 9 19 20 19h218c140 0 212 -79 212 -206zM498 490c0 57 -25 95 -100 95h-100l-81 -460h105c86 0 126 62 141 145l30 170c3 18 5 35 5 50z" />
    <glyph glyph-name="E" unicode="E" horiz-adv-x="505" 
d="M587 691l-15 -87c-2 -11 -10 -19 -21 -19h-253l-28 -160h231c11 0 18 -8 16 -19l-16 -87c-2 -11 -9 -19 -20 -19h-233l-31 -175h251c11 0 18 -8 16 -19l-16 -87c-2 -11 -9 -19 -20 -19h-369c-11 0 -18 8 -16 19l119 672c2 11 9 19 20 19h369c11 0 18 -8 16 -19z" />
    <glyph glyph-name="F" unicode="F" horiz-adv-x="505" 
d="M587 691l-15 -87c-2 -11 -10 -19 -21 -19h-253l-28 -160h231c11 0 18 -8 16 -19l-16 -87c-2 -11 -9 -19 -20 -19h-233l-50 -281c-2 -11 -9 -19 -20 -19h-99c-11 0 -18 8 -16 19l119 672c2 11 9 19 20 19h369c11 0 18 -8 16 -19z" />
    <glyph glyph-name="G" unicode="G" horiz-adv-x="610" 
d="M647 664l-15 -86c-2 -11 -11 -15 -23 -13c0 0 -96 30 -174 30c-104 0 -145 -59 -162 -155l-32 -180c-3 -18 -5 -35 -5 -50c0 -61 28 -95 93 -95c55 0 108 13 108 13l27 152h-101c-11 0 -17 8 -15 19l15 87c2 11 11 19 22 19h217c11 0 18 -8 16 -19l-62 -351
s-104 -45 -238 -45c-143 0 -218 76 -218 204c0 22 3 46 7 71l34 190c32 178 127 265 301 265c108 0 190 -34 190 -34c11 -3 17 -11 15 -22z" />
    <glyph glyph-name="H" unicode="H" horiz-adv-x="610" 
d="M672 691l-119 -672c-2 -11 -9 -19 -20 -19h-99c-11 0 -18 8 -16 19l50 281h-220l-50 -281c-2 -11 -9 -19 -20 -19h-99c-11 0 -18 8 -16 19l119 672c2 11 9 19 20 19h99c11 0 18 -8 16 -19l-47 -266h220l47 266c2 11 9 19 20 19h99c11 0 18 -8 16 -19z" />
    <glyph glyph-name="I" unicode="I" horiz-adv-x="445" 
d="M537 691l-9 -52c-2 -11 -10 -19 -21 -19h-108l-93 -530h106c11 0 18 -8 16 -19l-10 -52c-2 -11 -9 -19 -20 -19h-349c-11 0 -18 8 -16 19l10 52c2 11 9 19 20 19h108l93 530h-106c-11 0 -17 8 -15 19l9 52c2 11 9 19 20 19h349c11 0 18 -8 16 -19z" />
    <glyph glyph-name="J" unicode="J" horiz-adv-x="375" 
d="M437 691l-85 -481c-26 -146 -93 -210 -237 -210h-56c-11 0 -18 8 -16 19l15 82c2 11 9 19 20 19h23c71 0 106 33 120 110l81 461c2 11 9 19 20 19h99c11 0 18 -8 16 -19z" />
    <glyph glyph-name="K" unicode="K" horiz-adv-x="550" 
d="M650 690l-239 -325l132 -346c4 -10 -3 -19 -14 -19h-109c-11 0 -18 9 -22 19l-137 351l236 321c7 10 17 19 28 19h113c11 0 19 -10 12 -20zM317 691l-119 -672c-2 -11 -9 -19 -20 -19h-99c-11 0 -18 8 -16 19l119 672c2 11 9 19 20 19h99c11 0 18 -8 16 -19z" />
    <glyph glyph-name="L" unicode="L" horiz-adv-x="505" 
d="M484 106l-16 -87c-2 -11 -9 -19 -20 -19h-369c-11 0 -18 8 -16 19l119 672c2 11 9 19 20 19h99c11 0 18 -8 16 -19l-100 -566h251c11 0 18 -8 16 -19z" />
    <glyph glyph-name="M" unicode="M" horiz-adv-x="765" 
d="M827 691l-119 -672c-2 -11 -9 -19 -20 -19h-99c-11 0 -18 8 -16 19l72 405l-159 -285c-6 -10 -14 -19 -25 -19h-104c-11 0 -19 9 -21 19l-63 300l-75 -420c-2 -11 -9 -19 -20 -19h-99c-11 0 -18 8 -16 19l119 672c2 11 9 19 20 19h108c11 0 19 -9 21 -19l97 -421l242 421
c6 10 16 19 27 19h114c11 0 18 -8 16 -19z" />
    <glyph glyph-name="N" unicode="N" horiz-adv-x="610" 
d="M672 691l-119 -672c-2 -11 -9 -19 -20 -19h-103c-13 0 -19 9 -22 19l-136 415l-74 -415c-2 -11 -9 -19 -20 -19h-99c-11 0 -18 8 -16 19l119 672c2 11 9 19 20 19h103c15 0 19 -9 22 -19l136 -415l74 415c2 11 9 19 20 19h99c11 0 18 -8 16 -19z" />
    <glyph glyph-name="O" unicode="O" horiz-adv-x="610" 
d="M634 512c0 -21 -2 -44 -6 -67l-37 -210c-29 -163 -119 -245 -278 -245c-137 0 -212 79 -212 207c0 21 2 44 6 68l37 210c29 162 118 245 278 245c137 0 212 -80 212 -208zM499 498c0 58 -25 97 -94 97c-85 0 -117 -62 -131 -145l-33 -190c-3 -17 -5 -33 -5 -48
c0 -59 26 -97 94 -97c82 0 117 62 131 145l33 190c3 17 5 33 5 48z" />
    <glyph glyph-name="P" unicode="P" horiz-adv-x="580" 
d="M623 527c0 -169 -98 -247 -274 -247h-104l-47 -261c-2 -11 -9 -19 -20 -19h-99c-11 0 -18 8 -16 19l119 672c2 11 9 19 20 19h213c128 0 208 -62 208 -183zM485 509c0 56 -33 81 -101 81h-85l-33 -190h95c82 0 124 35 124 109z" />
    <glyph glyph-name="Q" unicode="Q" horiz-adv-x="610" 
d="M634 512c0 -21 -2 -44 -6 -67l-37 -210c-25 -142 -98 -223 -222 -241l-2 -12c-1 -7 -2 -13 -2 -18c0 -28 16 -39 43 -39c15 0 43 3 61 5c12 1 18 -2 16 -13l-16 -90c-2 -11 -10 -18 -22 -20c-20 -3 -54 -7 -89 -7c-81 0 -130 48 -130 134c0 15 1 30 4 47l3 19
c-88 25 -134 96 -134 197c0 21 2 44 6 68l37 210c29 162 118 245 278 245c137 0 212 -80 212 -208zM499 498c0 58 -25 97 -94 97c-85 0 -117 -62 -131 -145l-33 -190c-3 -17 -5 -33 -5 -48c0 -59 26 -97 94 -97c82 0 117 62 131 145l33 190c3 17 5 33 5 48z" />
    <glyph glyph-name="R" unicode="R" horiz-adv-x="580" 
d="M622 527c0 -141 -69 -217 -190 -240l120 -269c4 -9 -3 -18 -14 -18h-111c-11 0 -17 10 -21 19l-116 261h-45l-47 -261c-2 -11 -9 -19 -20 -19h-99c-11 0 -18 8 -16 19l119 672c2 11 9 19 20 19h218c125 0 202 -64 202 -183zM485 508c0 60 -36 82 -101 82h-85l-33 -190h82
c84 0 137 26 137 108z" />
    <glyph glyph-name="S" unicode="S" horiz-adv-x="535" 
d="M589 677l-15 -88c-2 -11 -10 -15 -22 -14c0 0 -108 20 -167 20c-69 0 -92 -20 -102 -68l-3 -15c-1 -6 -2 -11 -2 -16c0 -29 18 -47 46 -57l69 -25c63 -23 128 -67 128 -162c0 -13 -2 -26 -4 -40l-5 -30c-25 -150 -102 -192 -256 -192c-78 0 -184 26 -184 26
c-11 2 -18 9 -16 20l17 91c2 11 10 16 22 14c0 0 118 -26 170 -26c76 0 106 22 114 77l3 20c1 6 1 11 1 16c0 37 -23 58 -59 71l-69 25c-61 22 -112 69 -112 152c0 11 1 23 3 36l4 25c22 137 120 183 245 183c85 0 176 -22 176 -22c11 -1 20 -10 18 -21z" />
    <glyph glyph-name="T" unicode="T" horiz-adv-x="550" 
d="M642 691l-15 -87c-2 -11 -10 -19 -21 -19h-160l-100 -566c-2 -11 -9 -19 -20 -19h-99c-11 0 -18 8 -16 19l100 566h-159c-11 0 -17 8 -15 19l15 87c2 11 9 19 20 19h454c11 0 18 -8 16 -19z" />
    <glyph glyph-name="U" unicode="U" horiz-adv-x="610" 
d="M672 691l-78 -441c-34 -190 -127 -260 -278 -260c-136 0 -214 68 -214 206c0 24 2 50 7 79l73 416c2 11 9 19 20 19h99c11 0 18 -8 16 -19l-76 -431c-3 -19 -5 -37 -5 -53c0 -59 25 -92 92 -92c85 0 118 62 133 145l76 431c2 11 9 19 20 19h99c11 0 18 -8 16 -19z" />
    <glyph glyph-name="V" unicode="V" horiz-adv-x="580" 
d="M685 689l-300 -670c-5 -12 -14 -19 -25 -19h-135c-11 0 -19 7 -20 19l-68 670c-1 11 4 21 16 21h108c11 0 15 -8 16 -19l43 -499l217 499c5 11 11 19 22 19h113c12 0 18 -10 13 -21z" />
    <glyph glyph-name="W" unicode="W" horiz-adv-x="935" 
d="M1032 689l-257 -670c-4 -11 -12 -19 -24 -19h-135c-13 0 -19 8 -20 19l-45 452l-200 -452c-5 -11 -11 -19 -24 -19h-135c-12 0 -20 8 -20 19l-27 670c0 11 5 21 17 21h108c11 0 16 -8 16 -19l11 -499l210 499c5 11 13 19 24 19h110c11 0 19 -8 20 -19l39 -499l183 499
c4 11 11 19 22 19h114c12 0 17 -10 13 -21z" />
    <glyph glyph-name="X" unicode="X" horiz-adv-x="590" 
d="M690 689l-247 -334l138 -334c4 -10 -1 -21 -13 -21h-115c-15 0 -18 9 -22 19l-87 222l-162 -222c-7 -10 -13 -19 -28 -19h-129c-12 0 -17 11 -10 21l260 351l-132 317c-4 10 3 21 15 21h114c15 0 18 -9 22 -19l80 -205l149 205c7 10 13 19 28 19h128c12 0 18 -11 11 -21z
" />
    <glyph glyph-name="Y" unicode="Y" horiz-adv-x="575" 
d="M677 689l-282 -464l-37 -206c-2 -11 -9 -19 -20 -19h-99c-11 0 -18 8 -16 19l37 206l-120 464c-3 10 4 21 16 21h110c11 0 16 -9 18 -19l67 -306l173 306c6 10 12 19 23 19h120c12 0 16 -11 10 -21z" />
    <glyph glyph-name="Z" unicode="Z" horiz-adv-x="485" 
d="M567 691l-19 -106l-314 -460h214c11 0 18 -8 16 -19l-16 -87c-2 -11 -9 -19 -20 -19h-369c-11 0 -18 8 -16 19l19 106l314 460h-214c-11 0 -17 8 -15 19l15 87c2 11 9 19 20 19h369c11 0 18 -8 16 -19z" />
    <glyph glyph-name="bracketleft" unicode="[" horiz-adv-x="325" 
d="M460 821l-13 -72c-2 -11 -9 -19 -20 -19h-103l-133 -750h101c11 0 18 -8 16 -19l-13 -72c-2 -11 -9 -19 -20 -19h-219c-11 0 -18 8 -16 19l165 932c2 11 9 19 20 19h219c11 0 18 -8 16 -19z" />
    <glyph glyph-name="backslash" unicode="\" horiz-adv-x="425" 
d="M500 21c5 -11 -1 -21 -12 -21h-107c-11 0 -19 7 -24 18l-307 671c-5 11 2 21 13 21h106c11 0 19 -7 24 -18z" />
    <glyph glyph-name="bracketright" unicode="]" horiz-adv-x="325" 
d="M410 821l-165 -932c-2 -11 -9 -19 -20 -19h-219c-11 0 -18 8 -16 19l13 72c2 11 9 19 20 19h103l133 750h-101c-11 0 -18 8 -16 19l13 72c2 11 9 19 20 19h219c11 0 18 -8 16 -19z" />
    <glyph glyph-name="asciicircum" unicode="^" horiz-adv-x="600" 
d="M612 420c4 -9 -2 -20 -13 -20h-94c-11 0 -17 10 -21 19l-74 164l-132 -164c-8 -9 -16 -19 -27 -19h-105c-11 0 -15 13 -8 22l211 270c7 9 15 18 26 18h96c11 0 16 -9 20 -18z" />
    <glyph glyph-name="underscore" unicode="_" horiz-adv-x="510" 
d="M494 -89l-14 -82c-2 -11 -10 -19 -21 -19h-474c-11 0 -17 8 -15 19l14 82c2 11 10 19 21 19h474c11 0 17 -8 15 -19z" />
    <glyph glyph-name="grave" unicode="`" horiz-adv-x="317" 
d="M390 699l-97 -110c-8 -9 -19 -19 -30 -19h-101c-12 0 -14 11 -8 21l68 110c6 10 19 19 30 19h130c12 0 16 -12 8 -21z" />
    <glyph glyph-name="a" unicode="a" horiz-adv-x="515" 
d="M537 462l-78 -443c-2 -11 -9 -19 -20 -19h-85c-11 0 -19 8 -16 19l1 4c-31 -19 -67 -33 -106 -33c-99 0 -145 59 -145 143c0 15 1 31 4 47l27 155c20 114 84 175 217 175c92 0 186 -26 186 -26c11 -2 17 -10 15 -22zM388 383c-23 4 -45 7 -58 7c-52 0 -71 -28 -79 -75
l-23 -130c-2 -9 -2 -17 -2 -24c0 -32 15 -51 54 -51c19 0 40 6 62 14z" />
    <glyph glyph-name="b" unicode="b" 
d="M524 363c0 -15 -1 -31 -4 -48l-23 -135c-19 -114 -85 -180 -218 -180h-200c-11 0 -18 8 -16 19l119 672c2 11 9 19 20 19h99c11 0 18 -8 16 -19l-37 -210c30 17 64 29 100 29c99 0 144 -62 144 -147zM388 339c0 32 -16 51 -55 51c-21 0 -46 -7 -72 -17l-45 -258h68
c52 0 71 33 80 80l22 120c2 9 2 17 2 24z" />
    <glyph glyph-name="c" unicode="c" horiz-adv-x="400" 
d="M454 475l-15 -81c-2 -11 -10 -15 -21 -14c0 0 -42 10 -81 10c-58 0 -79 -34 -88 -85l-20 -110c-2 -11 -3 -21 -3 -30c0 -36 17 -55 63 -55c39 0 82 6 82 6c11 1 19 -6 17 -17l-15 -80c-2 -11 -9 -19 -22 -20c0 0 -50 -9 -80 -9c-118 0 -180 55 -180 157c0 16 2 34 5 53
l20 115c23 135 92 195 222 195c50 0 100 -13 100 -13c13 -2 18 -11 16 -22z" />
    <glyph glyph-name="d" unicode="d" 
d="M587 691l-119 -672c-2 -11 -9 -19 -20 -19h-84c-11 0 -18 8 -16 19l2 9c-35 -21 -76 -38 -117 -38c-99 0 -145 58 -145 143c0 15 1 31 4 47l28 160c19 109 72 170 185 170c43 0 80 -13 110 -29l37 210c2 11 9 19 20 19h99c11 0 18 -8 16 -19zM396 375
c-24 9 -48 15 -71 15c-48 0 -66 -28 -74 -75l-23 -130c-2 -9 -2 -17 -2 -24c0 -32 15 -51 54 -51c21 0 47 7 73 17z" />
    <glyph glyph-name="e" unicode="e" horiz-adv-x="500" 
d="M518 366c0 -117 -52 -172 -222 -177l-71 -2c0 -46 19 -74 82 -74c54 0 138 21 138 21c11 2 18 -6 16 -17l-15 -85c-2 -11 -10 -16 -22 -20c0 0 -68 -22 -132 -22c-142 0 -199 78 -199 191c0 21 2 43 6 66l6 37c23 141 100 226 233 226c120 0 180 -51 180 -144zM393 351
c0 30 -21 46 -57 46c-56 0 -81 -39 -95 -109l57 2c70 2 95 22 95 61z" />
    <glyph glyph-name="f" unicode="f" horiz-adv-x="305" 
d="M437 688l-15 -83c-2 -11 -10 -15 -22 -14c0 0 -25 4 -39 4c-23 0 -42 -7 -49 -44l-9 -51h61c11 0 18 -8 16 -19l-14 -77c-2 -11 -9 -19 -20 -19h-63l-94 -534c-2 -11 -9 -22 -23 -24l-95 -13c-13 -2 -24 5 -21 19l98 552h-51c-11 0 -18 8 -16 19l14 77c2 11 9 19 20 19
h53l13 72c21 117 89 148 166 148c42 0 74 -10 74 -10c11 -1 18 -10 16 -22z" />
    <glyph glyph-name="g" unicode="g" 
d="M546 460l-80 -455c-27 -153 -75 -205 -223 -205c-91 0 -175 24 -175 24c-12 2 -17 11 -15 22l15 85c2 11 10 17 22 15c0 0 86 -21 147 -21c64 0 85 29 96 90l4 23c-30 -16 -65 -28 -100 -28c-100 0 -145 58 -145 143c0 15 1 31 4 47l23 135c19 114 84 175 217 175
c95 0 194 -30 194 -30c11 -2 18 -9 16 -20zM398 381c-27 5 -53 9 -68 9c-52 0 -71 -28 -79 -75l-19 -110c-2 -9 -2 -17 -2 -24c0 -32 15 -51 54 -51c21 0 46 7 72 17z" />
    <glyph glyph-name="h" unicode="h" 
d="M527 378c0 -17 -2 -35 -5 -53l-54 -306c-2 -11 -9 -19 -20 -19h-99c-11 0 -18 8 -16 19l53 301c1 8 2 15 2 22c0 27 -13 43 -48 43c-24 0 -54 -9 -81 -21l-61 -345c-2 -11 -9 -19 -20 -19h-99c-11 0 -18 8 -16 19l119 672c2 11 9 19 20 19h99c11 0 18 -8 16 -19l-38 -216
c32 19 71 35 116 35c96 0 132 -56 132 -132z" />
    <glyph glyph-name="i" unicode="i" horiz-adv-x="255" 
d="M317 691l-18 -97c-2 -11 -9 -19 -20 -19h-99c-11 0 -18 8 -16 19l18 97c2 11 9 19 20 19h99c11 0 18 -8 16 -19zM280 481l-82 -462c-2 -11 -9 -19 -20 -19h-99c-11 0 -18 8 -16 19l82 462c2 11 9 19 20 19h99c11 0 18 -8 16 -19z" />
    <glyph glyph-name="j" unicode="j" horiz-adv-x="255" 
d="M317 691l-18 -97c-2 -11 -9 -19 -20 -19h-99c-11 0 -18 8 -16 19l18 97c2 11 9 19 20 19h99c11 0 18 -8 16 -19zM280 481l-101 -575c-17 -94 -56 -106 -133 -106c-44 0 -80 8 -80 8c-11 1 -18 10 -16 21l13 76c2 11 9 18 19 17c0 0 20 -2 32 -2c23 0 34 12 39 38l92 523
c2 11 9 19 20 19h99c11 0 18 -8 16 -19z" />
    <glyph glyph-name="k" unicode="k" horiz-adv-x="465" 
d="M530 481l-140 -209l70 -253c2 -9 -3 -19 -14 -19h-104c-11 0 -19 9 -22 19l-75 261l136 201c7 10 17 19 28 19h110c11 0 18 -9 11 -19zM317 691l-119 -672c-2 -11 -9 -19 -20 -19h-99c-11 0 -18 8 -16 19l119 672c2 11 9 19 20 19h99c11 0 18 -8 16 -19z" />
    <glyph glyph-name="l" unicode="l" horiz-adv-x="255" 
d="M317 691l-119 -672c-2 -11 -9 -19 -20 -19h-99c-11 0 -18 8 -16 19l119 672c2 11 9 19 20 19h99c11 0 18 -8 16 -19z" />
    <glyph glyph-name="m" unicode="m" horiz-adv-x="795" 
d="M797 378c0 -17 -2 -35 -5 -53l-54 -306c-2 -11 -9 -19 -20 -19h-99c-11 0 -18 8 -16 19l53 301c1 8 2 15 2 22c0 27 -13 43 -48 43c-26 0 -56 -12 -84 -27c-1 -11 -2 -22 -4 -33l-54 -306c-2 -11 -9 -19 -20 -19h-99c-11 0 -18 8 -16 19l53 301c1 8 2 15 2 22
c0 27 -13 43 -48 43c-24 0 -54 -9 -81 -21l-61 -345c-2 -11 -9 -19 -20 -19h-99c-11 0 -18 8 -16 19l82 462c2 11 9 19 20 19h89c11 0 18 -8 16 -19l-2 -13c34 22 77 42 127 42c62 0 98 -22 117 -59c34 28 88 59 153 59c96 0 132 -56 132 -132z" />
    <glyph glyph-name="n" unicode="n" 
d="M527 378c0 -17 -2 -35 -5 -53l-54 -306c-2 -11 -9 -19 -20 -19h-99c-11 0 -18 8 -16 19l53 301c1 8 2 15 2 22c0 27 -13 43 -48 43c-24 0 -54 -9 -81 -21l-61 -345c-2 -11 -9 -19 -20 -19h-99c-11 0 -18 8 -16 19l82 462c2 11 9 19 20 19h89c11 0 18 -8 16 -19l-2 -13
c34 22 77 42 127 42c96 0 132 -56 132 -132z" />
    <glyph glyph-name="o" unicode="o" horiz-adv-x="526" 
d="M524 350c0 -16 -2 -32 -5 -50l-21 -120c-24 -135 -99 -190 -227 -190c-114 0 -180 57 -180 160c0 16 2 32 5 50l21 120c24 135 98 190 226 190c114 0 181 -57 181 -160zM388 336c0 34 -16 57 -61 57c-51 0 -69 -35 -77 -80l-22 -125c-1 -8 -2 -16 -2 -23
c0 -34 16 -57 61 -57c51 0 69 35 77 80l22 125c1 8 2 16 2 23z" />
    <glyph glyph-name="p" unicode="p" 
d="M524 363c0 -15 -1 -31 -4 -48l-23 -135c-19 -114 -85 -180 -218 -180c-23 0 -53 4 -83 8l-32 -179c-2 -11 -9 -19 -20 -19h-99c-11 0 -18 8 -16 19l116 652c2 11 9 19 20 19h88c11 0 18 -8 16 -19l-1 -7c33 20 71 36 112 36c99 0 144 -62 144 -147zM388 339
c0 32 -16 51 -55 51c-21 0 -47 -7 -73 -17l-45 -258h69c52 0 71 33 80 80l22 120c2 9 2 17 2 24z" />
    <glyph glyph-name="q" unicode="q" 
d="M546 459l-111 -630c-2 -11 -10 -19 -21 -19h-98c-11 0 -18 8 -16 19l33 189c-30 -16 -65 -28 -100 -28c-99 0 -145 59 -145 143c0 15 1 31 4 47l27 155c20 114 84 175 217 175c96 0 194 -30 194 -30c13 -2 18 -10 16 -21zM397 381c-27 5 -52 9 -67 9
c-52 0 -71 -28 -79 -75l-23 -130c-2 -9 -2 -17 -2 -24c0 -32 15 -51 54 -51c21 0 46 7 72 17z" />
    <glyph glyph-name="r" unicode="r" horiz-adv-x="330" 
d="M400 482l-20 -112c-2 -11 -10 -16 -21 -15c0 0 -4 1 -12 1c-40 0 -73 -23 -98 -50l-51 -287c-2 -11 -9 -19 -20 -19h-99c-11 0 -18 8 -16 19l82 462c2 11 9 19 20 19h82c11 0 18 -8 16 -19l-9 -47c17 43 45 76 103 76c16 0 30 -4 30 -4c12 -3 15 -13 13 -24z" />
    <glyph glyph-name="s" unicode="s" horiz-adv-x="485" 
d="M497 468l-14 -80c-2 -11 -10 -18 -23 -16c0 0 -83 18 -141 18c-29 0 -71 0 -71 -36c0 -22 19 -28 51 -35l32 -7c62 -14 136 -37 136 -134c0 -140 -79 -188 -217 -188c-93 0 -184 28 -184 28c-12 4 -16 11 -14 22l14 81c2 11 11 18 22 15c0 0 104 -26 161 -26
c29 0 77 2 77 38c0 25 -22 32 -52 38l-33 7c-62 13 -134 37 -134 134c0 131 92 183 221 183c79 0 154 -21 154 -21c12 -3 17 -10 15 -21z" />
    <glyph glyph-name="t" unicode="t" horiz-adv-x="355" 
d="M430 481l-14 -77c-2 -11 -9 -19 -20 -19h-113l-38 -213c-1 -7 -2 -13 -2 -18c0 -28 16 -39 43 -39c25 0 59 5 59 5c15 1 20 -7 18 -18l-15 -85c-2 -11 -11 -19 -23 -20c0 0 -49 -7 -89 -7c-84 0 -132 42 -132 126c0 15 2 32 5 49l39 220h-51c-11 0 -18 8 -16 19l14 77
c2 11 9 19 20 19h53l20 111c2 11 9 19 20 19h99c11 0 18 -8 16 -19l-20 -111h111c11 0 18 -8 16 -19z" />
    <glyph glyph-name="u" unicode="u" 
d="M550 481l-82 -462c-2 -11 -9 -19 -20 -19h-84c-11 0 -18 8 -16 19l3 17c-34 -24 -80 -46 -133 -46c-96 0 -132 56 -132 132c0 17 2 35 5 53l54 306c2 11 9 19 20 19h99c11 0 18 -8 16 -19l-53 -301c-1 -8 -2 -15 -2 -22c0 -27 13 -43 48 -43c24 0 54 9 81 21l61 345
c2 11 9 19 20 19h99c11 0 18 -8 16 -19z" />
    <glyph glyph-name="v" unicode="v" horiz-adv-x="500" 
d="M569 480l-217 -461c-5 -11 -14 -19 -25 -19h-147c-11 0 -19 8 -20 19l-59 461c-1 11 6 20 17 20h103c11 0 18 -7 19 -18l36 -320l144 320c5 11 14 18 25 18h111c11 0 18 -9 13 -20z" />
    <glyph glyph-name="w" unicode="w" horiz-adv-x="775" 
d="M835 480l-180 -461c-4 -11 -13 -19 -26 -19h-142c-12 0 -18 8 -19 19l-29 259l-116 -259c-5 -11 -13 -19 -26 -19h-146c-12 0 -18 8 -19 19l-23 461c-1 11 8 20 19 20h103c11 0 17 -8 17 -19l8 -319l132 319c4 11 14 19 26 19h109c12 0 19 -8 20 -19l28 -319l115 320
c4 11 14 18 25 18h110c11 0 19 -8 14 -20z" />
    <glyph glyph-name="x" unicode="x" horiz-adv-x="480" 
d="M543 480l-174 -224l102 -236c4 -9 -2 -20 -13 -20h-119c-11 0 -16 8 -20 18l-50 123l-93 -123c-7 -10 -15 -18 -26 -18h-125c-11 0 -15 12 -8 22l185 243l-95 215c-4 9 2 20 13 20h118c11 0 16 -8 20 -18l44 -107l80 107c7 10 15 18 26 18h124c11 0 18 -11 11 -20z" />
    <glyph glyph-name="y" unicode="y" horiz-adv-x="500" 
d="M568 480l-324 -652c-5 -11 -14 -18 -25 -18h-110c-11 0 -18 9 -13 20l76 153l-71 498c-2 11 6 19 17 19h104c11 0 18 -6 19 -17l36 -296l143 295c5 11 14 18 25 18h110c11 0 18 -9 13 -20z" />
    <glyph glyph-name="z" unicode="z" horiz-adv-x="465" 
d="M510 481l-18 -101l-225 -260h160c11 0 18 -8 16 -19l-15 -82c-2 -11 -9 -19 -20 -19h-349c-11 0 -18 8 -16 19l18 101l225 260h-160c-11 0 -18 8 -16 19l15 82c2 11 9 19 20 19h349c11 0 18 -8 16 -19z" />
    <glyph glyph-name="braceleft" unicode="{" horiz-adv-x="355" 
d="M490 821l-13 -72c-2 -11 -9 -19 -20 -19h-33c-56 0 -75 -30 -84 -80l-36 -200c-10 -58 -31 -90 -76 -105c30 -12 41 -37 41 -72c0 -13 -1 -27 -4 -43l-29 -170c-2 -12 -3 -23 -3 -33c0 -30 13 -47 55 -47h34c11 0 18 -8 16 -19l-13 -72c-2 -11 -9 -19 -20 -19h-23
c-124 0 -184 49 -184 147c0 16 2 34 5 53l26 150c2 12 3 22 3 32c0 29 -13 48 -47 48h-5c-11 0 -16 8 -14 19l13 72c2 11 7 19 18 19h7c47 0 63 30 72 80l31 170c24 134 84 180 226 180h41c11 0 18 -8 16 -19z" />
    <glyph glyph-name="bar" unicode="|" horiz-adv-x="255" 
d="M335 791l-155 -872c-2 -11 -9 -19 -20 -19h-99c-11 0 -18 8 -16 19l155 872c2 11 9 19 20 19h99c11 0 18 -8 16 -19z" />
    <glyph glyph-name="braceright" unicode="}" horiz-adv-x="355" 
d="M414 391l-13 -72c-2 -11 -7 -19 -18 -19h-7c-47 0 -63 -30 -72 -80l-31 -170c-24 -134 -84 -180 -226 -180h-41c-11 0 -18 8 -16 19l13 72c2 11 9 19 20 19h33c56 0 75 30 84 80l36 200c10 58 31 90 76 105c-30 12 -41 37 -41 72c0 13 1 27 4 43l29 170c2 12 3 23 3 33
c0 30 -13 47 -55 47h-34c-11 0 -18 8 -16 19l13 72c2 11 9 19 20 19h23c124 0 184 -49 184 -147c0 -16 -2 -34 -5 -53l-26 -150c-2 -12 -3 -22 -3 -32c0 -29 13 -48 47 -48h5c11 0 16 -8 14 -19z" />
    <glyph glyph-name="asciitilde" unicode="~" 
d="M546 399l-14 -79c-2 -11 -10 -20 -22 -25c0 0 -35 -20 -86 -20c-77 0 -144 30 -212 30c-34 0 -93 -19 -93 -19c-11 -2 -18 4 -16 15l14 79c2 11 10 20 22 25c0 0 35 20 86 20c77 0 146 -30 212 -30c34 0 93 19 93 19c11 2 18 -4 16 -15z" />
    <glyph glyph-name="uni00A0" unicode="&#xa0;" horiz-adv-x="280" 
 />
    <glyph glyph-name="exclamdown" unicode="&#xa1;" horiz-adv-x="255" 
d="M288 501l-19 -107c-2 -11 -10 -19 -21 -19h-109c-11 0 -17 8 -15 19l19 107c2 11 9 19 20 19h109c11 0 18 -8 16 -19zM241 266l-77 -437c-2 -11 -9 -19 -20 -19h-99c-11 0 -18 8 -16 19l77 437c2 11 10 19 21 19h99c11 0 17 -8 15 -19z" />
    <glyph glyph-name="cent" unicode="&#xa2;" horiz-adv-x="500" 
d="M498 471l-14 -79c-2 -11 -10 -18 -22 -16c0 0 -51 14 -90 14c-58 0 -88 -30 -99 -90l-18 -100c-2 -10 -3 -19 -3 -27c0 -40 21 -63 72 -63c39 0 90 6 90 6c11 1 21 -6 19 -17l-15 -80c-2 -11 -9 -18 -22 -20c0 0 -14 -2 -47 -6l-16 -94c-2 -11 -9 -19 -20 -19h-99
c-11 0 -18 8 -16 19l18 104c-65 22 -99 70 -99 147c0 17 2 35 5 55l18 105c20 118 74 176 163 194l18 97c2 11 9 19 20 19h99c11 0 18 -8 16 -19l-18 -98c34 -6 44 -10 44 -10c14 -3 18 -11 16 -22z" />
    <glyph glyph-name="sterling" unicode="&#xa3;" horiz-adv-x="500" 
d="M589 672l-16 -86c-2 -11 -10 -16 -21 -14c0 0 -71 23 -132 23c-83 0 -99 -56 -109 -109l-12 -66h197c11 0 16 -8 13 -19l-21 -77c-3 -11 -11 -19 -22 -19h-187l-32 -180h226c11 0 18 -8 16 -19l-16 -87c-2 -11 -11 -19 -22 -19h-342c-11 0 -18 8 -16 19l51 286h-67
c-11 0 -16 8 -13 19l21 77c3 11 11 19 22 19h57l14 77c26 142 96 223 255 223c78 0 140 -26 140 -26c11 -2 18 -11 16 -22z" />
    <glyph glyph-name="currency" unicode="&#xa4;" horiz-adv-x="500" 
d="M543 177l-58 -57c-8 -8 -19 -8 -27 0l-55 55c-26 -10 -56 -16 -90 -16s-65 6 -91 16l-55 -55c-8 -8 -19 -8 -27 0l-58 57c-8 8 -8 19 0 27l50 50c-14 27 -22 60 -22 96s7 69 22 96l-50 50c-8 8 -8 19 0 27l58 57c8 8 19 8 27 0l55 -55c26 10 57 16 91 16s64 -6 90 -16
l55 55c8 8 19 8 27 0l58 -57c8 -8 8 -19 0 -27l-50 -50c15 -27 23 -60 23 -96s-8 -69 -23 -96l50 -50c8 -8 8 -19 0 -27zM381 350c0 45 -19 76 -68 76s-68 -31 -68 -76s19 -76 68 -76s68 31 68 76z" />
    <glyph glyph-name="yen" unicode="&#xa5;" horiz-adv-x="500" 
d="M603 689l-123 -254h57c11 0 17 -8 15 -19l-13 -77c-2 -11 -10 -19 -21 -19h-95l-29 -60h112c11 0 17 -8 15 -19l-13 -77c-2 -11 -9 -19 -20 -19h-144l-23 -126c-2 -11 -9 -19 -20 -19h-99c-11 0 -18 8 -16 19l23 126h-143c-11 0 -18 8 -16 19l13 77c2 11 10 19 21 19h115
l-9 60h-94c-11 0 -17 8 -15 19l13 77c2 11 10 19 21 19h60l-36 254c-2 11 3 21 15 21h115c11 0 15 -8 16 -19l31 -306l137 306c5 11 11 19 22 19h116c12 0 17 -10 12 -21z" />
    <glyph glyph-name="brokenbar" unicode="&#xa6;" horiz-adv-x="255" 
d="M335 791l-66 -372c-2 -11 -9 -19 -20 -19h-99c-11 0 -18 8 -16 19l66 372c2 11 9 19 20 19h99c11 0 18 -8 16 -19zM247 291l-66 -372c-2 -11 -9 -19 -20 -19h-99c-11 0 -18 8 -16 19l66 372c2 11 9 19 20 19h99c11 0 18 -8 16 -19z" />
    <glyph glyph-name="section" unicode="&#xa7;" horiz-adv-x="505" 
d="M545 680l-15 -82c-2 -11 -10 -19 -22 -16c0 0 -82 18 -142 18c-51 0 -68 -13 -72 -38c-2 -15 -2 -17 -2 -18c0 -20 24 -30 57 -42l46 -17c62 -23 110 -58 110 -127c0 -11 -1 -22 -3 -34l-7 -36c-12 -61 -43 -80 -82 -100c29 -23 46 -49 46 -91c0 -12 -1 -25 -4 -40
l-3 -15c-22 -108 -86 -152 -214 -152c-91 0 -177 29 -177 29c-13 2 -19 9 -17 20l15 82c2 11 10 18 22 16c0 0 102 -27 161 -27c57 0 73 14 77 39c2 16 2 17 2 19c0 24 -25 38 -58 50l-44 16c-57 21 -110 53 -110 124c0 10 1 21 3 33l5 25c12 59 44 87 95 104
c-32 20 -57 50 -57 101c0 11 1 24 4 37l3 15c21 105 94 147 208 147c76 0 159 -21 159 -21c12 -3 18 -8 16 -19zM366 322c0 23 -14 36 -45 47l-20 7c-26 -9 -43 -25 -48 -48l-4 -20c-1 -5 -1 -9 -1 -13c0 -22 14 -35 40 -44l32 -11c17 6 35 18 40 43l5 27c1 4 1 8 1 12z" />
    <glyph glyph-name="dieresis" unicode="&#xa8;" horiz-adv-x="455" 
d="M527 691l-17 -97c-2 -11 -12 -19 -23 -19h-97c-11 0 -17 8 -15 19l17 97c2 11 11 19 22 19h97c11 0 18 -8 16 -19zM307 691l-17 -97c-2 -11 -12 -19 -23 -19h-97c-11 0 -17 8 -15 19l17 97c2 11 11 19 22 19h97c11 0 18 -8 16 -19z" />
    <glyph glyph-name="copyright" unicode="&#xa9;" horiz-adv-x="800" 
d="M814 453c0 -23 -2 -47 -7 -73l-14 -80c-39 -221 -179 -310 -375 -310s-306 92 -306 266c0 23 2 48 7 74l14 80c39 221 178 310 374 310c190 0 307 -93 307 -267zM668 440c0 92 -53 150 -174 150c-137 0 -197 -76 -220 -200l-12 -65c-4 -19 -5 -38 -5 -55
c0 -92 52 -150 174 -150c137 0 197 76 220 200l12 65c4 19 5 38 5 55zM609 512l-10 -56c-2 -11 -8 -17 -22 -15c0 0 -38 9 -74 9c-51 0 -75 -28 -84 -85l-3 -20c-1 -10 -2 -19 -2 -27c0 -41 21 -58 61 -58c39 0 71 6 71 6c13 1 20 -5 18 -16l-10 -58c-2 -11 -8 -16 -22 -19
c0 0 -33 -8 -74 -8c-102 0 -149 58 -149 146c0 14 1 29 3 44l3 20c17 112 86 170 190 170c43 0 89 -12 89 -12c12 -3 17 -10 15 -21z" />
    <glyph glyph-name="ordfeminine" unicode="&#xaa;" horiz-adv-x="515" 
d="M574 672l-78 -443c-2 -11 -9 -19 -20 -19h-85c-11 0 -19 8 -16 19l1 4c-31 -19 -67 -33 -106 -33c-99 0 -145 59 -145 143c0 15 1 31 4 47l27 155c20 114 84 175 217 175c92 0 186 -26 186 -26c11 -2 17 -10 15 -22zM473 101l-15 -82c-2 -11 -11 -19 -22 -19h-347
c-11 0 -18 8 -16 19l15 82c2 11 11 19 22 19h347c11 0 18 -8 16 -19zM425 593c-23 4 -45 7 -58 7c-52 0 -71 -28 -79 -75l-23 -130c-2 -9 -2 -17 -2 -24c0 -32 15 -51 54 -51c19 0 40 6 62 14z" />
    <glyph glyph-name="guillemotleft" unicode="&#xab;" horiz-adv-x="560" 
d="M577 488l-112 -163l63 -156c4 -10 -4 -19 -15 -19h-103c-11 0 -16 9 -20 19l-58 139c-8 19 -6 26 8 46l94 137c7 10 16 19 27 19h105c11 0 18 -12 11 -22zM362 488l-112 -163l63 -156c4 -10 -4 -19 -15 -19h-103c-11 0 -16 9 -20 19l-58 139c-8 19 -6 26 8 46l94 137
c7 10 16 19 27 19h105c11 0 18 -12 11 -22z" />
    <glyph glyph-name="logicalnot" unicode="&#xac;" 
d="M544 391l-43 -242c-2 -11 -9 -19 -20 -19h-89c-11 0 -18 8 -16 19l25 141h-281c-11 0 -18 8 -16 19l15 82c2 11 9 19 20 19h389c11 0 18 -8 16 -19z" />
    <glyph glyph-name="uni00AD" unicode="&#xad;" horiz-adv-x="350" 
d="M369 391l-15 -82c-2 -11 -9 -19 -20 -19h-214c-11 0 -18 8 -16 19l15 82c2 11 9 19 20 19h214c11 0 18 -8 16 -19z" />
    <glyph glyph-name="registered" unicode="&#xae;" horiz-adv-x="800" 
d="M814 453c0 -23 -2 -47 -7 -73l-14 -80c-39 -221 -179 -310 -375 -310s-306 92 -306 266c0 23 2 48 7 74l14 80c39 221 178 310 374 310c190 0 307 -93 307 -267zM668 440c0 92 -53 150 -174 150c-137 0 -197 -76 -220 -200l-12 -65c-4 -19 -5 -38 -5 -55
c0 -92 52 -150 174 -150c137 0 197 76 220 200l12 65c4 19 5 38 5 55zM627 433c0 -72 -45 -116 -109 -126l50 -113c4 -9 -3 -19 -14 -19h-59c-11 0 -18 9 -22 18l-47 112h-7l-20 -111c-2 -11 -8 -19 -19 -19h-50c-11 0 -18 8 -16 19l57 322c2 11 9 19 20 19h110
c66 0 126 -25 126 -102zM540 424c0 30 -23 36 -52 36h-42l-14 -80h42c35 0 66 7 66 44z" />
    <glyph glyph-name="macron" unicode="&#xaf;" horiz-adv-x="355" 
d="M427 691l-14 -77c-2 -11 -11 -19 -22 -19h-217c-11 0 -18 8 -16 19l14 77c2 11 11 19 22 19h217c11 0 18 -8 16 -19z" />
    <glyph glyph-name="degree" unicode="&#xb0;" horiz-adv-x="526" 
d="M559 553c0 -13 -1 -25 -3 -39l-5 -29c-20 -114 -102 -186 -227 -186c-111 0 -178 65 -178 166c0 13 1 26 3 40l5 29c21 119 103 186 226 186c111 0 179 -66 179 -167zM425 544c0 35 -18 61 -60 61c-49 0 -69 -31 -77 -76l-6 -34c-1 -7 -2 -14 -2 -20c0 -35 18 -61 60 -61
c49 0 69 31 77 76l6 34c1 7 2 14 2 20z" />
    <glyph glyph-name="plusminus" unicode="&#xb1;" 
d="M546 401l-15 -82c-2 -11 -9 -19 -20 -19h-133l-23 -131c-2 -11 -9 -19 -20 -19h-89c-11 0 -18 8 -16 19l23 131h-131c-11 0 -18 8 -16 19l15 82c2 11 9 19 20 19h133l23 131c2 11 10 19 21 19h89c11 0 17 -8 15 -19l-23 -131h131c11 0 18 -8 16 -19zM493 101l-15 -82
c-2 -11 -9 -19 -20 -19h-389c-11 0 -18 8 -16 19l15 82c2 11 9 19 20 19h389c11 0 18 -8 16 -19z" />
    <glyph glyph-name="twosuperior" unicode="&#xb2;" horiz-adv-x="340" 
d="M423 615c0 -9 -1 -19 -3 -30l-4 -23c-23 -130 -184 -114 -197 -166l-1 -4h149c11 0 18 -8 16 -19l-13 -70c-2 -11 -8 -19 -19 -19h-258c-11 0 -18 8 -16 19l18 96c28 148 191 130 198 173c2 13 2 15 2 16c0 12 -10 24 -37 24c-41 0 -109 -10 -109 -10
c-10 -1 -18 5 -16 16l12 69c2 11 10 20 22 21c0 0 48 12 111 12c91 0 145 -33 145 -105z" />
    <glyph glyph-name="threesuperior" unicode="&#xb3;" horiz-adv-x="340" 
d="M410 621c0 -8 0 -16 -2 -25l-5 -28c-6 -36 -30 -56 -51 -68c21 -12 37 -36 37 -69c0 -6 -1 -12 -2 -19l-5 -28c-17 -97 -95 -110 -181 -110c-52 0 -115 18 -115 18c-12 2 -18 8 -16 19l12 69c2 11 11 16 22 15c0 0 65 -13 109 -13c31 0 44 5 49 27l2 9c0 2 1 3 1 5
c0 14 -13 26 -42 26h-73c-11 0 -18 8 -16 19l13 70c2 11 9 19 20 19h67c33 0 42 4 45 19l2 10c0 2 1 4 1 6c0 13 -12 20 -34 20c-38 0 -107 -10 -107 -10c-11 -1 -18 5 -16 16l12 71c2 11 11 18 23 19c0 0 53 12 107 12c77 0 143 -26 143 -99z" />
    <glyph glyph-name="acute" unicode="&#xb4;" horiz-adv-x="317" 
d="M371 591c4 -10 -2 -21 -14 -21h-94c-11 0 -18 11 -24 19l-76 110c-6 8 2 21 14 21h123c11 0 20 -9 24 -19z" />
    <glyph glyph-name="uni00B5" unicode="&#xb5;" 
d="M550 481l-82 -462c-2 -11 -9 -19 -20 -19h-84c-11 0 -18 8 -16 19l3 17c-34 -24 -80 -46 -133 -46c-9 0 -17 0 -25 1l-29 -162c-2 -11 -9 -19 -20 -19h-99c-11 0 -18 8 -16 19l116 652c2 11 9 19 20 19h99c11 0 18 -8 16 -19l-53 -301c-1 -8 -2 -15 -2 -22
c0 -27 13 -43 48 -43c24 0 54 9 81 21l61 345c2 11 9 19 20 19h99c11 0 18 -8 16 -19z" />
    <glyph glyph-name="paragraph" unicode="&#xb6;" horiz-adv-x="685" 
d="M747 691l-119 -672c-2 -11 -9 -19 -20 -19h-99c-11 0 -18 8 -16 19l119 672c2 11 9 19 20 19h99c11 0 18 -8 16 -19zM562 691l-119 -672c-2 -11 -9 -19 -20 -19h-99c-11 0 -18 8 -16 19l46 261h-15c-126 0 -207 53 -207 179c0 174 111 251 273 251h141c11 0 18 -8 16 -19
zM409 590h-25c-67 0 -114 -35 -114 -111c0 -50 27 -79 86 -79h20z" />
    <glyph glyph-name="periodcentered" unicode="&#xb7;" horiz-adv-x="235" 
d="M257 406l-18 -97c-2 -11 -9 -19 -20 -19h-99c-11 0 -18 8 -16 19l18 97c2 11 10 19 21 19h99c11 0 17 -8 15 -19z" />
    <glyph glyph-name="cedilla" unicode="&#xb8;" horiz-adv-x="315" 
d="M237 -95c0 -77 -40 -105 -115 -105c-31 0 -77 7 -77 7c-10 2 -18 8 -16 19l5 27c2 11 7 17 18 17h23c22 0 43 3 43 29c0 14 -12 21 -31 21h-16c-11 0 -15 7 -11 18l40 102h90l-27 -68h4c40 0 70 -20 70 -67z" />
    <glyph glyph-name="onesuperior" unicode="&#xb9;" horiz-adv-x="340" 
d="M373 691l-69 -388c-2 -11 -9 -19 -20 -19h-89c-11 0 -18 8 -16 19l51 286l-80 -16c-11 -2 -18 6 -16 17l12 67c2 11 11 20 22 23l103 30h86c11 0 18 -8 16 -19z" />
    <glyph glyph-name="ordmasculine" unicode="&#xba;" horiz-adv-x="526" 
d="M561 560c0 -16 -2 -32 -5 -50l-21 -120c-24 -135 -99 -190 -227 -190c-114 0 -180 57 -180 160c0 16 2 32 5 50l21 120c24 135 98 190 226 190c114 0 181 -57 181 -160zM474 101l-15 -82c-2 -11 -11 -19 -22 -19h-348c-11 0 -18 8 -16 19l15 82c2 11 11 19 22 19h348
c11 0 18 -8 16 -19zM425 546c0 34 -16 57 -61 57c-51 0 -69 -35 -77 -80l-22 -125c-1 -8 -2 -16 -2 -23c0 -34 16 -57 61 -57c51 0 69 35 77 80l22 125c1 8 2 16 2 23z" />
    <glyph glyph-name="guillemotright" unicode="&#xbb;" horiz-adv-x="560" 
d="M559 352c8 -19 6 -26 -8 -46l-94 -137c-7 -10 -16 -19 -27 -19h-105c-11 0 -18 12 -11 22l112 163l-63 156c-4 10 4 19 15 19h103c11 0 16 -9 20 -19zM344 352c8 -19 6 -26 -8 -46l-94 -137c-7 -10 -16 -19 -27 -19h-105c-11 0 -18 12 -11 22l112 163l-63 156
c-4 10 4 19 15 19h103c11 0 16 -9 20 -19z" />
    <glyph glyph-name="onequarter" unicode="&#xbc;" horiz-adv-x="895" 
d="M916 293l-23 -128h2c11 0 18 -8 16 -19l-13 -70c-2 -11 -8 -19 -19 -19h-5l-7 -38c-2 -11 -8 -19 -19 -19h-90c-11 0 -18 8 -16 19l7 38h-155c-11 0 -18 8 -16 19l15 80c46 60 62 112 76 190l11 61c2 11 9 19 20 19h94c11 0 18 -8 16 -19l-11 -61
c-12 -64 -18 -123 -64 -181h29c23 34 33 81 41 119l2 9c2 11 8 19 19 19h74c11 0 18 -8 16 -19zM807 689l-435 -670c-6 -10 -17 -19 -28 -19h-120c-11 0 -17 11 -11 21l435 670c6 10 17 19 28 19h119c11 0 18 -11 12 -21zM373 691l-69 -388c-2 -11 -9 -19 -20 -19h-89
c-11 0 -18 8 -16 19l51 286l-80 -16c-11 -2 -18 6 -16 17l12 67c2 11 11 20 22 23l103 30h86c11 0 18 -8 16 -19z" />
    <glyph glyph-name="onehalf" unicode="&#xbd;" horiz-adv-x="895" 
d="M928 331c0 -9 -1 -19 -3 -30l-4 -23c-23 -130 -184 -114 -197 -166l-1 -4h149c11 0 18 -8 16 -19l-13 -70c-2 -11 -8 -19 -19 -19h-258c-11 0 -18 8 -16 19l18 96c28 148 191 130 198 173c2 13 2 15 2 16c0 12 -10 24 -37 24c-41 0 -109 -10 -109 -10
c-10 -1 -18 5 -16 16l12 69c2 11 10 20 22 21c0 0 48 12 111 12c91 0 145 -33 145 -105zM807 689l-435 -670c-6 -10 -17 -19 -28 -19h-120c-11 0 -17 11 -11 21l435 670c6 10 17 19 28 19h119c11 0 18 -11 12 -21zM373 691l-69 -388c-2 -11 -9 -19 -20 -19h-89
c-11 0 -18 8 -16 19l51 286l-80 -16c-11 -2 -18 6 -16 17l12 67c2 11 11 20 22 23l103 30h86c11 0 18 -8 16 -19z" />
    <glyph glyph-name="threequarters" unicode="&#xbe;" horiz-adv-x="895" 
d="M916 293l-23 -128h2c11 0 18 -8 16 -19l-13 -70c-2 -11 -8 -19 -19 -19h-5l-7 -38c-2 -11 -8 -19 -19 -19h-90c-11 0 -18 8 -16 19l7 38h-155c-11 0 -18 8 -16 19l15 80c46 60 62 112 76 190l11 61c2 11 9 19 20 19h94c11 0 18 -8 16 -19l-11 -61
c-12 -64 -18 -123 -64 -181h29c23 34 33 81 41 119l2 9c2 11 8 19 19 19h74c11 0 18 -8 16 -19zM807 689l-435 -670c-6 -10 -17 -19 -28 -19h-120c-11 0 -17 11 -11 21l435 670c6 10 17 19 28 19h119c11 0 18 -11 12 -21zM410 621c0 -8 0 -16 -2 -25l-5 -28
c-6 -36 -30 -56 -51 -68c21 -12 37 -36 37 -69c0 -6 -1 -12 -2 -19l-5 -28c-17 -97 -95 -110 -181 -110c-52 0 -115 18 -115 18c-12 2 -18 8 -16 19l12 69c2 11 11 16 22 15c0 0 65 -13 109 -13c31 0 44 5 49 27l2 9c0 2 1 3 1 5c0 14 -13 26 -42 26h-73c-11 0 -18 8 -16 19
l13 70c2 11 9 19 20 19h67c33 0 42 4 45 19l2 10c0 2 1 4 1 6c0 13 -12 20 -34 20c-38 0 -107 -10 -107 -10c-11 -1 -18 5 -16 16l12 71c2 11 11 18 23 19c0 0 53 12 107 12c77 0 143 -26 143 -99z" />
    <glyph glyph-name="questiondown" unicode="&#xbf;" horiz-adv-x="455" 
d="M419 501l-19 -107c-2 -11 -12 -19 -23 -19h-107c-11 0 -17 8 -15 19l19 107c2 11 11 19 22 19h107c11 0 18 -8 16 -19zM401 -76l-15 -86c-2 -11 -11 -18 -22 -19c0 0 -71 -19 -146 -19c-105 0 -174 45 -174 142c0 10 1 20 2 31l2 15c9 71 43 105 79 131l25 18
c36 26 71 49 81 106l4 23c2 11 11 19 22 19h97c11 0 18 -8 16 -19l-8 -43c-20 -106 -66 -143 -111 -171l-24 -15c-22 -14 -41 -26 -46 -51l-1 -5c-1 -4 -1 -8 -1 -12c0 -26 19 -44 65 -44c55 0 138 16 138 16c11 1 19 -6 17 -17z" />
    <glyph glyph-name="Agrave" unicode="&#xc0;" horiz-adv-x="605" 
d="M497 781c4 -10 -2 -21 -14 -21h-94c-11 0 -18 11 -24 19l-76 110c-6 8 2 21 14 21h123c11 0 20 -9 24 -19zM592 20c1 -11 -7 -20 -18 -20h-103c-11 0 -17 8 -18 19l-11 101h-227l-46 -101c-5 -11 -12 -19 -23 -19h-115c-11 0 -16 9 -11 20l313 671c5 11 15 19 26 19h130
c11 0 19 -8 20 -19zM431 245l-31 288l-131 -288h162z" />
    <glyph glyph-name="Aacute" unicode="&#xc1;" horiz-adv-x="605" 
d="M611 889l-97 -110c-8 -9 -19 -19 -30 -19h-101c-12 0 -14 11 -8 21l68 110c6 10 19 19 30 19h130c12 0 16 -12 8 -21zM592 20c1 -11 -7 -20 -18 -20h-103c-11 0 -17 8 -18 19l-11 101h-227l-46 -101c-5 -11 -12 -19 -23 -19h-115c-11 0 -16 9 -11 20l313 671
c5 11 15 19 26 19h130c11 0 19 -8 20 -19zM431 245l-31 288l-131 -288h162z" />
    <glyph glyph-name="Acircumflex" unicode="&#xc2;" horiz-adv-x="605" 
d="M606 843l-13 -76c-2 -11 -13 -16 -22 -12l-122 58l-150 -58c-11 -4 -18 3 -16 14l16 90c2 11 11 15 22 20l116 50c20 9 32 11 51 0l103 -61c9 -5 17 -14 15 -25zM592 20c1 -11 -7 -20 -18 -20h-103c-11 0 -17 8 -18 19l-11 101h-227l-46 -101c-5 -11 -12 -19 -23 -19
h-115c-11 0 -16 9 -11 20l313 671c5 11 15 19 26 19h130c11 0 19 -8 20 -19zM431 245l-31 288l-131 -288h162z" />
    <glyph glyph-name="Atilde" unicode="&#xc3;" horiz-adv-x="605" 
d="M614 885l-13 -74c-2 -13 -12 -24 -24 -32c0 0 -27 -19 -66 -19c-51 0 -100 36 -139 36c-28 0 -68 -24 -68 -24c-11 -4 -20 0 -18 11l13 75c2 13 13 23 25 32c0 0 26 19 65 19c61 0 105 -36 139 -36c28 0 67 24 67 24c11 4 21 -1 19 -12zM592 20c1 -11 -7 -20 -18 -20
h-103c-11 0 -17 8 -18 19l-11 101h-227l-46 -101c-5 -11 -12 -19 -23 -19h-115c-11 0 -16 9 -11 20l313 671c5 11 15 19 26 19h130c11 0 19 -8 20 -19zM431 245l-31 288l-131 -288h162z" />
    <glyph glyph-name="Adieresis" unicode="&#xc4;" horiz-adv-x="605" 
d="M633 866l-17 -97c-2 -11 -12 -19 -23 -19h-97c-11 0 -17 8 -15 19l17 97c2 11 11 19 22 19h97c11 0 18 -8 16 -19zM413 866l-17 -97c-2 -11 -12 -19 -23 -19h-97c-11 0 -17 8 -15 19l17 97c2 11 11 19 22 19h97c11 0 18 -8 16 -19zM592 20c1 -11 -7 -20 -18 -20h-103
c-11 0 -17 8 -18 19l-11 101h-227l-46 -101c-5 -11 -12 -19 -23 -19h-115c-11 0 -16 9 -11 20l313 671c5 11 15 19 26 19h130c11 0 19 -8 20 -19zM431 245l-31 288l-131 -288h162z" />
    <glyph glyph-name="Aring" unicode="&#xc5;" horiz-adv-x="605" 
d="M592 20c1 -11 -7 -20 -18 -20h-103c-11 0 -17 8 -18 19l-11 101h-227l-46 -101c-5 -11 -12 -19 -23 -19h-115c-11 0 -16 9 -11 20l300 644c-12 16 -19 35 -19 59c0 84 62 122 139 122c68 0 115 -33 115 -98c0 -43 -15 -73 -41 -93zM469 745c0 19 -10 35 -36 35
c-32 0 -46 -25 -46 -55c0 -19 10 -35 36 -35c31 0 46 25 46 55zM431 245l-31 288l-131 -288h162z" />
    <glyph glyph-name="AE" unicode="&#xc6;" horiz-adv-x="790" 
d="M872 691l-15 -87c-2 -11 -10 -19 -21 -19h-203l-28 -160h181c11 0 18 -8 16 -19l-16 -87c-2 -11 -9 -19 -20 -19h-183l-31 -175h201c11 0 18 -8 16 -19l-16 -87c-2 -11 -9 -19 -20 -19h-319c-11 0 -18 8 -16 19l21 116h-174l-64 -116c-6 -10 -12 -19 -23 -19h-124
c-11 0 -18 10 -12 20l372 671c6 10 12 19 23 19h439c11 0 18 -8 16 -19zM498 585h-12l-175 -325h130z" />
    <glyph glyph-name="Ccedilla" unicode="&#xc7;" horiz-adv-x="475" 
d="M554 679l-15 -89c-2 -11 -11 -15 -23 -13c0 0 -60 15 -109 15c-85 0 -119 -59 -133 -142l-33 -190c-3 -18 -5 -35 -5 -51c0 -55 23 -91 93 -91c47 0 109 9 109 9c12 1 19 -5 17 -16l-16 -90c-2 -11 -11 -19 -23 -20c0 0 -54 -11 -108 -11h-15l-7 -18h4
c40 0 70 -20 70 -67c0 -77 -40 -105 -115 -105c-31 0 -77 7 -77 7c-10 2 -18 8 -16 19l5 27c2 11 7 17 18 17h23c22 0 43 3 43 29c0 14 -12 21 -31 21h-16c-11 0 -15 7 -11 18l27 69c-72 29 -110 95 -110 187c0 22 3 46 7 71l36 205c29 166 114 250 274 250
c67 0 122 -19 122 -19c12 -2 17 -11 15 -22z" />
    <glyph glyph-name="Egrave" unicode="&#xc8;" horiz-adv-x="505" 
d="M486 781c4 -10 -2 -21 -14 -21h-94c-11 0 -18 11 -24 19l-76 110c-6 8 2 21 14 21h123c11 0 20 -9 24 -19zM587 691l-15 -87c-2 -11 -10 -19 -21 -19h-253l-28 -160h231c11 0 18 -8 16 -19l-16 -87c-2 -11 -9 -19 -20 -19h-233l-31 -175h251c11 0 18 -8 16 -19l-16 -87
c-2 -11 -9 -19 -20 -19h-369c-11 0 -18 8 -16 19l119 672c2 11 9 19 20 19h369c11 0 18 -8 16 -19z" />
    <glyph glyph-name="Eacute" unicode="&#xc9;" horiz-adv-x="505" 
d="M565 889l-97 -110c-8 -9 -19 -19 -30 -19h-101c-12 0 -14 11 -8 21l68 110c6 10 19 19 30 19h130c12 0 16 -12 8 -21zM587 691l-15 -87c-2 -11 -10 -19 -21 -19h-253l-28 -160h231c11 0 18 -8 16 -19l-16 -87c-2 -11 -9 -19 -20 -19h-233l-31 -175h251c11 0 18 -8 16 -19
l-16 -87c-2 -11 -9 -19 -20 -19h-369c-11 0 -18 8 -16 19l119 672c2 11 9 19 20 19h369c11 0 18 -8 16 -19z" />
    <glyph glyph-name="Ecircumflex" unicode="&#xca;" horiz-adv-x="505" 
d="M566 843l-13 -76c-2 -11 -13 -16 -22 -12l-122 58l-150 -58c-11 -4 -18 3 -16 14l16 90c2 11 11 15 22 20l116 50c20 9 32 11 51 0l103 -61c9 -5 17 -14 15 -25zM587 691l-15 -87c-2 -11 -10 -19 -21 -19h-253l-28 -160h231c11 0 18 -8 16 -19l-16 -87
c-2 -11 -9 -19 -20 -19h-233l-31 -175h251c11 0 18 -8 16 -19l-16 -87c-2 -11 -9 -19 -20 -19h-369c-11 0 -18 8 -16 19l119 672c2 11 9 19 20 19h369c11 0 18 -8 16 -19z" />
    <glyph glyph-name="Edieresis" unicode="&#xcb;" horiz-adv-x="505" 
d="M593 866l-17 -97c-2 -11 -12 -19 -23 -19h-97c-11 0 -17 8 -15 19l17 97c2 11 11 19 22 19h97c11 0 18 -8 16 -19zM373 866l-17 -97c-2 -11 -12 -19 -23 -19h-97c-11 0 -17 8 -15 19l17 97c2 11 11 19 22 19h97c11 0 18 -8 16 -19zM587 691l-15 -87
c-2 -11 -10 -19 -21 -19h-253l-28 -160h231c11 0 18 -8 16 -19l-16 -87c-2 -11 -9 -19 -20 -19h-233l-31 -175h251c11 0 18 -8 16 -19l-16 -87c-2 -11 -9 -19 -20 -19h-369c-11 0 -18 8 -16 19l119 672c2 11 9 19 20 19h369c11 0 18 -8 16 -19z" />
    <glyph glyph-name="Igrave" unicode="&#xcc;" horiz-adv-x="445" 
d="M416 781c4 -10 -2 -21 -14 -21h-94c-11 0 -18 11 -24 19l-76 110c-6 8 2 21 14 21h123c11 0 20 -9 24 -19zM537 691l-9 -52c-2 -11 -10 -19 -21 -19h-108l-93 -530h106c11 0 18 -8 16 -19l-10 -52c-2 -11 -9 -19 -20 -19h-349c-11 0 -18 8 -16 19l10 52c2 11 9 19 20 19
h108l93 530h-106c-11 0 -17 8 -15 19l9 52c2 11 9 19 20 19h349c11 0 18 -8 16 -19z" />
    <glyph glyph-name="Iacute" unicode="&#xcd;" horiz-adv-x="445" 
d="M536 889l-97 -110c-8 -9 -19 -19 -30 -19h-101c-12 0 -14 11 -8 21l68 110c6 10 19 19 30 19h130c12 0 16 -12 8 -21zM537 691l-9 -52c-2 -11 -10 -19 -21 -19h-108l-93 -530h106c11 0 18 -8 16 -19l-10 -52c-2 -11 -9 -19 -20 -19h-349c-11 0 -18 8 -16 19l10 52
c2 11 9 19 20 19h108l93 530h-106c-11 0 -17 8 -15 19l9 52c2 11 9 19 20 19h349c11 0 18 -8 16 -19z" />
    <glyph glyph-name="Icircumflex" unicode="&#xce;" horiz-adv-x="445" 
d="M526 843l-13 -76c-2 -11 -13 -16 -22 -12l-122 58l-150 -58c-11 -4 -18 3 -16 14l16 90c2 11 11 15 22 20l116 50c20 9 32 11 51 0l103 -61c9 -5 17 -14 15 -25zM537 691l-9 -52c-2 -11 -10 -19 -21 -19h-108l-93 -530h106c11 0 18 -8 16 -19l-10 -52
c-2 -11 -9 -19 -20 -19h-349c-11 0 -18 8 -16 19l10 52c2 11 9 19 20 19h108l93 530h-106c-11 0 -17 8 -15 19l9 52c2 11 9 19 20 19h349c11 0 18 -8 16 -19z" />
    <glyph glyph-name="Idieresis" unicode="&#xcf;" horiz-adv-x="445" 
d="M553 866l-17 -97c-2 -11 -12 -19 -23 -19h-97c-11 0 -17 8 -15 19l17 97c2 11 11 19 22 19h97c11 0 18 -8 16 -19zM333 866l-17 -97c-2 -11 -12 -19 -23 -19h-97c-11 0 -17 8 -15 19l17 97c2 11 11 19 22 19h97c11 0 18 -8 16 -19zM537 691l-9 -52
c-2 -11 -10 -19 -21 -19h-108l-93 -530h106c11 0 18 -8 16 -19l-10 -52c-2 -11 -9 -19 -20 -19h-349c-11 0 -18 8 -16 19l10 52c2 11 9 19 20 19h108l93 530h-106c-11 0 -17 8 -15 19l9 52c2 11 9 19 20 19h349c11 0 18 -8 16 -19z" />
    <glyph glyph-name="Eth" unicode="&#xd0;" horiz-adv-x="610" 
d="M632 504c0 -22 -2 -45 -6 -69l-33 -190c-28 -162 -118 -245 -278 -245h-236c-11 0 -18 8 -16 19l119 672c2 11 9 19 20 19h218c140 0 212 -79 212 -206zM498 490c0 57 -25 95 -100 95h-100l-28 -160h141c11 0 18 -8 16 -19l-16 -87c-2 -11 -9 -19 -20 -19h-143l-31 -175
h105c86 0 126 62 141 145l30 170c3 18 5 35 5 50z" />
    <glyph glyph-name="Ntilde" unicode="&#xd1;" horiz-adv-x="610" 
d="M616 885l-13 -74c-2 -13 -12 -24 -24 -32c0 0 -27 -19 -66 -19c-51 0 -100 36 -139 36c-28 0 -68 -24 -68 -24c-11 -4 -20 0 -18 11l13 75c2 13 13 23 25 32c0 0 26 19 65 19c61 0 105 -36 139 -36c28 0 67 24 67 24c11 4 21 -1 19 -12zM672 691l-119 -672
c-2 -11 -9 -19 -20 -19h-103c-13 0 -19 9 -22 19l-136 415l-74 -415c-2 -11 -9 -19 -20 -19h-99c-11 0 -18 8 -16 19l119 672c2 11 9 19 20 19h103c15 0 19 -9 22 -19l136 -415l74 415c2 11 9 19 20 19h99c11 0 18 -8 16 -19z" />
    <glyph glyph-name="Ograve" unicode="&#xd2;" horiz-adv-x="610" 
d="M501 781c4 -10 -2 -21 -14 -21h-94c-11 0 -18 11 -24 19l-76 110c-6 8 2 21 14 21h123c11 0 20 -9 24 -19zM634 512c0 -21 -2 -44 -6 -67l-37 -210c-29 -163 -119 -245 -278 -245c-137 0 -212 79 -212 207c0 21 2 44 6 68l37 210c29 162 118 245 278 245
c137 0 212 -80 212 -208zM499 498c0 58 -25 97 -94 97c-85 0 -117 -62 -131 -145l-33 -190c-3 -17 -5 -33 -5 -48c0 -59 26 -97 94 -97c82 0 117 62 131 145l33 190c3 17 5 33 5 48z" />
    <glyph glyph-name="Oacute" unicode="&#xd3;" horiz-adv-x="610" 
d="M601 889l-97 -110c-8 -9 -19 -19 -30 -19h-101c-12 0 -14 11 -8 21l68 110c6 10 19 19 30 19h130c12 0 16 -12 8 -21zM634 512c0 -21 -2 -44 -6 -67l-37 -210c-29 -163 -119 -245 -278 -245c-137 0 -212 79 -212 207c0 21 2 44 6 68l37 210c29 162 118 245 278 245
c137 0 212 -80 212 -208zM499 498c0 58 -25 97 -94 97c-85 0 -117 -62 -131 -145l-33 -190c-3 -17 -5 -33 -5 -48c0 -59 26 -97 94 -97c82 0 117 62 131 145l33 190c3 17 5 33 5 48z" />
    <glyph glyph-name="Ocircumflex" unicode="&#xd4;" horiz-adv-x="610" 
d="M598 843l-13 -76c-2 -11 -13 -16 -22 -12l-122 58l-150 -58c-11 -4 -18 3 -16 14l16 90c2 11 11 15 22 20l116 50c20 9 32 11 51 0l103 -61c9 -5 17 -14 15 -25zM634 512c0 -21 -2 -44 -6 -67l-37 -210c-29 -163 -119 -245 -278 -245c-137 0 -212 79 -212 207
c0 21 2 44 6 68l37 210c29 162 118 245 278 245c137 0 212 -80 212 -208zM499 498c0 58 -25 97 -94 97c-85 0 -117 -62 -131 -145l-33 -190c-3 -17 -5 -33 -5 -48c0 -59 26 -97 94 -97c82 0 117 62 131 145l33 190c3 17 5 33 5 48z" />
    <glyph glyph-name="Otilde" unicode="&#xd5;" horiz-adv-x="610" 
d="M616 885l-13 -74c-2 -13 -12 -24 -24 -32c0 0 -27 -19 -66 -19c-51 0 -100 36 -139 36c-28 0 -68 -24 -68 -24c-11 -4 -20 0 -18 11l13 75c2 13 13 23 25 32c0 0 26 19 65 19c61 0 105 -36 139 -36c28 0 67 24 67 24c11 4 21 -1 19 -12zM634 512c0 -21 -2 -44 -6 -67
l-37 -210c-29 -163 -119 -245 -278 -245c-137 0 -212 79 -212 207c0 21 2 44 6 68l37 210c29 162 118 245 278 245c137 0 212 -80 212 -208zM499 498c0 58 -25 97 -94 97c-85 0 -117 -62 -131 -145l-33 -190c-3 -17 -5 -33 -5 -48c0 -59 26 -97 94 -97c82 0 117 62 131 145
l33 190c3 17 5 33 5 48z" />
    <glyph glyph-name="Odieresis" unicode="&#xd6;" horiz-adv-x="610" 
d="M656 866l-17 -97c-2 -11 -12 -19 -23 -19h-97c-11 0 -17 8 -15 19l17 97c2 11 11 19 22 19h97c11 0 18 -8 16 -19zM396 866l-17 -97c-2 -11 -12 -19 -23 -19h-97c-11 0 -17 8 -15 19l17 97c2 11 11 19 22 19h97c11 0 18 -8 16 -19zM634 512c0 -21 -2 -44 -6 -67l-37 -210
c-29 -163 -119 -245 -278 -245c-137 0 -212 79 -212 207c0 21 2 44 6 68l37 210c29 162 118 245 278 245c137 0 212 -80 212 -208zM499 498c0 58 -25 97 -94 97c-85 0 -117 -62 -131 -145l-33 -190c-3 -17 -5 -33 -5 -48c0 -59 26 -97 94 -97c82 0 117 62 131 145l33 190
c3 17 5 33 5 48z" />
    <glyph glyph-name="multiply" unicode="&#xd7;" horiz-adv-x="527" 
d="M548 207l-58 -57c-8 -8 -19 -8 -27 0l-116 115l-115 -115c-8 -8 -19 -8 -27 0l-58 57c-8 8 -8 19 0 27l116 116l-116 116c-8 8 -8 19 0 27l58 57c8 8 19 8 27 0l116 -115l115 115c8 8 19 8 27 0l58 -57c8 -8 8 -19 0 -27l-116 -116l116 -116c8 -8 8 -19 0 -27z" />
    <glyph glyph-name="Oslash" unicode="&#xd8;" horiz-adv-x="610" 
d="M637 789l-63 -120c39 -36 60 -90 60 -157c0 -21 -2 -44 -6 -67l-37 -210c-29 -162 -119 -245 -278 -245c-33 0 -62 4 -87 13l-44 -85c-5 -10 -15 -18 -26 -18h-46c-11 0 -17 11 -12 21l63 120c-39 36 -60 89 -60 156c0 21 2 44 6 68l37 210c29 162 118 245 278 245
c33 0 62 -4 87 -13l45 85c5 10 14 18 25 18h48c11 0 15 -11 10 -21zM447 589c-12 4 -26 6 -42 6c-85 0 -117 -62 -131 -145l-33 -190c-3 -17 -5 -33 -5 -48c0 -8 1 -16 2 -24zM499 498c0 8 -1 16 -2 24l-209 -401c12 -4 26 -6 42 -6c82 0 117 62 131 145l33 190
c3 17 5 33 5 48z" />
    <glyph glyph-name="Ugrave" unicode="&#xd9;" horiz-adv-x="610" 
d="M511 781c4 -10 -2 -21 -14 -21h-94c-11 0 -18 11 -24 19l-76 110c-6 8 2 21 14 21h123c11 0 20 -9 24 -19zM672 691l-78 -441c-34 -190 -127 -260 -278 -260c-136 0 -214 68 -214 206c0 24 2 50 7 79l73 416c2 11 9 19 20 19h99c11 0 18 -8 16 -19l-76 -431
c-3 -19 -5 -37 -5 -53c0 -59 25 -92 92 -92c85 0 118 62 133 145l76 431c2 11 9 19 20 19h99c11 0 18 -8 16 -19z" />
    <glyph glyph-name="Uacute" unicode="&#xda;" horiz-adv-x="610" 
d="M618 889l-97 -110c-8 -9 -19 -19 -30 -19h-101c-12 0 -14 11 -8 21l68 110c6 10 19 19 30 19h130c12 0 16 -12 8 -21zM672 691l-78 -441c-34 -190 -127 -260 -278 -260c-136 0 -214 68 -214 206c0 24 2 50 7 79l73 416c2 11 9 19 20 19h99c11 0 18 -8 16 -19l-76 -431
c-3 -19 -5 -37 -5 -53c0 -59 25 -92 92 -92c85 0 118 62 133 145l76 431c2 11 9 19 20 19h99c11 0 18 -8 16 -19z" />
    <glyph glyph-name="Ucircumflex" unicode="&#xdb;" horiz-adv-x="610" 
d="M608 843l-13 -76c-2 -11 -13 -16 -22 -12l-122 58l-150 -58c-11 -4 -18 3 -16 14l16 90c2 11 11 15 22 20l116 50c20 9 32 11 51 0l103 -61c9 -5 17 -14 15 -25zM672 691l-78 -441c-34 -190 -127 -260 -278 -260c-136 0 -214 68 -214 206c0 24 2 50 7 79l73 416
c2 11 9 19 20 19h99c11 0 18 -8 16 -19l-76 -431c-3 -19 -5 -37 -5 -53c0 -59 25 -92 92 -92c85 0 118 62 133 145l76 431c2 11 9 19 20 19h99c11 0 18 -8 16 -19z" />
    <glyph glyph-name="Udieresis" unicode="&#xdc;" horiz-adv-x="610" 
d="M636 866l-17 -97c-2 -11 -12 -19 -23 -19h-97c-11 0 -17 8 -15 19l17 97c2 11 11 19 22 19h97c11 0 18 -8 16 -19zM416 866l-17 -97c-2 -11 -12 -19 -23 -19h-97c-11 0 -17 8 -15 19l17 97c2 11 11 19 22 19h97c11 0 18 -8 16 -19zM672 691l-78 -441
c-34 -190 -127 -260 -278 -260c-136 0 -214 68 -214 206c0 24 2 50 7 79l73 416c2 11 9 19 20 19h99c11 0 18 -8 16 -19l-76 -431c-3 -19 -5 -37 -5 -53c0 -59 25 -92 92 -92c85 0 118 62 133 145l76 431c2 11 9 19 20 19h99c11 0 18 -8 16 -19z" />
    <glyph glyph-name="Yacute" unicode="&#xdd;" horiz-adv-x="575" 
d="M601 889l-97 -110c-8 -9 -19 -19 -30 -19h-101c-12 0 -14 11 -8 21l68 110c6 10 19 19 30 19h130c12 0 16 -12 8 -21zM677 689l-282 -464l-37 -206c-2 -11 -9 -19 -20 -19h-99c-11 0 -18 8 -16 19l37 206l-120 464c-3 10 4 21 16 21h110c11 0 16 -9 18 -19l67 -306
l173 306c6 10 12 19 23 19h120c12 0 16 -11 10 -21z" />
    <glyph glyph-name="Thorn" unicode="&#xde;" horiz-adv-x="570" 
d="M599 397c0 -169 -98 -247 -274 -247h-104l-23 -131c-2 -11 -9 -19 -20 -19h-99c-11 0 -18 8 -16 19l119 672c2 11 9 19 20 19h99c11 0 18 -8 16 -19l-20 -111h94c128 0 208 -62 208 -183zM461 379c0 56 -33 81 -101 81h-84l-34 -190h95c82 0 124 35 124 109z" />
    <glyph glyph-name="germandbls" unicode="&#xdf;" horiz-adv-x="580" 
d="M561 179c0 -123 -65 -189 -190 -189c-61 0 -118 12 -118 12c-12 3 -16 11 -14 22l15 82c2 11 11 18 22 15c0 0 52 -11 93 -11c31 0 54 13 54 49c0 53 -104 65 -104 170c0 103 92 150 92 218c0 29 -19 48 -52 48c-41 0 -64 -29 -73 -80l-117 -664c-2 -11 -9 -22 -23 -24
l-95 -13c-13 -2 -23 5 -21 19l123 695c21 116 83 192 222 192c105 0 175 -57 175 -146c0 -119 -96 -166 -96 -213c0 -50 107 -71 107 -182z" />
    <glyph glyph-name="agrave" unicode="&#xe0;" horiz-adv-x="515" 
d="M434 591c4 -10 -2 -21 -14 -21h-94c-11 0 -18 11 -24 19l-76 110c-6 8 2 21 14 21h123c11 0 20 -9 24 -19zM537 462l-78 -443c-2 -11 -9 -19 -20 -19h-85c-11 0 -19 8 -16 19l1 4c-31 -19 -67 -33 -106 -33c-99 0 -145 59 -145 143c0 15 1 31 4 47l27 155
c20 114 84 175 217 175c92 0 186 -26 186 -26c11 -2 17 -10 15 -22zM388 383c-23 4 -45 7 -58 7c-52 0 -71 -28 -79 -75l-23 -130c-2 -9 -2 -17 -2 -24c0 -32 15 -51 54 -51c19 0 40 6 62 14z" />
    <glyph glyph-name="aacute" unicode="&#xe1;" horiz-adv-x="515" 
d="M549 699l-97 -110c-8 -9 -19 -19 -30 -19h-101c-12 0 -14 11 -8 21l68 110c6 10 19 19 30 19h130c12 0 16 -12 8 -21zM537 462l-78 -443c-2 -11 -9 -19 -20 -19h-85c-11 0 -19 8 -16 19l1 4c-31 -19 -67 -33 -106 -33c-99 0 -145 59 -145 143c0 15 1 31 4 47l27 155
c20 114 84 175 217 175c92 0 186 -26 186 -26c11 -2 17 -10 15 -22zM388 383c-23 4 -45 7 -58 7c-52 0 -71 -28 -79 -75l-23 -130c-2 -9 -2 -17 -2 -24c0 -32 15 -51 54 -51c19 0 40 6 62 14z" />
    <glyph glyph-name="acircumflex" unicode="&#xe2;" horiz-adv-x="515" 
d="M528 634l-13 -76c-2 -11 -13 -16 -22 -12l-122 58l-150 -58c-11 -4 -18 3 -16 14l16 90c2 11 11 15 22 20l116 50c20 9 32 11 51 0l103 -61c9 -5 17 -14 15 -25zM537 462l-78 -443c-2 -11 -9 -19 -20 -19h-85c-11 0 -19 8 -16 19l1 4c-31 -19 -67 -33 -106 -33
c-99 0 -145 59 -145 143c0 15 1 31 4 47l27 155c20 114 84 175 217 175c92 0 186 -26 186 -26c11 -2 17 -10 15 -22zM388 383c-23 4 -45 7 -58 7c-52 0 -71 -28 -79 -75l-23 -130c-2 -9 -2 -17 -2 -24c0 -32 15 -51 54 -51c19 0 40 6 62 14z" />
    <glyph glyph-name="atilde" unicode="&#xe3;" horiz-adv-x="515" 
d="M538 696l-13 -74c-2 -13 -12 -24 -24 -32c0 0 -27 -19 -66 -19c-51 0 -100 36 -139 36c-28 0 -68 -24 -68 -24c-11 -4 -20 0 -18 11l13 75c2 13 13 23 25 32c0 0 26 19 65 19c61 0 105 -36 139 -36c28 0 67 24 67 24c11 4 21 -1 19 -12zM537 462l-78 -443
c-2 -11 -9 -19 -20 -19h-85c-11 0 -19 8 -16 19l1 4c-31 -19 -67 -33 -106 -33c-99 0 -145 59 -145 143c0 15 1 31 4 47l27 155c20 114 84 175 217 175c92 0 186 -26 186 -26c11 -2 17 -10 15 -22zM388 383c-23 4 -45 7 -58 7c-52 0 -71 -28 -79 -75l-23 -130
c-2 -9 -2 -17 -2 -24c0 -32 15 -51 54 -51c19 0 40 6 62 14z" />
    <glyph glyph-name="adieresis" unicode="&#xe4;" horiz-adv-x="515" 
d="M568 691l-17 -97c-2 -11 -12 -19 -23 -19h-97c-11 0 -17 8 -15 19l17 97c2 11 11 19 22 19h97c11 0 18 -8 16 -19zM348 691l-17 -97c-2 -11 -12 -19 -23 -19h-97c-11 0 -17 8 -15 19l17 97c2 11 11 19 22 19h97c11 0 18 -8 16 -19zM537 462l-78 -443
c-2 -11 -9 -19 -20 -19h-85c-11 0 -19 8 -16 19l1 4c-31 -19 -67 -33 -106 -33c-99 0 -145 59 -145 143c0 15 1 31 4 47l27 155c20 114 84 175 217 175c92 0 186 -26 186 -26c11 -2 17 -10 15 -22zM388 383c-23 4 -45 7 -58 7c-52 0 -71 -28 -79 -75l-23 -130
c-2 -9 -2 -17 -2 -24c0 -32 15 -51 54 -51c19 0 40 6 62 14z" />
    <glyph glyph-name="aring" unicode="&#xe5;" horiz-adv-x="515" 
d="M512 672c0 -7 -1 -14 -2 -22c-12 -68 -67 -110 -145 -110c-68 0 -107 33 -107 87c0 7 1 15 2 23c12 68 66 110 144 110c68 0 108 -33 108 -88zM537 462l-78 -443c-2 -11 -9 -19 -20 -19h-85c-11 0 -19 8 -16 19l1 4c-31 -19 -67 -33 -106 -33c-99 0 -145 59 -145 143
c0 15 1 31 4 47l27 155c20 114 84 175 217 175c92 0 186 -26 186 -26c11 -2 17 -10 15 -22zM426 663c0 19 -9 32 -33 32c-29 0 -43 -19 -48 -45c-1 -5 -1 -9 -1 -13c0 -19 9 -32 33 -32c29 0 43 19 48 45c1 5 1 9 1 13zM388 383c-23 4 -45 7 -58 7c-52 0 -71 -28 -79 -75
l-23 -130c-2 -9 -2 -17 -2 -24c0 -32 15 -51 54 -51c19 0 40 6 62 14z" />
    <glyph glyph-name="ae" unicode="&#xe6;" horiz-adv-x="760" 
d="M778 366c0 -117 -53 -172 -222 -177l-71 -2c0 -46 19 -74 82 -74c54 0 138 21 138 21c11 2 18 -6 16 -17l-15 -85c-2 -11 -10 -16 -22 -20c0 0 -68 -22 -132 -22c-82 0 -135 26 -166 69c-40 -30 -99 -69 -170 -69c-91 0 -149 49 -149 128c0 127 85 182 211 182
c34 0 64 -2 89 -6l4 26c7 47 -16 65 -66 65c-52 0 -133 -16 -133 -16c-11 -1 -21 4 -19 18l14 81c2 11 9 18 21 20c0 0 73 22 156 22c70 0 104 -17 126 -36c35 23 77 36 128 36c120 0 180 -51 180 -144zM653 351c0 30 -21 46 -57 46c-56 0 -81 -39 -95 -109l57 2
c71 2 95 22 95 61zM357 133c-3 15 -4 31 -4 48c0 7 0 15 1 22h-69c-43 0 -80 -14 -80 -60c0 -24 17 -43 54 -43s72 19 98 33z" />
    <glyph glyph-name="ccedilla" unicode="&#xe7;" horiz-adv-x="400" 
d="M454 475l-15 -81c-2 -11 -10 -15 -21 -14c0 0 -42 10 -81 10c-58 0 -79 -34 -88 -85l-20 -110c-2 -11 -3 -21 -3 -30c0 -36 17 -55 63 -55c39 0 82 6 82 6c11 1 19 -6 17 -17l-15 -80c-2 -11 -9 -19 -22 -20c0 0 -50 -9 -80 -9c-7 0 -14 1 -21 1l-7 -19h4
c40 0 70 -20 70 -67c0 -77 -40 -105 -115 -105c-31 0 -77 7 -77 7c-10 2 -18 8 -16 19l5 27c2 11 7 17 18 17h23c22 0 43 3 43 29c0 14 -12 21 -31 21h-16c-11 0 -15 7 -11 18l28 72c-51 24 -77 71 -77 137c0 16 2 34 5 53l20 115c23 135 92 195 222 195
c50 0 100 -13 100 -13c13 -2 18 -11 16 -22z" />
    <glyph glyph-name="egrave" unicode="&#xe8;" horiz-adv-x="500" 
d="M424 591c4 -10 -2 -21 -14 -21h-94c-11 0 -18 11 -24 19l-76 110c-6 8 2 21 14 21h123c11 0 20 -9 24 -19zM518 366c0 -117 -52 -172 -222 -177l-71 -2c0 -46 19 -74 82 -74c54 0 138 21 138 21c11 2 18 -6 16 -17l-15 -85c-2 -11 -10 -16 -22 -20c0 0 -68 -22 -132 -22
c-142 0 -199 78 -199 191c0 21 2 43 6 66l6 37c23 141 100 226 233 226c120 0 180 -51 180 -144zM393 351c0 30 -21 46 -57 46c-56 0 -81 -39 -95 -109l57 2c70 2 95 22 95 61z" />
    <glyph glyph-name="eacute" unicode="&#xe9;" horiz-adv-x="500" 
d="M542 699l-97 -110c-8 -9 -19 -19 -30 -19h-101c-12 0 -14 11 -8 21l68 110c6 10 19 19 30 19h130c12 0 16 -12 8 -21zM518 366c0 -117 -52 -172 -222 -177l-71 -2c0 -46 19 -74 82 -74c54 0 138 21 138 21c11 2 18 -6 16 -17l-15 -85c-2 -11 -10 -16 -22 -20
c0 0 -68 -22 -132 -22c-142 0 -199 78 -199 191c0 21 2 43 6 66l6 37c23 141 100 226 233 226c120 0 180 -51 180 -144zM393 351c0 30 -21 46 -57 46c-56 0 -81 -39 -95 -109l57 2c70 2 95 22 95 61z" />
    <glyph glyph-name="ecircumflex" unicode="&#xea;" horiz-adv-x="500" 
d="M520 634l-13 -76c-2 -11 -13 -16 -22 -12l-122 58l-150 -58c-11 -4 -18 3 -16 14l16 90c2 11 11 15 22 20l116 50c20 9 32 11 51 0l103 -61c9 -5 17 -14 15 -25zM518 366c0 -117 -52 -172 -222 -177l-71 -2c0 -46 19 -74 82 -74c54 0 138 21 138 21c11 2 18 -6 16 -17
l-15 -85c-2 -11 -10 -16 -22 -20c0 0 -68 -22 -132 -22c-142 0 -199 78 -199 191c0 21 2 43 6 66l6 37c23 141 100 226 233 226c120 0 180 -51 180 -144zM393 351c0 30 -21 46 -57 46c-56 0 -81 -39 -95 -109l57 2c70 2 95 22 95 61z" />
    <glyph glyph-name="edieresis" unicode="&#xeb;" horiz-adv-x="500" 
d="M557 691l-17 -97c-2 -11 -12 -19 -23 -19h-97c-11 0 -17 8 -15 19l17 97c2 11 11 19 22 19h97c11 0 18 -8 16 -19zM337 691l-17 -97c-2 -11 -12 -19 -23 -19h-97c-11 0 -17 8 -15 19l17 97c2 11 11 19 22 19h97c11 0 18 -8 16 -19zM518 366c0 -117 -52 -172 -222 -177
l-71 -2c0 -46 19 -74 82 -74c54 0 138 21 138 21c11 2 18 -6 16 -17l-15 -85c-2 -11 -10 -16 -22 -20c0 0 -68 -22 -132 -22c-142 0 -199 78 -199 191c0 21 2 43 6 66l6 37c23 141 100 226 233 226c120 0 180 -51 180 -144zM393 351c0 30 -21 46 -57 46
c-56 0 -81 -39 -95 -109l57 2c70 2 95 22 95 61z" />
    <glyph glyph-name="igrave" unicode="&#xec;" horiz-adv-x="255" 
d="M288 591c4 -10 -2 -21 -14 -21h-94c-11 0 -18 11 -24 19l-76 110c-6 8 2 21 14 21h123c11 0 20 -9 24 -19zM280 481l-82 -462c-2 -11 -9 -19 -20 -19h-99c-11 0 -18 8 -16 19l82 462c2 11 9 19 20 19h99c11 0 18 -8 16 -19z" />
    <glyph glyph-name="iacute" unicode="&#xed;" horiz-adv-x="255" 
d="M407 699l-97 -110c-8 -9 -19 -19 -30 -19h-101c-12 0 -14 11 -8 21l68 110c6 10 19 19 30 19h130c12 0 16 -12 8 -21zM280 481l-82 -462c-2 -11 -9 -19 -20 -19h-99c-11 0 -18 8 -16 19l82 462c2 11 9 19 20 19h99c11 0 18 -8 16 -19z" />
    <glyph glyph-name="icircumflex" unicode="&#xee;" horiz-adv-x="255" 
d="M395 634l-13 -76c-2 -11 -13 -16 -22 -12l-122 58l-150 -58c-11 -4 -18 3 -16 14l16 90c2 11 11 15 22 20l116 50c20 9 32 11 51 0l103 -61c9 -5 17 -14 15 -25zM280 481l-82 -462c-2 -11 -9 -19 -20 -19h-99c-11 0 -18 8 -16 19l82 462c2 11 9 19 20 19h99
c11 0 18 -8 16 -19z" />
    <glyph glyph-name="idieresis" unicode="&#xef;" horiz-adv-x="255" 
d="M427 691l-17 -97c-2 -11 -12 -19 -23 -19h-97c-11 0 -17 8 -15 19l17 97c2 11 11 19 22 19h97c11 0 18 -8 16 -19zM207 691l-17 -97c-2 -11 -12 -19 -23 -19h-97c-11 0 -17 8 -15 19l17 97c2 11 11 19 22 19h97c11 0 18 -8 16 -19zM280 481l-82 -462
c-2 -11 -9 -19 -20 -19h-99c-11 0 -18 8 -16 19l82 462c2 11 9 19 20 19h99c11 0 18 -8 16 -19z" />
    <glyph glyph-name="eth" unicode="&#xf0;" horiz-adv-x="550" 
d="M643 640l-7 -36c-2 -11 -11 -17 -22 -21l-39 -13c2 -12 3 -25 3 -39c0 -22 -3 -46 -7 -71l-48 -270c-24 -135 -102 -200 -240 -200c-124 0 -191 67 -191 171c0 16 2 32 5 49l18 102c20 113 69 178 197 178c55 0 95 -18 123 -38l5 28c3 15 4 29 4 41v4l-66 -23
c-11 -4 -19 1 -17 12l7 39c2 11 11 15 22 19l25 9c-16 9 -38 14 -70 14c-40 0 -120 -10 -120 -10c-12 -1 -20 4 -18 18l14 85c2 11 10 18 23 19c0 0 64 13 123 13c93 0 159 -30 190 -91l69 24c11 4 19 -2 17 -13zM414 335c-27 16 -59 30 -90 30c-43 0 -68 -17 -77 -70
l-16 -92c-2 -10 -3 -19 -3 -27c0 -39 20 -61 72 -61c56 0 81 29 91 88z" />
    <glyph glyph-name="ntilde" unicode="&#xf1;" 
d="M541 696l-13 -74c-2 -13 -12 -24 -24 -32c0 0 -27 -19 -66 -19c-51 0 -100 36 -139 36c-28 0 -68 -24 -68 -24c-11 -4 -20 0 -18 11l13 75c2 13 13 23 25 32c0 0 26 19 65 19c61 0 105 -36 139 -36c28 0 67 24 67 24c11 4 21 -1 19 -12zM527 378c0 -17 -2 -35 -5 -53
l-54 -306c-2 -11 -9 -19 -20 -19h-99c-11 0 -18 8 -16 19l53 301c1 8 2 15 2 22c0 27 -13 43 -48 43c-24 0 -54 -9 -81 -21l-61 -345c-2 -11 -9 -19 -20 -19h-99c-11 0 -18 8 -16 19l82 462c2 11 9 19 20 19h89c11 0 18 -8 16 -19l-2 -13c34 22 77 42 127 42
c96 0 132 -56 132 -132z" />
    <glyph glyph-name="ograve" unicode="&#xf2;" horiz-adv-x="526" 
d="M420 591c4 -10 -2 -21 -14 -21h-94c-11 0 -18 11 -24 19l-76 110c-6 8 2 21 14 21h123c11 0 20 -9 24 -19zM524 350c0 -16 -2 -32 -5 -50l-21 -120c-24 -135 -99 -190 -227 -190c-114 0 -180 57 -180 160c0 16 2 32 5 50l21 120c24 135 98 190 226 190
c114 0 181 -57 181 -160zM388 336c0 34 -16 57 -61 57c-51 0 -69 -35 -77 -80l-22 -125c-1 -8 -2 -16 -2 -23c0 -34 16 -57 61 -57c51 0 69 35 77 80l22 125c1 8 2 16 2 23z" />
    <glyph glyph-name="oacute" unicode="&#xf3;" horiz-adv-x="526" 
d="M541 699l-97 -110c-8 -9 -19 -19 -30 -19h-101c-12 0 -14 11 -8 21l68 110c6 10 19 19 30 19h130c12 0 16 -12 8 -21zM524 350c0 -16 -2 -32 -5 -50l-21 -120c-24 -135 -99 -190 -227 -190c-114 0 -180 57 -180 160c0 16 2 32 5 50l21 120c24 135 98 190 226 190
c114 0 181 -57 181 -160zM388 336c0 34 -16 57 -61 57c-51 0 -69 -35 -77 -80l-22 -125c-1 -8 -2 -16 -2 -23c0 -34 16 -57 61 -57c51 0 69 35 77 80l22 125c1 8 2 16 2 23z" />
    <glyph glyph-name="ocircumflex" unicode="&#xf4;" horiz-adv-x="526" 
d="M525 634l-13 -76c-2 -11 -13 -16 -22 -12l-122 58l-150 -58c-11 -4 -18 3 -16 14l16 90c2 11 11 15 22 20l116 50c20 9 32 11 51 0l103 -61c9 -5 17 -14 15 -25zM524 350c0 -16 -2 -32 -5 -50l-21 -120c-24 -135 -99 -190 -227 -190c-114 0 -180 57 -180 160
c0 16 2 32 5 50l21 120c24 135 98 190 226 190c114 0 181 -57 181 -160zM388 336c0 34 -16 57 -61 57c-51 0 -69 -35 -77 -80l-22 -125c-1 -8 -2 -16 -2 -23c0 -34 16 -57 61 -57c51 0 69 35 77 80l22 125c1 8 2 16 2 23z" />
    <glyph glyph-name="otilde" unicode="&#xf5;" horiz-adv-x="526" 
d="M536 696l-13 -74c-2 -13 -12 -24 -24 -32c0 0 -27 -19 -66 -19c-51 0 -100 36 -139 36c-28 0 -68 -24 -68 -24c-11 -4 -20 0 -18 11l13 75c2 13 13 23 25 32c0 0 26 19 65 19c61 0 105 -36 139 -36c28 0 67 24 67 24c11 4 21 -1 19 -12zM524 350c0 -16 -2 -32 -5 -50
l-21 -120c-24 -135 -99 -190 -227 -190c-114 0 -180 57 -180 160c0 16 2 32 5 50l21 120c24 135 98 190 226 190c114 0 181 -57 181 -160zM388 336c0 34 -16 57 -61 57c-51 0 -69 -35 -77 -80l-22 -125c-1 -8 -2 -16 -2 -23c0 -34 16 -57 61 -57c51 0 69 35 77 80l22 125
c1 8 2 16 2 23z" />
    <glyph glyph-name="odieresis" unicode="&#xf6;" horiz-adv-x="526" 
d="M563 691l-17 -97c-2 -11 -12 -19 -23 -19h-97c-11 0 -17 8 -15 19l17 97c2 11 11 19 22 19h97c11 0 18 -8 16 -19zM343 691l-17 -97c-2 -11 -12 -19 -23 -19h-97c-11 0 -17 8 -15 19l17 97c2 11 11 19 22 19h97c11 0 18 -8 16 -19zM524 350c0 -16 -2 -32 -5 -50l-21 -120
c-24 -135 -99 -190 -227 -190c-114 0 -180 57 -180 160c0 16 2 32 5 50l21 120c24 135 98 190 226 190c114 0 181 -57 181 -160zM388 336c0 34 -16 57 -61 57c-51 0 -69 -35 -77 -80l-22 -125c-1 -8 -2 -16 -2 -23c0 -34 16 -57 61 -57c51 0 69 35 77 80l22 125
c1 8 2 16 2 23z" />
    <glyph glyph-name="divide" unicode="&#xf7;" 
d="M432 576l-18 -97c-2 -11 -9 -19 -20 -19h-99c-11 0 -18 8 -16 19l18 97c2 11 9 19 20 19h99c11 0 18 -8 16 -19zM544 391l-15 -82c-2 -11 -9 -19 -20 -19h-389c-11 0 -18 8 -16 19l15 82c2 11 9 19 20 19h389c11 0 18 -8 16 -19zM369 221l-17 -97c-2 -11 -9 -19 -20 -19
h-99c-11 0 -18 8 -16 19l17 97c2 11 9 19 20 19h99c11 0 18 -8 16 -19z" />
    <glyph glyph-name="oslash" unicode="&#xf8;" horiz-adv-x="526" 
d="M525 580l-56 -105c36 -27 55 -69 55 -125c0 -16 -2 -32 -5 -50l-21 -120c-24 -135 -99 -190 -227 -190c-21 0 -40 2 -58 6l-42 -79c-5 -10 -12 -17 -23 -17h-48c-11 0 -19 9 -12 21l56 105c-35 27 -53 69 -53 124c0 16 2 32 5 50l21 120c24 135 98 190 226 190
c21 0 40 -1 57 -5l42 77c6 10 12 18 23 18h49c11 0 16 -10 11 -20zM350 390c-7 2 -14 3 -23 3c-51 0 -69 -35 -77 -80l-22 -125c-1 -8 -2 -16 -2 -23v-6zM388 336v6l-124 -231c7 -2 14 -3 23 -3c51 0 69 35 77 80l22 125c1 8 2 16 2 23z" />
    <glyph glyph-name="ugrave" unicode="&#xf9;" 
d="M428 591c4 -10 -2 -21 -14 -21h-94c-11 0 -18 11 -24 19l-76 110c-6 8 2 21 14 21h123c11 0 20 -9 24 -19zM550 481l-82 -462c-2 -11 -9 -19 -20 -19h-84c-11 0 -18 8 -16 19l3 17c-34 -24 -80 -46 -133 -46c-96 0 -132 56 -132 132c0 17 2 35 5 53l54 306
c2 11 9 19 20 19h99c11 0 18 -8 16 -19l-53 -301c-1 -8 -2 -15 -2 -22c0 -27 13 -43 48 -43c24 0 54 9 81 21l61 345c2 11 9 19 20 19h99c11 0 18 -8 16 -19z" />
    <glyph glyph-name="uacute" unicode="&#xfa;" 
d="M545 699l-97 -110c-8 -9 -19 -19 -30 -19h-101c-12 0 -14 11 -8 21l68 110c6 10 19 19 30 19h130c12 0 16 -12 8 -21zM550 481l-82 -462c-2 -11 -9 -19 -20 -19h-84c-11 0 -18 8 -16 19l3 17c-34 -24 -80 -46 -133 -46c-96 0 -132 56 -132 132c0 17 2 35 5 53l54 306
c2 11 9 19 20 19h99c11 0 18 -8 16 -19l-53 -301c-1 -8 -2 -15 -2 -22c0 -27 13 -43 48 -43c24 0 54 9 81 21l61 345c2 11 9 19 20 19h99c11 0 18 -8 16 -19z" />
    <glyph glyph-name="ucircumflex" unicode="&#xfb;" 
d="M530 634l-13 -76c-2 -11 -13 -16 -22 -12l-122 58l-150 -58c-11 -4 -18 3 -16 14l16 90c2 11 11 15 22 20l116 50c20 9 32 11 51 0l103 -61c9 -5 17 -14 15 -25zM550 481l-82 -462c-2 -11 -9 -19 -20 -19h-84c-11 0 -18 8 -16 19l3 17c-34 -24 -80 -46 -133 -46
c-96 0 -132 56 -132 132c0 17 2 35 5 53l54 306c2 11 9 19 20 19h99c11 0 18 -8 16 -19l-53 -301c-1 -8 -2 -15 -2 -22c0 -27 13 -43 48 -43c24 0 54 9 81 21l61 345c2 11 9 19 20 19h99c11 0 18 -8 16 -19z" />
    <glyph glyph-name="udieresis" unicode="&#xfc;" 
d="M562 691l-17 -97c-2 -11 -12 -19 -23 -19h-97c-11 0 -17 8 -15 19l17 97c2 11 11 19 22 19h97c11 0 18 -8 16 -19zM342 691l-17 -97c-2 -11 -12 -19 -23 -19h-97c-11 0 -17 8 -15 19l17 97c2 11 11 19 22 19h97c11 0 18 -8 16 -19zM550 481l-82 -462
c-2 -11 -9 -19 -20 -19h-84c-11 0 -18 8 -16 19l3 17c-34 -24 -80 -46 -133 -46c-96 0 -132 56 -132 132c0 17 2 35 5 53l54 306c2 11 9 19 20 19h99c11 0 18 -8 16 -19l-53 -301c-1 -8 -2 -15 -2 -22c0 -27 13 -43 48 -43c24 0 54 9 81 21l61 345c2 11 9 19 20 19h99
c11 0 18 -8 16 -19z" />
    <glyph glyph-name="yacute" unicode="&#xfd;" horiz-adv-x="500" 
d="M530 699l-97 -110c-8 -9 -19 -19 -30 -19h-101c-12 0 -14 11 -8 21l68 110c6 10 19 19 30 19h130c12 0 16 -12 8 -21zM568 480l-324 -652c-5 -11 -14 -18 -25 -18h-110c-11 0 -18 9 -13 20l76 153l-71 498c-2 11 6 19 17 19h104c11 0 18 -6 19 -17l36 -296l143 295
c5 11 14 18 25 18h110c11 0 18 -9 13 -20z" />
    <glyph glyph-name="thorn" unicode="&#xfe;" 
d="M524 363c0 -15 -1 -31 -4 -48l-23 -135c-19 -114 -85 -180 -218 -180c-23 0 -52 4 -82 8l-32 -179c-2 -11 -9 -19 -20 -19h-99c-11 0 -18 8 -16 19l152 862c2 11 9 19 20 19h99c11 0 18 -8 16 -19l-37 -209c30 17 64 28 100 28c99 0 144 -62 144 -147zM388 339
c0 32 -16 51 -55 51c-21 0 -47 -7 -72 -17l-46 -258h69c52 0 71 33 80 80l22 120c2 9 2 17 2 24z" />
    <glyph glyph-name="ydieresis" unicode="&#xff;" horiz-adv-x="500" 
d="M550 691l-17 -97c-2 -11 -12 -19 -23 -19h-97c-11 0 -17 8 -15 19l17 97c2 11 11 19 22 19h97c11 0 18 -8 16 -19zM330 691l-17 -97c-2 -11 -12 -19 -23 -19h-97c-11 0 -17 8 -15 19l17 97c2 11 11 19 22 19h97c11 0 18 -8 16 -19zM568 480l-324 -652
c-5 -11 -14 -18 -25 -18h-110c-11 0 -18 9 -13 20l76 153l-71 498c-2 11 6 19 17 19h104c11 0 18 -6 19 -17l36 -296l143 295c5 11 14 18 25 18h110c11 0 18 -9 13 -20z" />
    <glyph glyph-name="Amacron" unicode="&#x100;" horiz-adv-x="605" 
d="M592 20c1 -11 -7 -20 -18 -20h-103c-11 0 -17 8 -18 19l-11 101h-227l-46 -101c-5 -11 -12 -19 -23 -19h-115c-11 0 -16 9 -11 20l313 671c5 11 15 19 26 19h130c11 0 19 -8 20 -19zM431 245l-31 288l-131 -288h162zM586 881l-14 -77c-2 -11 -11 -19 -22 -19h-217
c-11 0 -18 8 -16 19l14 77c2 11 11 19 22 19h217c11 0 18 -8 16 -19z" />
    <glyph glyph-name="amacron" unicode="&#x101;" horiz-adv-x="515" 
d="M537 462l-78 -443c-2 -11 -9 -19 -20 -19h-85c-11 0 -19 8 -16 19l1 4c-31 -19 -67 -33 -106 -33c-99 0 -145 59 -145 143c0 15 1 31 4 47l27 155c20 114 84 175 217 175c92 0 186 -26 186 -26c11 -2 17 -10 15 -22zM388 383c-23 4 -45 7 -58 7c-52 0 -71 -28 -79 -75
l-23 -130c-2 -9 -2 -17 -2 -24c0 -32 15 -51 54 -51c19 0 40 6 62 14zM501 681l-14 -77c-2 -11 -11 -19 -22 -19h-217c-11 0 -18 8 -16 19l14 77c2 11 11 19 22 19h217c11 0 18 -8 16 -19z" />
    <glyph glyph-name="Abreve" unicode="&#x102;" horiz-adv-x="605" 
d="M592 20c1 -11 -7 -20 -18 -20h-103c-11 0 -17 8 -18 19l-11 101h-227l-46 -101c-5 -11 -12 -19 -23 -19h-115c-11 0 -16 9 -11 20l313 671c5 11 15 19 26 19h130c11 0 19 -8 20 -19zM431 245l-31 288l-131 -288h162zM613 912v-4c-20 -112 -70 -161 -176 -161
c-89 0 -144 37 -144 120c0 13 1 26 4 41c2 11 11 19 22 19h82c10 0 16 -6 16 -15c0 -7 -3 -22 -3 -36c0 -25 9 -34 31 -34c24 0 39 16 48 66c2 11 11 19 22 19h82c10 0 16 -6 16 -15z" />
    <glyph glyph-name="abreve" unicode="&#x103;" horiz-adv-x="515" 
d="M537 462l-78 -443c-2 -11 -9 -19 -20 -19h-85c-11 0 -19 8 -16 19l1 4c-31 -19 -67 -33 -106 -33c-99 0 -145 59 -145 143c0 15 1 31 4 47l27 155c20 114 84 175 217 175c92 0 186 -26 186 -26c11 -2 17 -10 15 -22zM388 383c-23 4 -45 7 -58 7c-52 0 -71 -28 -79 -75
l-23 -130c-2 -9 -2 -17 -2 -24c0 -32 15 -51 54 -51c19 0 40 6 62 14zM534 703v-4c-20 -112 -70 -161 -176 -161c-89 0 -144 37 -144 120c0 13 1 26 4 41c2 11 11 19 22 19h82c10 0 16 -6 16 -15c0 -7 -3 -22 -3 -36c0 -25 9 -34 31 -34c24 0 39 16 48 66c2 11 11 19 22 19
h82c10 0 16 -6 16 -15z" />
    <glyph glyph-name="Aogonek" unicode="&#x104;" horiz-adv-x="605" 
d="M470 -200c-47 0 -68 28 -68 70c0 33 15 99 70 130h-4c-7 0 -14 8 -15 19l-11 101h-227l-46 -101c-5 -11 -12 -19 -23 -19h-115c-11 0 -16 9 -11 20l313 671c5 11 15 19 26 19h130c11 0 19 -8 20 -19l83 -671c2 -14 -8 -16 -17 -22c-31 -19 -63 -56 -63 -91
c0 -8 2 -19 14 -19c13 0 26 6 38 9c6 0 5 -6 4 -11l-10 -60c-1 -6 -5 -14 -13 -16c-15 -4 -44 -10 -75 -10zM431 245l-31 288l-131 -288h162z" />
    <glyph glyph-name="aogonek" unicode="&#x105;" horiz-adv-x="515" 
d="M336 -200c-47 0 -68 28 -68 70c0 34 16 103 76 133c-6 3 -8 9 -6 16l1 4c-31 -19 -67 -33 -106 -33c-99 0 -145 59 -145 143c0 15 1 31 4 47l27 155c20 114 84 175 217 175c92 0 186 -26 186 -26c11 -2 17 -10 15 -22l-78 -443c-2 -13 -12 -18 -17 -20
c-22 -10 -64 -53 -64 -92c0 -8 2 -19 14 -19c13 0 26 6 38 9c6 0 5 -6 4 -11l-10 -60c-1 -6 -5 -14 -13 -16c-15 -4 -44 -10 -75 -10zM388 383c-23 4 -45 7 -58 7c-52 0 -71 -28 -79 -75l-23 -130c-2 -9 -2 -17 -2 -24c0 -32 15 -51 54 -51c19 0 40 6 62 14z" />
    <glyph glyph-name="Cacute" unicode="&#x106;" horiz-adv-x="475" 
d="M554 679l-15 -89c-2 -11 -11 -15 -23 -13c0 0 -60 15 -109 15c-85 0 -119 -59 -133 -142l-33 -190c-3 -18 -5 -35 -5 -51c0 -55 23 -91 93 -91c47 0 109 9 109 9c12 1 19 -5 17 -16l-16 -90c-2 -11 -11 -19 -23 -20c0 0 -54 -11 -108 -11c-136 0 -208 77 -208 204
c0 22 3 46 7 71l36 205c29 166 114 250 274 250c67 0 122 -19 122 -19c12 -2 17 -11 15 -22zM590 889l-97 -110c-8 -9 -19 -19 -30 -19h-101c-12 0 -14 11 -8 21l68 110c6 10 19 19 30 19h130c12 0 16 -12 8 -21z" />
    <glyph glyph-name="cacute" unicode="&#x107;" horiz-adv-x="400" 
d="M454 475l-15 -81c-2 -11 -10 -15 -21 -14c0 0 -42 10 -81 10c-58 0 -79 -34 -88 -85l-20 -110c-2 -11 -3 -21 -3 -30c0 -36 17 -55 63 -55c39 0 82 6 82 6c11 1 19 -6 17 -17l-15 -80c-2 -11 -9 -19 -22 -20c0 0 -50 -9 -80 -9c-118 0 -180 55 -180 157c0 16 2 34 5 53
l20 115c23 135 92 195 222 195c50 0 100 -13 100 -13c13 -2 18 -11 16 -22zM516 699l-97 -110c-8 -9 -19 -19 -30 -19h-101c-12 0 -14 11 -8 21l68 110c6 10 19 19 30 19h130c12 0 16 -12 8 -21z" />
    <glyph glyph-name="Ccircumflex" unicode="&#x108;" horiz-adv-x="475" 
d="M554 679l-15 -89c-2 -11 -11 -15 -23 -13c0 0 -60 15 -109 15c-85 0 -119 -59 -133 -142l-33 -190c-3 -18 -5 -35 -5 -51c0 -55 23 -91 93 -91c47 0 109 9 109 9c12 1 19 -5 17 -16l-16 -90c-2 -11 -11 -19 -23 -20c0 0 -54 -11 -108 -11c-136 0 -208 77 -208 204
c0 22 3 46 7 71l36 205c29 166 114 250 274 250c67 0 122 -19 122 -19c12 -2 17 -11 15 -22zM584 843l-13 -76c-2 -11 -13 -16 -22 -12l-122 58l-150 -58c-11 -4 -18 3 -16 14l16 90c2 11 11 15 22 20l116 50c20 9 32 11 51 0l103 -61c9 -5 17 -14 15 -25z" />
    <glyph glyph-name="ccircumflex" unicode="&#x109;" horiz-adv-x="400" 
d="M454 475l-15 -81c-2 -11 -10 -15 -21 -14c0 0 -42 10 -81 10c-58 0 -79 -34 -88 -85l-20 -110c-2 -11 -3 -21 -3 -30c0 -36 17 -55 63 -55c39 0 82 6 82 6c11 1 19 -6 17 -17l-15 -80c-2 -11 -9 -19 -22 -20c0 0 -50 -9 -80 -9c-118 0 -180 55 -180 157c0 16 2 34 5 53
l20 115c23 135 92 195 222 195c50 0 100 -13 100 -13c13 -2 18 -11 16 -22zM504 634l-13 -76c-2 -11 -13 -16 -22 -12l-122 58l-150 -58c-11 -4 -18 3 -16 14l16 90c2 11 11 15 22 20l116 50c20 9 32 11 51 0l103 -61c9 -5 17 -14 15 -25z" />
    <glyph glyph-name="Cdotaccent" unicode="&#x10a;" horiz-adv-x="475" 
d="M554 679l-15 -89c-2 -11 -11 -15 -23 -13c0 0 -60 15 -109 15c-85 0 -119 -59 -133 -142l-33 -190c-3 -18 -5 -35 -5 -51c0 -55 23 -91 93 -91c47 0 109 9 109 9c12 1 19 -5 17 -16l-16 -90c-2 -11 -11 -19 -23 -20c0 0 -54 -11 -108 -11c-136 0 -208 77 -208 204
c0 22 3 46 7 71l36 205c29 166 114 250 274 250c67 0 122 -19 122 -19c12 -2 17 -11 15 -22zM492 866l-17 -97c-2 -11 -12 -19 -23 -19h-97c-11 0 -17 8 -15 19l17 97c2 11 11 19 22 19h97c11 0 18 -8 16 -19z" />
    <glyph glyph-name="cdotaccent" unicode="&#x10b;" horiz-adv-x="400" 
d="M454 475l-15 -81c-2 -11 -10 -15 -21 -14c0 0 -42 10 -81 10c-58 0 -79 -34 -88 -85l-20 -110c-2 -11 -3 -21 -3 -30c0 -36 17 -55 63 -55c39 0 82 6 82 6c11 1 19 -6 17 -17l-15 -80c-2 -11 -9 -19 -22 -20c0 0 -50 -9 -80 -9c-118 0 -180 55 -180 157c0 16 2 34 5 53
l20 115c23 135 92 195 222 195c50 0 100 -13 100 -13c13 -2 18 -11 16 -22zM425 691l-18 -97c-2 -11 -9 -19 -20 -19h-99c-11 0 -18 8 -16 19l18 97c2 11 9 19 20 19h99c11 0 18 -8 16 -19z" />
    <glyph glyph-name="Ccaron" unicode="&#x10c;" horiz-adv-x="475" 
d="M554 679l-15 -89c-2 -11 -11 -15 -23 -13c0 0 -60 15 -109 15c-85 0 -119 -59 -133 -142l-33 -190c-3 -18 -5 -35 -5 -51c0 -55 23 -91 93 -91c47 0 109 9 109 9c12 1 19 -5 17 -16l-16 -90c-2 -11 -11 -19 -23 -20c0 0 -54 -11 -108 -11c-136 0 -208 77 -208 204
c0 22 3 46 7 71l36 205c29 166 114 250 274 250c67 0 122 -19 122 -19c12 -2 17 -11 15 -22zM601 915l-16 -90c-2 -11 -11 -15 -22 -20l-116 -50c-20 -9 -32 -11 -51 0l-103 61c-9 5 -17 14 -15 25l13 76c2 11 13 16 22 12l122 -58l150 58c11 4 18 -3 16 -14z" />
    <glyph glyph-name="ccaron" unicode="&#x10d;" horiz-adv-x="400" 
d="M454 475l-15 -81c-2 -11 -10 -15 -21 -14c0 0 -42 10 -81 10c-58 0 -79 -34 -88 -85l-20 -110c-2 -11 -3 -21 -3 -30c0 -36 17 -55 63 -55c39 0 82 6 82 6c11 1 19 -6 17 -17l-15 -80c-2 -11 -9 -19 -22 -20c0 0 -50 -9 -80 -9c-118 0 -180 55 -180 157c0 16 2 34 5 53
l20 115c23 135 92 195 222 195c50 0 100 -13 100 -13c13 -2 18 -11 16 -22zM521 706l-16 -90c-2 -11 -11 -15 -22 -20l-116 -50c-20 -9 -32 -11 -51 0l-103 61c-9 5 -17 14 -15 25l13 76c2 11 13 16 22 12l122 -58l150 58c11 4 18 -3 16 -14z" />
    <glyph glyph-name="Dcaron" unicode="&#x10e;" horiz-adv-x="610" 
d="M632 504c0 -22 -2 -45 -6 -69l-33 -190c-28 -162 -118 -245 -278 -245h-236c-11 0 -18 8 -16 19l119 672c2 11 9 19 20 19h218c140 0 212 -79 212 -206zM498 490c0 57 -25 95 -100 95h-100l-81 -460h105c86 0 126 62 141 145l30 170c3 18 5 35 5 50zM595 915l-16 -90
c-2 -11 -11 -15 -22 -20l-116 -50c-20 -9 -32 -11 -51 0l-103 61c-9 5 -17 14 -15 25l13 76c2 11 13 16 22 12l122 -58l150 58c11 4 18 -3 16 -14z" />
    <glyph glyph-name="dcaron" unicode="&#x10f;" 
d="M587 691l-119 -672c-2 -11 -9 -19 -20 -19h-84c-11 0 -18 8 -16 19l2 9c-35 -21 -76 -38 -117 -38c-99 0 -145 58 -145 143c0 15 1 31 4 47l28 160c19 109 72 170 185 170c43 0 80 -13 110 -29l37 210c2 11 9 19 20 19h99c11 0 18 -8 16 -19zM396 375
c-24 9 -48 15 -71 15c-48 0 -66 -28 -74 -75l-23 -130c-2 -9 -2 -17 -2 -24c0 -32 15 -51 54 -51c21 0 47 7 73 17zM764 693l-15 -85l-51 -71c-6 -9 -13 -17 -23 -17h-42c-10 0 -19 8 -13 16l30 43h-19c-10 0 -16 7 -15 17l17 97c2 10 11 17 21 17h96c10 0 16 -7 14 -17z
" />
    <glyph glyph-name="Dcroat" unicode="&#x110;" horiz-adv-x="610" 
d="M632 504c0 -22 -2 -45 -6 -69l-33 -190c-28 -162 -118 -245 -278 -245h-236c-11 0 -18 8 -16 19l119 672c2 11 9 19 20 19h218c140 0 212 -79 212 -206zM498 490c0 57 -25 95 -100 95h-100l-28 -160h141c11 0 18 -8 16 -19l-16 -87c-2 -11 -9 -19 -20 -19h-143l-31 -175
h105c86 0 126 62 141 145l30 170c3 18 5 35 5 50z" />
    <glyph glyph-name="dcroat" unicode="&#x111;" 
d="M625 639l-14 -77c-2 -11 -11 -19 -22 -19h-28l-93 -524c-2 -11 -9 -19 -20 -19h-84c-11 0 -18 8 -16 19l2 9c-35 -21 -76 -38 -117 -38c-99 0 -145 58 -145 143c0 15 1 31 4 47l28 160c19 109 72 170 185 170c43 0 80 -13 110 -29l11 62h-54c-11 0 -18 8 -16 19l14 77
c2 11 11 19 22 19h54l6 33c2 11 9 19 20 19h99c11 0 18 -8 16 -19l-6 -33h28c11 0 18 -8 16 -19zM396 375c-24 9 -48 15 -71 15c-48 0 -66 -28 -74 -75l-23 -130c-2 -9 -2 -17 -2 -24c0 -32 15 -51 54 -51c21 0 47 7 73 17z" />
    <glyph glyph-name="Emacron" unicode="&#x112;" horiz-adv-x="505" 
d="M587 691l-15 -87c-2 -11 -10 -19 -21 -19h-253l-28 -160h231c11 0 18 -8 16 -19l-16 -87c-2 -11 -9 -19 -20 -19h-233l-31 -175h251c11 0 18 -8 16 -19l-16 -87c-2 -11 -9 -19 -20 -19h-369c-11 0 -18 8 -16 19l119 672c2 11 9 19 20 19h369c11 0 18 -8 16 -19zM551 881
l-14 -77c-2 -11 -11 -19 -22 -19h-217c-11 0 -18 8 -16 19l14 77c2 11 11 19 22 19h217c11 0 18 -8 16 -19z" />
    <glyph glyph-name="emacron" unicode="&#x113;" horiz-adv-x="500" 
d="M518 366c0 -117 -52 -172 -222 -177l-71 -2c0 -46 19 -74 82 -74c54 0 138 21 138 21c11 2 18 -6 16 -17l-15 -85c-2 -11 -10 -16 -22 -20c0 0 -68 -22 -132 -22c-142 0 -199 78 -199 191c0 21 2 43 6 66l6 37c23 141 100 226 233 226c120 0 180 -51 180 -144zM393 351
c0 30 -21 46 -57 46c-56 0 -81 -39 -95 -109l57 2c70 2 95 22 95 61zM503 681l-14 -77c-2 -11 -11 -19 -22 -19h-217c-11 0 -18 8 -16 19l14 77c2 11 11 19 22 19h217c11 0 18 -8 16 -19z" />
    <glyph glyph-name="Ebreve" unicode="&#x114;" horiz-adv-x="505" 
d="M587 691l-15 -87c-2 -11 -10 -19 -21 -19h-253l-28 -160h231c11 0 18 -8 16 -19l-16 -87c-2 -11 -9 -19 -20 -19h-233l-31 -175h251c11 0 18 -8 16 -19l-16 -87c-2 -11 -9 -19 -20 -19h-369c-11 0 -18 8 -16 19l119 672c2 11 9 19 20 19h369c11 0 18 -8 16 -19zM578 912
v-4c-20 -112 -70 -161 -176 -161c-89 0 -144 37 -144 120c0 13 1 26 4 41c2 11 11 19 22 19h82c10 0 16 -6 16 -15c0 -7 -3 -22 -3 -36c0 -25 9 -34 31 -34c24 0 39 16 48 66c2 11 11 19 22 19h82c10 0 16 -6 16 -15z" />
    <glyph glyph-name="ebreve" unicode="&#x115;" horiz-adv-x="500" 
d="M518 366c0 -117 -52 -172 -222 -177l-71 -2c0 -46 19 -74 82 -74c54 0 138 21 138 21c11 2 18 -6 16 -17l-15 -85c-2 -11 -10 -16 -22 -20c0 0 -68 -22 -132 -22c-142 0 -199 78 -199 191c0 21 2 43 6 66l6 37c23 141 100 226 233 226c120 0 180 -51 180 -144zM393 351
c0 30 -21 46 -57 46c-56 0 -81 -39 -95 -109l57 2c70 2 95 22 95 61zM536 703v-4c-20 -112 -70 -161 -176 -161c-89 0 -144 37 -144 120c0 13 1 26 4 41c2 11 11 19 22 19h82c10 0 16 -6 16 -15c0 -7 -3 -22 -3 -36c0 -25 9 -34 31 -34c24 0 39 16 48 66c2 11 11 19 22 19
h82c10 0 16 -6 16 -15z" />
    <glyph glyph-name="Edotaccent" unicode="&#x116;" horiz-adv-x="505" 
d="M587 691l-15 -87c-2 -11 -10 -19 -21 -19h-253l-28 -160h231c11 0 18 -8 16 -19l-16 -87c-2 -11 -9 -19 -20 -19h-233l-31 -175h251c11 0 18 -8 16 -19l-16 -87c-2 -11 -9 -19 -20 -19h-369c-11 0 -18 8 -16 19l119 672c2 11 9 19 20 19h369c11 0 18 -8 16 -19zM481 866
l-17 -97c-2 -11 -12 -19 -23 -19h-97c-11 0 -17 8 -15 19l17 97c2 11 11 19 22 19h97c11 0 18 -8 16 -19z" />
    <glyph glyph-name="edotaccent" unicode="&#x117;" horiz-adv-x="500" 
d="M518 366c0 -117 -52 -172 -222 -177l-71 -2c0 -46 19 -74 82 -74c54 0 138 21 138 21c11 2 18 -6 16 -17l-15 -85c-2 -11 -10 -16 -22 -20c0 0 -68 -22 -132 -22c-142 0 -199 78 -199 191c0 21 2 43 6 66l6 37c23 141 100 226 233 226c120 0 180 -51 180 -144zM393 351
c0 30 -21 46 -57 46c-56 0 -81 -39 -95 -109l57 2c70 2 95 22 95 61zM445 691l-18 -97c-2 -11 -9 -19 -20 -19h-99c-11 0 -18 8 -16 19l18 97c2 11 9 19 20 19h99c11 0 18 -8 16 -19z" />
    <glyph glyph-name="Eogonek" unicode="&#x118;" horiz-adv-x="505" 
d="M587 691l-15 -87c-2 -11 -10 -19 -21 -19h-253l-28 -160h231c11 0 18 -8 16 -19l-16 -87c-2 -11 -9 -19 -20 -19h-233l-31 -175h251c11 0 18 -8 16 -19l-16 -87c-2 -13 -8 -14 -17 -20c-34 -23 -64 -57 -64 -92c0 -8 2 -19 14 -19c13 0 26 6 38 9c6 0 5 -6 4 -11l-10 -60
c-1 -6 -5 -14 -13 -16c-15 -4 -44 -10 -75 -10c-47 0 -68 28 -68 70c0 33 15 99 70 130h-268c-11 0 -18 8 -16 19l119 672c2 11 9 19 20 19h369c11 0 18 -8 16 -19z" />
    <glyph glyph-name="eogonek" unicode="&#x119;" horiz-adv-x="500" 
d="M518 366c0 -117 -52 -172 -222 -177l-71 -2c0 -46 19 -74 82 -74c54 0 138 21 138 21c11 2 18 -6 16 -17l-15 -85c-2 -11 -10 -16 -21 -21c-27 -12 -77 -63 -77 -104c0 -8 2 -19 14 -19c13 0 26 6 38 9c6 0 5 -6 4 -11l-10 -60c-1 -6 -5 -14 -13 -16
c-15 -4 -44 -10 -75 -10c-47 0 -68 28 -68 70c0 30 12 87 55 120c-143 0 -200 78 -200 191c0 21 2 43 6 66l6 37c23 141 100 226 233 226c120 0 180 -51 180 -144zM393 351c0 30 -21 46 -57 46c-56 0 -81 -39 -95 -109l57 2c70 2 95 22 95 61z" />
    <glyph glyph-name="Ecaron" unicode="&#x11a;" horiz-adv-x="505" 
d="M587 691l-15 -87c-2 -11 -10 -19 -21 -19h-253l-28 -160h231c11 0 18 -8 16 -19l-16 -87c-2 -11 -9 -19 -20 -19h-233l-31 -175h251c11 0 18 -8 16 -19l-16 -87c-2 -11 -9 -19 -20 -19h-369c-11 0 -18 8 -16 19l119 672c2 11 9 19 20 19h369c11 0 18 -8 16 -19zM590 915
l-16 -90c-2 -11 -11 -15 -22 -20l-116 -50c-20 -9 -32 -11 -51 0l-103 61c-9 5 -17 14 -15 25l13 76c2 11 13 16 22 12l122 -58l150 58c11 4 18 -3 16 -14z" />
    <glyph glyph-name="ecaron" unicode="&#x11b;" horiz-adv-x="500" 
d="M518 366c0 -117 -52 -172 -222 -177l-71 -2c0 -46 19 -74 82 -74c54 0 138 21 138 21c11 2 18 -6 16 -17l-15 -85c-2 -11 -10 -16 -22 -20c0 0 -68 -22 -132 -22c-142 0 -199 78 -199 191c0 21 2 43 6 66l6 37c23 141 100 226 233 226c120 0 180 -51 180 -144zM393 351
c0 30 -21 46 -57 46c-56 0 -81 -39 -95 -109l57 2c70 2 95 22 95 61zM541 706l-16 -90c-2 -11 -11 -15 -22 -20l-116 -50c-20 -9 -32 -11 -51 0l-103 61c-9 5 -17 14 -15 25l13 76c2 11 13 16 22 12l122 -58l150 58c11 4 18 -3 16 -14z" />
    <glyph glyph-name="Gcircumflex" unicode="&#x11c;" horiz-adv-x="610" 
d="M647 664l-15 -86c-2 -11 -11 -15 -23 -13c0 0 -96 30 -174 30c-104 0 -145 -59 -162 -155l-32 -180c-3 -18 -5 -35 -5 -50c0 -61 28 -95 93 -95c55 0 108 13 108 13l27 152h-101c-11 0 -17 8 -15 19l15 87c2 11 11 19 22 19h217c11 0 18 -8 16 -19l-62 -351
s-104 -45 -238 -45c-143 0 -218 76 -218 204c0 22 3 46 7 71l34 190c32 178 127 265 301 265c108 0 190 -34 190 -34c11 -3 17 -11 15 -22zM609 843l-13 -76c-2 -11 -13 -16 -22 -12l-122 58l-150 -58c-11 -4 -18 3 -16 14l16 90c2 11 11 15 22 20l116 50c20 9 32 11 51 0
l103 -61c9 -5 17 -14 15 -25z" />
    <glyph glyph-name="gcircumflex" unicode="&#x11d;" 
d="M546 460l-80 -455c-27 -153 -75 -205 -223 -205c-91 0 -175 24 -175 24c-12 2 -17 11 -15 22l15 85c2 11 10 17 22 15c0 0 86 -21 147 -21c64 0 85 29 96 90l4 23c-30 -16 -65 -28 -100 -28c-100 0 -145 58 -145 143c0 15 1 31 4 47l23 135c19 114 84 175 217 175
c95 0 194 -30 194 -30c11 -2 18 -9 16 -20zM398 381c-27 5 -53 9 -68 9c-52 0 -71 -28 -79 -75l-19 -110c-2 -9 -2 -17 -2 -24c0 -32 15 -51 54 -51c21 0 46 7 72 17zM532 634l-13 -76c-2 -11 -13 -16 -22 -12l-122 58l-150 -58c-11 -4 -18 3 -16 14l16 90c2 11 11 15 22 20
l116 50c20 9 32 11 51 0l103 -61c9 -5 17 -14 15 -25z" />
    <glyph glyph-name="Gbreve" unicode="&#x11e;" horiz-adv-x="610" 
d="M647 664l-15 -86c-2 -11 -11 -15 -23 -13c0 0 -96 30 -174 30c-104 0 -145 -59 -162 -155l-32 -180c-3 -18 -5 -35 -5 -50c0 -61 28 -95 93 -95c55 0 108 13 108 13l27 152h-101c-11 0 -17 8 -15 19l15 87c2 11 11 19 22 19h217c11 0 18 -8 16 -19l-62 -351
s-104 -45 -238 -45c-143 0 -218 76 -218 204c0 22 3 46 7 71l34 190c32 178 127 265 301 265c108 0 190 -34 190 -34c11 -3 17 -11 15 -22zM614 912v-4c-20 -112 -70 -161 -176 -161c-89 0 -144 37 -144 120c0 13 1 26 4 41c2 11 11 19 22 19h82c10 0 16 -6 16 -15
c0 -7 -3 -22 -3 -36c0 -25 9 -34 31 -34c24 0 39 16 48 66c2 11 11 19 22 19h82c10 0 16 -6 16 -15z" />
    <glyph glyph-name="gbreve" unicode="&#x11f;" 
d="M546 460l-80 -455c-27 -153 -75 -205 -223 -205c-91 0 -175 24 -175 24c-12 2 -17 11 -15 22l15 85c2 11 10 17 22 15c0 0 86 -21 147 -21c64 0 85 29 96 90l4 23c-30 -16 -65 -28 -100 -28c-100 0 -145 58 -145 143c0 15 1 31 4 47l23 135c19 114 84 175 217 175
c95 0 194 -30 194 -30c11 -2 18 -9 16 -20zM398 381c-27 5 -53 9 -68 9c-52 0 -71 -28 -79 -75l-19 -110c-2 -9 -2 -17 -2 -24c0 -32 15 -51 54 -51c21 0 46 7 72 17zM544 703v-4c-20 -112 -70 -161 -176 -161c-89 0 -144 37 -144 120c0 13 1 26 4 41c2 11 11 19 22 19h82
c10 0 16 -6 16 -15c0 -7 -3 -22 -3 -36c0 -25 9 -34 31 -34c24 0 39 16 48 66c2 11 11 19 22 19h82c10 0 16 -6 16 -15z" />
    <glyph glyph-name="Gdotaccent" unicode="&#x120;" horiz-adv-x="610" 
d="M647 664l-15 -86c-2 -11 -11 -15 -23 -13c0 0 -96 30 -174 30c-104 0 -145 -59 -162 -155l-32 -180c-3 -18 -5 -35 -5 -50c0 -61 28 -95 93 -95c55 0 108 13 108 13l27 152h-101c-11 0 -17 8 -15 19l15 87c2 11 11 19 22 19h217c11 0 18 -8 16 -19l-62 -351
s-104 -45 -238 -45c-143 0 -218 76 -218 204c0 22 3 46 7 71l34 190c32 178 127 265 301 265c108 0 190 -34 190 -34c11 -3 17 -11 15 -22zM517 866l-17 -97c-2 -11 -12 -19 -23 -19h-97c-11 0 -17 8 -15 19l17 97c2 11 11 19 22 19h97c11 0 18 -8 16 -19z" />
    <glyph glyph-name="gdotaccent" unicode="&#x121;" 
d="M546 460l-80 -455c-27 -153 -75 -205 -223 -205c-91 0 -175 24 -175 24c-12 2 -17 11 -15 22l15 85c2 11 10 17 22 15c0 0 86 -21 147 -21c64 0 85 29 96 90l4 23c-30 -16 -65 -28 -100 -28c-100 0 -145 58 -145 143c0 15 1 31 4 47l23 135c19 114 84 175 217 175
c95 0 194 -30 194 -30c11 -2 18 -9 16 -20zM398 381c-27 5 -53 9 -68 9c-52 0 -71 -28 -79 -75l-19 -110c-2 -9 -2 -17 -2 -24c0 -32 15 -51 54 -51c21 0 46 7 72 17zM453 691l-18 -97c-2 -11 -9 -19 -20 -19h-99c-11 0 -18 8 -16 19l18 97c2 11 9 19 20 19h99
c11 0 18 -8 16 -19z" />
    <glyph glyph-name="Gcommaaccent" unicode="&#x122;" horiz-adv-x="610" 
d="M647 664l-15 -86c-2 -11 -11 -15 -23 -13c0 0 -96 30 -174 30c-104 0 -145 -59 -162 -155l-32 -180c-3 -18 -5 -35 -5 -50c0 -61 28 -95 93 -95c55 0 108 13 108 13l27 152h-101c-11 0 -17 8 -15 19l15 87c2 11 11 19 22 19h217c11 0 18 -8 16 -19l-62 -351
s-104 -45 -238 -45c-143 0 -218 76 -218 204c0 22 3 46 7 71l34 190c32 178 127 265 301 265c108 0 190 -34 190 -34c11 -3 17 -11 15 -22zM385 -41l-19 -104l-45 -87c-5 -10 -10 -17 -20 -17h-45c-10 0 -17 6 -14 16l28 79h-19c-10 0 -16 7 -14 17l17 96c2 10 10 17 20 17
h96c10 0 16 -7 15 -17z" />
    <glyph glyph-name="gcommaaccent" unicode="&#x123;" 
d="M546 460l-80 -455c-27 -153 -75 -205 -223 -205c-91 0 -175 24 -175 24c-12 2 -17 11 -15 22l15 85c2 11 10 17 22 15c0 0 86 -21 147 -21c64 0 85 29 96 90l4 23c-30 -16 -65 -28 -100 -28c-100 0 -145 58 -145 143c0 15 1 31 4 47l23 135c19 114 84 175 217 175
c95 0 194 -30 194 -30c11 -2 18 -9 16 -20zM398 381c-27 5 -53 9 -68 9c-52 0 -71 -28 -79 -75l-19 -110c-2 -9 -2 -17 -2 -24c0 -32 15 -51 54 -51c21 0 46 7 72 17zM306 600l18 105l61 127c5 10 11 17 21 17h44c10 0 16 -7 13 -16l-43 -119h19c10 0 16 -7 15 -17l-17 -97
c-2 -10 -11 -17 -21 -17h-96c-10 0 -16 7 -14 17z" />
    <glyph glyph-name="Hcircumflex" unicode="&#x124;" horiz-adv-x="610" 
d="M672 691l-119 -672c-2 -11 -9 -19 -20 -19h-99c-11 0 -18 8 -16 19l50 281h-220l-50 -281c-2 -11 -9 -19 -20 -19h-99c-11 0 -18 8 -16 19l119 672c2 11 9 19 20 19h99c11 0 18 -8 16 -19l-47 -266h220l47 266c2 11 9 19 20 19h99c11 0 18 -8 16 -19zM606 843l-13 -76
c-2 -11 -13 -16 -22 -12l-122 58l-150 -58c-11 -4 -18 3 -16 14l16 90c2 11 11 15 22 20l116 50c20 9 32 11 51 0l103 -61c9 -5 17 -14 15 -25z" />
    <glyph glyph-name="hcircumflex" unicode="&#x125;" 
d="M527 378c0 -17 -2 -35 -5 -53l-54 -306c-2 -11 -9 -19 -20 -19h-99c-11 0 -18 8 -16 19l53 301c1 8 2 15 2 22c0 27 -13 43 -48 43c-24 0 -54 -9 -81 -21l-61 -345c-2 -11 -9 -19 -20 -19h-99c-11 0 -18 8 -16 19l119 672c2 11 9 19 20 19h99c11 0 18 -8 16 -19l-38 -216
c32 19 71 35 116 35c96 0 132 -56 132 -132zM427 844l-13 -76c-2 -11 -13 -16 -22 -12l-122 58l-150 -58c-11 -4 -18 3 -16 14l16 90c2 11 11 15 22 20l116 50c20 9 32 11 51 0l103 -61c9 -5 17 -14 15 -25z" />
    <glyph glyph-name="Hbar" unicode="&#x126;" horiz-adv-x="610" 
d="M703 601l-15 -82c-2 -11 -9 -19 -20 -19h-30l-85 -481c-2 -11 -9 -19 -20 -19h-99c-11 0 -18 8 -16 19l50 281h-220l-50 -281c-2 -11 -9 -19 -20 -19h-99c-11 0 -18 8 -16 19l85 481h-29c-11 0 -18 8 -16 19l15 82c2 11 9 19 20 19h31l13 71c2 11 9 19 20 19h99
c11 0 18 -8 16 -19l-13 -71h220l13 71c2 11 9 19 20 19h99c11 0 18 -8 16 -19l-13 -71h28c11 0 18 -8 16 -19zM270 425h220l13 75h-220z" />
    <glyph glyph-name="hbar" unicode="&#x127;" 
d="M380 639l-14 -77c-2 -11 -11 -19 -22 -19h-53l-12 -68c32 19 71 35 116 35c96 0 132 -56 132 -132c0 -17 -2 -35 -5 -53l-54 -306c-2 -11 -9 -19 -20 -19h-99c-11 0 -18 8 -16 19l53 301c1 8 2 15 2 22c0 27 -13 43 -48 43c-24 0 -54 -9 -81 -21l-61 -345
c-2 -11 -9 -19 -20 -19h-99c-11 0 -18 8 -16 19l93 524h-29c-11 0 -18 8 -16 19l14 77c2 11 11 19 22 19h29l6 33c2 11 9 19 20 19h99c11 0 18 -8 16 -19l-6 -33h53c11 0 18 -8 16 -19z" />
    <glyph glyph-name="Itilde" unicode="&#x128;" horiz-adv-x="445" 
d="M537 691l-9 -52c-2 -11 -10 -19 -21 -19h-108l-93 -530h106c11 0 18 -8 16 -19l-10 -52c-2 -11 -9 -19 -20 -19h-349c-11 0 -18 8 -16 19l10 52c2 11 9 19 20 19h108l93 530h-106c-11 0 -17 8 -15 19l9 52c2 11 9 19 20 19h349c11 0 18 -8 16 -19zM533 885l-13 -74
c-2 -13 -12 -24 -24 -32c0 0 -27 -19 -66 -19c-51 0 -100 36 -139 36c-28 0 -68 -24 -68 -24c-11 -4 -20 0 -18 11l13 75c2 13 13 23 25 32c0 0 26 19 65 19c61 0 105 -36 139 -36c28 0 67 24 67 24c11 4 21 -1 19 -12z" />
    <glyph glyph-name="itilde" unicode="&#x129;" horiz-adv-x="255" 
d="M280 481l-82 -462c-2 -11 -9 -19 -20 -19h-99c-11 0 -18 8 -16 19l82 462c2 11 9 19 20 19h99c11 0 18 -8 16 -19zM407 696l-13 -74c-2 -13 -12 -24 -24 -32c0 0 -27 -19 -66 -19c-51 0 -100 36 -139 36c-28 0 -68 -24 -68 -24c-11 -4 -20 0 -18 11l13 75
c2 13 13 23 25 32c0 0 26 19 65 19c61 0 105 -36 139 -36c28 0 67 24 67 24c11 4 21 -1 19 -12z" />
    <glyph glyph-name="Imacron" unicode="&#x12a;" horiz-adv-x="445" 
d="M537 691l-9 -52c-2 -11 -10 -19 -21 -19h-108l-93 -530h106c11 0 18 -8 16 -19l-10 -52c-2 -11 -9 -19 -20 -19h-349c-11 0 -18 8 -16 19l10 52c2 11 9 19 20 19h108l93 530h-106c-11 0 -17 8 -15 19l9 52c2 11 9 19 20 19h349c11 0 18 -8 16 -19zM501 881l-14 -77
c-2 -11 -11 -19 -22 -19h-217c-11 0 -18 8 -16 19l14 77c2 11 11 19 22 19h217c11 0 18 -8 16 -19z" />
    <glyph glyph-name="imacron" unicode="&#x12b;" horiz-adv-x="255" 
d="M280 481l-82 -462c-2 -11 -9 -19 -20 -19h-99c-11 0 -18 8 -16 19l82 462c2 11 9 19 20 19h99c11 0 18 -8 16 -19zM369 681l-14 -77c-2 -11 -11 -19 -22 -19h-217c-11 0 -18 8 -16 19l14 77c2 11 11 19 22 19h217c11 0 18 -8 16 -19z" />
    <glyph glyph-name="Iogonek" unicode="&#x12e;" horiz-adv-x="445" 
d="M194 -200c-47 0 -68 28 -68 70c0 33 15 99 70 130h-147c-11 0 -18 8 -16 19l10 52c2 11 9 19 20 19h108l93 530h-106c-11 0 -17 8 -15 19l9 52c2 11 9 19 20 19h349c11 0 18 -8 16 -19l-9 -52c-2 -11 -10 -19 -21 -19h-108l-93 -530h106c11 0 18 -8 16 -19l-10 -52
c-2 -11 -9 -19 -20 -19h-96c-31 -19 -66 -56 -66 -93c0 -8 2 -19 14 -19c13 0 26 6 38 9c6 0 5 -6 4 -11l-10 -60c-1 -6 -5 -14 -13 -16c-15 -4 -44 -10 -75 -10z" />
    <glyph glyph-name="iogonek" unicode="&#x12f;" horiz-adv-x="255" 
d="M280 481l-82 -462c-2 -9 -6 -14 -11 -17c-32 -22 -66 -58 -66 -95c0 -8 2 -19 14 -19c13 0 26 6 38 9c6 0 5 -6 4 -11l-10 -60c-1 -6 -5 -14 -13 -16c-15 -4 -44 -10 -75 -10c-47 0 -68 28 -68 70c0 33 15 99 70 130h-4c-8 0 -16 8 -14 19l82 462c2 11 9 19 20 19h99
c11 0 18 -8 16 -19zM317 691l-18 -97c-2 -11 -9 -19 -20 -19h-99c-11 0 -18 8 -16 19l18 97c2 11 9 19 20 19h99c11 0 18 -8 16 -19z" />
    <glyph glyph-name="Idotaccent" unicode="&#x130;" horiz-adv-x="445" 
d="M537 691l-9 -52c-2 -11 -10 -19 -21 -19h-108l-93 -530h106c11 0 18 -8 16 -19l-10 -52c-2 -11 -9 -19 -20 -19h-349c-11 0 -18 8 -16 19l10 52c2 11 9 19 20 19h108l93 530h-106c-11 0 -17 8 -15 19l9 52c2 11 9 19 20 19h349c11 0 18 -8 16 -19zM431 866l-17 -97
c-2 -11 -12 -19 -23 -19h-97c-11 0 -17 8 -15 19l17 97c2 11 11 19 22 19h97c11 0 18 -8 16 -19z" />
    <glyph glyph-name="dotlessi" unicode="&#x131;" horiz-adv-x="255" 
d="M280 481l-82 -462c-2 -11 -9 -19 -20 -19h-99c-11 0 -18 8 -16 19l82 462c2 11 9 19 20 19h99c11 0 18 -8 16 -19z" />
    <glyph glyph-name="IJ" unicode="&#x132;" horiz-adv-x="820" 
d="M537 691l-9 -52c-2 -11 -10 -19 -21 -19h-108l-93 -530h106c11 0 18 -8 16 -19l-10 -52c-2 -11 -9 -19 -20 -19h-349c-11 0 -18 8 -16 19l10 52c2 11 9 19 20 19h108l93 530h-106c-11 0 -17 8 -15 19l9 52c2 11 9 19 20 19h349c11 0 18 -8 16 -19zM882 691l-85 -481
c-26 -146 -93 -210 -237 -210h-56c-11 0 -18 8 -16 19l15 82c2 11 9 19 20 19h23c71 0 106 33 120 110l81 461c2 11 9 19 20 19h99c11 0 18 -8 16 -19z" />
    <glyph glyph-name="ij" unicode="&#x133;" horiz-adv-x="510" 
d="M317 691l-18 -97c-2 -11 -9 -19 -20 -19h-99c-11 0 -18 8 -16 19l18 97c2 11 9 19 20 19h99c11 0 18 -8 16 -19zM280 481l-82 -462c-2 -11 -9 -19 -20 -19h-99c-11 0 -18 8 -16 19l82 462c2 11 9 19 20 19h99c11 0 18 -8 16 -19zM572 691l-18 -97c-2 -11 -9 -19 -20 -19
h-99c-11 0 -18 8 -16 19l18 97c2 11 9 19 20 19h99c11 0 18 -8 16 -19zM535 481l-101 -575c-17 -94 -56 -106 -133 -106c-44 0 -80 8 -80 8c-11 1 -18 10 -16 21l13 76c2 11 9 18 19 17c0 0 20 -2 32 -2c23 0 34 12 39 38l92 523c2 11 9 19 20 19h99c11 0 18 -8 16 -19z" />
    <glyph glyph-name="Jcircumflex" unicode="&#x134;" horiz-adv-x="375" 
d="M437 691l-85 -481c-26 -146 -93 -210 -237 -210h-56c-11 0 -18 8 -16 19l15 82c2 11 9 19 20 19h23c71 0 106 33 120 110l81 461c2 11 9 19 20 19h99c11 0 18 -8 16 -19zM548 843l-13 -76c-2 -11 -13 -16 -22 -12l-122 58l-150 -58c-11 -4 -18 3 -16 14l16 90
c2 11 11 15 22 20l116 50c20 9 32 11 51 0l103 -61c9 -5 17 -14 15 -25z" />
    <glyph glyph-name="jcircumflex" unicode="&#x135;" horiz-adv-x="255" 
d="M280 481l-101 -575c-17 -94 -56 -106 -133 -106c-44 0 -80 8 -80 8c-11 1 -18 10 -16 21l13 76c2 11 9 18 19 17c0 0 20 -2 32 -2c23 0 34 12 39 38l92 523c2 11 9 19 20 19h99c11 0 18 -8 16 -19zM390 634l-13 -76c-2 -11 -13 -16 -22 -12l-122 58l-150 -58
c-11 -4 -18 3 -16 14l16 90c2 11 11 15 22 20l116 50c20 9 32 11 51 0l103 -61c9 -5 17 -14 15 -25z" />
    <glyph glyph-name="Kcommaaccent" unicode="&#x136;" horiz-adv-x="550" 
d="M650 690l-239 -325l132 -346c4 -10 -3 -19 -14 -19h-109c-11 0 -18 9 -22 19l-137 351l236 321c7 10 17 19 28 19h113c11 0 19 -10 12 -20zM317 691l-119 -672c-2 -11 -9 -19 -20 -19h-99c-11 0 -18 8 -16 19l119 672c2 11 9 19 20 19h99c11 0 18 -8 16 -19zM361 -41
l-19 -104l-45 -87c-5 -10 -10 -17 -20 -17h-45c-10 0 -17 6 -14 16l28 79h-19c-10 0 -16 7 -14 17l17 96c2 10 10 17 20 17h96c10 0 16 -7 15 -17z" />
    <glyph glyph-name="kcommaaccent" unicode="&#x137;" horiz-adv-x="465" 
d="M530 481l-140 -209l70 -253c2 -9 -3 -19 -14 -19h-104c-11 0 -19 9 -22 19l-75 261l136 201c7 10 17 19 28 19h110c11 0 18 -9 11 -19zM317 691l-119 -672c-2 -11 -9 -19 -20 -19h-99c-11 0 -18 8 -16 19l119 672c2 11 9 19 20 19h99c11 0 18 -8 16 -19zM321 -41
l-19 -104l-45 -87c-5 -10 -10 -17 -20 -17h-45c-10 0 -17 6 -14 16l28 79h-19c-10 0 -16 7 -14 17l17 96c2 10 10 17 20 17h96c10 0 16 -7 15 -17z" />
    <glyph glyph-name="Lacute" unicode="&#x139;" horiz-adv-x="505" 
d="M484 106l-16 -87c-2 -11 -9 -19 -20 -19h-369c-11 0 -18 8 -16 19l119 672c2 11 9 19 20 19h99c11 0 18 -8 16 -19l-100 -566h251c11 0 18 -8 16 -19zM434 889l-97 -110c-8 -9 -19 -19 -30 -19h-101c-12 0 -14 11 -8 21l68 110c6 10 19 19 30 19h130c12 0 16 -12 8 -21z
" />
    <glyph glyph-name="lacute" unicode="&#x13a;" horiz-adv-x="255" 
d="M317 691l-119 -672c-2 -11 -9 -19 -20 -19h-99c-11 0 -18 8 -16 19l119 672c2 11 9 19 20 19h99c11 0 18 -8 16 -19zM439 909l-97 -110c-8 -9 -19 -19 -30 -19h-101c-12 0 -14 11 -8 21l68 110c6 10 19 19 30 19h130c12 0 16 -12 8 -21z" />
    <glyph glyph-name="Lcommaaccent" unicode="&#x13b;" horiz-adv-x="505" 
d="M484 106l-16 -87c-2 -11 -9 -19 -20 -19h-369c-11 0 -18 8 -16 19l119 672c2 11 9 19 20 19h99c11 0 18 -8 16 -19l-100 -566h251c11 0 18 -8 16 -19zM340 -41l-19 -104l-45 -87c-5 -10 -10 -17 -20 -17h-45c-10 0 -17 6 -14 16l28 79h-19c-10 0 -16 7 -14 17l17 96
c2 10 10 17 20 17h96c10 0 16 -7 15 -17z" />
    <glyph glyph-name="lcommaaccent" unicode="&#x13c;" horiz-adv-x="255" 
d="M317 691l-119 -672c-2 -11 -9 -19 -20 -19h-99c-11 0 -18 8 -16 19l119 672c2 11 9 19 20 19h99c11 0 18 -8 16 -19zM185 -41l-19 -104l-45 -87c-5 -10 -10 -17 -20 -17h-45c-10 0 -17 6 -14 16l28 79h-19c-10 0 -16 7 -14 17l17 96c2 10 10 17 20 17h96
c10 0 16 -7 15 -17z" />
    <glyph glyph-name="Lcaron" unicode="&#x13d;" horiz-adv-x="505" 
d="M484 106l-16 -87c-2 -11 -9 -19 -20 -19h-369c-11 0 -18 8 -16 19l119 672c2 11 9 19 20 19h99c11 0 18 -8 16 -19l-100 -566h251c11 0 18 -8 16 -19zM494 693l-15 -85l-51 -71c-6 -9 -13 -17 -23 -17h-42c-10 0 -19 8 -13 16l30 43h-19c-10 0 -16 7 -15 17l17 97
c2 10 11 17 21 17h96c10 0 16 -7 14 -17z" />
    <glyph glyph-name="lcaron" unicode="&#x13e;" horiz-adv-x="255" 
d="M317 691l-119 -672c-2 -11 -9 -19 -20 -19h-99c-11 0 -18 8 -16 19l119 672c2 11 9 19 20 19h99c11 0 18 -8 16 -19zM494 693l-15 -85l-51 -71c-6 -9 -13 -17 -23 -17h-42c-10 0 -19 8 -13 16l30 43h-19c-10 0 -16 7 -15 17l17 97c2 10 11 17 21 17h96c10 0 16 -7 14 -17
z" />
    <glyph glyph-name="Ldot" unicode="&#x13f;" horiz-adv-x="505" 
d="M484 106l-16 -87c-2 -11 -9 -19 -20 -19h-369c-11 0 -18 8 -16 19l119 672c2 11 9 19 20 19h99c11 0 18 -8 16 -19l-100 -566h251c11 0 18 -8 16 -19zM469 444l-17 -97c-2 -11 -12 -19 -23 -19h-97c-11 0 -17 8 -15 19l17 97c2 11 11 19 22 19h97c11 0 18 -8 16 -19z" />
    <glyph glyph-name="ldot" unicode="&#x140;" horiz-adv-x="355" 
d="M317 691l-119 -672c-2 -11 -9 -19 -20 -19h-99c-11 0 -18 8 -16 19l119 672c2 11 9 19 20 19h99c11 0 18 -8 16 -19zM437 404l-18 -97c-2 -11 -9 -19 -20 -19h-99c-11 0 -18 8 -16 19l18 97c2 11 9 19 20 19h99c11 0 18 -8 16 -19z" />
    <glyph glyph-name="Lslash" unicode="&#x141;" horiz-adv-x="505" 
d="M484 106l-16 -87c-2 -11 -11 -19 -22 -19h-367c-11 0 -18 8 -16 19l52 295l-22 -5c-11 -2 -18 6 -16 17l7 39c2 11 12 16 23 19l21 5l54 302c2 11 11 19 22 19h97c11 0 18 -8 16 -19l-48 -273l125 26c11 2 19 -5 17 -16l-8 -40c-2 -11 -11 -17 -22 -19l-125 -26l-39 -218
h251c11 0 18 -8 16 -19z" />
    <glyph glyph-name="lslash" unicode="&#x142;" horiz-adv-x="255" 
d="M317 691l-48 -274l18 4c11 2 21 -5 19 -16l-6 -39c-2 -11 -12 -17 -23 -19l-22 -5l-57 -323c-2 -11 -9 -19 -20 -19h-99c-11 0 -18 8 -16 19l52 295l-19 -4c-11 -2 -20 6 -18 17l6 38c2 11 12 17 23 19l21 4l54 303c2 11 9 19 20 19h99c11 0 18 -8 16 -19z" />
    <glyph glyph-name="Nacute" unicode="&#x143;" horiz-adv-x="610" 
d="M672 691l-119 -672c-2 -11 -9 -19 -20 -19h-103c-13 0 -19 9 -22 19l-136 415l-74 -415c-2 -11 -9 -19 -20 -19h-99c-11 0 -18 8 -16 19l119 672c2 11 9 19 20 19h103c15 0 19 -9 22 -19l136 -415l74 415c2 11 9 19 20 19h99c11 0 18 -8 16 -19zM602 889l-97 -110
c-8 -9 -19 -19 -30 -19h-101c-12 0 -14 11 -8 21l68 110c6 10 19 19 30 19h130c12 0 16 -12 8 -21z" />
    <glyph glyph-name="nacute" unicode="&#x144;" 
d="M527 378c0 -17 -2 -35 -5 -53l-54 -306c-2 -11 -9 -19 -20 -19h-99c-11 0 -18 8 -16 19l53 301c1 8 2 15 2 22c0 27 -13 43 -48 43c-24 0 -54 -9 -81 -21l-61 -345c-2 -11 -9 -19 -20 -19h-99c-11 0 -18 8 -16 19l82 462c2 11 9 19 20 19h89c11 0 18 -8 16 -19l-2 -13
c34 22 77 42 127 42c96 0 132 -56 132 -132zM523 699l-97 -110c-8 -9 -19 -19 -30 -19h-101c-12 0 -14 11 -8 21l68 110c6 10 19 19 30 19h130c12 0 16 -12 8 -21z" />
    <glyph glyph-name="Ncommaaccent" unicode="&#x145;" horiz-adv-x="610" 
d="M672 691l-119 -672c-2 -11 -9 -19 -20 -19h-103c-13 0 -19 9 -22 19l-136 415l-74 -415c-2 -11 -9 -19 -20 -19h-99c-11 0 -18 8 -16 19l119 672c2 11 9 19 20 19h103c15 0 19 -9 22 -19l136 -415l74 415c2 11 9 19 20 19h99c11 0 18 -8 16 -19zM383 -41l-19 -104
l-45 -87c-5 -10 -10 -17 -20 -17h-45c-10 0 -17 6 -14 16l28 79h-19c-10 0 -16 7 -14 17l17 96c2 10 10 17 20 17h96c10 0 16 -7 15 -17z" />
    <glyph glyph-name="ncommaaccent" unicode="&#x146;" 
d="M527 378c0 -17 -2 -35 -5 -53l-54 -306c-2 -11 -9 -19 -20 -19h-99c-11 0 -18 8 -16 19l53 301c1 8 2 15 2 22c0 27 -13 43 -48 43c-24 0 -54 -9 -81 -21l-61 -345c-2 -11 -9 -19 -20 -19h-99c-11 0 -18 8 -16 19l82 462c2 11 9 19 20 19h89c11 0 18 -8 16 -19l-2 -13
c34 22 77 42 127 42c96 0 132 -56 132 -132zM330 -41l-19 -104l-45 -87c-5 -10 -10 -17 -20 -17h-45c-10 0 -17 6 -14 16l28 79h-19c-10 0 -16 7 -14 17l17 96c2 10 10 17 20 17h96c10 0 16 -7 15 -17z" />
    <glyph glyph-name="Ncaron" unicode="&#x147;" horiz-adv-x="610" 
d="M672 691l-119 -672c-2 -11 -9 -19 -20 -19h-103c-13 0 -19 9 -22 19l-136 415l-74 -415c-2 -11 -9 -19 -20 -19h-99c-11 0 -18 8 -16 19l119 672c2 11 9 19 20 19h103c15 0 19 -9 22 -19l136 -415l74 415c2 11 9 19 20 19h99c11 0 18 -8 16 -19zM613 915l-16 -90
c-2 -11 -11 -15 -22 -20l-116 -50c-20 -9 -32 -11 -51 0l-103 61c-9 5 -17 14 -15 25l13 76c2 11 13 16 22 12l122 -58l150 58c11 4 18 -3 16 -14z" />
    <glyph glyph-name="ncaron" unicode="&#x148;" 
d="M527 378c0 -17 -2 -35 -5 -53l-54 -306c-2 -11 -9 -19 -20 -19h-99c-11 0 -18 8 -16 19l53 301c1 8 2 15 2 22c0 27 -13 43 -48 43c-24 0 -54 -9 -81 -21l-61 -345c-2 -11 -9 -19 -20 -19h-99c-11 0 -18 8 -16 19l82 462c2 11 9 19 20 19h89c11 0 18 -8 16 -19l-2 -13
c34 22 77 42 127 42c96 0 132 -56 132 -132zM528 706l-16 -90c-2 -11 -11 -15 -22 -20l-116 -50c-20 -9 -32 -11 -51 0l-103 61c-9 5 -17 14 -15 25l13 76c2 11 13 16 22 12l122 -58l150 58c11 4 18 -3 16 -14z" />
    <glyph glyph-name="napostrophe" unicode="&#x149;" 
d="M527 378c0 -17 -2 -35 -5 -53l-54 -306c-2 -11 -9 -19 -20 -19h-99c-11 0 -18 8 -16 19l53 301c1 8 2 15 2 22c0 27 -13 43 -48 43c-24 0 -54 -9 -81 -21l-61 -345c-2 -11 -9 -19 -20 -19h-99c-11 0 -18 8 -16 19l82 462c2 11 9 19 20 19h89c11 0 18 -8 16 -19l-2 -13
c34 22 77 42 127 42c96 0 132 -56 132 -132zM255 693l-15 -85l-51 -71c-6 -9 -13 -17 -23 -17h-42c-10 0 -19 8 -13 16l30 43h-19c-10 0 -16 7 -15 17l17 97c2 10 11 17 21 17h96c10 0 16 -7 14 -17z" />
    <glyph glyph-name="Omacron" unicode="&#x14c;" horiz-adv-x="610" 
d="M634 512c0 -21 -2 -44 -6 -67l-37 -210c-29 -163 -119 -245 -278 -245c-137 0 -212 79 -212 207c0 21 2 44 6 68l37 210c29 162 118 245 278 245c137 0 212 -80 212 -208zM499 498c0 58 -25 97 -94 97c-85 0 -117 -62 -131 -145l-33 -190c-3 -17 -5 -33 -5 -48
c0 -59 26 -97 94 -97c82 0 117 62 131 145l33 190c3 17 5 33 5 48zM577 881l-14 -77c-2 -11 -11 -19 -22 -19h-217c-11 0 -18 8 -16 19l14 77c2 11 11 19 22 19h217c11 0 18 -8 16 -19z" />
    <glyph glyph-name="omacron" unicode="&#x14d;" horiz-adv-x="526" 
d="M524 350c0 -16 -2 -32 -5 -50l-21 -120c-24 -135 -99 -190 -227 -190c-114 0 -180 57 -180 160c0 16 2 32 5 50l21 120c24 135 98 190 226 190c114 0 181 -57 181 -160zM388 336c0 34 -16 57 -61 57c-51 0 -69 -35 -77 -80l-22 -125c-1 -8 -2 -16 -2 -23
c0 -34 16 -57 61 -57c51 0 69 35 77 80l22 125c1 8 2 16 2 23zM498 681l-14 -77c-2 -11 -11 -19 -22 -19h-217c-11 0 -18 8 -16 19l14 77c2 11 11 19 22 19h217c11 0 18 -8 16 -19z" />
    <glyph glyph-name="Obreve" unicode="&#x14e;" horiz-adv-x="610" 
d="M634 512c0 -21 -2 -44 -6 -67l-37 -210c-29 -163 -119 -245 -278 -245c-137 0 -212 79 -212 207c0 21 2 44 6 68l37 210c29 162 118 245 278 245c137 0 212 -80 212 -208zM499 498c0 58 -25 97 -94 97c-85 0 -117 -62 -131 -145l-33 -190c-3 -17 -5 -33 -5 -48
c0 -59 26 -97 94 -97c82 0 117 62 131 145l33 190c3 17 5 33 5 48zM604 912v-4c-20 -112 -70 -161 -176 -161c-89 0 -144 37 -144 120c0 13 1 26 4 41c2 11 11 19 22 19h82c10 0 16 -6 16 -15c0 -7 -3 -22 -3 -36c0 -25 9 -34 31 -34c24 0 39 16 48 66c2 11 11 19 22 19h82
c10 0 16 -6 16 -15z" />
    <glyph glyph-name="obreve" unicode="&#x14f;" horiz-adv-x="526" 
d="M524 350c0 -16 -2 -32 -5 -50l-21 -120c-24 -135 -99 -190 -227 -190c-114 0 -180 57 -180 160c0 16 2 32 5 50l21 120c24 135 98 190 226 190c114 0 181 -57 181 -160zM388 336c0 34 -16 57 -61 57c-51 0 -69 -35 -77 -80l-22 -125c-1 -8 -2 -16 -2 -23
c0 -34 16 -57 61 -57c51 0 69 35 77 80l22 125c1 8 2 16 2 23zM531 703v-4c-20 -112 -70 -161 -176 -161c-89 0 -144 37 -144 120c0 13 1 26 4 41c2 11 11 19 22 19h82c10 0 16 -6 16 -15c0 -7 -3 -22 -3 -36c0 -25 9 -34 31 -34c24 0 39 16 48 66c2 11 11 19 22 19h82
c10 0 16 -6 16 -15z" />
    <glyph glyph-name="Ohungarumlaut" unicode="&#x150;" horiz-adv-x="610" 
d="M634 512c0 -21 -2 -44 -6 -67l-37 -210c-29 -163 -119 -245 -278 -245c-137 0 -212 79 -212 207c0 21 2 44 6 68l37 210c29 162 118 245 278 245c137 0 212 -80 212 -208zM499 498c0 58 -25 97 -94 97c-85 0 -117 -62 -131 -145l-33 -190c-3 -17 -5 -33 -5 -48
c0 -59 26 -97 94 -97c82 0 117 62 131 145l33 190c3 17 5 33 5 48zM674 917l-86 -141c-6 -10 -18 -19 -29 -19h-94c-11 0 -17 10 -11 20l86 141c6 10 16 19 27 19h94c11 0 19 -10 13 -20zM484 917l-86 -141c-6 -10 -18 -19 -29 -19h-94c-11 0 -17 10 -11 20l86 141
c6 10 16 19 27 19h94c11 0 19 -10 13 -20z" />
    <glyph glyph-name="ohungarumlaut" unicode="&#x151;" horiz-adv-x="526" 
d="M524 350c0 -16 -2 -32 -5 -50l-21 -120c-24 -135 -99 -190 -227 -190c-114 0 -180 57 -180 160c0 16 2 32 5 50l21 120c24 135 98 190 226 190c114 0 181 -57 181 -160zM388 336c0 34 -16 57 -61 57c-51 0 -69 -35 -77 -80l-22 -125c-1 -8 -2 -16 -2 -23
c0 -34 16 -57 61 -57c51 0 69 35 77 80l22 125c1 8 2 16 2 23zM600 730l-86 -141c-6 -10 -18 -19 -29 -19h-94c-11 0 -17 10 -11 20l86 141c6 10 16 19 27 19h94c11 0 19 -10 13 -20zM410 730l-86 -141c-6 -10 -18 -19 -29 -19h-94c-11 0 -17 10 -11 20l86 141
c6 10 16 19 27 19h94c11 0 19 -10 13 -20z" />
    <glyph glyph-name="OE" unicode="&#x152;" horiz-adv-x="810" 
d="M892 691l-15 -87c-2 -11 -10 -19 -21 -19h-203l-28 -160h181c11 0 18 -8 16 -19l-16 -87c-2 -11 -9 -19 -20 -19h-183l-31 -175h201c11 0 18 -8 16 -19l-16 -87c-2 -11 -9 -19 -20 -19h-319c-11 0 -18 8 -16 19l2 11c-27 -19 -66 -40 -107 -40c-137 0 -212 79 -212 207
c0 21 2 44 6 68l37 210c28 161 118 245 278 245c58 0 88 -19 113 -40l2 11c2 11 9 19 20 19h319c11 0 18 -8 16 -19zM499 498c0 58 -25 97 -94 97c-85 0 -117 -62 -131 -145l-33 -190c-3 -17 -5 -33 -5 -48c0 -59 26 -97 94 -97c82 0 117 62 131 145l33 190c3 17 5 33 5 48z
" />
    <glyph glyph-name="oe" unicode="&#x153;" horiz-adv-x="776" 
d="M794 366c0 -117 -52 -172 -222 -177l-71 -2c0 -46 19 -74 82 -74c54 0 138 21 138 21c11 2 18 -6 16 -17l-15 -85c-2 -11 -10 -16 -22 -20c0 0 -68 -22 -132 -22c-66 0 -113 17 -145 46c-36 -32 -86 -46 -152 -46c-114 0 -180 57 -180 160c0 16 2 32 5 50l21 120
c24 135 98 190 226 190c58 0 104 -15 135 -43c34 28 79 43 136 43c120 0 180 -51 180 -144zM669 351c0 30 -21 46 -57 46c-56 0 -81 -39 -95 -109l57 2c70 2 95 22 95 61zM388 336c0 34 -16 57 -61 57c-51 0 -69 -35 -77 -80l-22 -125c-1 -8 -2 -16 -2 -23
c0 -34 16 -57 61 -57c51 0 69 35 77 80l22 125c1 8 2 16 2 23z" />
    <glyph glyph-name="Racute" unicode="&#x154;" horiz-adv-x="580" 
d="M622 527c0 -141 -69 -217 -190 -240l120 -269c4 -9 -3 -18 -14 -18h-111c-11 0 -17 10 -21 19l-116 261h-45l-47 -261c-2 -11 -9 -19 -20 -19h-99c-11 0 -18 8 -16 19l119 672c2 11 9 19 20 19h218c125 0 202 -64 202 -183zM485 508c0 60 -36 82 -101 82h-85l-33 -190h82
c84 0 137 26 137 108zM565 889l-97 -110c-8 -9 -19 -19 -30 -19h-101c-12 0 -14 11 -8 21l68 110c6 10 19 19 30 19h130c12 0 16 -12 8 -21z" />
    <glyph glyph-name="racute" unicode="&#x155;" horiz-adv-x="330" 
d="M400 482l-20 -112c-2 -11 -10 -16 -21 -15c0 0 -4 1 -12 1c-40 0 -73 -23 -98 -50l-51 -287c-2 -11 -9 -19 -20 -19h-99c-11 0 -18 8 -16 19l82 462c2 11 9 19 20 19h82c11 0 18 -8 16 -19l-9 -47c17 43 45 76 103 76c16 0 30 -4 30 -4c12 -3 15 -13 13 -24zM455 699
l-97 -110c-8 -9 -19 -19 -30 -19h-101c-12 0 -14 11 -8 21l68 110c6 10 19 19 30 19h130c12 0 16 -12 8 -21z" />
    <glyph glyph-name="Rcommaaccent" unicode="&#x156;" horiz-adv-x="580" 
d="M622 527c0 -141 -69 -217 -190 -240l120 -269c4 -9 -3 -18 -14 -18h-111c-11 0 -17 10 -21 19l-116 261h-45l-47 -261c-2 -11 -9 -19 -20 -19h-99c-11 0 -18 8 -16 19l119 672c2 11 9 19 20 19h218c125 0 202 -64 202 -183zM485 508c0 60 -36 82 -101 82h-85l-33 -190h82
c84 0 137 26 137 108zM355 -41l-19 -104l-45 -87c-5 -10 -10 -17 -20 -17h-45c-10 0 -17 6 -14 16l28 79h-19c-10 0 -16 7 -14 17l17 96c2 10 10 17 20 17h96c10 0 16 -7 15 -17z" />
    <glyph glyph-name="rcommaaccent" unicode="&#x157;" horiz-adv-x="330" 
d="M400 482l-20 -112c-2 -11 -10 -16 -21 -15c0 0 -4 1 -12 1c-40 0 -73 -23 -98 -50l-51 -287c-2 -11 -9 -19 -20 -19h-99c-11 0 -18 8 -16 19l82 462c2 11 9 19 20 19h82c11 0 18 -8 16 -19l-9 -47c17 43 45 76 103 76c16 0 30 -4 30 -4c12 -3 15 -13 13 -24zM185 -41
l-19 -104l-45 -87c-5 -10 -10 -17 -20 -17h-45c-10 0 -17 6 -14 16l28 79h-19c-10 0 -16 7 -14 17l17 96c2 10 10 17 20 17h96c10 0 16 -7 15 -17z" />
    <glyph glyph-name="Rcaron" unicode="&#x158;" horiz-adv-x="580" 
d="M622 527c0 -141 -69 -217 -190 -240l120 -269c4 -9 -3 -18 -14 -18h-111c-11 0 -17 10 -21 19l-116 261h-45l-47 -261c-2 -11 -9 -19 -20 -19h-99c-11 0 -18 8 -16 19l119 672c2 11 9 19 20 19h218c125 0 202 -64 202 -183zM485 508c0 60 -36 82 -101 82h-85l-33 -190h82
c84 0 137 26 137 108zM576 915l-16 -90c-2 -11 -11 -15 -22 -20l-116 -50c-20 -9 -32 -11 -51 0l-103 61c-9 5 -17 14 -15 25l13 76c2 11 13 16 22 12l122 -58l150 58c11 4 18 -3 16 -14z" />
    <glyph glyph-name="rcaron" unicode="&#x159;" horiz-adv-x="330" 
d="M400 482l-20 -112c-2 -11 -10 -16 -21 -15c0 0 -4 1 -12 1c-40 0 -73 -23 -98 -50l-51 -287c-2 -11 -9 -19 -20 -19h-99c-11 0 -18 8 -16 19l82 462c2 11 9 19 20 19h82c11 0 18 -8 16 -19l-9 -47c17 43 45 76 103 76c16 0 30 -4 30 -4c12 -3 15 -13 13 -24zM460 706
l-16 -90c-2 -11 -11 -15 -22 -20l-116 -50c-20 -9 -32 -11 -51 0l-103 61c-9 5 -17 14 -15 25l13 76c2 11 13 16 22 12l122 -58l150 58c11 4 18 -3 16 -14z" />
    <glyph glyph-name="Sacute" unicode="&#x15a;" horiz-adv-x="535" 
d="M589 677l-15 -88c-2 -11 -10 -15 -22 -14c0 0 -108 20 -167 20c-69 0 -92 -20 -102 -68l-3 -15c-1 -6 -2 -11 -2 -16c0 -29 18 -47 46 -57l69 -25c63 -23 128 -67 128 -162c0 -13 -2 -26 -4 -40l-5 -30c-25 -150 -102 -192 -256 -192c-78 0 -184 26 -184 26
c-11 2 -18 9 -16 20l17 91c2 11 10 16 22 14c0 0 118 -26 170 -26c76 0 106 22 114 77l3 20c1 6 1 11 1 16c0 37 -23 58 -59 71l-69 25c-61 22 -112 69 -112 152c0 11 1 23 3 36l4 25c22 137 120 183 245 183c85 0 176 -22 176 -22c11 -1 20 -10 18 -21zM588 889l-97 -110
c-8 -9 -19 -19 -30 -19h-101c-12 0 -14 11 -8 21l68 110c6 10 19 19 30 19h130c12 0 16 -12 8 -21z" />
    <glyph glyph-name="sacute" unicode="&#x15b;" horiz-adv-x="485" 
d="M497 468l-14 -80c-2 -11 -10 -18 -23 -16c0 0 -83 18 -141 18c-29 0 -71 0 -71 -36c0 -22 19 -28 51 -35l32 -7c62 -14 136 -37 136 -134c0 -140 -79 -188 -217 -188c-93 0 -184 28 -184 28c-12 4 -16 11 -14 22l14 81c2 11 11 18 22 15c0 0 104 -26 161 -26
c29 0 77 2 77 38c0 25 -22 32 -52 38l-33 7c-62 13 -134 37 -134 134c0 131 92 183 221 183c79 0 154 -21 154 -21c12 -3 17 -10 15 -21zM516 699l-97 -110c-8 -9 -19 -19 -30 -19h-101c-12 0 -14 11 -8 21l68 110c6 10 19 19 30 19h130c12 0 16 -12 8 -21z" />
    <glyph glyph-name="Scircumflex" unicode="&#x15c;" horiz-adv-x="535" 
d="M589 677l-15 -88c-2 -11 -10 -15 -22 -14c0 0 -108 20 -167 20c-69 0 -92 -20 -102 -68l-3 -15c-1 -6 -2 -11 -2 -16c0 -29 18 -47 46 -57l69 -25c63 -23 128 -67 128 -162c0 -13 -2 -26 -4 -40l-5 -30c-25 -150 -102 -192 -256 -192c-78 0 -184 26 -184 26
c-11 2 -18 9 -16 20l17 91c2 11 10 16 22 14c0 0 118 -26 170 -26c76 0 106 22 114 77l3 20c1 6 1 11 1 16c0 37 -23 58 -59 71l-69 25c-61 22 -112 69 -112 152c0 11 1 23 3 36l4 25c22 137 120 183 245 183c85 0 176 -22 176 -22c11 -1 20 -10 18 -21zM582 843l-13 -76
c-2 -11 -13 -16 -22 -12l-122 58l-150 -58c-11 -4 -18 3 -16 14l16 90c2 11 11 15 22 20l116 50c20 9 32 11 51 0l103 -61c9 -5 17 -14 15 -25z" />
    <glyph glyph-name="scircumflex" unicode="&#x15d;" horiz-adv-x="485" 
d="M497 468l-14 -80c-2 -11 -10 -18 -23 -16c0 0 -83 18 -141 18c-29 0 -71 0 -71 -36c0 -22 19 -28 51 -35l32 -7c62 -14 136 -37 136 -134c0 -140 -79 -188 -217 -188c-93 0 -184 28 -184 28c-12 4 -16 11 -14 22l14 81c2 11 11 18 22 15c0 0 104 -26 161 -26
c29 0 77 2 77 38c0 25 -22 32 -52 38l-33 7c-62 13 -134 37 -134 134c0 131 92 183 221 183c79 0 154 -21 154 -21c12 -3 17 -10 15 -21zM504 634l-13 -76c-2 -11 -13 -16 -22 -12l-122 58l-150 -58c-11 -4 -18 3 -16 14l16 90c2 11 11 15 22 20l116 50c20 9 32 11 51 0
l103 -61c9 -5 17 -14 15 -25z" />
    <glyph glyph-name="Scedilla" unicode="&#x15e;" horiz-adv-x="535" 
d="M368 -95c0 -77 -40 -105 -115 -105c-31 0 -77 7 -77 7c-10 2 -18 8 -16 19l5 27c2 11 7 17 18 17h23c22 0 43 3 43 29c0 14 -12 21 -31 21h-16c-11 0 -15 7 -11 18l21 54c-69 7 -140 24 -140 24c-11 2 -18 9 -16 20l17 91c2 11 10 16 22 14c0 0 118 -26 170 -26
c76 0 106 22 114 77l3 20c1 6 1 11 1 16c0 37 -23 58 -59 71l-69 25c-61 22 -112 69 -112 152c0 11 1 23 3 36l4 25c22 137 120 183 245 183c85 0 176 -22 176 -22c11 -1 20 -10 18 -21l-15 -88c-2 -11 -10 -15 -22 -14c0 0 -108 20 -167 20c-69 0 -92 -20 -102 -68l-3 -15
c-1 -6 -2 -11 -2 -16c0 -29 18 -47 46 -57l69 -25c63 -23 128 -67 128 -162c0 -13 -2 -26 -4 -40l-5 -30c-23 -135 -87 -182 -211 -190l-7 -20h4c40 0 70 -20 70 -67z" />
    <glyph glyph-name="scedilla" unicode="&#x15f;" horiz-adv-x="485" 
d="M342 -95c0 -77 -40 -105 -115 -105c-31 0 -77 7 -77 7c-10 2 -18 8 -16 19l5 27c2 11 7 17 18 17h23c22 0 43 3 43 29c0 14 -12 21 -31 21h-16c-11 0 -15 7 -11 18l22 56c-67 7 -121 24 -121 24c-12 4 -16 11 -14 22l14 81c2 11 11 18 22 15c0 0 104 -26 161 -26
c29 0 77 2 77 38c0 25 -22 32 -52 38l-33 7c-62 13 -134 37 -134 134c0 131 92 183 221 183c79 0 154 -21 154 -21c12 -3 17 -10 15 -21l-14 -80c-2 -11 -10 -18 -23 -16c0 0 -83 18 -141 18c-29 0 -71 0 -71 -36c0 -22 19 -28 51 -35l32 -7c62 -14 136 -37 136 -134
c0 -131 -70 -181 -192 -187l-7 -19h4c40 0 70 -20 70 -67z" />
    <glyph glyph-name="Scaron" unicode="&#x160;" horiz-adv-x="535" 
d="M585 915l-16 -90c-2 -11 -11 -15 -22 -20l-116 -50c-20 -9 -32 -11 -51 0l-103 61c-9 5 -17 14 -15 25l13 76c2 11 13 16 22 12l122 -58l150 58c11 4 18 -3 16 -14zM589 677l-15 -88c-2 -11 -10 -15 -22 -14c0 0 -108 20 -167 20c-69 0 -92 -20 -102 -68l-3 -15
c-1 -6 -2 -11 -2 -16c0 -29 18 -47 46 -57l69 -25c63 -23 128 -67 128 -162c0 -13 -2 -26 -4 -40l-5 -30c-25 -150 -102 -192 -256 -192c-78 0 -184 26 -184 26c-11 2 -18 9 -16 20l17 91c2 11 10 16 22 14c0 0 118 -26 170 -26c76 0 106 22 114 77l3 20c1 6 1 11 1 16
c0 37 -23 58 -59 71l-69 25c-61 22 -112 69 -112 152c0 11 1 23 3 36l4 25c22 137 120 183 245 183c85 0 176 -22 176 -22c11 -1 20 -10 18 -21z" />
    <glyph glyph-name="scaron" unicode="&#x161;" horiz-adv-x="485" 
d="M522 706l-16 -90c-2 -11 -11 -15 -22 -20l-116 -50c-20 -9 -32 -11 -51 0l-103 61c-9 5 -17 14 -15 25l13 76c2 11 13 16 22 12l122 -58l150 58c11 4 18 -3 16 -14zM497 468l-14 -80c-2 -11 -10 -18 -23 -16c0 0 -83 18 -141 18c-29 0 -71 0 -71 -36c0 -22 19 -28 51 -35
l32 -7c62 -14 136 -37 136 -134c0 -140 -79 -188 -217 -188c-93 0 -184 28 -184 28c-12 4 -16 11 -14 22l14 81c2 11 11 18 22 15c0 0 104 -26 161 -26c29 0 77 2 77 38c0 25 -22 32 -52 38l-33 7c-62 13 -134 37 -134 134c0 131 92 183 221 183c79 0 154 -21 154 -21
c12 -3 17 -10 15 -21z" />
    <glyph glyph-name="Tcommaaccent" unicode="&#x162;" horiz-adv-x="550" 
d="M642 691l-15 -87c-2 -11 -10 -19 -21 -19h-160l-100 -566c-2 -11 -9 -19 -20 -19h-99c-11 0 -18 8 -16 19l100 566h-159c-11 0 -17 8 -15 19l15 87c2 11 9 19 20 19h454c11 0 18 -8 16 -19zM333 -41l-19 -104l-45 -87c-5 -10 -10 -17 -20 -17h-45c-10 0 -17 6 -14 16
l28 79h-19c-10 0 -16 7 -14 17l17 96c2 10 10 17 20 17h96c10 0 16 -7 15 -17z" />
    <glyph glyph-name="tcommaaccent" unicode="&#x163;" horiz-adv-x="355" 
d="M430 481l-14 -77c-2 -11 -9 -19 -20 -19h-113l-38 -213c-1 -7 -2 -13 -2 -18c0 -28 16 -39 43 -39c25 0 59 5 59 5c15 1 20 -7 18 -18l-15 -85c-2 -11 -11 -19 -23 -20c0 0 -49 -7 -89 -7c-84 0 -132 42 -132 126c0 15 2 32 5 49l39 220h-51c-11 0 -18 8 -16 19l14 77
c2 11 9 19 20 19h53l20 111c2 11 9 19 20 19h99c11 0 18 -8 16 -19l-20 -111h111c11 0 18 -8 16 -19zM283 -41l-19 -104l-45 -87c-5 -10 -10 -17 -20 -17h-45c-10 0 -17 6 -14 16l28 79h-19c-10 0 -16 7 -14 17l17 96c2 10 10 17 20 17h96c10 0 16 -7 15 -17z" />
    <glyph glyph-name="Tcaron" unicode="&#x164;" horiz-adv-x="550" 
d="M642 691l-15 -87c-2 -11 -10 -19 -21 -19h-160l-100 -566c-2 -11 -9 -19 -20 -19h-99c-11 0 -18 8 -16 19l100 566h-159c-11 0 -17 8 -15 19l15 87c2 11 9 19 20 19h454c11 0 18 -8 16 -19zM593 915l-16 -90c-2 -11 -11 -15 -22 -20l-116 -50c-20 -9 -32 -11 -51 0
l-103 61c-9 5 -17 14 -15 25l13 76c2 11 13 16 22 12l122 -58l150 58c11 4 18 -3 16 -14z" />
    <glyph glyph-name="tcaron" unicode="&#x165;" horiz-adv-x="355" 
d="M430 481l-14 -77c-2 -11 -9 -19 -20 -19h-113l-38 -213c-1 -7 -2 -13 -2 -18c0 -28 16 -39 43 -39c25 0 59 5 59 5c15 1 20 -7 18 -18l-15 -85c-2 -11 -11 -19 -23 -20c0 0 -49 -7 -89 -7c-84 0 -132 42 -132 126c0 15 2 32 5 49l39 220h-51c-11 0 -18 8 -16 19l14 77
c2 11 9 19 20 19h53l20 111c2 11 9 19 20 19h99c11 0 18 -8 16 -19l-20 -111h111c11 0 18 -8 16 -19zM520 693l-15 -85l-51 -71c-6 -9 -13 -17 -23 -17h-42c-10 0 -19 8 -13 16l30 43h-19c-10 0 -16 7 -15 17l17 97c2 10 11 17 21 17h96c10 0 16 -7 14 -17z" />
    <glyph glyph-name="Tbar" unicode="&#x166;" horiz-adv-x="550" 
d="M546 456l-15 -82c-2 -11 -9 -19 -20 -19h-106l-59 -336c-2 -11 -9 -19 -20 -19h-99c-11 0 -18 8 -16 19l59 336h-105c-11 0 -18 8 -16 19l15 82c2 11 9 19 20 19h107l20 110h-159c-11 0 -17 8 -15 19l15 87c2 11 9 19 20 19h454c11 0 18 -8 16 -19l-15 -87
c-2 -11 -10 -19 -21 -19h-160l-20 -110h104c11 0 18 -8 16 -19z" />
    <glyph glyph-name="tbar" unicode="&#x167;" horiz-adv-x="355" 
d="M320 319l-14 -77c-2 -11 -11 -19 -22 -19h-30l-9 -51c-1 -7 -2 -13 -2 -18c0 -28 16 -39 43 -39c25 0 59 5 59 5c15 1 20 -7 18 -18l-15 -85c-2 -11 -11 -19 -23 -20c0 0 -49 -7 -89 -7c-84 0 -132 42 -132 126c0 15 2 32 5 49l10 58h-29c-11 0 -18 8 -16 19l14 77
c2 11 11 19 22 19h29l9 47h-51c-11 0 -18 8 -16 19l14 77c2 11 9 19 20 19h53l20 111c2 11 9 19 20 19h99c11 0 18 -8 16 -19l-20 -111h111c11 0 18 -8 16 -19l-14 -77c-2 -11 -9 -19 -20 -19h-113l-9 -47h30c11 0 18 -8 16 -19z" />
    <glyph glyph-name="Utilde" unicode="&#x168;" horiz-adv-x="610" 
d="M672 691l-78 -441c-34 -190 -127 -260 -278 -260c-136 0 -214 68 -214 206c0 24 2 50 7 79l73 416c2 11 9 19 20 19h99c11 0 18 -8 16 -19l-76 -431c-3 -19 -5 -37 -5 -53c0 -59 25 -92 92 -92c85 0 118 62 133 145l76 431c2 11 9 19 20 19h99c11 0 18 -8 16 -19z
M616 885l-13 -74c-2 -13 -12 -24 -24 -32c0 0 -27 -19 -66 -19c-51 0 -100 36 -139 36c-28 0 -68 -24 -68 -24c-11 -4 -20 0 -18 11l13 75c2 13 13 23 25 32c0 0 26 19 65 19c61 0 105 -36 139 -36c28 0 67 24 67 24c11 4 21 -1 19 -12z" />
    <glyph glyph-name="utilde" unicode="&#x169;" 
d="M550 481l-82 -462c-2 -11 -9 -19 -20 -19h-84c-11 0 -18 8 -16 19l3 17c-34 -24 -80 -46 -133 -46c-96 0 -132 56 -132 132c0 17 2 35 5 53l54 306c2 11 9 19 20 19h99c11 0 18 -8 16 -19l-53 -301c-1 -8 -2 -15 -2 -22c0 -27 13 -43 48 -43c24 0 54 9 81 21l61 345
c2 11 9 19 20 19h99c11 0 18 -8 16 -19zM542 696l-13 -74c-2 -13 -12 -24 -24 -32c0 0 -27 -19 -66 -19c-51 0 -100 36 -139 36c-28 0 -68 -24 -68 -24c-11 -4 -20 0 -18 11l13 75c2 13 13 23 25 32c0 0 26 19 65 19c61 0 105 -36 139 -36c28 0 67 24 67 24
c11 4 21 -1 19 -12z" />
    <glyph glyph-name="Umacron" unicode="&#x16a;" horiz-adv-x="610" 
d="M672 691l-78 -441c-34 -190 -127 -260 -278 -260c-136 0 -214 68 -214 206c0 24 2 50 7 79l73 416c2 11 9 19 20 19h99c11 0 18 -8 16 -19l-76 -431c-3 -19 -5 -37 -5 -53c0 -59 25 -92 92 -92c85 0 118 62 133 145l76 431c2 11 9 19 20 19h99c11 0 18 -8 16 -19z
M584 881l-14 -77c-2 -11 -11 -19 -22 -19h-217c-11 0 -18 8 -16 19l14 77c2 11 11 19 22 19h217c11 0 18 -8 16 -19z" />
    <glyph glyph-name="umacron" unicode="&#x16b;" 
d="M550 481l-82 -462c-2 -11 -9 -19 -20 -19h-84c-11 0 -18 8 -16 19l3 17c-34 -24 -80 -46 -133 -46c-96 0 -132 56 -132 132c0 17 2 35 5 53l54 306c2 11 9 19 20 19h99c11 0 18 -8 16 -19l-53 -301c-1 -8 -2 -15 -2 -22c0 -27 13 -43 48 -43c24 0 54 9 81 21l61 345
c2 11 9 19 20 19h99c11 0 18 -8 16 -19zM504 681l-14 -77c-2 -11 -11 -19 -22 -19h-217c-11 0 -18 8 -16 19l14 77c2 11 11 19 22 19h217c11 0 18 -8 16 -19z" />
    <glyph glyph-name="Ubreve" unicode="&#x16c;" horiz-adv-x="610" 
d="M672 691l-78 -441c-34 -190 -127 -260 -278 -260c-136 0 -214 68 -214 206c0 24 2 50 7 79l73 416c2 11 9 19 20 19h99c11 0 18 -8 16 -19l-76 -431c-3 -19 -5 -37 -5 -53c0 -59 25 -92 92 -92c85 0 118 62 133 145l76 431c2 11 9 19 20 19h99c11 0 18 -8 16 -19z
M611 912v-4c-20 -112 -70 -161 -176 -161c-89 0 -144 37 -144 120c0 13 1 26 4 41c2 11 11 19 22 19h82c10 0 16 -6 16 -15c0 -7 -3 -22 -3 -36c0 -25 9 -34 31 -34c24 0 39 16 48 66c2 11 11 19 22 19h82c10 0 16 -6 16 -15z" />
    <glyph glyph-name="ubreve" unicode="&#x16d;" 
d="M550 481l-82 -462c-2 -11 -9 -19 -20 -19h-84c-11 0 -18 8 -16 19l3 17c-34 -24 -80 -46 -133 -46c-96 0 -132 56 -132 132c0 17 2 35 5 53l54 306c2 11 9 19 20 19h99c11 0 18 -8 16 -19l-53 -301c-1 -8 -2 -15 -2 -22c0 -27 13 -43 48 -43c24 0 54 9 81 21l61 345
c2 11 9 19 20 19h99c11 0 18 -8 16 -19zM537 703v-4c-20 -112 -70 -161 -176 -161c-89 0 -144 37 -144 120c0 13 1 26 4 41c2 11 11 19 22 19h82c10 0 16 -6 16 -15c0 -7 -3 -22 -3 -36c0 -25 9 -34 31 -34c24 0 39 16 48 66c2 11 11 19 22 19h82c10 0 16 -6 16 -15z" />
    <glyph glyph-name="Uring" unicode="&#x16e;" horiz-adv-x="610" 
d="M672 691l-78 -441c-34 -190 -127 -260 -278 -260c-136 0 -214 68 -214 206c0 24 2 50 7 79l73 416c2 11 9 19 20 19h99c11 0 18 -8 16 -19l-76 -431c-3 -19 -5 -37 -5 -53c0 -59 25 -92 92 -92c85 0 118 62 133 145l76 431c2 11 9 19 20 19h99c11 0 18 -8 16 -19z
M562 757c0 -7 -1 -14 -2 -22c-12 -68 -67 -110 -145 -110c-68 0 -107 33 -107 87c0 7 1 15 2 23c12 68 66 110 144 110c68 0 108 -33 108 -88zM476 748c0 19 -9 32 -33 32c-29 0 -43 -19 -48 -45c-1 -5 -1 -9 -1 -13c0 -19 9 -32 33 -32c29 0 43 19 48 45c1 5 1 9 1 13z" />
    <glyph glyph-name="uring" unicode="&#x16f;" 
d="M550 481l-82 -462c-2 -11 -9 -19 -20 -19h-84c-11 0 -18 8 -16 19l3 17c-34 -24 -80 -46 -133 -46c-96 0 -132 56 -132 132c0 17 2 35 5 53l54 306c2 11 9 19 20 19h99c11 0 18 -8 16 -19l-53 -301c-1 -8 -2 -15 -2 -22c0 -27 13 -43 48 -43c24 0 54 9 81 21l61 345
c2 11 9 19 20 19h99c11 0 18 -8 16 -19zM502 672c0 -7 -1 -14 -2 -22c-12 -68 -67 -110 -145 -110c-68 0 -107 33 -107 87c0 7 1 15 2 23c12 68 66 110 144 110c68 0 108 -33 108 -88zM416 663c0 19 -9 32 -33 32c-29 0 -43 -19 -48 -45c-1 -5 -1 -9 -1 -13
c0 -19 9 -32 33 -32c29 0 43 19 48 45c1 5 1 9 1 13z" />
    <glyph glyph-name="Uhungarumlaut" unicode="&#x170;" horiz-adv-x="610" 
d="M672 691l-78 -441c-34 -190 -127 -260 -278 -260c-136 0 -214 68 -214 206c0 24 2 50 7 79l73 416c2 11 9 19 20 19h99c11 0 18 -8 16 -19l-76 -431c-3 -19 -5 -37 -5 -53c0 -59 25 -92 92 -92c85 0 118 62 133 145l76 431c2 11 9 19 20 19h99c11 0 18 -8 16 -19z
M681 917l-86 -141c-6 -10 -18 -19 -29 -19h-94c-11 0 -17 10 -11 20l86 141c6 10 16 19 27 19h94c11 0 19 -10 13 -20zM491 917l-86 -141c-6 -10 -18 -19 -29 -19h-94c-11 0 -17 10 -11 20l86 141c6 10 16 19 27 19h94c11 0 19 -10 13 -20z" />
    <glyph glyph-name="uhungarumlaut" unicode="&#x171;" 
d="M550 481l-82 -462c-2 -11 -9 -19 -20 -19h-84c-11 0 -18 8 -16 19l3 17c-34 -24 -80 -46 -133 -46c-96 0 -132 56 -132 132c0 17 2 35 5 53l54 306c2 11 9 19 20 19h99c11 0 18 -8 16 -19l-53 -301c-1 -8 -2 -15 -2 -22c0 -27 13 -43 48 -43c24 0 54 9 81 21l61 345
c2 11 9 19 20 19h99c11 0 18 -8 16 -19zM606 730l-86 -141c-6 -10 -18 -19 -29 -19h-94c-11 0 -17 10 -11 20l86 141c6 10 16 19 27 19h94c11 0 19 -10 13 -20zM416 730l-86 -141c-6 -10 -18 -19 -29 -19h-94c-11 0 -17 10 -11 20l86 141c6 10 16 19 27 19h94
c11 0 19 -10 13 -20z" />
    <glyph glyph-name="Uogonek" unicode="&#x172;" horiz-adv-x="610" 
d="M672 691l-78 -441c-27 -151 -91 -226 -191 -250c-13 -3 -66 -49 -66 -93c0 -8 2 -19 14 -19c13 0 26 6 38 9c6 0 5 -6 4 -11l-10 -60c-1 -6 -5 -14 -13 -16c-15 -4 -44 -10 -75 -10c-47 0 -68 28 -68 70c0 31 12 88 57 122c-116 9 -182 77 -182 204c0 24 2 50 7 79
l73 416c2 11 9 19 20 19h99c11 0 18 -8 16 -19l-76 -431c-3 -19 -5 -37 -5 -53c0 -59 25 -92 92 -92c85 0 118 62 133 145l76 431c2 11 9 19 20 19h99c11 0 18 -8 16 -19z" />
    <glyph glyph-name="uogonek" unicode="&#x173;" 
d="M346 -200c-47 0 -68 28 -68 70c0 35 16 104 76 133c-5 3 -8 9 -6 16l3 17c-34 -24 -80 -46 -133 -46c-96 0 -132 56 -132 132c0 17 2 35 5 53l54 306c2 11 9 19 20 19h99c11 0 18 -8 16 -19l-53 -301c-1 -8 -2 -15 -2 -22c0 -27 13 -43 48 -43c24 0 54 9 81 21l61 345
c2 11 9 19 20 19h99c11 0 18 -8 16 -19l-82 -462c-2 -10 -6 -14 -14 -19c-30 -17 -66 -56 -66 -93c0 -8 2 -19 14 -19c13 0 26 6 38 9c6 0 5 -6 4 -11l-10 -60c-1 -6 -5 -14 -13 -16c-15 -4 -44 -10 -75 -10z" />
    <glyph glyph-name="Wcircumflex" unicode="&#x174;" horiz-adv-x="935" 
d="M1032 689l-257 -670c-4 -11 -12 -19 -24 -19h-135c-13 0 -19 8 -20 19l-45 452l-200 -452c-5 -11 -11 -19 -24 -19h-135c-12 0 -20 8 -20 19l-27 670c0 11 5 21 17 21h108c11 0 16 -8 16 -19l11 -499l210 499c5 11 13 19 24 19h110c11 0 19 -8 20 -19l39 -499l183 499
c4 11 11 19 22 19h114c12 0 17 -10 13 -21zM767 843l-13 -76c-2 -11 -13 -16 -22 -12l-122 58l-150 -58c-11 -4 -18 3 -16 14l16 90c2 11 11 15 22 20l116 50c20 9 32 11 51 0l103 -61c9 -5 17 -14 15 -25z" />
    <glyph glyph-name="wcircumflex" unicode="&#x175;" horiz-adv-x="775" 
d="M835 480l-180 -461c-4 -11 -13 -19 -26 -19h-142c-12 0 -18 8 -19 19l-29 259l-116 -259c-5 -11 -13 -19 -26 -19h-146c-12 0 -18 8 -19 19l-23 461c-1 11 8 20 19 20h103c11 0 17 -8 17 -19l8 -319l132 319c4 11 14 19 26 19h109c12 0 19 -8 20 -19l28 -319l115 320
c4 11 14 18 25 18h110c11 0 19 -8 14 -20zM652 634l-13 -76c-2 -11 -13 -16 -22 -12l-122 58l-150 -58c-11 -4 -18 3 -16 14l16 90c2 11 11 15 22 20l116 50c20 9 32 11 51 0l103 -61c9 -5 17 -14 15 -25z" />
    <glyph glyph-name="Ycircumflex" unicode="&#x176;" horiz-adv-x="575" 
d="M677 689l-282 -464l-37 -206c-2 -11 -9 -19 -20 -19h-99c-11 0 -18 8 -16 19l37 206l-120 464c-3 10 4 21 16 21h110c11 0 16 -9 18 -19l67 -306l173 306c6 10 12 19 23 19h120c12 0 16 -11 10 -21zM588 843l-13 -76c-2 -11 -13 -16 -22 -12l-122 58l-150 -58
c-11 -4 -18 3 -16 14l16 90c2 11 11 15 22 20l116 50c20 9 32 11 51 0l103 -61c9 -5 17 -14 15 -25z" />
    <glyph glyph-name="ycircumflex" unicode="&#x177;" horiz-adv-x="500" 
d="M568 480l-324 -652c-5 -11 -14 -18 -25 -18h-110c-11 0 -18 9 -13 20l76 153l-71 498c-2 11 6 19 17 19h104c11 0 18 -6 19 -17l36 -296l143 295c5 11 14 18 25 18h110c11 0 18 -9 13 -20zM512 634l-13 -76c-2 -11 -13 -16 -22 -12l-122 58l-150 -58c-11 -4 -18 3 -16 14
l16 90c2 11 11 15 22 20l116 50c20 9 32 11 51 0l103 -61c9 -5 17 -14 15 -25z" />
    <glyph glyph-name="Ydieresis" unicode="&#x178;" horiz-adv-x="575" 
d="M618 866l-17 -97c-2 -11 -12 -19 -23 -19h-97c-11 0 -17 8 -15 19l17 97c2 11 11 19 22 19h97c11 0 18 -8 16 -19zM398 866l-17 -97c-2 -11 -12 -19 -23 -19h-97c-11 0 -17 8 -15 19l17 97c2 11 11 19 22 19h97c11 0 18 -8 16 -19zM677 689l-282 -464l-37 -206
c-2 -11 -9 -19 -20 -19h-99c-11 0 -18 8 -16 19l37 206l-120 464c-3 10 4 21 16 21h110c11 0 16 -9 18 -19l67 -306l173 306c6 10 12 19 23 19h120c12 0 16 -11 10 -21z" />
    <glyph glyph-name="Zacute" unicode="&#x179;" horiz-adv-x="485" 
d="M567 691l-19 -106l-314 -460h214c11 0 18 -8 16 -19l-16 -87c-2 -11 -9 -19 -20 -19h-369c-11 0 -18 8 -16 19l19 106l314 460h-214c-11 0 -17 8 -15 19l15 87c2 11 9 19 20 19h369c11 0 18 -8 16 -19zM549 889l-97 -110c-8 -9 -19 -19 -30 -19h-101c-12 0 -14 11 -8 21
l68 110c6 10 19 19 30 19h130c12 0 16 -12 8 -21z" />
    <glyph glyph-name="zacute" unicode="&#x17a;" horiz-adv-x="465" 
d="M510 481l-18 -101l-225 -260h160c11 0 18 -8 16 -19l-15 -82c-2 -11 -9 -19 -20 -19h-349c-11 0 -18 8 -16 19l18 101l225 260h-160c-11 0 -18 8 -16 19l15 82c2 11 9 19 20 19h349c11 0 18 -8 16 -19zM507 699l-97 -110c-8 -9 -19 -19 -30 -19h-101c-12 0 -14 11 -8 21
l68 110c6 10 19 19 30 19h130c12 0 16 -12 8 -21z" />
    <glyph glyph-name="Zdotaccent" unicode="&#x17b;" horiz-adv-x="485" 
d="M567 691l-19 -106l-314 -460h214c11 0 18 -8 16 -19l-16 -87c-2 -11 -9 -19 -20 -19h-369c-11 0 -18 8 -16 19l19 106l314 460h-214c-11 0 -17 8 -15 19l15 87c2 11 9 19 20 19h369c11 0 18 -8 16 -19zM451 866l-17 -97c-2 -11 -12 -19 -23 -19h-97c-11 0 -17 8 -15 19
l17 97c2 11 11 19 22 19h97c11 0 18 -8 16 -19z" />
    <glyph glyph-name="zdotaccent" unicode="&#x17c;" horiz-adv-x="465" 
d="M510 481l-18 -101l-225 -260h160c11 0 18 -8 16 -19l-15 -82c-2 -11 -9 -19 -20 -19h-349c-11 0 -18 8 -16 19l18 101l225 260h-160c-11 0 -18 8 -16 19l15 82c2 11 9 19 20 19h349c11 0 18 -8 16 -19zM416 691l-18 -97c-2 -11 -9 -19 -20 -19h-99c-11 0 -18 8 -16 19
l18 97c2 11 9 19 20 19h99c11 0 18 -8 16 -19z" />
    <glyph glyph-name="Zcaron" unicode="&#x17d;" horiz-adv-x="485" 
d="M560 915l-16 -90c-2 -11 -11 -15 -22 -20l-116 -50c-20 -9 -32 -11 -51 0l-103 61c-9 5 -17 14 -15 25l13 76c2 11 13 16 22 12l122 -58l150 58c11 4 18 -3 16 -14zM567 691l-19 -106l-314 -460h214c11 0 18 -8 16 -19l-16 -87c-2 -11 -9 -19 -20 -19h-369
c-11 0 -18 8 -16 19l19 106l314 460h-214c-11 0 -17 8 -15 19l15 87c2 11 9 19 20 19h369c11 0 18 -8 16 -19z" />
    <glyph glyph-name="zcaron" unicode="&#x17e;" horiz-adv-x="465" 
d="M512 706l-16 -90c-2 -11 -11 -15 -22 -20l-116 -50c-20 -9 -32 -11 -51 0l-103 61c-9 5 -17 14 -15 25l13 76c2 11 13 16 22 12l122 -58l150 58c11 4 18 -3 16 -14zM510 481l-18 -101l-225 -260h160c11 0 18 -8 16 -19l-15 -82c-2 -11 -9 -19 -20 -19h-349
c-11 0 -18 8 -16 19l18 101l225 260h-160c-11 0 -18 8 -16 19l15 82c2 11 9 19 20 19h349c11 0 18 -8 16 -19z" />
    <glyph glyph-name="florin" unicode="&#x192;" horiz-adv-x="500" 
d="M537 688l-15 -83c-2 -11 -10 -15 -22 -14c0 0 -25 4 -39 4c-23 0 -42 -7 -49 -44l-9 -51h81c11 0 18 -8 16 -19l-14 -77c-2 -11 -9 -19 -20 -19h-84l-83 -479c-16 -94 -56 -106 -133 -106c-44 0 -80 8 -80 8c-11 1 -18 10 -16 21l13 76c2 11 9 18 19 17c0 0 20 -2 32 -2
c23 0 34 12 39 38l74 427h-70c-11 0 -18 8 -16 19l14 77c2 11 9 19 20 19h73l13 72c21 116 89 148 166 148c42 0 74 -10 74 -10c11 -1 18 -10 16 -22z" />
    <glyph glyph-name="Scommaaccent" unicode="&#x218;" horiz-adv-x="535" 
d="M589 677l-15 -88c-2 -11 -10 -15 -22 -14c0 0 -108 20 -167 20c-69 0 -92 -20 -102 -68l-3 -15c-1 -6 -2 -11 -2 -16c0 -29 18 -47 46 -57l69 -25c63 -23 128 -67 128 -162c0 -13 -2 -26 -4 -40l-5 -30c-25 -150 -102 -192 -256 -192c-78 0 -184 26 -184 26
c-11 2 -18 9 -16 20l17 91c2 11 10 16 22 14c0 0 118 -26 170 -26c76 0 106 22 114 77l3 20c1 6 1 11 1 16c0 37 -23 58 -59 71l-69 25c-61 22 -112 69 -112 152c0 11 1 23 3 36l4 25c22 137 120 183 245 183c85 0 176 -22 176 -22c11 -1 20 -10 18 -21zM333 -41l-19 -104
l-45 -87c-5 -10 -10 -17 -20 -17h-45c-10 0 -17 6 -14 16l28 79h-19c-10 0 -16 7 -14 17l17 96c2 10 10 17 20 17h96c10 0 16 -7 15 -17z" />
    <glyph glyph-name="scommaaccent" unicode="&#x219;" horiz-adv-x="485" 
d="M497 468l-14 -80c-2 -11 -10 -18 -23 -16c0 0 -83 18 -141 18c-29 0 -71 0 -71 -36c0 -22 19 -28 51 -35l32 -7c62 -14 136 -37 136 -134c0 -140 -79 -188 -217 -188c-93 0 -184 28 -184 28c-12 4 -16 11 -14 22l14 81c2 11 11 18 22 15c0 0 104 -26 161 -26
c29 0 77 2 77 38c0 25 -22 32 -52 38l-33 7c-62 13 -134 37 -134 134c0 131 92 183 221 183c79 0 154 -21 154 -21c12 -3 17 -10 15 -21zM307 -41l-19 -104l-45 -87c-5 -10 -10 -17 -20 -17h-45c-10 0 -17 6 -14 16l28 79h-19c-10 0 -16 7 -14 17l17 96c2 10 10 17 20 17h96
c10 0 16 -7 15 -17z" />
    <glyph glyph-name="uni021A" unicode="&#x21a;" horiz-adv-x="550" 
d="M642 691l-15 -87c-2 -11 -10 -19 -21 -19h-160l-100 -566c-2 -11 -9 -19 -20 -19h-99c-11 0 -18 8 -16 19l100 566h-159c-11 0 -17 8 -15 19l15 87c2 11 9 19 20 19h454c11 0 18 -8 16 -19zM333 -41l-19 -104l-45 -87c-5 -10 -10 -17 -20 -17h-45c-10 0 -17 6 -14 16
l28 79h-19c-10 0 -16 7 -14 17l17 96c2 10 10 17 20 17h96c10 0 16 -7 15 -17z" />
    <glyph glyph-name="uni021B" unicode="&#x21b;" horiz-adv-x="355" 
d="M430 481l-14 -77c-2 -11 -9 -19 -20 -19h-113l-38 -213c-1 -7 -2 -13 -2 -18c0 -28 16 -39 43 -39c25 0 59 5 59 5c15 1 20 -7 18 -18l-15 -85c-2 -11 -11 -19 -23 -20c0 0 -49 -7 -89 -7c-84 0 -132 42 -132 126c0 15 2 32 5 49l39 220h-51c-11 0 -18 8 -16 19l14 77
c2 11 9 19 20 19h53l20 111c2 11 9 19 20 19h99c11 0 18 -8 16 -19l-20 -111h111c11 0 18 -8 16 -19zM283 -41l-19 -104l-45 -87c-5 -10 -10 -17 -20 -17h-45c-10 0 -17 6 -14 16l28 79h-19c-10 0 -16 7 -14 17l17 96c2 10 10 17 20 17h96c10 0 16 -7 15 -17z" />
    <glyph glyph-name="circumflex" unicode="&#x2c6;" horiz-adv-x="410" 
d="M472 634l-13 -76c-2 -11 -13 -16 -22 -12l-122 58l-150 -58c-11 -4 -18 3 -16 14l16 90c2 11 11 15 22 20l116 50c20 9 32 11 51 0l103 -61c9 -5 17 -14 15 -25z" />
    <glyph glyph-name="caron" unicode="&#x2c7;" horiz-adv-x="410" 
d="M485 706l-16 -90c-2 -11 -11 -15 -22 -20l-116 -50c-20 -9 -32 -11 -51 0l-103 61c-9 5 -17 14 -15 25l13 76c2 11 13 16 22 12l122 -58l150 58c11 4 18 -3 16 -14z" />
    <glyph glyph-name="uni02C9" unicode="&#x2c9;" horiz-adv-x="355" 
d="M427 691l-14 -77c-2 -11 -11 -19 -22 -19h-217c-11 0 -18 8 -16 19l14 77c2 11 11 19 22 19h217c11 0 18 -8 16 -19z" />
    <glyph glyph-name="breve" unicode="&#x2d8;" horiz-adv-x="416" 
d="M493 725v-4c-20 -112 -70 -161 -176 -161c-89 0 -144 37 -144 120c0 13 1 26 4 41c2 11 11 19 22 19h82c10 0 16 -6 16 -15c0 -7 -3 -22 -3 -36c0 -25 9 -34 31 -34c24 0 39 16 48 66c2 11 11 19 22 19h82c10 0 16 -6 16 -15z" />
    <glyph glyph-name="dotaccent" unicode="&#x2d9;" horiz-adv-x="235" 
d="M307 691l-17 -97c-2 -11 -12 -19 -23 -19h-97c-11 0 -17 8 -15 19l17 97c2 11 11 19 22 19h97c11 0 18 -8 16 -19z" />
    <glyph glyph-name="ring" unicode="&#x2da;" horiz-adv-x="350" 
d="M417 672c0 -7 -1 -14 -2 -22c-12 -68 -67 -110 -145 -110c-68 0 -107 33 -107 87c0 7 1 15 2 23c12 68 66 110 144 110c68 0 108 -33 108 -88zM331 663c0 19 -9 32 -33 32c-29 0 -43 -19 -48 -45c-1 -5 -1 -9 -1 -13c0 -19 9 -32 33 -32c29 0 43 19 48 45c1 5 1 9 1 13z
" />
    <glyph glyph-name="ogonek" unicode="&#x2db;" horiz-adv-x="310" 
d="M259 50c0 0 -80 -63 -80 -146c0 -41 20 -73 20 -73c5 -10 1 -21 -15 -21h-101s-40 30 -40 88c0 77 66 128 131 152h85z" />
    <glyph glyph-name="tilde" unicode="&#x2dc;" horiz-adv-x="410" 
d="M483 696l-13 -74c-2 -13 -12 -24 -24 -32c0 0 -27 -19 -66 -19c-51 0 -100 36 -139 36c-28 0 -68 -24 -68 -24c-11 -4 -20 0 -18 11l13 75c2 13 13 23 25 32c0 0 26 19 65 19c61 0 105 -36 139 -36c28 0 67 24 67 24c11 4 21 -1 19 -12z" />
    <glyph glyph-name="hungarumlaut" unicode="&#x2dd;" horiz-adv-x="486" 
d="M559 700l-86 -141c-6 -10 -18 -19 -29 -19h-94c-11 0 -17 10 -11 20l86 141c6 10 16 19 27 19h94c11 0 19 -10 13 -20zM369 700l-86 -141c-6 -10 -18 -19 -29 -19h-94c-11 0 -17 10 -11 20l86 141c6 10 16 19 27 19h94c11 0 19 -10 13 -20z" />
    <glyph glyph-name="gravecomb" unicode="&#x300;" horiz-adv-x="1" 
d="M-105 591c4 -10 -2 -21 -14 -21h-94c-11 0 -18 11 -24 19l-76 110c-6 8 2 21 14 21h123c11 0 20 -9 24 -19z" />
    <glyph glyph-name="acutecomb" unicode="&#x301;" horiz-adv-x="1" 
d="M16 699l-97 -110c-8 -9 -19 -19 -30 -19h-101c-12 0 -14 11 -8 21l68 110c6 10 19 19 30 19h130c12 0 16 -12 8 -21z" />
    <glyph glyph-name="uni0302" unicode="&#x302;" horiz-adv-x="1" 
d="M0 634l-13 -76c-2 -11 -13 -16 -22 -12l-122 58l-150 -58c-11 -4 -18 3 -16 14l16 90c2 11 11 15 22 20l116 50c20 9 32 11 51 0l103 -61c9 -5 17 -14 15 -25z" />
    <glyph glyph-name="tildecomb" unicode="&#x303;" horiz-adv-x="1" 
d="M11 696l-13 -74c-2 -13 -12 -24 -24 -32c0 0 -27 -19 -66 -19c-51 0 -100 36 -139 36c-28 0 -68 -24 -68 -24c-11 -4 -20 0 -18 11l13 75c2 13 13 23 25 32c0 0 26 19 65 19c61 0 105 -36 139 -36c28 0 67 24 67 24c11 4 21 -1 19 -12z" />
    <glyph glyph-name="uni0304" unicode="&#x304;" horiz-adv-x="1" 
d="M73 681l-14 -77c-2 -11 -11 -19 -22 -19h-217c-11 0 -18 8 -16 19l14 77c2 11 11 19 22 19h217c11 0 18 -8 16 -19z" />
    <glyph glyph-name="uni0306" unicode="&#x306;" horiz-adv-x="1" 
d="M78 703v-4c-20 -112 -70 -161 -176 -161c-89 0 -144 37 -144 120c0 13 1 26 4 41c2 11 11 19 22 19h82c10 0 16 -6 16 -15c0 -7 -3 -22 -3 -36c0 -25 9 -34 31 -34c24 0 39 16 48 66c2 11 11 19 22 19h82c10 0 16 -6 16 -15z" />
    <glyph glyph-name="uni0307" unicode="&#x307;" horiz-adv-x="1" 
d="M63 691l-18 -97c-2 -11 -9 -19 -20 -19h-99c-11 0 -18 8 -16 19l18 97c2 11 9 19 20 19h99c11 0 18 -8 16 -19z" />
    <glyph glyph-name="uni0308" unicode="&#x308;" horiz-adv-x="1" 
d="M73 691l-17 -97c-2 -11 -12 -19 -23 -19h-97c-11 0 -17 8 -15 19l17 97c2 11 11 19 22 19h97c11 0 18 -8 16 -19zM-147 691l-17 -97c-2 -11 -12 -19 -23 -19h-97c-11 0 -17 8 -15 19l17 97c2 11 11 19 22 19h97c11 0 18 -8 16 -19z" />
    <glyph glyph-name="uni030A" unicode="&#x30a;" horiz-adv-x="1" 
d="M68 672c0 -7 -1 -14 -2 -22c-12 -68 -67 -110 -145 -110c-68 0 -107 33 -107 87c0 7 1 15 2 23c12 68 66 110 144 110c68 0 108 -33 108 -88zM-18 663c0 19 -9 32 -33 32c-29 0 -43 -19 -48 -45c-1 -5 -1 -9 -1 -13c0 -19 9 -32 33 -32c29 0 43 19 48 45c1 5 1 9 1 13z
" />
    <glyph glyph-name="uni030B" unicode="&#x30b;" horiz-adv-x="1" 
d="M74 730l-86 -141c-6 -10 -18 -19 -29 -19h-94c-11 0 -17 10 -11 20l86 141c6 10 16 19 27 19h94c11 0 19 -10 13 -20zM-116 730l-86 -141c-6 -10 -18 -19 -29 -19h-94c-11 0 -17 10 -11 20l86 141c6 10 16 19 27 19h94c11 0 19 -10 13 -20z" />
    <glyph glyph-name="uni030C" unicode="&#x30c;" horiz-adv-x="1" 
d="M48 706l-16 -90c-2 -11 -11 -15 -22 -20l-116 -50c-20 -9 -32 -11 -51 0l-103 61c-9 5 -17 14 -15 25l13 76c2 11 13 16 22 12l122 -58l150 58c11 4 18 -3 16 -14z" />
    <glyph glyph-name="uni0312" unicode="&#x312;" horiz-adv-x="1" 
d="M-187 557l18 105l61 127c5 10 11 17 21 17h44c10 0 16 -7 13 -16l-43 -119h19c10 0 16 -7 15 -17l-17 -97c-2 -10 -11 -17 -21 -17h-96c-10 0 -16 7 -14 17z" />
    <glyph glyph-name="uni0313" unicode="&#x313;" horiz-adv-x="1" 
d="M-24 693l-15 -85l-51 -71c-6 -9 -13 -17 -23 -17h-42c-10 0 -19 8 -13 16l30 43h-19c-10 0 -16 7 -15 17l17 97c2 10 11 17 21 17h96c10 0 16 -7 14 -17z" />
    <glyph glyph-name="uni0326" unicode="&#x326;" horiz-adv-x="1" 
d="M-34 -42l-19 -104l-45 -87c-5 -10 -10 -17 -20 -17h-45c-10 0 -17 6 -14 16l28 79h-19c-10 0 -16 7 -14 17l17 96c2 10 10 17 20 17h96c10 0 16 -7 15 -17z" />
    <glyph glyph-name="uni0327" unicode="&#x327;" horiz-adv-x="1" 
d="M-77 -95c0 -77 -40 -105 -115 -105c-31 0 -77 7 -77 7c-10 2 -18 8 -16 19l5 27c2 11 7 17 18 17h23c22 0 43 3 43 29c0 14 -12 21 -31 21h-16c-11 0 -15 7 -11 18l40 102h90l-27 -68h4c40 0 70 -20 70 -67z" />
    <glyph glyph-name="uni0328" unicode="&#x328;" horiz-adv-x="1" 
d="M-203 -200c-47 0 -68 28 -68 70c0 39 21 123 103 143l73 -13c-31 -19 -66 -56 -66 -93c0 -8 2 -19 14 -19c13 0 26 6 38 9c6 0 5 -6 4 -11l-10 -60c-1 -6 -5 -14 -13 -16c-15 -4 -44 -10 -75 -10z" />
    <glyph glyph-name="uni0335" unicode="&#x335;" horiz-adv-x="1" 
d="M73 289l-14 -77c-2 -11 -11 -19 -22 -19h-217c-11 0 -18 8 -16 19l14 77c2 11 11 19 22 19h217c11 0 18 -8 16 -19z" />
    <glyph glyph-name="uni0336" unicode="&#x336;" horiz-adv-x="1" 
d="M20 291l-15 -82c-2 -11 -9 -19 -20 -19h-574c-11 0 -18 8 -16 19l15 82c2 11 9 19 20 19h574c11 0 18 -8 16 -19z" />
    <glyph glyph-name="Delta" unicode="&#x394;" horiz-adv-x="662" 
d="M686 19c3 -11 -4 -19 -15 -19h-559c-11 0 -19 8 -16 19l214 672c3 11 10 19 21 19h120c11 0 18 -8 21 -19zM507 125l-116 374l-117 -374h233z" />
    <glyph glyph-name="Pi" unicode="&#x3a0;" horiz-adv-x="740" 
d="M851 691l-15 -87c-2 -11 -9 -19 -20 -19h-113l-73 -413c-1 -7 -2 -13 -2 -18c0 -28 16 -39 43 -39c25 0 59 5 59 5c15 1 20 -7 18 -18l-15 -85c-2 -11 -11 -19 -23 -20c0 0 -49 -7 -89 -7c-84 0 -132 42 -132 126c0 15 2 32 5 49l74 420h-220l-100 -566
c-2 -11 -9 -19 -20 -19h-99c-11 0 -18 8 -16 19l100 566h-81c-11 0 -18 8 -16 19l15 87c2 11 9 19 20 19h684c11 0 18 -8 16 -19z" />
    <glyph glyph-name="Sigma" unicode="&#x3a3;" horiz-adv-x="485" 
d="M567 691l-15 -87c-2 -11 -10 -19 -21 -19h-232l81 -221c4 -11 2 -20 -6 -32l-145 -207h219c11 0 18 -8 16 -19l-16 -87c-2 -11 -9 -19 -20 -19h-369c-11 0 -18 8 -16 19l19 106l165 237l-84 223l19 106c2 11 9 19 20 19h369c11 0 18 -8 16 -19z" />
    <glyph glyph-name="Omega" unicode="&#x3a9;" horiz-adv-x="610" 
d="M634 512c0 -21 -2 -44 -6 -67l-37 -210c-12 -67 -30 -88 -46 -110h43c11 0 18 -8 16 -19l-16 -87c-2 -11 -9 -19 -20 -19h-219c-11 0 -18 8 -16 19l17 92c56 17 95 58 111 149l33 190c3 17 5 33 5 48c0 58 -25 97 -94 97c-85 0 -117 -62 -131 -145l-33 -190
c-3 -19 -5 -35 -5 -50c0 -57 24 -85 64 -99l-17 -92c-2 -11 -9 -19 -20 -19h-219c-11 0 -18 8 -16 19l16 87c2 11 9 19 20 19h55c-9 18 -18 41 -18 79c0 16 1 35 5 56l38 215c29 162 118 245 278 245c137 0 212 -80 212 -208z" />
    <glyph glyph-name="alpha" unicode="&#x3b1;" 
d="M552 491l-63 -354c-1 -7 -2 -12 -2 -17c0 -11 6 -16 16 -16c8 0 17 1 25 1c9 0 13 -2 13 -9v-5l-13 -73c-2 -11 -11 -18 -23 -20c0 0 -22 -8 -60 -8c-42 0 -71 13 -86 43c-35 -21 -81 -43 -126 -43c-99 0 -145 53 -145 143c0 15 1 31 4 47l28 160c19 109 72 170 185 170
c43 0 80 -13 110 -29l2 10c2 11 11 19 22 19h97c10 0 16 -5 16 -14v-5zM396 375c-24 9 -48 15 -71 15c-48 0 -66 -28 -74 -75l-23 -130c-2 -9 -2 -17 -2 -24c0 -32 15 -51 54 -51c21 0 50 11 73 21z" />
    <glyph glyph-name="delta" unicode="&#x3b4;" horiz-adv-x="570" 
d="M585 669l-16 -81c-2 -9 -9 -17 -18 -17c-2 0 -3 1 -5 1c0 0 -78 26 -120 26s-66 -19 -73 -56c-1 -3 -1 -6 -1 -9c0 -25 19 -48 45 -64l75 -47c48 -30 82 -71 82 -146c0 -13 -2 -31 -4 -46l-6 -37c-22 -135 -115 -203 -256 -203c-132 0 -195 62 -195 166c0 16 2 40 5 57
l7 39c15 85 68 142 142 166c-19 25 -31 58 -31 97c0 11 1 23 3 35c22 123 104 170 214 170c76 0 136 -28 136 -28c10 -3 16 -9 16 -18v-5zM419 260c0 24 -9 47 -31 60l-51 29c-64 -9 -91 -57 -100 -108l-7 -40c-2 -9 -2 -20 -2 -28c0 -40 21 -63 74 -63c58 0 97 32 108 91
l7 39c1 7 2 13 2 20z" />
    <glyph glyph-name="mu" unicode="&#x3bc;" 
d="M550 481l-82 -462c-2 -11 -9 -19 -20 -19h-84c-11 0 -18 8 -16 19l3 17c-34 -24 -80 -46 -133 -46c-9 0 -17 0 -25 1l-29 -162c-2 -11 -9 -19 -20 -19h-99c-11 0 -18 8 -16 19l116 652c2 11 9 19 20 19h99c11 0 18 -8 16 -19l-53 -301c-1 -8 -2 -15 -2 -22
c0 -27 13 -43 48 -43c24 0 54 9 81 21l61 345c2 11 9 19 20 19h99c11 0 18 -8 16 -19z" />
    <glyph glyph-name="pi" unicode="&#x3c0;" horiz-adv-x="625" 
d="M700 481l-14 -77c-2 -11 -9 -19 -20 -19h-113l-38 -213c-1 -7 -2 -13 -2 -18c0 -28 16 -39 43 -39c25 0 59 5 59 5c15 1 20 -7 18 -18l-15 -85c-2 -11 -11 -19 -23 -20c0 0 -49 -7 -89 -7c-84 0 -132 42 -132 126c0 15 2 32 5 49l39 220h-135l-65 -366
c-2 -11 -9 -19 -20 -19h-99c-11 0 -18 8 -16 19l65 366h-51c-11 0 -18 8 -16 19l14 77c2 11 9 19 20 19h569c11 0 18 -8 16 -19z" />
    <glyph glyph-name="omega" unicode="&#x3c9;" horiz-adv-x="713" 
d="M705 364c0 -33 -2 -83 -8 -114l-11 -60c-21 -117 -67 -200 -201 -200c-59 0 -97 22 -119 56c-33 -34 -78 -56 -136 -56c-105 0 -140 63 -140 147c0 23 2 48 7 73l11 60c15 82 56 188 67 211c6 13 17 19 28 19h100c8 0 14 -6 14 -14c0 -3 -1 -6 -2 -9
c-10 -23 -62 -149 -75 -220l-11 -62c-3 -15 -4 -28 -4 -40c0 -28 9 -45 34 -45c31 0 54 22 63 75l25 146c2 11 9 19 20 19h99c10 0 16 -5 16 -14v-5l-25 -146c-2 -13 -3 -26 -3 -35c0 -29 11 -40 34 -40c35 0 55 32 64 85l11 62c6 32 8 71 8 108c0 49 -4 95 -8 112
c0 2 -1 4 -1 6c0 9 7 17 16 17h96c11 0 18 -6 21 -19c3 -16 10 -65 10 -117z" />
    <glyph glyph-name="endash" unicode="&#x2013;" horiz-adv-x="610" 
d="M629 391l-15 -82c-2 -11 -9 -19 -20 -19h-474c-11 0 -18 8 -16 19l15 82c2 11 9 19 20 19h474c11 0 18 -8 16 -19z" />
    <glyph glyph-name="emdash" unicode="&#x2014;" horiz-adv-x="710" 
d="M729 391l-15 -82c-2 -11 -9 -19 -20 -19h-574c-11 0 -18 8 -16 19l15 82c2 11 9 19 20 19h574c11 0 18 -8 16 -19z" />
    <glyph glyph-name="quoteleft" unicode="&#x2018;" horiz-adv-x="245" 
d="M292 692l-42 -152h21c11 0 18 -8 16 -19l-19 -107c-2 -11 -11 -19 -22 -19h-107c-11 0 -18 8 -16 19l21 116l61 161c4 11 11 19 22 19h50c11 0 18 -7 15 -18z" />
    <glyph glyph-name="quoteright" unicode="&#x2019;" horiz-adv-x="245" 
d="M317 691l-21 -116l-61 -161c-4 -11 -11 -19 -22 -19h-50c-11 0 -18 7 -15 18l42 152h-21c-11 0 -18 8 -16 19l19 107c2 11 11 19 22 19h107c11 0 18 -8 16 -19z" />
    <glyph glyph-name="quotesinglbase" unicode="&#x201a;" horiz-adv-x="245" 
d="M217 126l-21 -116l-61 -161c-4 -11 -11 -19 -22 -19h-50c-11 0 -18 7 -15 18l42 152h-21c-11 0 -18 8 -16 19l19 107c2 11 11 19 22 19h107c11 0 18 -8 16 -19z" />
    <glyph glyph-name="quotedblleft" unicode="&#x201c;" horiz-adv-x="450" 
d="M497 692l-42 -152h21c11 0 18 -8 16 -19l-19 -107c-2 -11 -11 -19 -22 -19h-107c-11 0 -18 8 -16 19l21 116l61 161c4 11 11 19 22 19h50c11 0 18 -7 15 -18zM292 692l-42 -152h21c11 0 18 -8 16 -19l-19 -107c-2 -11 -11 -19 -22 -19h-107c-11 0 -18 8 -16 19l21 116
l61 161c4 11 11 19 22 19h50c11 0 18 -7 15 -18z" />
    <glyph glyph-name="quotedblright" unicode="&#x201d;" horiz-adv-x="450" 
d="M522 691l-21 -116l-61 -161c-4 -11 -11 -19 -22 -19h-50c-11 0 -18 7 -15 18l42 152h-21c-11 0 -18 8 -16 19l19 107c2 11 11 19 22 19h107c11 0 18 -8 16 -19zM317 691l-21 -116l-61 -161c-4 -11 -11 -19 -22 -19h-50c-11 0 -18 7 -15 18l42 152h-21c-11 0 -18 8 -16 19
l19 107c2 11 11 19 22 19h107c11 0 18 -8 16 -19z" />
    <glyph glyph-name="quotedblbase" unicode="&#x201e;" horiz-adv-x="450" 
d="M423 126l-21 -116l-61 -161c-4 -11 -11 -19 -22 -19h-50c-11 0 -18 7 -15 18l42 152h-21c-11 0 -18 8 -16 19l19 107c2 11 11 19 22 19h107c11 0 18 -8 16 -19zM217 126l-21 -116l-61 -161c-4 -11 -11 -19 -22 -19h-50c-11 0 -18 7 -15 18l42 152h-21c-11 0 -18 8 -16 19
l19 107c2 11 11 19 22 19h107c11 0 18 -8 16 -19z" />
    <glyph glyph-name="dagger" unicode="&#x2020;" horiz-adv-x="520" 
d="M558 501l-15 -87c-2 -11 -9 -19 -20 -19h-125l-67 -376c-2 -11 -9 -19 -20 -19h-99c-11 0 -18 8 -16 19l67 376h-124c-11 0 -18 8 -16 19l15 87c2 11 10 19 21 19h126l30 171c2 11 9 19 20 19h99c11 0 18 -8 16 -19l-30 -171h123c11 0 17 -8 15 -19z" />
    <glyph glyph-name="daggerdbl" unicode="&#x2021;" horiz-adv-x="520" 
d="M564 531l-16 -87c-2 -11 -9 -19 -20 -19h-125l-25 -140h123c11 0 18 -8 16 -19l-15 -87c-2 -11 -10 -19 -21 -19h-125l-25 -141c-2 -11 -9 -19 -20 -19h-99c-11 0 -18 8 -16 19l25 141h-124c-11 0 -17 8 -15 19l15 87c2 11 9 19 20 19h126l25 140h-124
c-11 0 -18 8 -16 19l16 87c2 11 9 19 20 19h126l25 141c2 11 9 19 20 19h99c11 0 18 -8 16 -19l-25 -141h123c11 0 18 -8 16 -19z" />
    <glyph glyph-name="bullet" unicode="&#x2022;" horiz-adv-x="275" 
d="M300 426l-24 -137c-2 -11 -9 -19 -20 -19h-139c-11 0 -18 8 -16 19l24 137c2 11 10 19 21 19h139c11 0 17 -8 15 -19z" />
    <glyph glyph-name="ellipsis" unicode="&#x2026;" horiz-adv-x="655" 
d="M627 126l-19 -107c-2 -11 -9 -19 -20 -19h-109c-11 0 -18 8 -16 19l19 107c2 11 10 19 21 19h109c11 0 17 -8 15 -19zM422 126l-19 -107c-2 -11 -9 -19 -20 -19h-109c-11 0 -18 8 -16 19l19 107c2 11 10 19 21 19h109c11 0 17 -8 15 -19zM217 126l-19 -107
c-2 -11 -9 -19 -20 -19h-109c-11 0 -18 8 -16 19l19 107c2 11 10 19 21 19h109c11 0 17 -8 15 -19z" />
    <glyph glyph-name="perthousand" unicode="&#x2030;" horiz-adv-x="1506" 
d="M1483 234c0 -13 -1 -25 -3 -39l-3 -19c-18 -114 -102 -186 -227 -186c-111 0 -178 65 -178 166c0 13 1 26 3 40l3 19c19 119 103 186 226 186c111 0 179 -66 179 -167zM1047 234c0 -13 -1 -25 -3 -39l-3 -19c-18 -114 -102 -186 -227 -186c-111 0 -178 65 -178 166
c0 13 1 26 3 40l3 19c19 119 103 186 226 186c111 0 179 -66 179 -167zM892 690l-440 -671c-7 -10 -14 -19 -25 -19h-111c-11 0 -19 11 -12 21l439 670c7 10 14 19 25 19h112c14 0 19 -10 12 -20zM559 553c0 -13 -1 -25 -3 -39l-3 -19c-18 -114 -102 -186 -227 -186
c-111 0 -178 65 -178 166c0 13 1 26 3 40l3 19c19 119 103 186 226 186c111 0 179 -66 179 -167zM1349 225c0 35 -18 61 -60 61c-49 0 -69 -31 -77 -76l-4 -24c-1 -7 -2 -14 -2 -20c0 -35 18 -61 60 -61c49 0 69 31 77 76l4 24c1 7 2 14 2 20zM913 225c0 35 -18 61 -60 61
c-49 0 -69 -31 -77 -76l-4 -24c-1 -7 -2 -14 -2 -20c0 -35 18 -61 60 -61c49 0 69 31 77 76l4 24c1 7 2 14 2 20zM425 544c0 35 -18 61 -60 61c-49 0 -69 -31 -77 -76l-4 -24c-1 -7 -2 -14 -2 -20c0 -35 18 -61 60 -61c49 0 69 31 77 76l4 24c1 7 2 14 2 20z" />
    <glyph glyph-name="guilsinglleft" unicode="&#x2039;" horiz-adv-x="345" 
d="M362 488l-112 -163l63 -156c4 -10 -4 -19 -15 -19h-103c-11 0 -16 9 -20 19l-58 139c-8 19 -6 26 8 46l94 137c7 10 16 19 27 19h105c11 0 18 -12 11 -22z" />
    <glyph glyph-name="guilsinglright" unicode="&#x203a;" horiz-adv-x="345" 
d="M344 352c8 -19 6 -26 -8 -46l-94 -137c-7 -10 -16 -19 -27 -19h-105c-11 0 -18 12 -11 22l112 163l-63 156c-4 10 4 19 15 19h103c11 0 16 -9 20 -19z" />
    <glyph glyph-name="fraction" unicode="&#x2044;" horiz-adv-x="215" 
d="M467 689l-435 -670c-6 -10 -17 -19 -28 -19h-120c-11 0 -17 11 -11 21l435 670c6 10 17 19 28 19h119c11 0 18 -11 12 -21z" />
    <glyph glyph-name="Euro" unicode="&#x20ac;" horiz-adv-x="500" 
d="M589 679l-15 -87c-2 -11 -10 -18 -23 -15c0 0 -57 15 -109 15c-67 0 -102 -36 -121 -92h189c11 0 16 -8 13 -19l-20 -77c-3 -11 -9 -19 -20 -19h-185l-11 -60h182c11 0 16 -8 13 -19l-20 -77c-3 -11 -9 -19 -20 -19h-171c0 -56 23 -92 93 -92c45 0 117 11 117 11
c12 1 21 -7 19 -18l-16 -88c-2 -11 -11 -19 -23 -20c0 0 -69 -13 -118 -13c-136 0 -208 77 -208 204v16h-75c-11 0 -16 8 -13 19l20 77c3 11 9 19 20 19h66l10 60h-62c-11 0 -16 8 -13 19l20 77c3 11 9 19 20 19h56c34 146 118 220 268 220c64 0 122 -19 122 -19
c12 -3 17 -11 15 -22z" />
    <glyph glyph-name="trademark" unicode="&#x2122;" horiz-adv-x="935" 
d="M1007 691l-56 -317c-2 -11 -9 -19 -20 -19h-99c-11 0 -18 8 -16 19l22 125l-64 -98c-7 -10 -14 -16 -25 -16h-77c-11 0 -17 9 -20 19l-29 95l-22 -125c-2 -11 -9 -19 -20 -19h-99c-11 0 -18 8 -16 19l56 317c2 11 9 19 20 19h119c11 0 18 -9 21 -19l51 -153l104 153
c7 10 16 19 27 19h127c11 0 18 -8 16 -19zM492 691l-15 -87c-2 -11 -12 -19 -23 -19h-83l-37 -211c-2 -11 -9 -19 -20 -19h-99c-11 0 -18 8 -16 19l37 211h-84c-11 0 -17 8 -15 19l15 87c2 11 9 19 20 19h304c11 0 18 -8 16 -19z" />
    <glyph glyph-name="uni2126" unicode="&#x2126;" horiz-adv-x="610" 
d="M634 512c0 -21 -2 -44 -6 -67l-37 -210c-12 -67 -30 -88 -46 -110h43c11 0 18 -8 16 -19l-16 -87c-2 -11 -9 -19 -20 -19h-219c-11 0 -18 8 -16 19l17 92c56 17 95 58 111 149l33 190c3 17 5 33 5 48c0 58 -25 97 -94 97c-85 0 -117 -62 -131 -145l-33 -190
c-3 -19 -5 -35 -5 -50c0 -57 24 -85 64 -99l-17 -92c-2 -11 -9 -19 -20 -19h-219c-11 0 -18 8 -16 19l16 87c2 11 9 19 20 19h55c-9 18 -18 41 -18 79c0 16 1 35 5 56l38 215c29 162 118 245 278 245c137 0 212 -80 212 -208z" />
    <glyph glyph-name="arrowleft" unicode="&#x2190;" horiz-adv-x="560" 
d="M508 319c0 -11 -8 -19 -19 -19h-244l82 -149c5 -10 1 -19 -10 -19h-111c-11 0 -19 9 -25 18l-124 197c-7 12 -6 20 0 30l125 197c6 9 14 18 25 18h111c11 0 15 -9 10 -19l-83 -149h244c11 0 19 -8 19 -19v-86z" />
    <glyph glyph-name="arrowup" unicode="&#x2191;" horiz-adv-x="560" 
d="M510 328c0 -11 -9 -15 -19 -10l-147 81v-248c0 -11 -8 -19 -19 -19h-90c-11 0 -19 8 -19 19v248l-147 -82c-10 -5 -19 -1 -19 10v106c0 11 9 19 18 25l197 125c10 6 18 6 30 -1l197 -124c9 -6 18 -14 18 -25v-105z" />
    <glyph glyph-name="arrowright" unicode="&#x2192;" horiz-adv-x="560" 
d="M503 347l-124 -197c-6 -9 -14 -18 -25 -18h-111c-11 0 -15 9 -10 19l82 149h-244c-11 0 -19 8 -19 19v86c0 11 8 19 19 19h244l-83 149c-5 10 -1 19 10 19h111c11 0 19 -9 25 -18l125 -197c6 -10 7 -18 0 -30z" />
    <glyph glyph-name="arrowdown" unicode="&#x2193;" horiz-adv-x="560" 
d="M510 291c0 -11 -9 -19 -18 -25l-197 -124c-12 -7 -20 -7 -30 -1l-197 125c-9 6 -18 14 -18 25v106c0 11 9 15 19 10l147 -82v248c0 11 8 19 19 19h90c11 0 19 -8 19 -19v-248l147 81c10 5 19 1 19 -10v-105z" />
    <glyph glyph-name="uni2196" unicode="&#x2196;" horiz-adv-x="560" 
d="M423 170c-8 -8 -20 -8 -27 0l-173 172l-47 -163c-4 -11 -13 -14 -21 -7l-78 79c-8 8 -7 20 -5 30l51 227c4 14 10 19 22 22l227 50c11 3 23 3 31 -4l78 -79c8 -8 4 -17 -6 -20l-164 -47l172 -173c8 -7 8 -19 0 -27z" />
    <glyph glyph-name="uni2197" unicode="&#x2197;" horiz-adv-x="560" 
d="M77 230c-8 8 -8 20 0 27l172 173l-163 47c-11 4 -14 13 -7 21l79 78c8 8 20 7 30 5l227 -51c14 -4 19 -10 22 -22l50 -227c3 -11 3 -23 -4 -31l-79 -78c-8 -8 -17 -4 -20 6l-47 164l-173 -172c-7 -8 -19 -8 -27 0z" />
    <glyph glyph-name="uni2198" unicode="&#x2198;" horiz-adv-x="560" 
d="M136 554c8 8 20 8 27 0l173 -172l47 163c4 11 13 14 21 7l78 -79c8 -8 7 -20 5 -30l-51 -227c-4 -14 -10 -19 -22 -22l-227 -50c-11 -3 -23 -3 -31 4l-78 79c-8 8 -4 17 6 20l164 47l-172 173c-8 7 -8 19 0 27z" />
    <glyph glyph-name="uni2199" unicode="&#x2199;" horiz-adv-x="560" 
d="M483 494c8 -8 8 -20 0 -27l-172 -173l163 -47c11 -4 14 -13 7 -21l-79 -78c-8 -8 -20 -7 -30 -5l-227 51c-14 4 -19 10 -22 22l-50 227c-3 11 -3 23 4 31l79 78c8 8 17 4 20 -6l47 -164l173 172c7 8 19 8 27 0z" />
    <glyph glyph-name="partialdiff" unicode="&#x2202;" horiz-adv-x="550" 
d="M578 531c0 -22 -2 -46 -7 -71l-48 -270c-24 -135 -102 -200 -240 -200c-124 0 -191 67 -191 171c0 16 2 32 5 49l18 102c20 113 69 178 197 178c55 0 95 -18 123 -38l5 28c3 15 4 29 4 41c0 62 -48 74 -99 74c-40 0 -120 -10 -120 -10c-12 -1 -20 4 -18 18l14 85
c2 11 10 17 23 19c0 0 64 13 123 13c129 0 211 -58 211 -189zM414 335c-27 16 -59 30 -90 30c-42 0 -68 -17 -77 -70l-16 -92c-2 -10 -3 -19 -3 -27c0 -39 20 -61 72 -61c56 0 81 29 91 88z" />
    <glyph glyph-name="uni2206" unicode="&#x2206;" horiz-adv-x="662" 
d="M686 19c3 -11 -4 -19 -15 -19h-559c-11 0 -19 8 -16 19l214 672c3 11 10 19 21 19h120c11 0 18 -8 21 -19zM507 125l-116 374l-117 -374h233z" />
    <glyph glyph-name="product" unicode="&#x220f;" horiz-adv-x="485" 
d="M567 691l-15 -87c-2 -11 -10 -19 -21 -19h-235l79 -316c3 -12 1 -20 -6 -32l-173 -302h219c11 0 18 -8 16 -19l-16 -87c-2 -11 -9 -19 -20 -19h-369c-11 0 -18 8 -16 19l19 106l193 335l-79 315l19 106c2 11 9 19 20 19h369c11 0 18 -8 16 -19z" />
    <glyph glyph-name="summation" unicode="&#x2211;" horiz-adv-x="740" 
d="M851 691l-15 -87c-2 -11 -9 -19 -20 -19h-113l-106 -603c-1 -7 -2 -13 -2 -18c0 -28 16 -39 43 -39c25 0 59 5 59 5c15 1 20 -7 18 -18l-15 -85c-2 -11 -11 -19 -23 -20c0 0 -49 -7 -89 -7c-84 0 -132 42 -132 126c0 15 2 32 5 49l107 610h-220l-133 -756
c-2 -11 -9 -19 -20 -19h-99c-11 0 -18 8 -16 19l133 756h-81c-11 0 -18 8 -16 19l15 87c2 11 9 19 20 19h684c11 0 18 -8 16 -19z" />
    <glyph glyph-name="minus" unicode="&#x2212;" 
d="M544 391l-15 -82c-2 -11 -9 -19 -20 -19h-389c-11 0 -18 8 -16 19l15 82c2 11 9 19 20 19h389c11 0 18 -8 16 -19z" />
    <glyph glyph-name="uni2215" unicode="&#x2215;" horiz-adv-x="215" 
d="M467 689l-435 -670c-6 -10 -17 -19 -28 -19h-120c-11 0 -17 11 -11 21l435 670c6 10 17 19 28 19h119c11 0 18 -11 12 -21z" />
    <glyph glyph-name="uni2219" unicode="&#x2219;" horiz-adv-x="235" 
d="M257 406l-18 -97c-2 -11 -9 -19 -20 -19h-99c-11 0 -18 8 -16 19l18 97c2 11 10 19 21 19h99c11 0 17 -8 15 -19z" />
    <glyph glyph-name="radical" unicode="&#x221a;" horiz-adv-x="585" 
d="M760 781l-14 -77c-2 -11 -11 -19 -22 -19h-59l-315 -667c-5 -11 -16 -18 -27 -18h-143c-11 0 -19 7 -21 18l-71 462c-2 11 6 20 18 20h106c11 0 19 -8 20 -19l43 -319l296 638h173c11 0 18 -8 16 -19z" />
    <glyph glyph-name="infinity" unicode="&#x221e;" horiz-adv-x="658" 
d="M669 330c0 -94 -63 -155 -173 -155c-44 0 -79 14 -106 37c-27 -23 -62 -37 -106 -37c-110 0 -173 61 -173 155v25c0 94 63 155 173 155c44 0 79 -14 106 -37c27 23 62 37 106 37c110 0 173 -61 173 -155v-25zM534 335v15c0 23 -10 40 -38 40s-38 -15 -38 -40v-15
c0 -24 10 -40 38 -40s38 16 38 40zM322 335v15c0 25 -10 40 -38 40s-38 -16 -38 -40v-15c0 -24 10 -40 38 -40s38 16 38 40z" />
    <glyph glyph-name="integral" unicode="&#x222b;" horiz-adv-x="335" 
d="M447 688l-15 -83c-2 -11 -10 -15 -22 -14c0 0 -25 4 -39 4c-23 0 -43 -7 -49 -44l-113 -645c-16 -94 -56 -106 -133 -106c-44 0 -80 8 -80 8c-11 1 -18 10 -16 21l13 76c2 11 9 18 19 17c0 0 20 -2 32 -2c23 0 34 12 39 38l108 614c20 117 89 148 166 148
c42 0 74 -10 74 -10c11 -1 18 -10 16 -22z" />
    <glyph glyph-name="approxequal" unicode="&#x2248;" 
d="M567 519l-14 -79c-2 -11 -10 -20 -22 -25c0 0 -35 -20 -86 -20c-77 0 -144 30 -212 30c-34 0 -93 -19 -93 -19c-11 -3 -18 4 -16 15l14 79c2 11 10 20 22 25c0 0 35 20 86 20c77 0 146 -30 212 -30c34 0 93 19 93 19c11 3 18 -4 16 -15zM525 279l-14 -79
c-2 -11 -10 -20 -22 -25c0 0 -35 -20 -86 -20c-77 0 -144 30 -212 30c-34 0 -93 -19 -93 -19c-11 -3 -18 4 -16 15l14 79c2 11 10 20 22 25c0 0 35 20 86 20c77 0 146 -30 212 -30c34 0 93 19 93 19c11 3 18 -4 16 -15z" />
    <glyph glyph-name="notequal" unicode="&#x2260;" 
d="M565 511l-14 -82c-2 -11 -10 -19 -21 -19h-114l-57 -120h148c11 0 18 -8 16 -19l-15 -82c-2 -11 -9 -19 -20 -19h-185l-62 -131c-5 -11 -15 -19 -26 -19h-87c-11 0 -17 9 -12 20l61 130h-78c-11 0 -18 8 -16 19l15 82c2 11 9 19 20 19h116l57 120h-150
c-11 0 -17 8 -15 19l14 82c2 11 9 19 20 19h187l62 131c5 11 16 19 27 19h85c11 0 18 -8 13 -19l-62 -131h77c11 0 18 -8 16 -19z" />
    <glyph glyph-name="lessequal" unicode="&#x2264;" 
d="M584 616l-19 -103c-2 -11 -11 -17 -22 -21l-278 -107l240 -107c9 -4 16 -14 14 -25l-15 -91c-2 -11 -14 -18 -23 -13l-356 173c-9 5 -16 15 -14 26l15 88c2 11 12 17 23 22l415 172c13 5 22 -3 20 -14zM493 101l-15 -82c-2 -11 -9 -19 -20 -19h-389c-11 0 -18 8 -16 19
l15 82c2 11 9 19 20 19h389c11 0 18 -8 16 -19z" />
    <glyph glyph-name="greaterequal" unicode="&#x2265;" 
d="M551 432l-15 -88c-2 -11 -12 -17 -23 -22l-415 -172c-13 -5 -22 3 -20 14l19 104c2 11 11 17 22 21l278 107l-240 107c-9 4 -16 14 -14 25l15 90c2 11 14 18 23 13l356 -173c9 -5 16 -15 14 -26zM493 101l-15 -82c-2 -11 -9 -19 -20 -19h-389c-11 0 -18 8 -16 19l15 82
c2 11 9 19 20 19h389c11 0 18 -8 16 -19z" />
    <glyph glyph-name="lozenge" unicode="&#x25ca;" horiz-adv-x="678" 
d="M702 345l-229 -325c-6 -9 -15 -20 -26 -20h-95c-11 0 -20 11 -26 20l-229 325c-5 7 -5 13 0 20l229 325c6 9 15 20 26 20h95c11 0 20 -11 26 -20l229 -325c5 -7 4 -14 0 -20zM548 355l-149 223l-149 -223l149 -223z" />
    <glyph glyph-name="hyphen.case" horiz-adv-x="350" 
d="M369 396l-15 -82c-2 -11 -9 -19 -20 -19h-214c-11 0 -18 8 -16 19l15 82c2 11 9 19 20 19h214c11 0 18 -8 16 -19z" />
    <glyph glyph-name="guillemotleft.case" horiz-adv-x="560" 
d="M577 513l-112 -163l63 -156c4 -10 -4 -19 -15 -19h-103c-11 0 -16 9 -20 19l-58 139c-8 19 -6 26 8 46l94 137c7 10 16 19 27 19h105c11 0 18 -12 11 -22zM362 513l-112 -163l63 -156c4 -10 -4 -19 -15 -19h-103c-11 0 -16 9 -20 19l-58 139c-8 19 -6 26 8 46l94 137
c7 10 16 19 27 19h105c11 0 18 -12 11 -22z" />
    <glyph glyph-name="uni00AD.case" horiz-adv-x="350" 
d="M369 396l-15 -82c-2 -11 -9 -19 -20 -19h-214c-11 0 -18 8 -16 19l15 82c2 11 9 19 20 19h214c11 0 18 -8 16 -19z" />
    <glyph glyph-name="guillemotright.case" horiz-adv-x="560" 
d="M559 377c8 -19 6 -26 -8 -46l-94 -137c-7 -10 -16 -19 -27 -19h-105c-11 0 -18 12 -11 22l112 163l-63 156c-4 10 4 19 15 19h103c11 0 16 -9 20 -19zM344 377c8 -19 6 -26 -8 -46l-94 -137c-7 -10 -16 -19 -27 -19h-105c-11 0 -18 12 -11 22l112 163l-63 156
c-4 10 4 19 15 19h103c11 0 16 -9 20 -19z" />
    <glyph glyph-name="gravecomb.case" horiz-adv-x="1" 
d="M-108 781c4 -10 -2 -21 -14 -21h-94c-11 0 -18 11 -24 19l-76 110c-6 8 2 21 14 21h123c11 0 20 -9 24 -19z" />
    <glyph glyph-name="acutecomb.case" horiz-adv-x="1" 
d="M-8 889l-97 -110c-8 -9 -19 -19 -30 -19h-101c-12 0 -14 11 -8 21l68 110c6 10 19 19 30 19h130c12 0 16 -12 8 -21z" />
    <glyph glyph-name="uni0302.case" horiz-adv-x="1" 
d="M-11 843l-13 -76c-2 -11 -13 -16 -22 -12l-122 58l-150 -58c-11 -4 -18 3 -16 14l16 90c2 11 11 15 22 20l116 50c20 9 32 11 51 0l103 -61c9 -5 17 -14 15 -25z" />
    <glyph glyph-name="tildecomb.case" horiz-adv-x="1" 
d="M7 885l-13 -74c-2 -13 -12 -24 -24 -32c0 0 -27 -19 -66 -19c-51 0 -100 36 -139 36c-28 0 -68 -24 -68 -24c-11 -4 -20 0 -18 11l13 75c2 13 13 23 25 32c0 0 26 19 65 19c61 0 105 -36 139 -36c28 0 67 24 67 24c11 4 21 -1 19 -12z" />
    <glyph glyph-name="uni0304.case" horiz-adv-x="1" 
d="M73 881l-14 -77c-2 -11 -11 -19 -22 -19h-217c-11 0 -18 8 -16 19l14 77c2 11 11 19 22 19h217c11 0 18 -8 16 -19z" />
    <glyph glyph-name="uni0306.case" horiz-adv-x="1" 
d="M78 912v-4c-20 -112 -70 -161 -176 -161c-89 0 -144 37 -144 120c0 13 1 26 4 41c2 11 11 19 22 19h82c10 0 16 -6 16 -15c0 -7 -3 -22 -3 -36c0 -25 9 -34 31 -34c24 0 39 16 48 66c2 11 11 19 22 19h82c10 0 16 -6 16 -15z" />
    <glyph glyph-name="uni0307.case" horiz-adv-x="1" 
d="M73 866l-17 -97c-2 -11 -12 -19 -23 -19h-97c-11 0 -17 8 -15 19l17 97c2 11 11 19 22 19h97c11 0 18 -8 16 -19z" />
    <glyph glyph-name="uni0308.case" horiz-adv-x="1" 
d="M73 866l-17 -97c-2 -11 -12 -19 -23 -19h-97c-11 0 -17 8 -15 19l17 97c2 11 11 19 22 19h97c11 0 18 -8 16 -19zM-147 866l-17 -97c-2 -11 -12 -19 -23 -19h-97c-11 0 -17 8 -15 19l17 97c2 11 11 19 22 19h97c11 0 18 -8 16 -19z" />
    <glyph glyph-name="uni030A.case" horiz-adv-x="1" 
d="M68 757c0 -7 -1 -14 -2 -22c-12 -68 -67 -110 -145 -110c-68 0 -107 33 -107 87c0 7 1 15 2 23c12 68 66 110 144 110c68 0 108 -33 108 -88zM-18 748c0 19 -9 32 -33 32c-29 0 -43 -19 -48 -45c-1 -5 -1 -9 -1 -13c0 -19 9 -32 33 -32c29 0 43 19 48 45c1 5 1 9 1 13z
" />
    <glyph glyph-name="uni030B.case" horiz-adv-x="1" 
d="M74 917l-86 -141c-6 -10 -18 -19 -29 -19h-94c-11 0 -17 10 -11 20l86 141c6 10 16 19 27 19h94c11 0 19 -10 13 -20zM-116 917l-86 -141c-6 -10 -18 -19 -29 -19h-94c-11 0 -17 10 -11 20l86 141c6 10 16 19 27 19h94c11 0 19 -10 13 -20z" />
    <glyph glyph-name="uni030C.case" horiz-adv-x="1" 
d="M76 915l-16 -90c-2 -11 -11 -15 -22 -20l-116 -50c-20 -9 -32 -11 -51 0l-103 61c-9 5 -17 14 -15 25l13 76c2 11 13 16 22 12l122 -58l150 58c11 4 18 -3 16 -14z" />
    <glyph glyph-name="uni0326.case" horiz-adv-x="1" 
d="M-34 -42l-19 -104l-45 -87c-5 -10 -10 -17 -20 -17h-45c-10 0 -17 6 -14 16l28 79h-19c-10 0 -16 7 -14 17l17 96c2 10 10 17 20 17h96c10 0 16 -7 15 -17z" />
    <glyph glyph-name="uni0327.case" horiz-adv-x="1" 
d="M-77 -95c0 -77 -40 -105 -115 -105c-31 0 -77 7 -77 7c-10 2 -18 8 -16 19l5 27c2 11 7 17 18 17h23c22 0 43 3 43 29c0 14 -12 21 -31 21h-16c-11 0 -15 7 -11 18l40 102h90l-27 -68h4c40 0 70 -20 70 -67z" />
    <glyph glyph-name="uni0328.case" horiz-adv-x="1" 
d="M-203 -200c-47 0 -68 28 -68 70c0 39 21 123 103 143l73 -13c-31 -19 -66 -56 -66 -93c0 -8 2 -19 14 -19c13 0 26 6 38 9c6 0 5 -6 4 -11l-10 -60c-1 -6 -5 -14 -13 -16c-15 -4 -44 -10 -75 -10z" />
    <glyph glyph-name="endash.case" horiz-adv-x="610" 
d="M629 396l-15 -82c-2 -11 -9 -19 -20 -19h-474c-11 0 -18 8 -16 19l15 82c2 11 9 19 20 19h474c11 0 18 -8 16 -19z" />
    <glyph glyph-name="emdash.case" horiz-adv-x="710" 
d="M729 396l-15 -82c-2 -11 -9 -19 -20 -19h-574c-11 0 -18 8 -16 19l15 82c2 11 9 19 20 19h574c11 0 18 -8 16 -19z" />
    <glyph glyph-name="guilsinglleft.case" horiz-adv-x="345" 
d="M362 513l-112 -163l63 -156c4 -10 -4 -19 -15 -19h-103c-11 0 -16 9 -20 19l-58 139c-8 19 -6 26 8 46l94 137c7 10 16 19 27 19h105c11 0 18 -12 11 -22z" />
    <glyph glyph-name="guilsinglright.case" horiz-adv-x="345" 
d="M344 377c8 -19 6 -26 -8 -46l-94 -137c-7 -10 -16 -19 -27 -19h-105c-11 0 -18 12 -11 22l112 163l-63 156c-4 10 4 19 15 19h103c11 0 16 -9 20 -19z" />
    </font>
</defs>
</svg>
