<?xml version="1.0" standalone="no"?>
<!DOCTYPE svg PUBLIC "-//W3C//DTD SVG 1.1//EN" "http://www.w3.org/Graphics/SVG/1.1/DTD/svg11.dtd" >
<svg>
<metadata>
Created by FontForge 20120731 at Wed Feb  6 11:03:27 2019
 By www-data
Copyright 2004-08 by Ole Schaefer, published by primetype GmbH, primetype.com for the primetype library. All Rights Reserved. Extraversion Notes Soft
</metadata>
<defs>
<font id="NotesEsa-Bold" horiz-adv-x="525" >
  <font-face 
    font-family="NotesEsa"
    font-weight="700"
    font-stretch="normal"
    units-per-em="1000"
    panose-1="2 0 8 6 3 0 0 2 0 4"
    ascent="806"
    descent="-194"
    x-height="500"
    cap-height="710"
    bbox="-659 -250 1446 937.519"
    underline-thickness="50"
    underline-position="-50"
    stemh="125"
    stemv="135"
    unicode-range="U+000D-FB02"
  />
<missing-glyph 
d="M60 0v710h405v-710h-405zM180 120h165v470h-165v-470z" />
    <glyph glyph-name="fi" unicode="fi" 
d="M465 594c0 -11 -8 -19 -19 -19h-97c-11 0 -19 8 -19 19v97c0 11 8 19 19 19h97c11 0 19 -8 19 -19v-97zM465 19c0 -11 -8 -19 -19 -19h-97c-11 0 -19 8 -19 19v366h-135v-366c0 -11 -8 -19 -19 -19h-97c-11 0 -19 8 -19 19v366h-31c-11 0 -19 8 -19 19v77
c0 11 8 19 19 19h31v57c0 127 76 163 150 163c43 0 66 -6 66 -6c11 -2 19 -8 19 -19v-85c0 -11 -6 -18 -19 -17c0 0 -21 2 -35 2c-23 0 -46 -7 -46 -44v-51h251c11 0 19 -8 19 -19v-462z" />
    <glyph glyph-name="fl" unicode="fl" 
d="M465 19c0 -11 -8 -19 -19 -19h-97c-11 0 -19 8 -19 19v672c0 11 8 19 19 19h97c11 0 19 -8 19 -19v-672zM295 610c0 -11 -6 -18 -19 -17c0 0 -21 2 -35 2c-23 0 -46 -7 -46 -44v-51h51c11 0 19 -8 19 -19v-77c0 -11 -8 -19 -19 -19h-51v-366c0 -11 -8 -19 -19 -19h-97
c-11 0 -19 8 -19 19v366h-31c-11 0 -19 8 -19 19v77c0 11 8 19 19 19h31v57c0 127 76 163 150 163c43 0 66 -6 66 -6c11 -2 19 -8 19 -19v-85z" />
    <glyph glyph-name=".notdef" 
d="M60 0v710h405v-710h-405zM180 120h165v470h-165v-470z" />
    <glyph glyph-name=".null" horiz-adv-x="0" 
 />
    <glyph glyph-name=".null" horiz-adv-x="0" 
 />
    <glyph glyph-name="CR" unicode="&#xd;" horiz-adv-x="280" 
 />
    <glyph glyph-name="space" unicode=" " horiz-adv-x="280" 
 />
    <glyph glyph-name="exclam" unicode="!" horiz-adv-x="255" 
d="M195 254c0 -11 -8 -19 -19 -19h-97c-11 0 -19 8 -19 19v437c0 11 8 19 19 19h97c11 0 19 -8 19 -19v-437zM200 19c0 -11 -8 -19 -19 -19h-107c-11 0 -19 8 -19 19v107c0 11 8 19 19 19h107c11 0 19 -8 19 -19v-107z" />
    <glyph glyph-name="quotedbl" unicode="&#x22;" horiz-adv-x="430" 
d="M380 414c0 -11 -8 -19 -19 -19h-97c-11 0 -19 8 -19 19v277c0 11 8 19 19 19h97c11 0 19 -8 19 -19v-277zM185 414c0 -11 -8 -19 -19 -19h-97c-11 0 -19 8 -19 19v277c0 11 8 19 19 19h97c11 0 19 -8 19 -19v-277z" />
    <glyph glyph-name="numbersign" unicode="#" horiz-adv-x="500" 
d="M480 169c0 -11 -8 -19 -19 -19h-36v-131c0 -11 -8 -19 -19 -19h-97c-11 0 -19 8 -19 19v131h-80v-131c0 -11 -8 -19 -19 -19h-97c-11 0 -19 8 -19 19v131h-36c-11 0 -19 8 -19 19v77c0 11 8 19 19 19h36v180h-36c-11 0 -19 8 -19 19v77c0 11 8 19 19 19h36v131
c0 11 8 19 19 19h97c11 0 19 -8 19 -19v-131h80v131c0 11 8 19 19 19h97c11 0 19 -8 19 -19v-131h36c11 0 19 -8 19 -19v-77c0 -11 -8 -19 -19 -19h-36v-180h36c11 0 19 -8 19 -19v-77zM290 265v180h-80v-180h80z" />
    <glyph glyph-name="dollar" unicode="$" horiz-adv-x="500" 
d="M465 197c0 -123 -49 -181 -145 -200v-98c0 -11 -8 -19 -19 -19h-97c-11 0 -19 8 -19 19v93c-66 6 -131 20 -131 20c-11 2 -19 8 -19 19v91c0 11 8 17 20 15c0 0 113 -22 170 -22c76 0 105 24 105 82v20c0 44 -34 61 -78 76l-85 28c-71 23 -127 71 -127 176v25
c0 109 60 167 145 188v101c0 11 8 19 19 19h97c11 0 19 -8 19 -19v-93c61 -5 116 -16 116 -16c11 -2 19 -8 19 -19v-88c0 -11 -7 -17 -19 -16c0 0 -101 16 -166 16c-69 0 -95 -25 -95 -73v-15c0 -33 24 -51 59 -63l85 -28c76 -25 146 -65 146 -189v-30z" />
    <glyph glyph-name="percent" unicode="%" horiz-adv-x="1070" 
d="M1010 186c0 -119 -78 -196 -203 -196s-203 77 -203 196v19c0 119 78 196 203 196s203 -77 203 -196v-19zM771 691l-327 -672c-5 -10 -11 -19 -22 -19h-109c-11 0 -19 9 -14 19l327 672c5 10 11 19 22 19h109c11 0 19 -9 14 -19zM466 505c0 -119 -78 -196 -203 -196
s-203 77 -203 196v19c0 119 78 196 203 196s203 -77 203 -196v-19zM875 181v29c0 45 -19 76 -68 76s-68 -31 -68 -76v-29c0 -45 19 -76 68 -76s68 31 68 76zM331 500v29c0 45 -19 76 -68 76s-68 -31 -68 -76v-29c0 -45 19 -76 68 -76s68 31 68 76z" />
    <glyph glyph-name="ampersand" unicode="&#x26;" horiz-adv-x="683" 
d="M683 13c0 -7 -5 -13 -15 -13h-132c-11 0 -22 10 -30 18l-31 34c-57 -43 -125 -62 -186 -62c-144 0 -229 61 -229 189v31c0 87 57 135 115 174c-37 40 -70 83 -70 143v26c0 99 73 167 193 167c125 0 193 -68 193 -167v-21c0 -73 -50 -124 -118 -173l86 -96c4 20 6 42 6 67
v61c0 11 8 19 19 19h97c11 0 19 -8 19 -19v-61c0 -71 -15 -130 -40 -177l118 -129c3 -3 5 -7 5 -11zM358 537v9c0 29 -22 54 -60 54c-42 0 -58 -27 -58 -54v-14c0 -32 24 -57 56 -91c41 34 62 62 62 96zM393 143l-141 157c-35 -27 -57 -54 -57 -90v-21c0 -45 26 -79 94 -79
c32 0 71 7 104 33z" />
    <glyph glyph-name="quotesingle" unicode="'" horiz-adv-x="235" 
d="M185 414c0 -11 -8 -19 -19 -19h-97c-11 0 -19 8 -19 19v277c0 11 8 19 19 19h97c11 0 19 -8 19 -19v-277z" />
    <glyph glyph-name="parenleft" unicode="(" horiz-adv-x="325" 
d="M315 -113c0 -11 -6 -17 -17 -17h-6c-152 0 -232 72 -232 240v490c0 168 80 240 232 240h6c11 0 17 -6 17 -17v-74c0 -11 -6 -19 -17 -19h-8c-62 0 -95 -35 -95 -130v-490c0 -95 33 -130 95 -130h8c11 0 17 -8 17 -19v-74z" />
    <glyph glyph-name="parenright" unicode=")" horiz-adv-x="325" 
d="M265 110c0 -168 -80 -240 -232 -240h-6c-11 0 -17 6 -17 17v74c0 11 6 19 17 19h8c62 0 95 35 95 130v490c0 95 -33 130 -95 130h-8c-11 0 -17 8 -17 19v74c0 11 6 17 17 17h6c152 0 232 -72 232 -240v-490z" />
    <glyph glyph-name="asterisk" unicode="*" horiz-adv-x="536" 
d="M477 562c6 -9 2 -20 -7 -26l-109 -69l87 -95c7 -8 6 -18 -2 -26l-60 -56c-8 -8 -20 -6 -27 2l-90 98l-92 -99c-8 -8 -19 -10 -27 -2l-60 57c-8 8 -10 18 -2 26l88 95l-109 68c-9 6 -13 17 -7 26l45 69c6 9 17 13 26 7l78 -48v102c0 11 8 19 19 19h82c11 0 19 -8 19 -19
v-102l78 49c9 6 20 2 26 -7z" />
    <glyph glyph-name="plus" unicode="+" 
d="M475 309c0 -11 -8 -19 -19 -19h-131v-141c0 -11 -8 -19 -19 -19h-87c-11 0 -19 8 -19 19v141h-131c-11 0 -19 8 -19 19v82c0 11 8 19 19 19h131v141c0 11 8 19 19 19h87c11 0 19 -8 19 -19v-141h131c11 0 19 -8 19 -19v-82z" />
    <glyph glyph-name="comma" unicode="," horiz-adv-x="245" 
d="M195 10l-47 -171c-3 -11 -10 -19 -21 -19h-50c-11 0 -18 7 -16 18l29 162h-21c-11 0 -19 8 -19 19v107c0 11 8 19 19 19h107c11 0 19 -8 19 -19v-116z" />
    <glyph glyph-name="hyphen" unicode="-" horiz-adv-x="350" 
d="M300 309c0 -11 -8 -19 -19 -19h-212c-11 0 -19 8 -19 19v82c0 11 8 19 19 19h212c11 0 19 -8 19 -19v-82z" />
    <glyph glyph-name="period" unicode="." horiz-adv-x="245" 
d="M195 19c0 -11 -8 -19 -19 -19h-107c-11 0 -19 8 -19 19v107c0 11 8 19 19 19h107c11 0 19 -8 19 -19v-107z" />
    <glyph glyph-name="slash" unicode="/" horiz-adv-x="425" 
d="M379 689l-194 -671c-3 -11 -10 -18 -21 -18h-103c-11 0 -18 10 -15 21l194 671c3 11 10 18 21 18h103c11 0 18 -10 15 -21z" />
    <glyph glyph-name="zero" unicode="0" horiz-adv-x="500" 
d="M465 220c0 -147 -69 -230 -215 -230s-215 83 -215 230v270c0 147 69 230 215 230s215 -83 215 -230v-270zM330 225v260c0 72 -20 110 -80 110s-80 -38 -80 -110v-260c0 -72 20 -110 80 -110s80 38 80 110z" />
    <glyph glyph-name="one" unicode="1" horiz-adv-x="500" 
d="M470 19c0 -11 -8 -19 -19 -19h-377c-11 0 -19 8 -19 19v87c0 11 8 19 19 19h131v446l-141 -31c-11 -2 -19 4 -19 15v91c0 11 7 20 18 23l147 41h111c11 0 19 -8 19 -19v-566h111c11 0 19 -8 19 -19v-87z" />
    <glyph glyph-name="two" unicode="2" horiz-adv-x="500" 
d="M455 19c0 -11 -8 -19 -19 -19h-377c-11 0 -19 8 -19 19v138c0 250 280 219 280 335v35c0 43 -30 68 -90 68s-171 -16 -171 -16c-11 -1 -19 4 -19 15v87c0 11 7 20 19 21c0 0 99 18 173 18c146 0 223 -60 223 -193v-35c0 -222 -280 -170 -280 -336v-31h261
c11 0 19 -8 19 -19v-87z" />
    <glyph glyph-name="three" unicode="3" horiz-adv-x="500" 
d="M455 183c0 -147 -99 -193 -234 -193c-78 0 -172 20 -172 20c-12 1 -19 8 -19 19v89c0 11 8 16 19 15c0 0 106 -18 169 -18c73 0 102 26 102 76v37c0 56 -38 76 -106 76h-105c-11 0 -19 8 -19 19v87c0 11 8 19 19 19h85c76 0 106 24 106 80v21c0 44 -20 65 -91 65
c-64 0 -160 -17 -160 -17c-11 -1 -19 4 -19 15v88c0 11 7 18 19 19c0 0 85 20 167 20c133 0 219 -42 219 -181v-27c0 -67 -30 -110 -76 -137c57 -25 96 -71 96 -149v-43z" />
    <glyph glyph-name="four" unicode="4" horiz-adv-x="500" 
d="M495 154c0 -11 -8 -19 -19 -19h-41v-116c0 -11 -8 -19 -19 -19h-97c-11 0 -19 8 -19 19v116h-271c-11 0 -19 8 -19 19v106l116 432c3 11 10 18 21 18h135c11 0 18 -10 15 -21l-132 -429h135v221c0 11 8 19 19 19h97c11 0 19 -8 19 -19v-221h41c11 0 19 -8 19 -19v-87z
" />
    <glyph glyph-name="five" unicode="5" horiz-adv-x="500" 
d="M465 198c0 -157 -90 -208 -235 -208c-81 0 -171 20 -171 20c-12 1 -19 9 -19 20v88c0 11 8 16 19 15c0 0 104 -18 169 -18c83 0 102 34 102 93v54c0 53 -23 67 -63 67c-53 0 -90 -32 -122 -55h-86c-11 0 -19 8 -19 19v398c0 11 8 19 19 19h387c11 0 19 -8 19 -19v-87
c0 -11 -8 -19 -19 -19h-271v-162c31 18 70 31 113 31c112 0 177 -57 177 -190v-66z" />
    <glyph glyph-name="six" unicode="6" horiz-adv-x="500" 
d="M465 200c0 -131 -72 -210 -215 -210c-138 0 -215 75 -215 210v260c0 176 99 260 250 260c58 0 131 -13 131 -13c14 -1 19 -10 19 -21v-86c0 -11 -5 -17 -19 -16c0 0 -84 11 -126 11c-81 0 -120 -39 -120 -115v-57c30 18 70 31 119 31c128 0 176 -75 176 -188v-66z
M330 203v56c0 53 -27 70 -70 70c-29 0 -61 -13 -90 -28v-98c0 -59 24 -88 80 -88c60 0 80 34 80 88z" />
    <glyph glyph-name="seven" unicode="7" horiz-adv-x="500" 
d="M470 585l-221 -567c-4 -11 -10 -18 -21 -18h-131c-11 0 -16 11 -12 22l233 563h-274c-11 0 -19 8 -19 19v87c0 11 8 19 19 19h407c11 0 19 -8 19 -19v-106z" />
    <glyph glyph-name="eight" unicode="8" horiz-adv-x="500" 
d="M475 191c0 -137 -92 -201 -225 -201s-225 64 -225 201v26c0 79 36 128 86 155c-45 25 -76 69 -76 141v22c0 127 92 185 215 185s215 -58 215 -185v-22c0 -72 -31 -116 -76 -141c50 -27 86 -76 86 -155v-26zM330 512v7c0 41 -21 76 -80 76s-80 -35 -80 -76v-7
c0 -42 22 -77 80 -77s80 35 80 77zM340 204v16c0 49 -23 90 -90 90s-90 -41 -90 -90v-16c0 -55 33 -89 90 -89s90 34 90 89z" />
    <glyph glyph-name="nine" unicode="9" horiz-adv-x="500" 
d="M465 240c0 -182 -89 -250 -240 -250c-55 0 -131 13 -131 13c-10 2 -19 6 -19 19v88c0 11 6 17 19 16c0 0 84 -11 126 -11c81 0 110 44 110 120v61c-30 -17 -69 -30 -116 -30c-127 0 -179 77 -179 190v54c0 131 72 210 215 210c146 0 215 -80 215 -210v-270zM330 414v93
c0 59 -24 88 -80 88c-60 0 -80 -34 -80 -88v-43c0 -53 27 -73 70 -73c29 0 61 11 90 23z" />
    <glyph glyph-name="colon" unicode=":" horiz-adv-x="245" 
d="M195 374c0 -11 -8 -19 -19 -19h-107c-11 0 -19 8 -19 19v107c0 11 8 19 19 19h107c11 0 19 -8 19 -19v-107zM195 19c0 -11 -8 -19 -19 -19h-107c-11 0 -19 8 -19 19v107c0 11 8 19 19 19h107c11 0 19 -8 19 -19v-107z" />
    <glyph glyph-name="semicolon" unicode=";" horiz-adv-x="245" 
d="M195 374c0 -11 -8 -19 -19 -19h-107c-11 0 -19 8 -19 19v107c0 11 8 19 19 19h107c11 0 19 -8 19 -19v-107zM195 10l-47 -171c-3 -11 -10 -19 -21 -19h-50c-11 0 -18 7 -16 18l29 162h-21c-11 0 -19 8 -19 19v107c0 11 8 19 19 19h107c11 0 19 -8 19 -19v-116z" />
    <glyph glyph-name="less" unicode="&#x3c;" 
d="M475 122c0 -11 -10 -18 -20 -13l-387 173c-10 5 -18 13 -18 24v88c0 11 8 19 18 24l387 173c10 5 20 -2 20 -13v-100c0 -11 -9 -17 -19 -21l-259 -107l259 -107c10 -4 19 -10 19 -21v-100z" />
    <glyph glyph-name="equal" unicode="=" 
d="M475 429c0 -11 -8 -19 -19 -19h-387c-11 0 -19 8 -19 19v82c0 11 8 19 19 19h387c11 0 19 -8 19 -19v-82zM475 189c0 -11 -8 -19 -19 -19h-387c-11 0 -19 8 -19 19v82c0 11 8 19 19 19h387c11 0 19 -8 19 -19v-82z" />
    <glyph glyph-name="greater" unicode="&#x3e;" 
d="M475 306c0 -11 -8 -19 -18 -24l-387 -173c-10 -5 -20 2 -20 13v100c0 11 9 17 19 21l259 107l-259 107c-10 4 -19 10 -19 21v100c0 11 10 18 20 13l387 -173c10 -5 18 -13 18 -24v-88z" />
    <glyph glyph-name="question" unicode="?" horiz-adv-x="455" 
d="M405 543c0 -77 -32 -116 -64 -142l-24 -19c-30 -24 -52 -41 -52 -95v-33c0 -11 -8 -19 -19 -19h-97c-11 0 -19 8 -19 19v33c0 97 24 134 70 168l26 19c22 16 44 29 44 60v10c0 31 -21 51 -74 51c-52 0 -137 -16 -137 -16c-11 -1 -19 4 -19 15v88c0 11 8 18 19 19
c0 0 79 19 153 19c113 0 193 -44 193 -162v-15zM270 19c0 -11 -8 -19 -19 -19h-107c-11 0 -19 8 -19 19v107c0 11 8 19 19 19h107c11 0 19 -8 19 -19v-107z" />
    <glyph glyph-name="at" unicode="@" horiz-adv-x="1000" 
d="M940 280c0 -205 -99 -280 -232 -280c-70 0 -113 27 -137 67c-37 -29 -88 -57 -147 -57c-96 0 -149 61 -149 152c0 15 1 31 4 48l22 120c21 113 80 170 213 170c89 0 197 -35 197 -35c10 -3 16 -12 14 -23l-39 -222c-2 -14 -4 -29 -4 -42c0 -32 9 -58 38 -58
c43 0 75 51 75 160v40c0 150 -68 270 -295 270c-220 0 -295 -141 -295 -320v-40c0 -161 73 -300 295 -300h146c11 0 19 -8 19 -19v-92c0 -11 -8 -19 -19 -19h-146c-288 0 -440 151 -440 430v40c0 278 151 450 440 450c292 0 440 -161 440 -400v-40zM578 371
c-25 5 -49 9 -63 9c-56 0 -76 -28 -84 -75l-16 -90c-2 -11 -3 -21 -3 -31c0 -31 12 -54 49 -54c27 0 58 10 87 23c0 5 -1 10 -1 15c0 20 2 41 6 62z" />
    <glyph glyph-name="A" unicode="A" horiz-adv-x="605" 
d="M589 20c3 -11 -3 -20 -14 -20h-109c-11 0 -18 8 -21 19l-28 101h-229l-28 -101c-3 -11 -10 -19 -21 -19h-109c-11 0 -17 9 -14 20l198 671c3 11 12 19 23 19h131c11 0 20 -8 23 -19zM382 245l-79 288l-80 -288h159z" />
    <glyph glyph-name="B" unicode="B" horiz-adv-x="600" 
d="M550 200c0 -146 -86 -200 -230 -200h-241c-11 0 -19 8 -19 19v672c0 11 8 19 19 19h221c144 0 230 -54 230 -195c0 -75 -32 -122 -82 -150c62 -26 102 -76 102 -165zM395 505c0 68 -38 85 -105 85h-95v-170h95c72 0 105 24 105 85zM415 210c0 71 -43 90 -105 90h-115
v-180h115c68 0 105 23 105 90z" />
    <glyph glyph-name="C" unicode="C" horiz-adv-x="475" 
d="M435 21c0 -11 -7 -19 -19 -20c0 0 -58 -11 -111 -11c-160 0 -245 94 -245 260v210c0 166 85 260 245 260c53 0 111 -11 111 -11c12 -1 19 -9 19 -20v-89c0 -11 -8 -17 -20 -16c0 0 -65 8 -110 8c-85 0 -110 -59 -110 -142v-190c0 -83 24 -142 115 -142c45 0 106 9 106 9
c12 1 19 -5 19 -16v-90z" />
    <glyph glyph-name="D" unicode="D" horiz-adv-x="610" 
d="M550 260c0 -166 -85 -260 -245 -260h-226c-11 0 -19 8 -19 19v672c0 11 8 19 19 19h226c160 0 245 -94 245 -260v-190zM415 270v170c0 83 -25 145 -110 145h-110v-460h110c85 0 110 62 110 145z" />
    <glyph glyph-name="E" unicode="E" horiz-adv-x="505" 
d="M465 19c0 -11 -8 -19 -19 -19h-367c-11 0 -19 8 -19 19v672c0 11 8 19 19 19h367c11 0 19 -8 19 -19v-87c0 -11 -8 -19 -19 -19h-251v-160h231c11 0 19 -8 19 -19v-87c0 -11 -8 -19 -19 -19h-231v-175h251c11 0 19 -8 19 -19v-87z" />
    <glyph glyph-name="F" unicode="F" horiz-adv-x="505" 
d="M465 604c0 -11 -8 -19 -19 -19h-251v-160h231c11 0 19 -8 19 -19v-87c0 -11 -8 -19 -19 -19h-231v-281c0 -11 -8 -19 -19 -19h-97c-11 0 -19 8 -19 19v672c0 11 8 19 19 19h367c11 0 19 -8 19 -19v-87z" />
    <glyph glyph-name="G" unicode="G" horiz-adv-x="610" 
d="M550 45c0 0 -108 -55 -245 -55c-167 0 -245 93 -245 260v190c0 178 91 280 265 280c107 0 186 -30 186 -30c12 -2 19 -9 19 -20v-85c0 -11 -7 -18 -20 -16c0 0 -113 26 -180 26c-99 0 -135 -59 -135 -155v-180c0 -92 33 -145 114 -145c59 0 106 18 106 18v147h-101
c-11 0 -19 8 -19 19v87c0 11 8 19 19 19h217c11 0 19 -8 19 -19v-341z" />
    <glyph glyph-name="H" unicode="H" horiz-adv-x="610" 
d="M550 19c0 -11 -8 -19 -19 -19h-97c-11 0 -19 8 -19 19v281h-220v-281c0 -11 -8 -19 -19 -19h-97c-11 0 -19 8 -19 19v672c0 11 8 19 19 19h97c11 0 19 -8 19 -19v-266h220v266c0 11 8 19 19 19h97c11 0 19 -8 19 -19v-672z" />
    <glyph glyph-name="I" unicode="I" horiz-adv-x="445" 
d="M415 19c0 -11 -8 -19 -19 -19h-347c-11 0 -19 8 -19 19v52c0 11 8 19 19 19h106v530h-106c-11 0 -19 8 -19 19v52c0 11 8 19 19 19h347c11 0 19 -8 19 -19v-52c0 -11 -8 -19 -19 -19h-106v-530h106c11 0 19 -8 19 -19v-52z" />
    <glyph glyph-name="J" unicode="J" horiz-adv-x="375" 
d="M315 220c0 -146 -66 -220 -210 -220h-46c-11 0 -19 8 -19 19v82c0 11 8 19 19 19h21c71 0 100 33 100 110v461c0 11 8 19 19 19h97c11 0 19 -8 19 -19v-471z" />
    <glyph glyph-name="K" unicode="K" horiz-adv-x="550" 
d="M540 19c5 -10 -3 -19 -14 -19h-112c-11 0 -20 9 -25 19l-193 351l183 321c6 10 14 19 25 19h111c11 0 20 -9 14 -19l-183 -321zM195 19c0 -11 -8 -19 -19 -19h-97c-11 0 -19 8 -19 19v672c0 11 8 19 19 19h97c11 0 19 -8 19 -19v-672z" />
    <glyph glyph-name="L" unicode="L" horiz-adv-x="505" 
d="M465 19c0 -11 -8 -19 -19 -19h-367c-11 0 -19 8 -19 19v672c0 11 8 19 19 19h97c11 0 19 -8 19 -19v-566h251c11 0 19 -8 19 -19v-87z" />
    <glyph glyph-name="M" unicode="M" horiz-adv-x="765" 
d="M705 19c0 -11 -8 -19 -19 -19h-97c-11 0 -19 8 -19 19v410l-113 -290c-4 -10 -12 -19 -23 -19h-103c-11 0 -19 9 -23 19l-113 290v-410c0 -11 -8 -19 -19 -19h-97c-11 0 -19 8 -19 19v672c0 11 8 19 19 19h110c11 0 20 -9 24 -19l170 -418l169 418c4 10 13 19 24 19h110
c11 0 19 -8 19 -19v-672z" />
    <glyph glyph-name="N" unicode="N" horiz-adv-x="610" 
d="M550 19c0 -11 -8 -19 -19 -19h-101c-13 0 -20 9 -25 19l-210 405v-405c0 -11 -8 -19 -19 -19h-97c-11 0 -19 8 -19 19v672c0 11 8 19 19 19h101c15 0 20 -9 25 -19l210 -405v405c0 11 8 19 19 19h97c11 0 19 -8 19 -19v-672z" />
    <glyph glyph-name="O" unicode="O" horiz-adv-x="610" 
d="M550 250c0 -166 -85 -260 -245 -260s-245 94 -245 260v210c0 166 85 260 245 260s245 -94 245 -260v-210zM415 260v190c0 83 -25 145 -110 145s-110 -62 -110 -145v-190c0 -83 25 -145 110 -145s110 62 110 145z" />
    <glyph glyph-name="P" unicode="P" horiz-adv-x="580" 
d="M530 495c0 -159 -91 -215 -235 -215h-100v-261c0 -11 -8 -19 -19 -19h-97c-11 0 -19 8 -19 19v672c0 11 8 19 19 19h216c144 0 235 -56 235 -215zM395 495c0 70 -37 95 -110 95h-90v-190h90c73 0 110 25 110 95z" />
    <glyph glyph-name="Q" unicode="Q" horiz-adv-x="610" 
d="M550 250c0 -142 -62 -231 -180 -254v-14c0 -41 18 -57 51 -57c15 0 42 4 60 6c12 1 19 -3 19 -14v-90c0 -11 -7 -18 -19 -20c-22 -3 -61 -7 -98 -7c-95 0 -148 56 -148 171v26c-115 24 -175 113 -175 253v210c0 166 85 260 245 260s245 -94 245 -260v-210zM415 260v190
c0 83 -25 145 -110 145s-110 -62 -110 -145v-190c0 -83 25 -145 110 -145s110 62 110 145z" />
    <glyph glyph-name="R" unicode="R" horiz-adv-x="580" 
d="M548 20c6 -9 0 -20 -11 -20h-114c-11 0 -18 10 -24 19l-155 261h-49v-261c0 -11 -8 -19 -19 -19h-97c-11 0 -19 8 -19 19v672c0 11 8 19 19 19h221c144 0 230 -62 230 -215c0 -118 -53 -182 -143 -205zM395 495c0 73 -38 95 -110 95h-90v-190h87c72 0 113 22 113 95z" />
    <glyph glyph-name="S" unicode="S" horiz-adv-x="535" 
d="M480 197c0 -156 -78 -207 -232 -207c-79 0 -179 22 -179 22c-11 1 -19 8 -19 19v91c0 11 8 17 20 15c0 0 113 -22 170 -22c76 0 105 24 105 82v20c0 44 -34 61 -78 76l-85 28c-71 23 -127 71 -127 176v25c0 142 103 198 228 198c77 0 168 -18 168 -18c11 -1 19 -8 19 -19
v-88c0 -11 -7 -17 -19 -16c0 0 -101 16 -166 16c-69 0 -95 -25 -95 -73v-15c0 -33 24 -51 59 -63l85 -28c76 -25 146 -65 146 -189v-30z" />
    <glyph glyph-name="T" unicode="T" horiz-adv-x="550" 
d="M520 604c0 -11 -8 -19 -19 -19h-158v-566c0 -11 -8 -19 -19 -19h-97c-11 0 -19 8 -19 19v566h-159c-11 0 -19 8 -19 19v87c0 11 8 19 19 19h452c11 0 19 -8 19 -19v-87z" />
    <glyph glyph-name="U" unicode="U" horiz-adv-x="610" 
d="M550 260c0 -191 -89 -270 -245 -270s-245 79 -245 270v431c0 11 8 19 19 19h97c11 0 19 -8 19 -19v-431c0 -83 25 -145 110 -145s110 62 110 145v431c0 11 8 19 19 19h97c11 0 19 -8 19 -19v-431z" />
    <glyph glyph-name="V" unicode="V" horiz-adv-x="580" 
d="M564 689l-184 -670c-3 -12 -12 -19 -23 -19h-134c-11 0 -20 7 -23 19l-184 670c-3 11 2 21 14 21h111c11 0 16 -8 19 -19l130 -499l130 499c3 11 8 19 19 19h111c12 0 17 -10 14 -21z" />
    <glyph glyph-name="W" unicode="W" horiz-adv-x="935" 
d="M911 689l-142 -670c-2 -11 -11 -19 -23 -19h-133c-13 0 -20 8 -23 19l-122 447l-123 -447c-3 -11 -10 -19 -23 -19h-133c-12 0 -21 8 -23 19l-142 670c-2 11 2 21 14 21h112c11 0 17 -8 19 -19l98 -499l123 499c3 11 11 19 22 19h111c11 0 19 -8 22 -19l123 -499l98 499
c2 11 8 19 19 19h112c12 0 16 -10 14 -21z" />
    <glyph glyph-name="X" unicode="X" horiz-adv-x="590" 
d="M579 21c5 -10 0 -21 -12 -21h-122c-15 0 -20 9 -25 19l-125 230l-125 -230c-5 -10 -10 -19 -25 -19h-122c-12 0 -17 11 -12 21l189 342l-179 326c-5 10 0 21 12 21h122c15 0 20 -9 25 -19l115 -214l115 214c5 10 10 19 25 19h122c12 0 17 -11 12 -21l-179 -326z" />
    <glyph glyph-name="Y" unicode="Y" horiz-adv-x="575" 
d="M556 689l-201 -464v-206c0 -11 -8 -19 -19 -19h-97c-11 0 -19 8 -19 19v206l-201 464c-4 10 2 21 14 21h115c11 0 15 -9 19 -19l121 -306l120 306c4 10 8 19 19 19h115c12 0 18 -11 14 -21z" />
    <glyph glyph-name="Z" unicode="Z" horiz-adv-x="485" 
d="M445 19c0 -11 -8 -19 -19 -19h-367c-11 0 -19 8 -19 19v106l243 460h-224c-11 0 -19 8 -19 19v87c0 11 8 19 19 19h367c11 0 19 -8 19 -19v-106l-243 -460h224c11 0 19 -8 19 -19v-87z" />
    <glyph glyph-name="bracketleft" unicode="[" horiz-adv-x="325" 
d="M315 -111c0 -11 -8 -19 -19 -19h-217c-11 0 -19 8 -19 19v932c0 11 8 19 19 19h217c11 0 19 -8 19 -19v-72c0 -11 -8 -19 -19 -19h-101v-750h101c11 0 19 -8 19 -19v-72z" />
    <glyph glyph-name="backslash" unicode="\" horiz-adv-x="425" 
d="M379 21c3 -11 -4 -21 -15 -21h-103c-11 0 -18 7 -21 18l-194 671c-3 11 4 21 15 21h103c11 0 18 -7 21 -18z" />
    <glyph glyph-name="bracketright" unicode="]" horiz-adv-x="325" 
d="M265 -111c0 -11 -8 -19 -19 -19h-217c-11 0 -19 8 -19 19v72c0 11 8 19 19 19h101v750h-101c-11 0 -19 8 -19 19v72c0 11 8 19 19 19h217c11 0 19 -8 19 -19v-932z" />
    <glyph glyph-name="asciicircum" unicode="^" horiz-adv-x="600" 
d="M538 420c6 -9 -2 -20 -13 -20h-98c-11 0 -18 10 -24 19l-103 164l-103 -164c-6 -9 -13 -19 -24 -19h-98c-11 0 -19 11 -13 20l167 272c6 9 12 18 23 18h96c11 0 17 -9 23 -18z" />
    <glyph glyph-name="underscore" unicode="_" horiz-adv-x="510" 
d="M510 -171c0 -11 -8 -19 -19 -19h-472c-11 0 -19 8 -19 19v82c0 11 8 19 19 19h472c11 0 19 -8 19 -19v-82z" />
    <glyph glyph-name="grave" unicode="`" horiz-adv-x="317" 
d="M267 699l-80 -110c-7 -9 -16 -19 -27 -19h-99c-12 0 -16 11 -11 21l57 110c5 10 16 19 27 19h123c12 0 17 -12 10 -21z" />
    <glyph glyph-name="a" unicode="a" horiz-adv-x="510" 
d="M450 19c0 -11 -8 -19 -19 -19h-87c-11 0 -19 8 -19 19v7c-33 -20 -74 -36 -121 -36c-98 0 -159 46 -159 155c0 102 67 155 180 155c34 0 64 -2 90 -6v26c0 46 -22 65 -73 65c-54 0 -138 -17 -138 -17c-11 -1 -19 4 -19 15v85c0 11 8 18 19 20c0 0 73 22 160 22
c147 0 186 -66 186 -190v-301zM315 121v82h-68c-48 0 -67 -20 -67 -53c0 -31 18 -50 57 -50c25 0 52 9 78 21z" />
    <glyph glyph-name="b" unicode="b" 
d="M465 190c0 -114 -63 -190 -196 -190h-190c-11 0 -19 8 -19 19v672c0 11 8 19 19 19h97c11 0 19 -8 19 -19v-210c31 17 67 29 105 29c113 0 165 -71 165 -180v-140zM330 195v120c0 47 -18 75 -66 75c-21 0 -45 -7 -69 -17v-258h64c52 0 71 33 71 80z" />
    <glyph glyph-name="c" unicode="c" horiz-adv-x="400" 
d="M370 19c0 -11 -6 -19 -19 -20c0 0 -48 -9 -88 -9c-128 0 -203 65 -203 200v120c0 135 75 200 203 200c44 0 88 -9 88 -9c13 -1 19 -9 19 -20v-81c0 -11 -8 -17 -19 -16c0 0 -44 6 -79 6c-61 0 -77 -34 -77 -85v-110c0 -54 18 -85 78 -85c39 0 78 6 78 6
c11 1 19 -5 19 -16v-81z" />
    <glyph glyph-name="d" unicode="d" 
d="M465 19c0 -11 -8 -19 -19 -19h-87c-11 0 -19 8 -19 19v6c-33 -19 -72 -35 -115 -35c-113 0 -165 71 -165 180v160c0 109 52 180 165 180c38 0 74 -10 105 -24v205c0 11 8 19 19 19h97c11 0 19 -8 19 -19v-672zM330 127v250c-24 8 -48 13 -69 13c-48 0 -66 -28 -66 -75
v-130c0 -47 18 -75 66 -75c21 0 45 7 69 17z" />
    <glyph glyph-name="e" unicode="e" horiz-adv-x="515" 
d="M460 214c0 -11 -8 -19 -19 -19h-249c7 -55 36 -82 98 -82c54 0 131 13 131 13c12 1 19 -5 19 -16v-86c0 -11 -7 -19 -19 -20c0 0 -73 -14 -139 -14c-135 0 -227 65 -227 242v42c0 141 71 236 208 236c140 0 197 -95 197 -212v-84zM335 292v14c0 57 -16 91 -70 91
c-57 0 -74 -37 -75 -105h145z" />
    <glyph glyph-name="f" unicode="f" horiz-adv-x="305" 
d="M315 610c0 -11 -6 -18 -19 -17c0 0 -21 2 -35 2c-23 0 -46 -7 -46 -44v-51h61c11 0 19 -8 19 -19v-77c0 -11 -8 -19 -19 -19h-61v-366c0 -11 -8 -19 -19 -19h-97c-11 0 -19 8 -19 19v366h-51c-11 0 -19 8 -19 19v77c0 11 8 19 19 19h51v57c0 127 76 163 150 163
c43 0 66 -6 66 -6c11 -2 19 -8 19 -19v-85z" />
    <glyph glyph-name="g" unicode="g" 
d="M465 15c0 -163 -58 -215 -197 -215c-80 0 -169 19 -169 19c-12 1 -19 9 -19 20v88c0 11 7 16 19 15c0 0 87 -17 146 -17c67 0 85 29 85 90v24c-31 -17 -67 -29 -105 -29c-113 0 -165 71 -165 180v130c0 114 63 190 196 190c87 0 190 -25 190 -25c11 -1 19 -8 19 -19v-451
zM330 147v236c-26 4 -50 7 -64 7c-52 0 -71 -28 -71 -75v-110c0 -47 18 -75 66 -75c21 0 45 7 69 17z" />
    <glyph glyph-name="h" unicode="h" 
d="M465 19c0 -11 -8 -19 -19 -19h-97c-11 0 -19 8 -19 19v301c0 41 -14 65 -58 65c-24 0 -52 -9 -77 -21v-345c0 -11 -8 -19 -19 -19h-97c-11 0 -19 8 -19 19v672c0 11 8 19 19 19h97c11 0 19 -8 19 -19v-217c30 19 71 36 120 36c113 0 150 -68 150 -170v-321z" />
    <glyph glyph-name="i" unicode="i" horiz-adv-x="255" 
d="M195 594c0 -11 -8 -19 -19 -19h-97c-11 0 -19 8 -19 19v97c0 11 8 19 19 19h97c11 0 19 -8 19 -19v-97zM195 19c0 -11 -8 -19 -19 -19h-97c-11 0 -19 8 -19 19v462c0 11 8 19 19 19h97c11 0 19 -8 19 -19v-462z" />
    <glyph glyph-name="j" unicode="j" horiz-adv-x="255" 
d="M195 594c0 -11 -8 -19 -19 -19h-97c-11 0 -19 8 -19 19v97c0 11 8 19 19 19h97c11 0 19 -8 19 -19v-97zM195 -65c0 -98 -42 -135 -119 -135c-39 0 -77 4 -77 4c-11 2 -19 8 -19 19v81c0 11 9 17 19 17c0 0 18 -1 27 -1c23 0 34 11 34 38v523c0 11 8 19 19 19h97
c11 0 19 -8 19 -19v-546z" />
    <glyph glyph-name="k" unicode="k" horiz-adv-x="465" 
d="M457 19c4 -9 -1 -19 -12 -19h-108c-11 0 -21 9 -25 19l-116 261l104 201c5 10 14 19 25 19h108c11 0 17 -9 12 -19l-103 -198zM195 19c0 -11 -8 -19 -19 -19h-97c-11 0 -19 8 -19 19v672c0 11 8 19 19 19h97c11 0 19 -8 19 -19v-672z" />
    <glyph glyph-name="l" unicode="l" horiz-adv-x="255" 
d="M195 19c0 -11 -8 -19 -19 -19h-97c-11 0 -19 8 -19 19v672c0 11 8 19 19 19h97c11 0 19 -8 19 -19v-672z" />
    <glyph glyph-name="m" unicode="m" horiz-adv-x="795" 
d="M735 19c0 -11 -8 -19 -19 -19h-97c-11 0 -19 8 -19 19v301c0 41 -14 65 -58 65c-24 0 -53 -11 -78 -25c0 -6 1 -13 1 -20v-321c0 -11 -8 -19 -19 -19h-97c-11 0 -19 8 -19 19v301c0 41 -14 65 -58 65c-24 0 -52 -9 -77 -21v-345c0 -11 -8 -19 -19 -19h-97
c-11 0 -19 8 -19 19v462c0 11 8 19 19 19h87c11 0 19 -8 19 -19v-14c31 22 75 43 130 43c62 0 101 -21 124 -56c30 25 80 56 146 56c113 0 150 -68 150 -170v-321z" />
    <glyph glyph-name="n" unicode="n" 
d="M465 19c0 -11 -8 -19 -19 -19h-97c-11 0 -19 8 -19 19v301c0 41 -14 65 -58 65c-24 0 -52 -9 -77 -21v-345c0 -11 -8 -19 -19 -19h-97c-11 0 -19 8 -19 19v462c0 11 8 19 19 19h87c11 0 19 -8 19 -19v-14c31 22 75 43 130 43c113 0 150 -68 150 -170v-321z" />
    <glyph glyph-name="o" unicode="o" horiz-adv-x="526" 
d="M466 190c0 -135 -75 -200 -203 -200s-203 65 -203 200v120c0 135 75 200 203 200s203 -65 203 -200v-120zM331 188v125c0 45 -16 80 -68 80s-68 -35 -68 -80v-125c0 -45 16 -80 68 -80s68 35 68 80z" />
    <glyph glyph-name="p" unicode="p" 
d="M465 190c0 -114 -63 -190 -196 -190c-18 0 -45 3 -74 7v-178c0 -11 -8 -19 -19 -19h-97c-11 0 -19 8 -19 19v652c0 11 8 19 19 19h87c11 0 19 -8 19 -19v-6c33 19 72 35 115 35c113 0 165 -71 165 -180v-140zM330 195v120c0 47 -18 75 -66 75c-21 0 -45 -7 -69 -17v-258
h64c52 0 71 33 71 80z" />
    <glyph glyph-name="q" unicode="q" 
d="M465 -171c0 -11 -8 -19 -19 -19h-97c-11 0 -19 8 -19 19v190c-31 -17 -67 -29 -105 -29c-113 0 -165 71 -165 180v150c0 114 63 190 196 190c87 0 190 -25 190 -25c11 -1 19 -8 19 -19v-637zM330 127v256c-26 4 -50 7 -64 7c-52 0 -71 -28 -71 -75v-130
c0 -47 18 -75 66 -75c21 0 45 7 69 17z" />
    <glyph glyph-name="r" unicode="r" horiz-adv-x="330" 
d="M315 373c0 -11 -5 -19 -16 -18c0 0 -6 1 -10 1c-42 0 -73 -27 -94 -59v-278c0 -11 -8 -19 -19 -19h-97c-11 0 -19 8 -19 19v462c0 11 8 19 19 19h87c11 0 19 -8 19 -19v-38c14 36 40 67 91 67c11 0 22 -2 22 -2c13 -1 17 -8 17 -19v-116z" />
    <glyph glyph-name="s" unicode="s" horiz-adv-x="485" 
d="M435 162c0 -130 -70 -172 -198 -172c-85 0 -173 24 -173 24c-13 3 -19 8 -19 19v83c0 11 7 18 19 16c0 0 102 -22 161 -22c57 0 75 12 75 37c0 26 -28 32 -65 37l-35 5c-62 9 -150 33 -150 154c0 120 84 167 198 167c81 0 148 -17 148 -17c13 -3 19 -8 19 -19v-82
c0 -11 -6 -17 -19 -16c0 0 -82 14 -141 14c-53 0 -70 -10 -70 -35c0 -24 27 -28 58 -32l42 -6c68 -10 150 -38 150 -155z" />
    <glyph glyph-name="t" unicode="t" horiz-adv-x="355" 
d="M345 17c0 -11 -7 -18 -19 -20c0 0 -51 -7 -98 -7c-95 0 -148 50 -148 165v230h-51c-11 0 -19 8 -19 19v77c0 11 8 19 19 19h51v111c0 11 8 19 19 19h97c11 0 19 -8 19 -19v-111h111c11 0 19 -8 19 -19v-77c0 -11 -8 -19 -19 -19h-111v-213c0 -41 18 -57 51 -57
c23 0 60 6 60 6c12 1 19 -3 19 -14v-90z" />
    <glyph glyph-name="u" unicode="u" 
d="M465 19c0 -11 -8 -19 -19 -19h-87c-11 0 -19 8 -19 19v14c-31 -22 -75 -43 -130 -43c-113 0 -150 68 -150 170v321c0 11 8 19 19 19h97c11 0 19 -8 19 -19v-301c0 -41 14 -65 58 -65c24 0 52 9 77 21v345c0 11 8 19 19 19h97c11 0 19 -8 19 -19v-462z" />
    <glyph glyph-name="v" unicode="v" horiz-adv-x="500" 
d="M484 480l-138 -461c-3 -11 -12 -19 -23 -19h-146c-11 0 -20 8 -23 19l-138 461c-3 11 5 20 16 20h106c11 0 19 -7 22 -18l90 -320l90 320c3 11 11 18 22 18h106c11 0 19 -9 16 -20z" />
    <glyph glyph-name="w" unicode="w" horiz-adv-x="775" 
d="M751 480l-102 -461c-2 -11 -10 -19 -23 -19h-144c-12 0 -19 8 -22 19l-72 259l-73 -259c-3 -11 -10 -19 -23 -19h-144c-12 0 -20 8 -22 19l-102 461c-2 11 5 20 16 20h107c11 0 20 -8 22 -19l61 -319l80 319c3 11 11 19 23 19h109c12 0 20 -8 23 -19l80 -319l62 320
c2 11 11 18 22 18h106c11 0 18 -9 16 -20z" />
    <glyph glyph-name="x" unicode="x" horiz-adv-x="480" 
d="M469 20c5 -10 -1 -20 -12 -20h-125c-11 0 -18 8 -23 18l-69 132l-69 -132c-5 -10 -12 -18 -23 -18h-125c-11 0 -17 10 -12 20l132 238l-122 222c-5 10 1 20 12 20h124c11 0 18 -8 23 -18l60 -116l60 116c5 10 12 18 23 18h124c11 0 17 -10 12 -20l-122 -222z" />
    <glyph glyph-name="y" unicode="y" horiz-adv-x="500" 
d="M483 480l-222 -652c-3 -10 -10 -18 -21 -18h-108c-11 0 -18 10 -15 20l55 162l-156 489c-3 11 5 19 16 19h106c11 0 19 -6 22 -17l85 -277l94 276c3 10 11 18 22 18h106c11 0 19 -10 16 -20z" />
    <glyph glyph-name="z" unicode="z" horiz-adv-x="465" 
d="M425 19c0 -11 -8 -19 -19 -19h-347c-11 0 -19 8 -19 19v101l189 260h-170c-11 0 -19 8 -19 19v82c0 11 8 19 19 19h347c11 0 19 -8 19 -19v-101l-189 -260h170c11 0 19 -8 19 -19v-82z" />
    <glyph glyph-name="braceleft" unicode="{" horiz-adv-x="355" 
d="M345 -111c0 -11 -8 -19 -19 -19h-31c-144 0 -205 56 -205 190v160c0 50 -11 80 -57 80h-6c-11 0 -17 8 -17 19v72c0 11 6 19 17 19h6c45 0 57 30 57 80v160c0 134 60 190 205 190h31c11 0 19 -8 19 -19v-72c0 -11 -8 -19 -19 -19h-31c-56 0 -70 -30 -70 -80v-180
c0 -58 -12 -100 -58 -115c46 -14 58 -57 58 -115v-180c0 -50 14 -80 70 -80h31c11 0 19 -8 19 -19v-72z" />
    <glyph glyph-name="bar" unicode="|" horiz-adv-x="255" 
d="M195 -81c0 -11 -8 -19 -19 -19h-97c-11 0 -19 8 -19 19v872c0 11 8 19 19 19h97c11 0 19 -8 19 -19v-872z" />
    <glyph glyph-name="braceright" unicode="}" horiz-adv-x="355" 
d="M345 319c0 -11 -6 -19 -17 -19h-6c-46 0 -57 -30 -57 -80v-160c0 -134 -60 -190 -205 -190h-31c-11 0 -19 8 -19 19v72c0 11 8 19 19 19h31c56 0 70 30 70 80v180c0 58 12 100 58 115c-46 14 -58 57 -58 115v180c0 50 -14 80 -70 80h-31c-11 0 -19 8 -19 19v72
c0 11 8 19 19 19h31c144 0 205 -56 205 -190v-160c0 -50 12 -80 57 -80h6c11 0 17 -8 17 -19v-72z" />
    <glyph glyph-name="asciitilde" unicode="~" 
d="M475 319c0 -11 -7 -18 -18 -22c0 0 -42 -22 -92 -22c-71 0 -139 30 -207 30c-30 0 -89 -19 -89 -19c-10 -2 -19 2 -19 13v82c0 11 7 18 18 22c0 0 42 22 92 22c71 0 141 -30 207 -30c30 0 89 19 89 19c10 2 19 -2 19 -13v-82z" />
    <glyph glyph-name="uni00A0" unicode="&#xa0;" horiz-adv-x="280" 
 />
    <glyph glyph-name="exclamdown" unicode="&#xa1;" horiz-adv-x="255" 
d="M200 394c0 -11 -8 -19 -19 -19h-107c-11 0 -19 8 -19 19v107c0 11 8 19 19 19h107c11 0 19 -8 19 -19v-107zM195 -171c0 -11 -8 -19 -19 -19h-97c-11 0 -19 8 -19 19v437c0 11 8 19 19 19h97c11 0 19 -8 19 -19v-437z" />
    <glyph glyph-name="cent" unicode="&#xa2;" horiz-adv-x="500" 
d="M415 19c0 -11 -6 -18 -19 -20c0 0 -12 -2 -46 -6v-94c0 -11 -8 -19 -19 -19h-97c-11 0 -19 8 -19 19v102c-80 23 -130 85 -130 194v111c0 111 50 172 130 194v101c0 11 8 19 19 19h97c11 0 19 -8 19 -19v-94c34 -4 46 -6 46 -6c13 -2 19 -9 19 -20v-81
c0 -11 -8 -17 -19 -16c0 0 -50 6 -89 6c-61 0 -87 -31 -87 -89v-101c0 -62 28 -90 88 -90c39 0 88 6 88 6c11 1 19 -5 19 -16v-81z" />
    <glyph glyph-name="sterling" unicode="&#xa3;" horiz-adv-x="500" 
d="M470 19c0 -11 -8 -19 -19 -19h-342c-11 0 -19 8 -19 19v286h-67c-11 0 -17 8 -16 19l7 77c1 11 8 19 19 19h57v66c0 142 64 234 223 234c78 0 138 -20 138 -20c11 -2 19 -11 19 -22v-87c0 -11 -8 -15 -19 -14c0 0 -75 18 -136 18c-83 0 -90 -56 -90 -109v-66h197
c11 0 17 -8 16 -19l-7 -77c-1 -11 -8 -19 -19 -19h-187v-180h226c11 0 19 -8 19 -19v-87z" />
    <glyph glyph-name="currency" unicode="&#xa4;" horiz-adv-x="500" 
d="M480 177l-58 -57c-8 -8 -19 -8 -27 0l-55 55c-26 -10 -56 -16 -90 -16s-65 6 -91 16l-55 -55c-8 -8 -19 -8 -27 0l-58 57c-8 8 -8 19 0 27l50 50c-14 27 -22 60 -22 96s7 69 22 96l-50 50c-8 8 -8 19 0 27l58 57c8 8 19 8 27 0l55 -55c26 10 57 16 91 16s64 -6 90 -16
l55 55c8 8 19 8 27 0l58 -57c8 -8 8 -19 0 -27l-50 -50c15 -27 23 -60 23 -96s-8 -69 -23 -96l50 -50c8 -8 8 -19 0 -27zM318 350c0 45 -19 76 -68 76s-68 -31 -68 -76s19 -76 68 -76s68 31 68 76z" />
    <glyph glyph-name="yen" unicode="&#xa5;" horiz-adv-x="500" 
d="M482 689l-79 -254h57c11 0 19 -8 19 -19v-77c0 -11 -8 -19 -19 -19h-93l-19 -60h112c11 0 19 -8 19 -19v-77c0 -11 -8 -19 -19 -19h-142v-126c0 -11 -8 -19 -19 -19h-97c-11 0 -19 8 -19 19v126h-143c-11 0 -19 8 -19 19v77c0 11 8 19 19 19h113l-19 60h-94
c-11 0 -19 8 -19 19v77c0 11 8 19 19 19h58l-80 254c-3 11 1 21 13 21h116c11 0 16 -8 19 -19l85 -306l83 306c3 11 8 19 19 19h115c12 0 17 -10 14 -21z" />
    <glyph glyph-name="brokenbar" unicode="&#xa6;" horiz-adv-x="255" 
d="M195 419c0 -11 -8 -19 -19 -19h-97c-11 0 -19 8 -19 19v372c0 11 8 19 19 19h97c11 0 19 -8 19 -19v-372zM195 -81c0 -11 -8 -19 -19 -19h-97c-11 0 -19 8 -19 19v372c0 11 8 19 19 19h97c11 0 19 -8 19 -19v-372z" />
    <glyph glyph-name="section" unicode="&#xa7;" horiz-adv-x="505" 
d="M445 62c0 -130 -70 -172 -198 -172c-87 0 -173 24 -173 24c-13 3 -19 8 -19 19v83c0 11 7 18 19 16c0 0 107 -22 161 -22c57 0 75 15 75 40v14c0 25 -29 31 -65 40l-35 9c-61 16 -150 37 -150 158v20c0 56 25 93 63 118c-35 21 -63 57 -63 124v20c0 120 84 167 198 167
c82 0 148 -17 148 -17c13 -3 19 -8 19 -19v-82c0 -11 -6 -17 -19 -16c0 0 -79 14 -141 14c-53 0 -70 -13 -70 -38v-14c0 -24 28 -28 58 -35l42 -10c67 -16 150 -42 150 -159v-31c0 -58 -20 -93 -53 -113c31 -22 53 -57 53 -118v-20zM310 288v30c0 34 -29 45 -65 53l-14 3
c-25 -11 -36 -31 -36 -51v-23c0 -34 28 -47 58 -54l26 -6c18 7 31 23 31 48z" />
    <glyph glyph-name="dieresis" unicode="&#xa8;" horiz-adv-x="455" 
d="M405 594c0 -11 -8 -19 -19 -19h-97c-11 0 -19 8 -19 19v97c0 11 8 19 19 19h97c11 0 19 -8 19 -19v-97zM185 594c0 -11 -8 -19 -19 -19h-97c-11 0 -19 8 -19 19v97c0 11 8 19 19 19h97c11 0 19 -8 19 -19v-97z" />
    <glyph glyph-name="copyright" unicode="&#xa9;" horiz-adv-x="800" 
d="M740 315c0 -222 -144 -325 -340 -325s-340 103 -340 325v80c0 222 144 325 340 325s340 -103 340 -325v-80zM595 320v70c0 124 -58 200 -195 200s-195 -76 -195 -200v-70c0 -124 58 -200 195 -200s195 76 195 200zM520 192c0 -11 -6 -16 -19 -19c0 0 -39 -8 -76 -8
c-115 0 -175 68 -175 180v20c0 112 60 180 175 180c38 0 76 -8 76 -8c13 -3 19 -8 19 -19v-58c0 -11 -6 -17 -19 -16c0 0 -32 6 -71 6c-49 0 -75 -28 -75 -85v-20c0 -57 28 -85 75 -85c39 0 71 6 71 6c13 1 19 -5 19 -16v-58z" />
    <glyph glyph-name="ordfeminine" unicode="&#xaa;" horiz-adv-x="520" 
d="M460 229c0 -11 -8 -19 -19 -19h-87c-11 0 -19 8 -19 19v7c-33 -20 -74 -36 -121 -36c-98 0 -159 46 -159 155c0 102 67 155 180 155c34 0 64 -2 90 -6v26c0 46 -22 65 -73 65c-54 0 -138 -17 -138 -17c-11 -1 -19 4 -19 15v85c0 11 8 18 19 20c0 0 73 22 160 22
c147 0 186 -66 186 -190v-301zM460 19c0 -11 -8 -19 -19 -19h-357c-11 0 -19 8 -19 19v82c0 11 8 19 19 19h357c11 0 19 -8 19 -19v-82zM325 331v82h-68c-48 0 -67 -20 -67 -53c0 -31 18 -50 57 -50c25 0 52 9 78 21z" />
    <glyph glyph-name="guillemotleft" unicode="&#xab;" horiz-adv-x="560" 
d="M499 169c5 -10 -2 -19 -13 -19h-108c-11 0 -19 9 -24 19l-76 137c-10 19 -11 28 0 48l76 137c5 10 13 19 24 19h108c11 0 18 -9 13 -19l-89 -161zM284 169c5 -10 -2 -19 -13 -19h-108c-11 0 -19 9 -24 19l-76 137c-10 19 -11 28 0 48l76 137c5 10 13 19 24 19h108
c11 0 18 -9 13 -19l-89 -161z" />
    <glyph glyph-name="logicalnot" unicode="&#xac;" 
d="M475 149c0 -11 -8 -19 -19 -19h-87c-11 0 -19 8 -19 19v141h-281c-11 0 -19 8 -19 19v82c0 11 8 19 19 19h387c11 0 19 -8 19 -19v-242z" />
    <glyph glyph-name="uni00AD" unicode="&#xad;" horiz-adv-x="350" 
d="M300 309c0 -11 -8 -19 -19 -19h-212c-11 0 -19 8 -19 19v82c0 11 8 19 19 19h212c11 0 19 -8 19 -19v-82z" />
    <glyph glyph-name="registered" unicode="&#xae;" horiz-adv-x="800" 
d="M740 315c0 -222 -144 -325 -340 -325s-340 103 -340 325v80c0 222 144 325 340 325s340 -103 340 -325v-80zM595 320v70c0 124 -58 200 -195 200s-195 -76 -195 -200v-70c0 -124 58 -200 195 -200s195 76 195 200zM550 420c0 -70 -35 -98 -82 -109l70 -116
c6 -9 0 -20 -11 -20h-63c-11 0 -19 9 -25 18l-67 112h-7v-111c0 -11 -8 -19 -19 -19h-47c-11 0 -19 8 -19 19v322c0 11 8 19 19 19h108c73 0 143 -17 143 -115zM465 420c0 36 -26 40 -58 40h-42v-80h42c32 0 58 5 58 40z" />
    <glyph glyph-name="macron" unicode="&#xaf;" horiz-adv-x="355" 
d="M305 614c0 -11 -8 -19 -19 -19h-217c-11 0 -19 8 -19 19v77c0 11 8 19 19 19h217c11 0 19 -8 19 -19v-77z" />
    <glyph glyph-name="degree" unicode="&#xb0;" horiz-adv-x="526" 
d="M466 495c0 -119 -78 -196 -203 -196s-203 77 -203 196v29c0 119 78 196 203 196s203 -77 203 -196v-29zM331 490v39c0 45 -19 76 -68 76s-68 -31 -68 -76v-39c0 -45 19 -76 68 -76s68 31 68 76z" />
    <glyph glyph-name="plusminus" unicode="&#xb1;" 
d="M475 319c0 -11 -8 -19 -19 -19h-131v-131c0 -11 -8 -19 -19 -19h-87c-11 0 -19 8 -19 19v131h-131c-11 0 -19 8 -19 19v82c0 11 8 19 19 19h131v131c0 11 8 19 19 19h87c11 0 19 -8 19 -19v-131h131c11 0 19 -8 19 -19v-82zM475 19c0 -11 -8 -19 -19 -19h-387
c-11 0 -19 8 -19 19v82c0 11 8 19 19 19h387c11 0 19 -8 19 -19v-82z" />
    <glyph glyph-name="twosuperior" unicode="&#xb2;" horiz-adv-x="340" 
d="M317 303c0 -11 -8 -19 -19 -19h-255c-11 0 -19 8 -19 19v86c0 149 168 135 168 183v17c0 12 -8 23 -37 23c-38 0 -112 -10 -112 -10c-11 -2 -19 4 -19 15v69c0 11 7 20 19 21c0 0 67 13 118 13c96 0 156 -33 156 -125v-23c0 -130 -168 -121 -168 -176v-4h149
c11 0 19 -8 19 -19v-70z" />
    <glyph glyph-name="threesuperior" unicode="&#xb3;" horiz-adv-x="340" 
d="M315 394c0 -97 -76 -120 -162 -120c-49 0 -118 13 -118 13c-12 1 -19 8 -19 19v71c0 11 8 17 19 15c0 0 73 -10 111 -10c31 0 44 10 44 32v9c0 16 -15 26 -46 26h-73c-11 0 -19 8 -19 19v70c0 11 8 19 19 19h65c33 0 42 9 42 24v10c0 17 -15 21 -38 21
c-38 0 -105 -10 -105 -10c-11 -1 -19 5 -19 16v70c0 11 7 18 19 19c0 0 60 13 115 13c85 0 153 -22 153 -114v-23c0 -36 -17 -58 -39 -73c27 -14 51 -41 51 -83v-33z" />
    <glyph glyph-name="acute" unicode="&#xb4;" horiz-adv-x="317" 
d="M267 591c5 -10 1 -21 -11 -21h-99c-11 0 -20 10 -27 19l-80 110c-7 9 -2 21 10 21h123c11 0 22 -9 27 -19z" />
    <glyph glyph-name="uni00B5" unicode="&#xb5;" 
d="M465 19c0 -11 -8 -19 -19 -19h-87c-11 0 -19 8 -19 19v14c-31 -22 -75 -43 -130 -43h-15v-161c0 -11 -8 -19 -19 -19h-97c-11 0 -19 8 -19 19v652c0 11 8 19 19 19h97c11 0 19 -8 19 -19v-301c0 -41 14 -65 58 -65c24 0 52 9 77 21v345c0 11 8 19 19 19h97
c11 0 19 -8 19 -19v-462z" />
    <glyph glyph-name="paragraph" unicode="&#xb6;" horiz-adv-x="685" 
d="M625 19c0 -11 -8 -19 -19 -19h-97c-11 0 -19 8 -19 19v672c0 11 8 19 19 19h97c11 0 19 -8 19 -19v-672zM440 19c0 -11 -8 -19 -19 -19h-97c-11 0 -19 8 -19 19v261h-15c-144 0 -240 56 -240 215s96 215 240 215h131c11 0 19 -8 19 -19v-672zM305 400v190h-20
c-62 0 -100 -25 -100 -95s38 -95 100 -95h20z" />
    <glyph glyph-name="periodcentered" unicode="&#xb7;" horiz-adv-x="235" 
d="M185 309c0 -11 -8 -19 -19 -19h-97c-11 0 -19 8 -19 19v97c0 11 8 19 19 19h97c11 0 19 -8 19 -19v-97z" />
    <glyph glyph-name="cedilla" unicode="&#xb8;" horiz-adv-x="295" 
d="M245 -115c0 -69 -47 -85 -103 -85c-33 0 -73 7 -73 7c-11 1 -19 8 -19 19v27c0 11 7 17 18 17h20c24 0 37 6 37 26c0 19 -12 24 -34 24h-16c-11 0 -16 8 -14 19l22 101h90l-15 -68h4c47 0 83 -20 83 -87z" />
    <glyph glyph-name="onesuperior" unicode="&#xb9;" horiz-adv-x="340" 
d="M251 303c0 -11 -8 -19 -19 -19h-87c-11 0 -19 8 -19 19v286l-77 -16c-11 -2 -19 4 -19 15v69c0 11 7 20 18 23l98 30h86c11 0 19 -8 19 -19v-388z" />
    <glyph glyph-name="ordmasculine" unicode="&#xba;" horiz-adv-x="526" 
d="M466 400c0 -135 -75 -200 -203 -200s-203 65 -203 200v120c0 135 75 200 203 200s203 -65 203 -200v-120zM456 19c0 -11 -8 -19 -19 -19h-348c-11 0 -19 8 -19 19v82c0 11 8 19 19 19h348c11 0 19 -8 19 -19v-82zM331 398v125c0 45 -16 80 -68 80s-68 -35 -68 -80v-125
c0 -45 16 -80 68 -80s68 35 68 80z" />
    <glyph glyph-name="guillemotright" unicode="&#xbb;" horiz-adv-x="560" 
d="M497 306l-76 -137c-5 -10 -13 -19 -24 -19h-108c-11 0 -18 9 -13 19l89 161l-89 161c-5 10 2 19 13 19h108c11 0 19 -9 24 -19l76 -137c11 -20 10 -29 0 -48zM282 306l-76 -137c-5 -10 -13 -19 -24 -19h-108c-11 0 -18 9 -13 19l89 161l-89 161c-5 10 2 19 13 19h108
c11 0 19 -9 24 -19l76 -137c11 -20 10 -29 0 -48z" />
    <glyph glyph-name="onequarter" unicode="&#xbc;" horiz-adv-x="895" 
d="M885 76c0 -11 -8 -19 -19 -19h-2v-38c0 -11 -8 -19 -19 -19h-87c-11 0 -19 8 -19 19v38h-155c-11 0 -19 8 -19 19v75c35 60 48 117 48 195v61c0 11 8 19 19 19h87c11 0 19 -8 19 -19v-61c0 -64 -2 -123 -37 -181h34c18 35 20 83 20 121v7c0 11 8 19 19 19h71
c11 0 19 -8 19 -19v-128h2c11 0 19 -8 19 -19v-70zM686 691l-327 -672c-5 -10 -14 -19 -25 -19h-112c-11 0 -18 9 -13 19l327 672c5 10 14 19 25 19h112c11 0 18 -9 13 -19zM251 303c0 -11 -8 -19 -19 -19h-87c-11 0 -19 8 -19 19v286l-77 -16c-11 -2 -19 4 -19 15v69
c0 11 7 20 18 23l98 30h86c11 0 19 -8 19 -19v-388z" />
    <glyph glyph-name="onehalf" unicode="&#xbd;" horiz-adv-x="895" 
d="M872 19c0 -11 -8 -19 -19 -19h-255c-11 0 -19 8 -19 19v86c0 149 168 135 168 183v17c0 12 -8 23 -37 23c-38 0 -112 -10 -112 -10c-11 -2 -19 4 -19 15v69c0 11 7 20 19 21c0 0 67 13 118 13c96 0 156 -33 156 -125v-23c0 -130 -168 -121 -168 -176v-4h149
c11 0 19 -8 19 -19v-70zM686 691l-327 -672c-5 -10 -14 -19 -25 -19h-112c-11 0 -18 9 -13 19l327 672c5 10 14 19 25 19h112c11 0 18 -9 13 -19zM251 303c0 -11 -8 -19 -19 -19h-87c-11 0 -19 8 -19 19v286l-77 -16c-11 -2 -19 4 -19 15v69c0 11 7 20 18 23l98 30h86
c11 0 19 -8 19 -19v-388z" />
    <glyph glyph-name="threequarters" unicode="&#xbe;" horiz-adv-x="895" 
d="M885 76c0 -11 -8 -19 -19 -19h-2v-38c0 -11 -8 -19 -19 -19h-87c-11 0 -19 8 -19 19v38h-155c-11 0 -19 8 -19 19v75c35 60 48 117 48 195v61c0 11 8 19 19 19h87c11 0 19 -8 19 -19v-61c0 -64 -2 -123 -37 -181h34c18 35 20 83 20 121v7c0 11 8 19 19 19h71
c11 0 19 -8 19 -19v-128h2c11 0 19 -8 19 -19v-70zM686 691l-327 -672c-5 -10 -14 -19 -25 -19h-112c-11 0 -18 9 -13 19l327 672c5 10 14 19 25 19h112c11 0 18 -9 13 -19zM315 394c0 -97 -76 -120 -162 -120c-49 0 -118 13 -118 13c-12 1 -19 8 -19 19v71c0 11 8 17 19 15
c0 0 73 -10 111 -10c31 0 44 10 44 32v9c0 16 -15 26 -46 26h-73c-11 0 -19 8 -19 19v70c0 11 8 19 19 19h65c33 0 42 9 42 24v10c0 17 -15 21 -38 21c-38 0 -105 -10 -105 -10c-11 -1 -19 5 -19 16v70c0 11 7 18 19 19c0 0 60 13 115 13c85 0 153 -22 153 -114v-23
c0 -36 -17 -58 -39 -73c27 -14 51 -41 51 -83v-33z" />
    <glyph glyph-name="questiondown" unicode="&#xbf;" horiz-adv-x="455" 
d="M330 394c0 -11 -8 -19 -19 -19h-107c-11 0 -19 8 -19 19v107c0 11 8 19 19 19h107c11 0 19 -8 19 -19v-107zM415 -162c0 -11 -8 -18 -19 -19c0 0 -79 -19 -153 -19c-113 0 -193 44 -193 162v15c0 77 32 116 64 142l24 19c30 24 52 41 52 95v33c0 11 8 19 19 19h97
c11 0 19 -8 19 -19v-33c0 -97 -24 -134 -70 -168l-26 -19c-22 -16 -44 -29 -44 -60v-10c0 -31 21 -51 74 -51c52 0 137 16 137 16c11 1 19 -4 19 -15v-88z" />
    <glyph glyph-name="Agrave" unicode="&#xc0;" horiz-adv-x="605" 
d="M362 781c5 -10 1 -21 -11 -21h-99c-11 0 -20 10 -27 19l-80 110c-7 9 -2 21 10 21h123c11 0 22 -9 27 -19zM589 20c3 -11 -3 -20 -14 -20h-109c-11 0 -18 8 -21 19l-28 101h-229l-28 -101c-3 -11 -10 -19 -21 -19h-109c-11 0 -17 9 -14 20l198 671c3 11 12 19 23 19h131
c11 0 20 -8 23 -19zM382 245l-79 288l-80 -288h159z" />
    <glyph glyph-name="Aacute" unicode="&#xc1;" horiz-adv-x="605" 
d="M468 889l-80 -110c-7 -9 -16 -19 -27 -19h-99c-12 0 -16 11 -11 21l57 110c5 10 16 19 27 19h123c12 0 17 -12 10 -21zM589 20c3 -11 -3 -20 -14 -20h-109c-11 0 -18 8 -21 19l-28 101h-229l-28 -101c-3 -11 -10 -19 -21 -19h-109c-11 0 -17 9 -14 20l198 671
c3 11 12 19 23 19h131c11 0 20 -8 23 -19zM382 245l-79 288l-80 -288h159z" />
    <glyph glyph-name="Acircumflex" unicode="&#xc2;" horiz-adv-x="605" 
d="M458 768c0 -11 -9 -17 -19 -13l-136 58l-136 -58c-10 -4 -19 2 -19 13v86c0 11 9 14 19 19l111 56c18 9 30 11 51 0l110 -56c10 -5 19 -8 19 -19v-86zM589 20c3 -11 -3 -20 -14 -20h-109c-11 0 -18 8 -21 19l-28 101h-229l-28 -101c-3 -11 -10 -19 -21 -19h-109
c-11 0 -17 9 -14 20l198 671c3 11 12 19 23 19h131c11 0 20 -8 23 -19zM382 245l-79 288l-80 -288h159z" />
    <glyph glyph-name="Atilde" unicode="&#xc3;" horiz-adv-x="605" 
d="M458 814c0 -13 -8 -24 -19 -32c0 0 -26 -22 -65 -22c-51 0 -102 36 -141 36c-28 0 -65 -24 -65 -24c-10 -4 -20 0 -20 11v72c0 13 9 23 19 32c0 0 26 22 65 22c61 0 107 -36 141 -36c28 0 64 24 64 24c10 4 21 -1 21 -12v-71zM589 20c3 -11 -3 -20 -14 -20h-109
c-11 0 -18 8 -21 19l-28 101h-229l-28 -101c-3 -11 -10 -19 -21 -19h-109c-11 0 -17 9 -14 20l198 671c3 11 12 19 23 19h131c11 0 20 -8 23 -19zM382 245l-79 288l-80 -288h159z" />
    <glyph glyph-name="Adieresis" unicode="&#xc4;" horiz-adv-x="605" 
d="M480 769c0 -11 -8 -19 -19 -19h-97c-11 0 -19 8 -19 19v97c0 11 8 19 19 19h97c11 0 19 -8 19 -19v-97zM260 769c0 -11 -8 -19 -19 -19h-97c-11 0 -19 8 -19 19v97c0 11 8 19 19 19h97c11 0 19 -8 19 -19v-97zM589 20c3 -11 -3 -20 -14 -20h-109c-11 0 -18 8 -21 19
l-28 101h-229l-28 -101c-3 -11 -10 -19 -21 -19h-109c-11 0 -17 9 -14 20l198 671c3 11 12 19 23 19h131c11 0 20 -8 23 -19zM382 245l-79 288l-80 -288h159z" />
    <glyph glyph-name="Aring" unicode="&#xc5;" horiz-adv-x="605" 
d="M589 20c3 -11 -3 -20 -14 -20h-109c-11 0 -18 8 -21 19l-28 101h-229l-28 -101c-3 -11 -10 -19 -21 -19h-109c-11 0 -17 9 -14 20l189 641c-18 19 -27 44 -27 74c0 68 47 110 125 110c77 0 125 -42 125 -110c0 -31 -10 -56 -28 -75zM343 735c0 26 -11 45 -40 45
s-40 -19 -40 -45s11 -45 40 -45s40 19 40 45zM382 245l-79 288l-80 -288h159z" />
    <glyph glyph-name="AE" unicode="&#xc6;" horiz-adv-x="790" 
d="M750 19c0 -11 -8 -19 -19 -19h-317c-11 0 -19 8 -19 19v116h-183l-44 -116c-4 -10 -8 -19 -19 -19h-118c-11 0 -17 10 -13 20l260 671c4 10 9 19 20 19h433c11 0 19 -8 19 -19v-87c0 -11 -8 -19 -19 -19h-201v-160h181c11 0 19 -8 19 -19v-87c0 -11 -8 -19 -19 -19h-181
v-175h201c11 0 19 -8 19 -19v-87zM395 260v325h-12l-124 -325h136z" />
    <glyph glyph-name="Ccedilla" unicode="&#xc7;" horiz-adv-x="475" 
d="M435 21c0 -11 -7 -19 -19 -20c0 0 -58 -11 -111 -11h-10l-4 -18h4c47 0 83 -20 83 -87c0 -69 -47 -85 -103 -85c-33 0 -73 7 -73 7c-11 1 -19 8 -19 19v27c0 11 7 17 18 17h20c24 0 37 6 37 26c0 19 -12 24 -34 24h-16c-11 0 -16 8 -14 19l14 65
c-97 32 -148 118 -148 246v210c0 166 85 260 245 260c53 0 111 -11 111 -11c12 -1 19 -9 19 -20v-89c0 -11 -8 -17 -20 -16c0 0 -65 8 -110 8c-85 0 -110 -59 -110 -142v-190c0 -83 24 -142 115 -142c45 0 106 9 106 9c12 1 19 -5 19 -16v-90z" />
    <glyph glyph-name="Egrave" unicode="&#xc8;" horiz-adv-x="505" 
d="M360 781c5 -10 1 -21 -11 -21h-99c-11 0 -20 10 -27 19l-80 110c-7 9 -2 21 10 21h123c11 0 22 -9 27 -19zM465 19c0 -11 -8 -19 -19 -19h-367c-11 0 -19 8 -19 19v672c0 11 8 19 19 19h367c11 0 19 -8 19 -19v-87c0 -11 -8 -19 -19 -19h-251v-160h231c11 0 19 -8 19 -19
v-87c0 -11 -8 -19 -19 -19h-231v-175h251c11 0 19 -8 19 -19v-87z" />
    <glyph glyph-name="Eacute" unicode="&#xc9;" horiz-adv-x="505" 
d="M418 889l-80 -110c-7 -9 -16 -19 -27 -19h-99c-12 0 -16 11 -11 21l57 110c5 10 16 19 27 19h123c12 0 17 -12 10 -21zM465 19c0 -11 -8 -19 -19 -19h-367c-11 0 -19 8 -19 19v672c0 11 8 19 19 19h367c11 0 19 -8 19 -19v-87c0 -11 -8 -19 -19 -19h-251v-160h231
c11 0 19 -8 19 -19v-87c0 -11 -8 -19 -19 -19h-231v-175h251c11 0 19 -8 19 -19v-87z" />
    <glyph glyph-name="Ecircumflex" unicode="&#xca;" horiz-adv-x="505" 
d="M418 768c0 -11 -9 -17 -19 -13l-136 58l-136 -58c-10 -4 -19 2 -19 13v86c0 11 9 14 19 19l111 56c18 9 30 11 51 0l110 -56c10 -5 19 -8 19 -19v-86zM465 19c0 -11 -8 -19 -19 -19h-367c-11 0 -19 8 -19 19v672c0 11 8 19 19 19h367c11 0 19 -8 19 -19v-87
c0 -11 -8 -19 -19 -19h-251v-160h231c11 0 19 -8 19 -19v-87c0 -11 -8 -19 -19 -19h-231v-175h251c11 0 19 -8 19 -19v-87z" />
    <glyph glyph-name="Edieresis" unicode="&#xcb;" horiz-adv-x="505" 
d="M440 769c0 -11 -8 -19 -19 -19h-97c-11 0 -19 8 -19 19v97c0 11 8 19 19 19h97c11 0 19 -8 19 -19v-97zM220 769c0 -11 -8 -19 -19 -19h-97c-11 0 -19 8 -19 19v97c0 11 8 19 19 19h97c11 0 19 -8 19 -19v-97zM465 19c0 -11 -8 -19 -19 -19h-367c-11 0 -19 8 -19 19v672
c0 11 8 19 19 19h367c11 0 19 -8 19 -19v-87c0 -11 -8 -19 -19 -19h-251v-160h231c11 0 19 -8 19 -19v-87c0 -11 -8 -19 -19 -19h-231v-175h251c11 0 19 -8 19 -19v-87z" />
    <glyph glyph-name="Igrave" unicode="&#xcc;" horiz-adv-x="445" 
d="M284 781c5 -10 1 -21 -11 -21h-99c-11 0 -20 10 -27 19l-80 110c-7 9 -2 21 10 21h123c11 0 22 -9 27 -19zM415 19c0 -11 -8 -19 -19 -19h-347c-11 0 -19 8 -19 19v52c0 11 8 19 19 19h106v530h-106c-11 0 -19 8 -19 19v52c0 11 8 19 19 19h347c11 0 19 -8 19 -19v-52
c0 -11 -8 -19 -19 -19h-106v-530h106c11 0 19 -8 19 -19v-52z" />
    <glyph glyph-name="Iacute" unicode="&#xcd;" horiz-adv-x="445" 
d="M385 889l-80 -110c-7 -9 -16 -19 -27 -19h-99c-12 0 -16 11 -11 21l57 110c5 10 16 19 27 19h123c12 0 17 -12 10 -21zM415 19c0 -11 -8 -19 -19 -19h-347c-11 0 -19 8 -19 19v52c0 11 8 19 19 19h106v530h-106c-11 0 -19 8 -19 19v52c0 11 8 19 19 19h347
c11 0 19 -8 19 -19v-52c0 -11 -8 -19 -19 -19h-106v-530h106c11 0 19 -8 19 -19v-52z" />
    <glyph glyph-name="Icircumflex" unicode="&#xce;" horiz-adv-x="445" 
d="M378 768c0 -11 -9 -17 -19 -13l-136 58l-136 -58c-10 -4 -19 2 -19 13v86c0 11 9 14 19 19l111 56c18 9 30 11 51 0l110 -56c10 -5 19 -8 19 -19v-86zM415 19c0 -11 -8 -19 -19 -19h-347c-11 0 -19 8 -19 19v52c0 11 8 19 19 19h106v530h-106c-11 0 -19 8 -19 19v52
c0 11 8 19 19 19h347c11 0 19 -8 19 -19v-52c0 -11 -8 -19 -19 -19h-106v-530h106c11 0 19 -8 19 -19v-52z" />
    <glyph glyph-name="Idieresis" unicode="&#xcf;" horiz-adv-x="445" 
d="M400 769c0 -11 -8 -19 -19 -19h-97c-11 0 -19 8 -19 19v97c0 11 8 19 19 19h97c11 0 19 -8 19 -19v-97zM180 769c0 -11 -8 -19 -19 -19h-97c-11 0 -19 8 -19 19v97c0 11 8 19 19 19h97c11 0 19 -8 19 -19v-97zM415 19c0 -11 -8 -19 -19 -19h-347c-11 0 -19 8 -19 19v52
c0 11 8 19 19 19h106v530h-106c-11 0 -19 8 -19 19v52c0 11 8 19 19 19h347c11 0 19 -8 19 -19v-52c0 -11 -8 -19 -19 -19h-106v-530h106c11 0 19 -8 19 -19v-52z" />
    <glyph glyph-name="Eth" unicode="&#xd0;" horiz-adv-x="610" 
d="M550 260c0 -166 -85 -260 -245 -260h-226c-11 0 -19 8 -19 19v672c0 11 8 19 19 19h226c160 0 245 -94 245 -260v-190zM415 270v170c0 83 -25 145 -110 145h-110v-160h141c11 0 19 -8 19 -19v-87c0 -11 -8 -19 -19 -19h-141v-175h110c85 0 110 62 110 145z" />
    <glyph glyph-name="Ntilde" unicode="&#xd1;" horiz-adv-x="610" 
d="M460 814c0 -13 -8 -24 -19 -32c0 0 -26 -22 -65 -22c-51 0 -102 36 -141 36c-28 0 -65 -24 -65 -24c-10 -4 -20 0 -20 11v72c0 13 9 23 19 32c0 0 26 22 65 22c61 0 107 -36 141 -36c28 0 64 24 64 24c10 4 21 -1 21 -12v-71zM550 19c0 -11 -8 -19 -19 -19h-101
c-13 0 -20 9 -25 19l-210 405v-405c0 -11 -8 -19 -19 -19h-97c-11 0 -19 8 -19 19v672c0 11 8 19 19 19h101c15 0 20 -9 25 -19l210 -405v405c0 11 8 19 19 19h97c11 0 19 -8 19 -19v-672z" />
    <glyph glyph-name="Ograve" unicode="&#xd2;" horiz-adv-x="610" 
d="M366 781c5 -10 1 -21 -11 -21h-99c-11 0 -20 10 -27 19l-80 110c-7 9 -2 21 10 21h123c11 0 22 -9 27 -19zM550 250c0 -166 -85 -260 -245 -260s-245 94 -245 260v210c0 166 85 260 245 260s245 -94 245 -260v-210zM415 260v190c0 83 -25 145 -110 145
s-110 -62 -110 -145v-190c0 -83 25 -145 110 -145s110 62 110 145z" />
    <glyph glyph-name="Oacute" unicode="&#xd3;" horiz-adv-x="610" 
d="M458 889l-80 -110c-7 -9 -16 -19 -27 -19h-99c-12 0 -16 11 -11 21l57 110c5 10 16 19 27 19h123c12 0 17 -12 10 -21zM550 250c0 -166 -85 -260 -245 -260s-245 94 -245 260v210c0 166 85 260 245 260s245 -94 245 -260v-210zM415 260v190c0 83 -25 145 -110 145
s-110 -62 -110 -145v-190c0 -83 25 -145 110 -145s110 62 110 145z" />
    <glyph glyph-name="Ocircumflex" unicode="&#xd4;" horiz-adv-x="610" 
d="M460 768c0 -11 -9 -17 -19 -13l-136 58l-136 -58c-10 -4 -19 2 -19 13v86c0 11 9 14 19 19l111 56c18 9 30 11 51 0l110 -56c10 -5 19 -8 19 -19v-86zM550 250c0 -166 -85 -260 -245 -260s-245 94 -245 260v210c0 166 85 260 245 260s245 -94 245 -260v-210zM415 260v190
c0 83 -25 145 -110 145s-110 -62 -110 -145v-190c0 -83 25 -145 110 -145s110 62 110 145z" />
    <glyph glyph-name="Otilde" unicode="&#xd5;" horiz-adv-x="610" 
d="M460 814c0 -13 -8 -24 -19 -32c0 0 -26 -22 -65 -22c-51 0 -102 36 -141 36c-28 0 -65 -24 -65 -24c-10 -4 -20 0 -20 11v72c0 13 9 23 19 32c0 0 26 22 65 22c61 0 107 -36 141 -36c28 0 64 24 64 24c10 4 21 -1 21 -12v-71zM550 250c0 -166 -85 -260 -245 -260
s-245 94 -245 260v210c0 166 85 260 245 260s245 -94 245 -260v-210zM415 260v190c0 83 -25 145 -110 145s-110 -62 -110 -145v-190c0 -83 25 -145 110 -145s110 62 110 145z" />
    <glyph glyph-name="Odieresis" unicode="&#xd6;" horiz-adv-x="610" 
d="M503 769c0 -11 -8 -19 -19 -19h-97c-11 0 -19 8 -19 19v97c0 11 8 19 19 19h97c11 0 19 -8 19 -19v-97zM243 769c0 -11 -8 -19 -19 -19h-97c-11 0 -19 8 -19 19v97c0 11 8 19 19 19h97c11 0 19 -8 19 -19v-97zM550 250c0 -166 -85 -260 -245 -260s-245 94 -245 260v210
c0 166 85 260 245 260s245 -94 245 -260v-210zM415 260v190c0 83 -25 145 -110 145s-110 -62 -110 -145v-190c0 -83 25 -145 110 -145s110 62 110 145z" />
    <glyph glyph-name="multiply" unicode="&#xd7;" horiz-adv-x="527" 
d="M464 207l-58 -57c-8 -8 -19 -8 -27 0l-116 115l-115 -115c-8 -8 -19 -8 -27 0l-58 57c-8 8 -8 19 0 27l116 116l-116 116c-8 8 -8 19 0 27l58 57c8 8 19 8 27 0l116 -115l115 115c8 8 19 8 27 0l58 -57c8 -8 8 -19 0 -27l-116 -116l116 -116c8 -8 8 -19 0 -27z" />
    <glyph glyph-name="Oslash" unicode="&#xd8;" horiz-adv-x="610" 
d="M550 250c0 -166 -85 -260 -245 -260c-29 0 -57 3 -81 9l-28 -81c-4 -10 -11 -18 -22 -18h-50c-11 0 -17 8 -13 18l40 115c-60 43 -91 117 -91 217v210c0 166 85 260 245 260c29 0 57 -3 81 -9l28 81c4 10 11 18 22 18h50c11 0 17 -8 13 -18l-40 -115
c60 -43 91 -117 91 -217v-210zM344 590c-11 3 -24 5 -39 5c-85 0 -110 -62 -110 -145v-190c0 -27 2 -52 9 -73zM415 260v190c0 27 -2 52 -9 73l-140 -403c11 -3 24 -5 39 -5c85 0 110 62 110 145z" />
    <glyph glyph-name="Ugrave" unicode="&#xd9;" horiz-adv-x="610" 
d="M379 781c5 -10 1 -21 -11 -21h-99c-11 0 -20 10 -27 19l-80 110c-7 9 -2 21 10 21h123c11 0 22 -9 27 -19zM550 260c0 -191 -89 -270 -245 -270s-245 79 -245 270v431c0 11 8 19 19 19h97c11 0 19 -8 19 -19v-431c0 -83 25 -145 110 -145s110 62 110 145v431
c0 11 8 19 19 19h97c11 0 19 -8 19 -19v-431z" />
    <glyph glyph-name="Uacute" unicode="&#xda;" horiz-adv-x="610" 
d="M471 889l-80 -110c-7 -9 -16 -19 -27 -19h-99c-12 0 -16 11 -11 21l57 110c5 10 16 19 27 19h123c12 0 17 -12 10 -21zM550 260c0 -191 -89 -270 -245 -270s-245 79 -245 270v431c0 11 8 19 19 19h97c11 0 19 -8 19 -19v-431c0 -83 25 -145 110 -145s110 62 110 145v431
c0 11 8 19 19 19h97c11 0 19 -8 19 -19v-431z" />
    <glyph glyph-name="Ucircumflex" unicode="&#xdb;" horiz-adv-x="610" 
d="M460 768c0 -11 -9 -17 -19 -13l-136 58l-136 -58c-10 -4 -19 2 -19 13v86c0 11 9 14 19 19l111 56c18 9 30 11 51 0l110 -56c10 -5 19 -8 19 -19v-86zM550 260c0 -191 -89 -270 -245 -270s-245 79 -245 270v431c0 11 8 19 19 19h97c11 0 19 -8 19 -19v-431
c0 -83 25 -145 110 -145s110 62 110 145v431c0 11 8 19 19 19h97c11 0 19 -8 19 -19v-431z" />
    <glyph glyph-name="Udieresis" unicode="&#xdc;" horiz-adv-x="610" 
d="M483 769c0 -11 -8 -19 -19 -19h-97c-11 0 -19 8 -19 19v97c0 11 8 19 19 19h97c11 0 19 -8 19 -19v-97zM263 769c0 -11 -8 -19 -19 -19h-97c-11 0 -19 8 -19 19v97c0 11 8 19 19 19h97c11 0 19 -8 19 -19v-97zM550 260c0 -191 -89 -270 -245 -270s-245 79 -245 270v431
c0 11 8 19 19 19h97c11 0 19 -8 19 -19v-431c0 -83 25 -145 110 -145s110 62 110 145v431c0 11 8 19 19 19h97c11 0 19 -8 19 -19v-431z" />
    <glyph glyph-name="Yacute" unicode="&#xdd;" horiz-adv-x="575" 
d="M454 889l-80 -110c-7 -9 -16 -19 -27 -19h-99c-12 0 -16 11 -11 21l57 110c5 10 16 19 27 19h123c12 0 17 -12 10 -21zM556 689l-201 -464v-206c0 -11 -8 -19 -19 -19h-97c-11 0 -19 8 -19 19v206l-201 464c-4 10 2 21 14 21h115c11 0 15 -9 19 -19l121 -306l120 306
c4 10 8 19 19 19h115c12 0 18 -11 14 -21z" />
    <glyph glyph-name="Thorn" unicode="&#xde;" horiz-adv-x="570" 
d="M530 365c0 -159 -91 -215 -235 -215h-100v-131c0 -11 -8 -19 -19 -19h-97c-11 0 -19 8 -19 19v672c0 11 8 19 19 19h97c11 0 19 -8 19 -19v-111h100c144 0 235 -56 235 -215zM395 365c0 70 -37 95 -110 95h-90v-190h90c73 0 110 25 110 95z" />
    <glyph glyph-name="germandbls" unicode="&#xdf;" horiz-adv-x="580" 
d="M530 157c0 -124 -71 -167 -167 -167c-61 0 -108 7 -108 7c-14 3 -20 8 -20 19v85c0 11 8 18 20 16c0 0 48 -7 90 -7c28 0 50 8 50 42c0 66 -140 56 -140 199c0 83 60 129 60 184c0 40 -21 60 -57 60c-41 0 -63 -29 -63 -80v-496c0 -11 -8 -19 -19 -19h-97
c-11 0 -19 8 -19 19v499c0 116 59 202 198 202c114 0 192 -61 192 -174c0 -98 -60 -135 -60 -178c0 -62 140 -58 140 -211z" />
    <glyph glyph-name="agrave" unicode="&#xe0;" horiz-adv-x="510" 
d="M330 591c5 -10 1 -21 -11 -21h-99c-11 0 -20 10 -27 19l-80 110c-7 9 -2 21 10 21h123c11 0 22 -9 27 -19zM450 19c0 -11 -8 -19 -19 -19h-87c-11 0 -19 8 -19 19v7c-33 -20 -74 -36 -121 -36c-98 0 -159 46 -159 155c0 102 67 155 180 155c34 0 64 -2 90 -6v26
c0 46 -22 65 -73 65c-54 0 -138 -17 -138 -17c-11 -1 -19 4 -19 15v85c0 11 8 18 19 20c0 0 73 22 160 22c147 0 186 -66 186 -190v-301zM315 121v82h-68c-48 0 -67 -20 -67 -53c0 -31 18 -50 57 -50c25 0 52 9 78 21z" />
    <glyph glyph-name="aacute" unicode="&#xe1;" horiz-adv-x="510" 
d="M421 699l-80 -110c-7 -9 -16 -19 -27 -19h-99c-12 0 -16 11 -11 21l57 110c5 10 16 19 27 19h123c12 0 17 -12 10 -21zM450 19c0 -11 -8 -19 -19 -19h-87c-11 0 -19 8 -19 19v7c-33 -20 -74 -36 -121 -36c-98 0 -159 46 -159 155c0 102 67 155 180 155c34 0 64 -2 90 -6
v26c0 46 -22 65 -73 65c-54 0 -138 -17 -138 -17c-11 -1 -19 4 -19 15v85c0 11 8 18 19 20c0 0 73 22 160 22c147 0 186 -66 186 -190v-301zM315 121v82h-68c-48 0 -67 -20 -67 -53c0 -31 18 -50 57 -50c25 0 52 9 78 21z" />
    <glyph glyph-name="acircumflex" unicode="&#xe2;" horiz-adv-x="510" 
d="M410 559c0 -11 -9 -17 -19 -13l-136 58l-136 -58c-10 -4 -19 2 -19 13v86c0 11 9 14 19 19l111 56c18 9 30 11 51 0l110 -56c10 -5 19 -8 19 -19v-86zM450 19c0 -11 -8 -19 -19 -19h-87c-11 0 -19 8 -19 19v7c-33 -20 -74 -36 -121 -36c-98 0 -159 46 -159 155
c0 102 67 155 180 155c34 0 64 -2 90 -6v26c0 46 -22 65 -73 65c-54 0 -138 -17 -138 -17c-11 -1 -19 4 -19 15v85c0 11 8 18 19 20c0 0 73 22 160 22c147 0 186 -66 186 -190v-301zM315 121v82h-68c-48 0 -67 -20 -67 -53c0 -31 18 -50 57 -50c25 0 52 9 78 21z" />
    <glyph glyph-name="atilde" unicode="&#xe3;" horiz-adv-x="510" 
d="M410 625c0 -13 -8 -24 -19 -32c0 0 -26 -22 -65 -22c-51 0 -102 36 -141 36c-28 0 -65 -24 -65 -24c-10 -4 -20 0 -20 11v72c0 13 9 23 19 32c0 0 26 22 65 22c61 0 107 -36 141 -36c28 0 64 24 64 24c10 4 21 -1 21 -12v-71zM450 19c0 -11 -8 -19 -19 -19h-87
c-11 0 -19 8 -19 19v7c-33 -20 -74 -36 -121 -36c-98 0 -159 46 -159 155c0 102 67 155 180 155c34 0 64 -2 90 -6v26c0 46 -22 65 -73 65c-54 0 -138 -17 -138 -17c-11 -1 -19 4 -19 15v85c0 11 8 18 19 20c0 0 73 22 160 22c147 0 186 -66 186 -190v-301zM315 121v82h-68
c-48 0 -67 -20 -67 -53c0 -31 18 -50 57 -50c25 0 52 9 78 21z" />
    <glyph glyph-name="adieresis" unicode="&#xe4;" horiz-adv-x="510" 
d="M440 594c0 -11 -8 -19 -19 -19h-97c-11 0 -19 8 -19 19v97c0 11 8 19 19 19h97c11 0 19 -8 19 -19v-97zM220 594c0 -11 -8 -19 -19 -19h-97c-11 0 -19 8 -19 19v97c0 11 8 19 19 19h97c11 0 19 -8 19 -19v-97zM450 19c0 -11 -8 -19 -19 -19h-87c-11 0 -19 8 -19 19v7
c-33 -20 -74 -36 -121 -36c-98 0 -159 46 -159 155c0 102 67 155 180 155c34 0 64 -2 90 -6v26c0 46 -22 65 -73 65c-54 0 -138 -17 -138 -17c-11 -1 -19 4 -19 15v85c0 11 8 18 19 20c0 0 73 22 160 22c147 0 186 -66 186 -190v-301zM315 121v82h-68c-48 0 -67 -20 -67 -53
c0 -31 18 -50 57 -50c25 0 52 9 78 21z" />
    <glyph glyph-name="aring" unicode="&#xe5;" horiz-adv-x="510" 
d="M389 650c0 -68 -47 -110 -125 -110c-77 0 -125 42 -125 110s47 110 125 110c77 0 125 -42 125 -110zM450 19c0 -11 -8 -19 -19 -19h-87c-11 0 -19 8 -19 19v7c-33 -20 -74 -36 -121 -36c-98 0 -159 46 -159 155c0 102 67 155 180 155c34 0 64 -2 90 -6v26
c0 46 -22 65 -73 65c-54 0 -138 -17 -138 -17c-11 -1 -19 4 -19 15v85c0 11 8 18 19 20c0 0 73 22 160 22c147 0 186 -66 186 -190v-301zM304 650c0 26 -11 45 -40 45s-40 -19 -40 -45s11 -45 40 -45s40 19 40 45zM315 121v82h-68c-48 0 -67 -20 -67 -53
c0 -31 18 -50 57 -50c25 0 52 9 78 21z" />
    <glyph glyph-name="ae" unicode="&#xe6;" horiz-adv-x="775" 
d="M720 214c0 -11 -8 -19 -19 -19h-249c7 -55 36 -82 98 -82c54 0 131 13 131 13c12 1 19 -5 19 -16v-86c0 -11 -7 -19 -19 -20c0 0 -73 -14 -139 -14c-74 0 -135 20 -175 66c-36 -30 -93 -66 -163 -66c-98 0 -159 46 -159 155c0 102 67 155 180 155c34 0 64 -2 90 -6v26
c0 46 -22 65 -73 65c-54 0 -138 -17 -138 -17c-11 -1 -19 4 -19 15v85c0 11 8 18 19 20c0 0 73 22 160 22c63 0 106 -12 135 -36c32 23 74 36 124 36c140 0 197 -95 197 -212v-84zM595 292v14c0 57 -16 91 -70 91c-57 0 -74 -37 -75 -105h145zM329 128c-7 22 -11 47 -13 75
h-69c-48 0 -67 -20 -67 -53c0 -31 18 -50 57 -50c30 0 62 12 92 28z" />
    <glyph glyph-name="ccedilla" unicode="&#xe7;" horiz-adv-x="400" 
d="M370 19c0 -11 -6 -19 -19 -20c0 0 -48 -9 -88 -9h-11l-4 -18h4c47 0 83 -20 83 -87c0 -69 -47 -85 -103 -85c-33 0 -73 7 -73 7c-11 1 -19 8 -19 19v27c0 11 7 17 18 17h20c24 0 37 6 37 26c0 19 -12 24 -34 24h-16c-11 0 -16 8 -14 19l15 67c-68 27 -106 88 -106 184
v120c0 135 75 200 203 200c44 0 88 -9 88 -9c13 -1 19 -9 19 -20v-81c0 -11 -8 -17 -19 -16c0 0 -44 6 -79 6c-61 0 -77 -34 -77 -85v-110c0 -54 18 -85 78 -85c39 0 78 6 78 6c11 1 19 -5 19 -16v-81z" />
    <glyph glyph-name="egrave" unicode="&#xe8;" horiz-adv-x="515" 
d="M326 591c5 -10 1 -21 -11 -21h-99c-11 0 -20 10 -27 19l-80 110c-7 9 -2 21 10 21h123c11 0 22 -9 27 -19zM460 214c0 -11 -8 -19 -19 -19h-249c7 -55 36 -82 98 -82c54 0 131 13 131 13c12 1 19 -5 19 -16v-86c0 -11 -7 -19 -19 -20c0 0 -73 -14 -139 -14
c-135 0 -227 65 -227 242v42c0 141 71 236 208 236c140 0 197 -95 197 -212v-84zM335 292v14c0 57 -16 91 -70 91c-57 0 -74 -37 -75 -105h145z" />
    <glyph glyph-name="eacute" unicode="&#xe9;" horiz-adv-x="515" 
d="M419 699l-80 -110c-7 -9 -16 -19 -27 -19h-99c-12 0 -16 11 -11 21l57 110c5 10 16 19 27 19h123c12 0 17 -12 10 -21zM460 214c0 -11 -8 -19 -19 -19h-249c7 -55 36 -82 98 -82c54 0 131 13 131 13c12 1 19 -5 19 -16v-86c0 -11 -7 -19 -19 -20c0 0 -73 -14 -139 -14
c-135 0 -227 65 -227 242v42c0 141 71 236 208 236c140 0 197 -95 197 -212v-84zM335 292v14c0 57 -16 91 -70 91c-57 0 -74 -37 -75 -105h145z" />
    <glyph glyph-name="ecircumflex" unicode="&#xea;" horiz-adv-x="515" 
d="M413 559c0 -11 -9 -17 -19 -13l-136 58l-136 -58c-10 -4 -19 2 -19 13v86c0 11 9 14 19 19l111 56c18 9 30 11 51 0l110 -56c10 -5 19 -8 19 -19v-86zM460 214c0 -11 -8 -19 -19 -19h-249c7 -55 36 -82 98 -82c54 0 131 13 131 13c12 1 19 -5 19 -16v-86
c0 -11 -7 -19 -19 -20c0 0 -73 -14 -139 -14c-135 0 -227 65 -227 242v42c0 141 71 236 208 236c140 0 197 -95 197 -212v-84zM335 292v14c0 57 -16 91 -70 91c-57 0 -74 -37 -75 -105h145z" />
    <glyph glyph-name="edieresis" unicode="&#xeb;" horiz-adv-x="515" 
d="M435 594c0 -11 -8 -19 -19 -19h-97c-11 0 -19 8 -19 19v97c0 11 8 19 19 19h97c11 0 19 -8 19 -19v-97zM215 594c0 -11 -8 -19 -19 -19h-97c-11 0 -19 8 -19 19v97c0 11 8 19 19 19h97c11 0 19 -8 19 -19v-97zM460 214c0 -11 -8 -19 -19 -19h-249c7 -55 36 -82 98 -82
c54 0 131 13 131 13c12 1 19 -5 19 -16v-86c0 -11 -7 -19 -19 -20c0 0 -73 -14 -139 -14c-135 0 -227 65 -227 242v42c0 141 71 236 208 236c140 0 197 -95 197 -212v-84zM335 292v14c0 57 -16 91 -70 91c-57 0 -74 -37 -75 -105h145z" />
    <glyph glyph-name="igrave" unicode="&#xec;" horiz-adv-x="255" 
d="M187 591c5 -10 1 -21 -11 -21h-99c-11 0 -20 10 -27 19l-80 110c-7 9 -2 21 10 21h123c11 0 22 -9 27 -19zM195 19c0 -11 -8 -19 -19 -19h-97c-11 0 -19 8 -19 19v462c0 11 8 19 19 19h97c11 0 19 -8 19 -19v-462z" />
    <glyph glyph-name="iacute" unicode="&#xed;" horiz-adv-x="255" 
d="M284 699l-80 -110c-7 -9 -16 -19 -27 -19h-99c-12 0 -16 11 -11 21l57 110c5 10 16 19 27 19h123c12 0 17 -12 10 -21zM195 19c0 -11 -8 -19 -19 -19h-97c-11 0 -19 8 -19 19v462c0 11 8 19 19 19h97c11 0 19 -8 19 -19v-462z" />
    <glyph glyph-name="icircumflex" unicode="&#xee;" horiz-adv-x="255" 
d="M283 559c0 -11 -9 -17 -19 -13l-136 58l-136 -58c-10 -4 -19 2 -19 13v86c0 11 9 14 19 19l111 56c18 9 30 11 51 0l110 -56c10 -5 19 -8 19 -19v-86zM195 19c0 -11 -8 -19 -19 -19h-97c-11 0 -19 8 -19 19v462c0 11 8 19 19 19h97c11 0 19 -8 19 -19v-462z" />
    <glyph glyph-name="idieresis" unicode="&#xef;" horiz-adv-x="255" 
d="M305 594c0 -11 -8 -19 -19 -19h-97c-11 0 -19 8 -19 19v97c0 11 8 19 19 19h97c11 0 19 -8 19 -19v-97zM85 594c0 -11 -8 -19 -19 -19h-97c-11 0 -19 8 -19 19v97c0 11 8 19 19 19h97c11 0 19 -8 19 -19v-97zM195 19c0 -11 -8 -19 -19 -19h-97c-11 0 -19 8 -19 19v462
c0 11 8 19 19 19h97c11 0 19 -8 19 -19v-462z" />
    <glyph glyph-name="eth" unicode="&#xf0;" horiz-adv-x="550" 
d="M530 607c0 -11 -9 -20 -19 -24l-33 -12c8 -29 12 -63 12 -101v-270c0 -135 -77 -210 -215 -210c-143 0 -215 79 -215 210v102c0 113 48 188 176 188c49 0 89 -13 119 -31v21c0 17 -1 32 -4 45l-62 -23c-10 -4 -19 1 -19 12v37c0 11 9 17 19 21l25 9c-16 9 -39 14 -69 14
c-42 0 -126 -11 -126 -11c-12 -1 -19 5 -19 16v88c0 11 6 18 19 19c0 0 73 13 131 13c92 0 161 -28 201 -89l60 22c10 4 19 -2 19 -13v-33zM355 203v134c-29 15 -61 28 -90 28c-42 0 -70 -17 -70 -70v-92c0 -54 20 -88 80 -88c56 0 80 29 80 88z" />
    <glyph glyph-name="ntilde" unicode="&#xf1;" 
d="M418 625c0 -13 -8 -24 -19 -32c0 0 -26 -22 -65 -22c-51 0 -102 36 -141 36c-28 0 -65 -24 -65 -24c-10 -4 -20 0 -20 11v72c0 13 9 23 19 32c0 0 26 22 65 22c61 0 107 -36 141 -36c28 0 64 24 64 24c10 4 21 -1 21 -12v-71zM465 19c0 -11 -8 -19 -19 -19h-97
c-11 0 -19 8 -19 19v301c0 41 -14 65 -58 65c-24 0 -52 -9 -77 -21v-345c0 -11 -8 -19 -19 -19h-97c-11 0 -19 8 -19 19v462c0 11 8 19 19 19h87c11 0 19 -8 19 -19v-14c31 22 75 43 130 43c113 0 150 -68 150 -170v-321z" />
    <glyph glyph-name="ograve" unicode="&#xf2;" horiz-adv-x="526" 
d="M322 591c5 -10 1 -21 -11 -21h-99c-11 0 -20 10 -27 19l-80 110c-7 9 -2 21 10 21h123c11 0 22 -9 27 -19zM466 190c0 -135 -75 -200 -203 -200s-203 65 -203 200v120c0 135 75 200 203 200s203 -65 203 -200v-120zM331 188v125c0 45 -16 80 -68 80s-68 -35 -68 -80v-125
c0 -45 16 -80 68 -80s68 35 68 80z" />
    <glyph glyph-name="oacute" unicode="&#xf3;" horiz-adv-x="526" 
d="M418 699l-80 -110c-7 -9 -16 -19 -27 -19h-99c-12 0 -16 11 -11 21l57 110c5 10 16 19 27 19h123c12 0 17 -12 10 -21zM466 190c0 -135 -75 -200 -203 -200s-203 65 -203 200v120c0 135 75 200 203 200s203 -65 203 -200v-120zM331 188v125c0 45 -16 80 -68 80
s-68 -35 -68 -80v-125c0 -45 16 -80 68 -80s68 35 68 80z" />
    <glyph glyph-name="ocircumflex" unicode="&#xf4;" horiz-adv-x="526" 
d="M418 559c0 -11 -9 -17 -19 -13l-136 58l-136 -58c-10 -4 -19 2 -19 13v86c0 11 9 14 19 19l111 56c18 9 30 11 51 0l110 -56c10 -5 19 -8 19 -19v-86zM466 190c0 -135 -75 -200 -203 -200s-203 65 -203 200v120c0 135 75 200 203 200s203 -65 203 -200v-120zM331 188v125
c0 45 -16 80 -68 80s-68 -35 -68 -80v-125c0 -45 16 -80 68 -80s68 35 68 80z" />
    <glyph glyph-name="otilde" unicode="&#xf5;" horiz-adv-x="526" 
d="M418 625c0 -13 -8 -24 -19 -32c0 0 -26 -22 -65 -22c-51 0 -102 36 -141 36c-28 0 -65 -24 -65 -24c-10 -4 -20 0 -20 11v72c0 13 9 23 19 32c0 0 26 22 65 22c61 0 107 -36 141 -36c28 0 64 24 64 24c10 4 21 -1 21 -12v-71zM466 190c0 -135 -75 -200 -203 -200
s-203 65 -203 200v120c0 135 75 200 203 200s203 -65 203 -200v-120zM331 188v125c0 45 -16 80 -68 80s-68 -35 -68 -80v-125c0 -45 16 -80 68 -80s68 35 68 80z" />
    <glyph glyph-name="odieresis" unicode="&#xf6;" horiz-adv-x="526" 
d="M441 594c0 -11 -8 -19 -19 -19h-97c-11 0 -19 8 -19 19v97c0 11 8 19 19 19h97c11 0 19 -8 19 -19v-97zM221 594c0 -11 -8 -19 -19 -19h-97c-11 0 -19 8 -19 19v97c0 11 8 19 19 19h97c11 0 19 -8 19 -19v-97zM466 190c0 -135 -75 -200 -203 -200s-203 65 -203 200v120
c0 135 75 200 203 200s203 -65 203 -200v-120zM331 188v125c0 45 -16 80 -68 80s-68 -35 -68 -80v-125c0 -45 16 -80 68 -80s68 35 68 80z" />
    <glyph glyph-name="divide" unicode="&#xf7;" 
d="M330 479c0 -11 -8 -19 -19 -19h-97c-11 0 -19 8 -19 19v97c0 11 8 19 19 19h97c11 0 19 -8 19 -19v-97zM475 309c0 -11 -8 -19 -19 -19h-387c-11 0 -19 8 -19 19v82c0 11 8 19 19 19h387c11 0 19 -8 19 -19v-82zM330 124c0 -11 -8 -19 -19 -19h-97c-11 0 -19 8 -19 19v97
c0 11 8 19 19 19h97c11 0 19 -8 19 -19v-97z" />
    <glyph glyph-name="oslash" unicode="&#xf8;" horiz-adv-x="526" 
d="M466 190c0 -135 -75 -200 -203 -200c-17 0 -34 2 -49 4l-28 -77c-4 -10 -9 -17 -20 -17h-50c-11 0 -18 9 -14 19l36 102c-50 32 -78 87 -78 169v120c0 135 75 200 203 200c17 0 34 -2 49 -4l27 76c4 10 9 18 20 18h50c11 0 18 -9 14 -19l-36 -101c51 -31 79 -88 79 -170
v-120zM281 391c-5 1 -12 2 -18 2c-52 0 -68 -35 -68 -80v-125c0 -10 1 -20 3 -29zM331 188v125c0 11 -1 21 -3 30l-83 -233c6 -1 11 -2 18 -2c52 0 68 35 68 80z" />
    <glyph glyph-name="ugrave" unicode="&#xf9;" 
d="M324 591c5 -10 1 -21 -11 -21h-99c-11 0 -20 10 -27 19l-80 110c-7 9 -2 21 10 21h123c11 0 22 -9 27 -19zM465 19c0 -11 -8 -19 -19 -19h-87c-11 0 -19 8 -19 19v14c-31 -22 -75 -43 -130 -43c-113 0 -150 68 -150 170v321c0 11 8 19 19 19h97c11 0 19 -8 19 -19v-301
c0 -41 14 -65 58 -65c24 0 52 9 77 21v345c0 11 8 19 19 19h97c11 0 19 -8 19 -19v-462z" />
    <glyph glyph-name="uacute" unicode="&#xfa;" 
d="M422 699l-80 -110c-7 -9 -16 -19 -27 -19h-99c-12 0 -16 11 -11 21l57 110c5 10 16 19 27 19h123c12 0 17 -12 10 -21zM465 19c0 -11 -8 -19 -19 -19h-87c-11 0 -19 8 -19 19v14c-31 -22 -75 -43 -130 -43c-113 0 -150 68 -150 170v321c0 11 8 19 19 19h97
c11 0 19 -8 19 -19v-301c0 -41 14 -65 58 -65c24 0 52 9 77 21v345c0 11 8 19 19 19h97c11 0 19 -8 19 -19v-462z" />
    <glyph glyph-name="ucircumflex" unicode="&#xfb;" 
d="M418 559c0 -11 -9 -17 -19 -13l-136 58l-136 -58c-10 -4 -19 2 -19 13v86c0 11 9 14 19 19l111 56c18 9 30 11 51 0l110 -56c10 -5 19 -8 19 -19v-86zM465 19c0 -11 -8 -19 -19 -19h-87c-11 0 -19 8 -19 19v14c-31 -22 -75 -43 -130 -43c-113 0 -150 68 -150 170v321
c0 11 8 19 19 19h97c11 0 19 -8 19 -19v-301c0 -41 14 -65 58 -65c24 0 52 9 77 21v345c0 11 8 19 19 19h97c11 0 19 -8 19 -19v-462z" />
    <glyph glyph-name="udieresis" unicode="&#xfc;" 
d="M440 594c0 -11 -8 -19 -19 -19h-97c-11 0 -19 8 -19 19v97c0 11 8 19 19 19h97c11 0 19 -8 19 -19v-97zM220 594c0 -11 -8 -19 -19 -19h-97c-11 0 -19 8 -19 19v97c0 11 8 19 19 19h97c11 0 19 -8 19 -19v-97zM465 19c0 -11 -8 -19 -19 -19h-87c-11 0 -19 8 -19 19v14
c-31 -22 -75 -43 -130 -43c-113 0 -150 68 -150 170v321c0 11 8 19 19 19h97c11 0 19 -8 19 -19v-301c0 -41 14 -65 58 -65c24 0 52 9 77 21v345c0 11 8 19 19 19h97c11 0 19 -8 19 -19v-462z" />
    <glyph glyph-name="yacute" unicode="&#xfd;" horiz-adv-x="500" 
d="M407 699l-80 -110c-7 -9 -16 -19 -27 -19h-99c-12 0 -16 11 -11 21l57 110c5 10 16 19 27 19h123c12 0 17 -12 10 -21zM483 480l-222 -652c-3 -10 -10 -18 -21 -18h-108c-11 0 -18 10 -15 20l55 162l-156 489c-3 11 5 19 16 19h106c11 0 19 -6 22 -17l85 -277l94 276
c3 10 11 18 22 18h106c11 0 19 -10 16 -20z" />
    <glyph glyph-name="thorn" unicode="&#xfe;" 
d="M465 190c0 -114 -63 -190 -196 -190c-18 0 -45 3 -74 7v-178c0 -11 -8 -19 -19 -19h-97c-11 0 -19 8 -19 19v862c0 11 8 19 19 19h97c11 0 19 -8 19 -19v-210c31 17 67 29 105 29c113 0 165 -71 165 -180v-140zM330 195v120c0 47 -18 75 -66 75c-21 0 -45 -7 -69 -17
v-258h64c52 0 71 33 71 80z" />
    <glyph glyph-name="ydieresis" unicode="&#xff;" horiz-adv-x="500" 
d="M428 594c0 -11 -8 -19 -19 -19h-97c-11 0 -19 8 -19 19v97c0 11 8 19 19 19h97c11 0 19 -8 19 -19v-97zM208 594c0 -11 -8 -19 -19 -19h-97c-11 0 -19 8 -19 19v97c0 11 8 19 19 19h97c11 0 19 -8 19 -19v-97zM483 480l-222 -652c-3 -10 -10 -18 -21 -18h-108
c-11 0 -18 10 -15 20l55 162l-156 489c-3 11 5 19 16 19h106c11 0 19 -6 22 -17l85 -277l94 276c3 10 11 18 22 18h106c11 0 19 -10 16 -20z" />
    <glyph glyph-name="Amacron" unicode="&#x100;" horiz-adv-x="605" 
d="M589 20c3 -11 -3 -20 -14 -20h-109c-11 0 -18 8 -21 19l-28 101h-229l-28 -101c-3 -11 -10 -19 -21 -19h-109c-11 0 -17 9 -14 20l198 671c3 11 12 19 23 19h131c11 0 20 -8 23 -19zM382 245l-79 288l-80 -288h159zM430 804c0 -11 -8 -19 -19 -19h-217
c-11 0 -19 8 -19 19v77c0 11 8 19 19 19h217c11 0 19 -8 19 -19v-77z" />
    <glyph glyph-name="amacron" unicode="&#x101;" horiz-adv-x="510" 
d="M450 19c0 -11 -8 -19 -19 -19h-87c-11 0 -19 8 -19 19v7c-33 -20 -74 -36 -121 -36c-98 0 -159 46 -159 155c0 102 67 155 180 155c34 0 64 -2 90 -6v26c0 46 -22 65 -73 65c-54 0 -138 -17 -138 -17c-11 -1 -19 4 -19 15v85c0 11 8 18 19 20c0 0 73 22 160 22
c147 0 186 -66 186 -190v-301zM315 121v82h-68c-48 0 -67 -20 -67 -53c0 -31 18 -50 57 -50c25 0 52 9 78 21zM398 604c0 -11 -8 -19 -19 -19h-217c-11 0 -19 8 -19 19v77c0 11 8 19 19 19h217c11 0 19 -8 19 -19v-77z" />
    <glyph glyph-name="Abreve" unicode="&#x102;" horiz-adv-x="605" 
d="M589 20c3 -11 -3 -20 -14 -20h-109c-11 0 -18 8 -21 19l-28 101h-229l-28 -101c-3 -11 -10 -19 -21 -19h-109c-11 0 -17 9 -14 20l198 671c3 11 12 19 23 19h131c11 0 20 -8 23 -19zM382 245l-79 288l-80 -288h159zM460 908c0 -112 -52 -161 -158 -161s-158 49 -158 161
c0 11 8 19 19 19h82c11 0 19 -8 19 -19c0 -50 14 -66 38 -66s38 16 38 66c0 11 8 19 19 19h82c11 0 19 -8 19 -19z" />
    <glyph glyph-name="abreve" unicode="&#x103;" horiz-adv-x="510" 
d="M450 19c0 -11 -8 -19 -19 -19h-87c-11 0 -19 8 -19 19v7c-33 -20 -74 -36 -121 -36c-98 0 -159 46 -159 155c0 102 67 155 180 155c34 0 64 -2 90 -6v26c0 46 -22 65 -73 65c-54 0 -138 -17 -138 -17c-11 -1 -19 4 -19 15v85c0 11 8 18 19 20c0 0 73 22 160 22
c147 0 186 -66 186 -190v-301zM315 121v82h-68c-48 0 -67 -20 -67 -53c0 -31 18 -50 57 -50c25 0 52 9 78 21zM428 696c0 -112 -52 -161 -158 -161s-158 49 -158 161c0 11 8 19 19 19h82c11 0 19 -8 19 -19c0 -50 14 -66 38 -66s38 16 38 66c0 11 8 19 19 19h82
c11 0 19 -8 19 -19z" />
    <glyph glyph-name="Aogonek" unicode="&#x104;" horiz-adv-x="605" 
d="M589 20c3 -11 -4 -19 -9 -20c-10 -2 -51 -43 -51 -80c0 -11 2 -32 19 -32c13 0 33 9 36 9c6 0 6 -7 6 -11v-59c0 -9 -3 -12 -11 -16c-19 -6 -51 -11 -72 -11c-68 0 -84 57 -84 100c0 55 25 85 48 100h-5c-11 0 -18 8 -21 19l-28 101h-229l-28 -101
c-3 -11 -10 -19 -21 -19h-109c-11 0 -17 9 -14 20l198 671c3 11 12 19 23 19h131c11 0 20 -8 23 -19zM382 245l-79 288l-80 -288h159z" />
    <glyph glyph-name="aogonek" unicode="&#x105;" horiz-adv-x="510" 
d="M368 -200c-68 0 -84 57 -84 100c0 58 28 88 51 102c-6 3 -10 9 -10 17v7c-33 -20 -74 -36 -121 -36c-98 0 -159 46 -159 155c0 102 67 155 180 155c34 0 64 -2 90 -6v26c0 46 -22 65 -73 65c-54 0 -138 -17 -138 -17c-11 -1 -19 4 -19 15v85c0 11 8 18 19 20
c0 0 73 22 160 22c147 0 186 -66 186 -190v-301c0 -10 -7 -16 -15 -22c-27 -23 -45 -52 -45 -77c0 -11 2 -32 19 -32c13 0 33 9 36 9c6 0 6 -7 6 -11v-59c0 -9 -3 -12 -11 -16c-19 -6 -51 -11 -72 -11zM315 121v82h-68c-48 0 -67 -20 -67 -53c0 -31 18 -50 57 -50
c25 0 52 9 78 21z" />
    <glyph glyph-name="Cacute" unicode="&#x106;" horiz-adv-x="475" 
d="M435 21c0 -11 -7 -19 -19 -20c0 0 -58 -11 -111 -11c-160 0 -245 94 -245 260v210c0 166 85 260 245 260c53 0 111 -11 111 -11c12 -1 19 -9 19 -20v-89c0 -11 -8 -17 -20 -16c0 0 -65 8 -110 8c-85 0 -110 -59 -110 -142v-190c0 -83 24 -142 115 -142c45 0 106 9 106 9
c12 1 19 -5 19 -16v-90zM439 889l-80 -110c-7 -9 -16 -19 -27 -19h-99c-12 0 -16 11 -11 21l57 110c5 10 16 19 27 19h123c12 0 17 -12 10 -21z" />
    <glyph glyph-name="cacute" unicode="&#x107;" horiz-adv-x="400" 
d="M370 19c0 -11 -6 -19 -19 -20c0 0 -48 -9 -88 -9c-128 0 -203 65 -203 200v120c0 135 75 200 203 200c44 0 88 -9 88 -9c13 -1 19 -9 19 -20v-81c0 -11 -8 -17 -19 -16c0 0 -44 6 -79 6c-61 0 -77 -34 -77 -85v-110c0 -54 18 -85 78 -85c39 0 78 6 78 6
c11 1 19 -5 19 -16v-81zM396 699l-80 -110c-7 -9 -16 -19 -27 -19h-99c-12 0 -16 11 -11 21l57 110c5 10 16 19 27 19h123c12 0 17 -12 10 -21z" />
    <glyph glyph-name="Ccircumflex" unicode="&#x108;" horiz-adv-x="475" 
d="M435 21c0 -11 -7 -19 -19 -20c0 0 -58 -11 -111 -11c-160 0 -245 94 -245 260v210c0 166 85 260 245 260c53 0 111 -11 111 -11c12 -1 19 -9 19 -20v-89c0 -11 -8 -17 -20 -16c0 0 -65 8 -110 8c-85 0 -110 -59 -110 -142v-190c0 -83 24 -142 115 -142c45 0 106 9 106 9
c12 1 19 -5 19 -16v-90zM440 768c0 -11 -9 -17 -19 -13l-136 58l-136 -58c-10 -4 -19 2 -19 13v86c0 11 9 14 19 19l111 56c18 9 30 11 51 0l110 -56c10 -5 19 -8 19 -19v-86z" />
    <glyph glyph-name="ccircumflex" unicode="&#x109;" horiz-adv-x="400" 
d="M370 19c0 -11 -6 -19 -19 -20c0 0 -48 -9 -88 -9c-128 0 -203 65 -203 200v120c0 135 75 200 203 200c44 0 88 -9 88 -9c13 -1 19 -9 19 -20v-81c0 -11 -8 -17 -19 -16c0 0 -44 6 -79 6c-61 0 -77 -34 -77 -85v-110c0 -54 18 -85 78 -85c39 0 78 6 78 6
c11 1 19 -5 19 -16v-81zM398 559c0 -11 -9 -17 -19 -13l-136 58l-136 -58c-10 -4 -19 2 -19 13v86c0 11 9 14 19 19l111 56c18 9 30 11 51 0l110 -56c10 -5 19 -8 19 -19v-86z" />
    <glyph glyph-name="Cdotaccent" unicode="&#x10a;" horiz-adv-x="475" 
d="M435 21c0 -11 -7 -19 -19 -20c0 0 -58 -11 -111 -11c-160 0 -245 94 -245 260v210c0 166 85 260 245 260c53 0 111 -11 111 -11c12 -1 19 -9 19 -20v-89c0 -11 -8 -17 -20 -16c0 0 -65 8 -110 8c-85 0 -110 -59 -110 -142v-190c0 -83 24 -142 115 -142c45 0 106 9 106 9
c12 1 19 -5 19 -16v-90zM353 769c0 -11 -8 -19 -19 -19h-97c-11 0 -19 8 -19 19v97c0 11 8 19 19 19h97c11 0 19 -8 19 -19v-97z" />
    <glyph glyph-name="cdotaccent" unicode="&#x10b;" horiz-adv-x="400" 
d="M370 19c0 -11 -6 -19 -19 -20c0 0 -48 -9 -88 -9c-128 0 -203 65 -203 200v120c0 135 75 200 203 200c44 0 88 -9 88 -9c13 -1 19 -9 19 -20v-81c0 -11 -8 -17 -19 -16c0 0 -44 6 -79 6c-61 0 -77 -34 -77 -85v-110c0 -54 18 -85 78 -85c39 0 78 6 78 6
c11 1 19 -5 19 -16v-81zM311 594c0 -11 -8 -19 -19 -19h-97c-11 0 -19 8 -19 19v97c0 11 8 19 19 19h97c11 0 19 -8 19 -19v-97z" />
    <glyph glyph-name="Ccaron" unicode="&#x10c;" horiz-adv-x="475" 
d="M435 21c0 -11 -7 -19 -19 -20c0 0 -58 -11 -111 -11c-160 0 -245 94 -245 260v210c0 166 85 260 245 260c53 0 111 -11 111 -11c12 -1 19 -9 19 -20v-89c0 -11 -8 -17 -20 -16c0 0 -65 8 -110 8c-85 0 -110 -59 -110 -142v-190c0 -83 24 -142 115 -142c45 0 106 9 106 9
c12 1 19 -5 19 -16v-90zM441 830c0 -11 -9 -14 -19 -19l-110 -56c-21 -11 -33 -9 -51 0l-111 56c-10 5 -19 8 -19 19v86c0 11 9 17 19 13l136 -58l136 58c10 4 19 -2 19 -13v-86z" />
    <glyph glyph-name="ccaron" unicode="&#x10d;" horiz-adv-x="400" 
d="M370 19c0 -11 -6 -19 -19 -20c0 0 -48 -9 -88 -9c-128 0 -203 65 -203 200v120c0 135 75 200 203 200c44 0 88 -9 88 -9c13 -1 19 -9 19 -20v-81c0 -11 -8 -17 -19 -16c0 0 -44 6 -79 6c-61 0 -77 -34 -77 -85v-110c0 -54 18 -85 78 -85c39 0 78 6 78 6
c11 1 19 -5 19 -16v-81zM399 618c0 -11 -9 -14 -19 -19l-110 -56c-21 -11 -33 -9 -51 0l-111 56c-10 5 -19 8 -19 19v89c0 11 9 17 19 13l136 -58l136 58c10 4 19 -2 19 -13v-89z" />
    <glyph glyph-name="Dcaron" unicode="&#x10e;" horiz-adv-x="610" 
d="M550 260c0 -166 -85 -260 -245 -260h-226c-11 0 -19 8 -19 19v672c0 11 8 19 19 19h226c160 0 245 -94 245 -260v-190zM415 270v170c0 83 -25 145 -110 145h-110v-460h110c85 0 110 62 110 145zM438 830c0 -11 -9 -14 -19 -19l-110 -56c-21 -11 -33 -9 -51 0l-111 56
c-10 5 -19 8 -19 19v86c0 11 9 17 19 13l136 -58l136 58c10 4 19 -2 19 -13v-86z" />
    <glyph glyph-name="dcaron" unicode="&#x10f;" 
d="M465 19c0 -11 -8 -19 -19 -19h-87c-11 0 -19 8 -19 19v6c-33 -19 -72 -35 -115 -35c-113 0 -165 71 -165 180v160c0 109 52 180 165 180c38 0 74 -10 105 -24v205c0 11 8 19 19 19h97c11 0 19 -8 19 -19v-672zM330 127v250c-24 8 -48 13 -69 13c-48 0 -66 -28 -66 -75
v-130c0 -47 18 -75 66 -75c21 0 45 7 69 17zM634 603l-43 -66c-5 -8 -15 -17 -24 -17h-39c-10 0 -20 8 -15 16l26 43h-19c-10 0 -17 7 -17 17v97c0 10 7 17 17 17h97c10 0 17 -7 17 -17v-90z" />
    <glyph glyph-name="Dcroat" unicode="&#x110;" horiz-adv-x="610" 
d="M550 260c0 -166 -85 -260 -245 -260h-226c-11 0 -19 8 -19 19v672c0 11 8 19 19 19h226c160 0 245 -94 245 -260v-190zM415 270v170c0 83 -25 145 -110 145h-110v-160h141c11 0 19 -8 19 -19v-87c0 -11 -8 -19 -19 -19h-141v-175h110c85 0 110 62 110 145z" />
    <glyph glyph-name="dcroat" unicode="&#x111;" 
d="M465 19c0 -11 -8 -19 -19 -19h-87c-11 0 -19 8 -19 19v6c-33 -19 -72 -35 -115 -35c-113 0 -165 71 -165 180v160c0 109 52 180 165 180c38 0 74 -10 105 -24v57h-56c-11 0 -19 8 -19 19v77c0 11 8 19 19 19h56v33c0 11 8 19 19 19h97c11 0 19 -8 19 -19v-33h26
c11 0 19 -8 19 -19v-77c0 -11 -8 -19 -19 -19h-26v-524zM330 127v250c-24 8 -48 13 -69 13c-48 0 -66 -28 -66 -75v-130c0 -47 18 -75 66 -75c21 0 45 7 69 17z" />
    <glyph glyph-name="Emacron" unicode="&#x112;" horiz-adv-x="505" 
d="M465 19c0 -11 -8 -19 -19 -19h-367c-11 0 -19 8 -19 19v672c0 11 8 19 19 19h367c11 0 19 -8 19 -19v-87c0 -11 -8 -19 -19 -19h-251v-160h231c11 0 19 -8 19 -19v-87c0 -11 -8 -19 -19 -19h-231v-175h251c11 0 19 -8 19 -19v-87zM390 804c0 -11 -8 -19 -19 -19h-217
c-11 0 -19 8 -19 19v77c0 11 8 19 19 19h217c11 0 19 -8 19 -19v-77z" />
    <glyph glyph-name="emacron" unicode="&#x113;" horiz-adv-x="515" 
d="M460 214c0 -11 -8 -19 -19 -19h-249c7 -55 36 -82 98 -82c54 0 131 13 131 13c12 1 19 -5 19 -16v-86c0 -11 -7 -19 -19 -20c0 0 -73 -14 -139 -14c-135 0 -227 65 -227 242v42c0 141 71 236 208 236c140 0 197 -95 197 -212v-84zM335 292v14c0 57 -16 91 -70 91
c-57 0 -74 -37 -75 -105h145zM391 604c0 -11 -8 -19 -19 -19h-217c-11 0 -19 8 -19 19v77c0 11 8 19 19 19h217c11 0 19 -8 19 -19v-77z" />
    <glyph glyph-name="Ebreve" unicode="&#x114;" horiz-adv-x="505" 
d="M465 19c0 -11 -8 -19 -19 -19h-367c-11 0 -19 8 -19 19v672c0 11 8 19 19 19h367c11 0 19 -8 19 -19v-87c0 -11 -8 -19 -19 -19h-251v-160h231c11 0 19 -8 19 -19v-87c0 -11 -8 -19 -19 -19h-231v-175h251c11 0 19 -8 19 -19v-87zM420 908c0 -112 -52 -161 -158 -161
s-158 49 -158 161c0 11 8 19 19 19h82c11 0 19 -8 19 -19c0 -50 14 -66 38 -66s38 16 38 66c0 11 8 19 19 19h82c11 0 19 -8 19 -19z" />
    <glyph glyph-name="ebreve" unicode="&#x115;" horiz-adv-x="515" 
d="M460 214c0 -11 -8 -19 -19 -19h-249c7 -55 36 -82 98 -82c54 0 131 13 131 13c12 1 19 -5 19 -16v-86c0 -11 -7 -19 -19 -20c0 0 -73 -14 -139 -14c-135 0 -227 65 -227 242v42c0 141 71 236 208 236c140 0 197 -95 197 -212v-84zM335 292v14c0 57 -16 91 -70 91
c-57 0 -74 -37 -75 -105h145zM421 696c0 -112 -52 -161 -158 -161s-158 49 -158 161c0 11 8 19 19 19h82c11 0 19 -8 19 -19c0 -50 14 -66 38 -66s38 16 38 66c0 11 8 19 19 19h82c11 0 19 -8 19 -19z" />
    <glyph glyph-name="Edotaccent" unicode="&#x116;" horiz-adv-x="505" 
d="M465 19c0 -11 -8 -19 -19 -19h-367c-11 0 -19 8 -19 19v672c0 11 8 19 19 19h367c11 0 19 -8 19 -19v-87c0 -11 -8 -19 -19 -19h-251v-160h231c11 0 19 -8 19 -19v-87c0 -11 -8 -19 -19 -19h-231v-175h251c11 0 19 -8 19 -19v-87zM330 769c0 -11 -8 -19 -19 -19h-97
c-11 0 -19 8 -19 19v97c0 11 8 19 19 19h97c11 0 19 -8 19 -19v-97z" />
    <glyph glyph-name="edotaccent" unicode="&#x117;" horiz-adv-x="515" 
d="M460 214c0 -11 -8 -19 -19 -19h-249c7 -55 36 -82 98 -82c54 0 131 13 131 13c12 1 19 -5 19 -16v-86c0 -11 -7 -19 -19 -20c0 0 -73 -14 -139 -14c-135 0 -227 65 -227 242v42c0 141 71 236 208 236c140 0 197 -95 197 -212v-84zM335 292v14c0 57 -16 91 -70 91
c-57 0 -74 -37 -75 -105h145zM331 594c0 -11 -8 -19 -19 -19h-97c-11 0 -19 8 -19 19v97c0 11 8 19 19 19h97c11 0 19 -8 19 -19v-97z" />
    <glyph glyph-name="Eogonek" unicode="&#x118;" horiz-adv-x="505" 
d="M375 -200c-68 0 -84 57 -84 100c0 55 25 85 48 100h-260c-11 0 -19 8 -19 19v672c0 11 8 19 19 19h367c11 0 19 -8 19 -19v-87c0 -11 -8 -19 -19 -19h-251v-160h231c11 0 19 -8 19 -19v-87c0 -11 -8 -19 -19 -19h-231v-175h251c11 0 19 -8 19 -19v-87
c0 -11 -9 -19 -15 -19c-13 0 -53 -45 -53 -80c0 -11 2 -32 19 -32c13 0 33 9 36 9c6 0 6 -7 6 -11v-59c0 -9 -3 -12 -11 -16c-19 -6 -51 -11 -72 -11z" />
    <glyph glyph-name="eogonek" unicode="&#x119;" horiz-adv-x="515" 
d="M460 214c0 -11 -8 -19 -19 -19h-249c7 -55 36 -82 98 -82c54 0 131 13 131 13c12 1 19 -5 19 -16v-86c0 -11 -7 -19 -19 -20c-26 -2 -60 -56 -60 -84c0 -11 2 -32 19 -32c13 0 33 9 36 9c6 0 6 -7 6 -11v-59c0 -9 -3 -13 -11 -16c-18 -7 -51 -11 -72 -11
c-68 0 -84 57 -84 100c0 45 17 73 35 90h-8c-135 0 -227 65 -227 242v42c0 141 71 236 208 236c140 0 197 -95 197 -212v-84zM335 292v14c0 57 -16 91 -70 91c-57 0 -74 -37 -75 -105h145z" />
    <glyph glyph-name="Ecaron" unicode="&#x11a;" horiz-adv-x="505" 
d="M465 19c0 -11 -8 -19 -19 -19h-367c-11 0 -19 8 -19 19v672c0 11 8 19 19 19h367c11 0 19 -8 19 -19v-87c0 -11 -8 -19 -19 -19h-251v-160h231c11 0 19 -8 19 -19v-87c0 -11 -8 -19 -19 -19h-231v-175h251c11 0 19 -8 19 -19v-87zM418 830c0 -11 -9 -14 -19 -19l-110 -56
c-21 -11 -33 -9 -51 0l-111 56c-10 5 -19 8 -19 19v86c0 11 9 17 19 13l136 -58l136 58c10 4 19 -2 19 -13v-86z" />
    <glyph glyph-name="ecaron" unicode="&#x11b;" horiz-adv-x="515" 
d="M460 214c0 -11 -8 -19 -19 -19h-249c7 -55 36 -82 98 -82c54 0 131 13 131 13c12 1 19 -5 19 -16v-86c0 -11 -7 -19 -19 -20c0 0 -73 -14 -139 -14c-135 0 -227 65 -227 242v42c0 141 71 236 208 236c140 0 197 -95 197 -212v-84zM335 292v14c0 57 -16 91 -70 91
c-57 0 -74 -37 -75 -105h145zM419 618c0 -11 -9 -14 -19 -19l-110 -56c-21 -11 -33 -9 -51 0l-111 56c-10 5 -19 8 -19 19v89c0 11 9 17 19 13l136 -58l136 58c10 4 19 -2 19 -13v-89z" />
    <glyph glyph-name="Gcircumflex" unicode="&#x11c;" horiz-adv-x="610" 
d="M550 45c0 0 -108 -55 -245 -55c-167 0 -245 93 -245 260v190c0 178 91 280 265 280c107 0 186 -30 186 -30c12 -2 19 -9 19 -20v-85c0 -11 -7 -18 -20 -16c0 0 -113 26 -180 26c-99 0 -135 -59 -135 -155v-180c0 -92 33 -145 114 -145c59 0 106 18 106 18v147h-101
c-11 0 -19 8 -19 19v87c0 11 8 19 19 19h217c11 0 19 -8 19 -19v-341zM470 768c0 -11 -9 -17 -19 -13l-136 58l-136 -58c-10 -4 -19 2 -19 13v86c0 11 9 14 19 19l111 56c18 9 30 11 51 0l110 -56c10 -5 19 -8 19 -19v-86z" />
    <glyph glyph-name="gcircumflex" unicode="&#x11d;" 
d="M465 15c0 -163 -58 -215 -197 -215c-80 0 -169 19 -169 19c-12 1 -19 9 -19 20v88c0 11 7 16 19 15c0 0 87 -17 146 -17c67 0 85 29 85 90v24c-31 -17 -67 -29 -105 -29c-113 0 -165 71 -165 180v130c0 114 63 190 196 190c87 0 190 -25 190 -25c11 -1 19 -8 19 -19v-451
zM330 147v236c-26 4 -50 7 -64 7c-52 0 -71 -28 -71 -75v-110c0 -47 18 -75 66 -75c21 0 45 7 69 17zM434 559c0 -11 -9 -17 -19 -13l-136 58l-136 -58c-10 -4 -19 2 -19 13v86c0 11 9 14 19 19l111 56c18 9 30 11 51 0l110 -56c10 -5 19 -8 19 -19v-86z" />
    <glyph glyph-name="Gbreve" unicode="&#x11e;" horiz-adv-x="610" 
d="M550 45c0 0 -108 -55 -245 -55c-167 0 -245 93 -245 260v190c0 178 91 280 265 280c107 0 186 -30 186 -30c12 -2 19 -9 19 -20v-85c0 -11 -7 -18 -20 -16c0 0 -113 26 -180 26c-99 0 -135 -59 -135 -155v-180c0 -92 33 -145 114 -145c59 0 106 18 106 18v147h-101
c-11 0 -19 8 -19 19v87c0 11 8 19 19 19h217c11 0 19 -8 19 -19v-341zM473 908c0 -112 -52 -161 -158 -161s-158 49 -158 161c0 11 8 19 19 19h82c11 0 19 -8 19 -19c0 -50 14 -66 38 -66s38 16 38 66c0 11 8 19 19 19h82c11 0 19 -8 19 -19z" />
    <glyph glyph-name="gbreve" unicode="&#x11f;" 
d="M465 15c0 -163 -58 -215 -197 -215c-80 0 -169 19 -169 19c-12 1 -19 9 -19 20v88c0 11 7 16 19 15c0 0 87 -17 146 -17c67 0 85 29 85 90v24c-31 -17 -67 -29 -105 -29c-113 0 -165 71 -165 180v130c0 114 63 190 196 190c87 0 190 -25 190 -25c11 -1 19 -8 19 -19v-451
zM330 147v236c-26 4 -50 7 -64 7c-52 0 -71 -28 -71 -75v-110c0 -47 18 -75 66 -75c21 0 45 7 69 17zM437 696c0 -112 -52 -161 -158 -161s-158 49 -158 161c0 11 8 19 19 19h82c11 0 19 -8 19 -19c0 -50 14 -66 38 -66s38 16 38 66c0 11 8 19 19 19h82c11 0 19 -8 19 -19z
" />
    <glyph glyph-name="Gdotaccent" unicode="&#x120;" horiz-adv-x="610" 
d="M550 45c0 0 -108 -55 -245 -55c-167 0 -245 93 -245 260v190c0 178 91 280 265 280c107 0 186 -30 186 -30c12 -2 19 -9 19 -20v-85c0 -11 -7 -18 -20 -16c0 0 -113 26 -180 26c-99 0 -135 -59 -135 -155v-180c0 -92 33 -145 114 -145c59 0 106 18 106 18v147h-101
c-11 0 -19 8 -19 19v87c0 11 8 19 19 19h217c11 0 19 -8 19 -19v-341zM383 769c0 -11 -8 -19 -19 -19h-97c-11 0 -19 8 -19 19v97c0 11 8 19 19 19h97c11 0 19 -8 19 -19v-97z" />
    <glyph glyph-name="gdotaccent" unicode="&#x121;" 
d="M465 15c0 -163 -58 -215 -197 -215c-80 0 -169 19 -169 19c-12 1 -19 9 -19 20v88c0 11 7 16 19 15c0 0 87 -17 146 -17c67 0 85 29 85 90v24c-31 -17 -67 -29 -105 -29c-113 0 -165 71 -165 180v130c0 114 63 190 196 190c87 0 190 -25 190 -25c11 -1 19 -8 19 -19v-451
zM330 147v236c-26 4 -50 7 -64 7c-52 0 -71 -28 -71 -75v-110c0 -47 18 -75 66 -75c21 0 45 7 69 17zM347 594c0 -11 -8 -19 -19 -19h-97c-11 0 -19 8 -19 19v97c0 11 8 19 19 19h97c11 0 19 -8 19 -19v-97z" />
    <glyph glyph-name="Gcommaaccent" unicode="&#x122;" horiz-adv-x="610" 
d="M550 45c0 0 -108 -55 -245 -55c-167 0 -245 93 -245 260v190c0 178 91 280 265 280c107 0 186 -30 186 -30c12 -2 19 -9 19 -20v-85c0 -11 -7 -18 -20 -16c0 0 -113 26 -180 26c-99 0 -135 -59 -135 -155v-180c0 -92 33 -145 114 -145c59 0 106 18 106 18v147h-101
c-11 0 -19 8 -19 19v87c0 11 8 19 19 19h217c11 0 19 -8 19 -19v-341zM382 -145l-34 -87c-4 -10 -9 -17 -19 -17h-45c-10 0 -17 6 -15 16l18 79h-19c-10 0 -17 7 -17 17v96c0 10 7 17 17 17h97c10 0 17 -7 17 -17v-104z" />
    <glyph glyph-name="gcommaaccent" unicode="&#x123;" 
d="M465 15c0 -163 -58 -215 -197 -215c-80 0 -169 19 -169 19c-12 1 -19 9 -19 20v88c0 11 7 16 19 15c0 0 87 -17 146 -17c67 0 85 29 85 90v24c-31 -17 -67 -29 -105 -29c-113 0 -165 71 -165 180v130c0 114 63 190 196 190c87 0 190 -25 190 -25c11 -1 19 -8 19 -19v-451
zM330 147v236c-26 4 -50 7 -64 7c-52 0 -71 -28 -71 -75v-110c0 -47 18 -75 66 -75c21 0 45 7 69 17zM215 705l43 127c3 10 9 17 18 17h45c10 0 17 -7 15 -16l-26 -119h19c10 0 17 -7 17 -17v-97c0 -10 -7 -17 -17 -17h-97c-10 0 -17 7 -17 17v105z" />
    <glyph glyph-name="Hcircumflex" unicode="&#x124;" horiz-adv-x="610" 
d="M550 19c0 -11 -8 -19 -19 -19h-97c-11 0 -19 8 -19 19v281h-220v-281c0 -11 -8 -19 -19 -19h-97c-11 0 -19 8 -19 19v672c0 11 8 19 19 19h97c11 0 19 -8 19 -19v-266h220v266c0 11 8 19 19 19h97c11 0 19 -8 19 -19v-672zM460 768c0 -11 -9 -17 -19 -13l-136 58
l-136 -58c-10 -4 -19 2 -19 13v86c0 11 9 14 19 19l111 56c18 9 30 11 51 0l110 -56c10 -5 19 -8 19 -19v-86z" />
    <glyph glyph-name="hcircumflex" unicode="&#x125;" 
d="M465 19c0 -11 -8 -19 -19 -19h-97c-11 0 -19 8 -19 19v301c0 41 -14 65 -58 65c-24 0 -52 -9 -77 -21v-345c0 -11 -8 -19 -19 -19h-97c-11 0 -19 8 -19 19v672c0 11 8 19 19 19h97c11 0 19 -8 19 -19v-217c30 19 71 36 120 36c113 0 150 -68 150 -170v-321zM282 769
c0 -11 -9 -17 -19 -13l-136 58l-136 -58c-10 -4 -19 2 -19 13v86c0 11 9 14 19 19l111 56c18 9 30 11 51 0l110 -56c10 -5 19 -8 19 -19v-86z" />
    <glyph glyph-name="Hbar" unicode="&#x126;" horiz-adv-x="610" 
d="M550 19c0 -11 -8 -19 -19 -19h-97c-11 0 -19 8 -19 19v281h-220v-281c0 -11 -8 -19 -19 -19h-97c-11 0 -19 8 -19 19v481h-26c-11 0 -19 8 -19 19v82c0 11 8 19 19 19h26v71c0 11 8 19 19 19h97c11 0 19 -8 19 -19v-71h220v71c0 11 8 19 19 19h97c11 0 19 -8 19 -19v-71
h26c11 0 19 -8 19 -19v-82c0 -11 -8 -19 -19 -19h-26v-481zM195 425h220v75h-220v-75z" />
    <glyph glyph-name="hbar" unicode="&#x127;" 
d="M270 562c0 -11 -8 -19 -19 -19h-56v-69c30 19 71 36 120 36c113 0 150 -68 150 -170v-321c0 -11 -8 -19 -19 -19h-97c-11 0 -19 8 -19 19v301c0 41 -14 65 -58 65c-24 0 -52 -9 -77 -21v-345c0 -11 -8 -19 -19 -19h-97c-11 0 -19 8 -19 19v524h-26c-11 0 -19 8 -19 19v77
c0 11 8 19 19 19h26v33c0 11 8 19 19 19h97c11 0 19 -8 19 -19v-33h56c11 0 19 -8 19 -19v-77z" />
    <glyph glyph-name="Itilde" unicode="&#x128;" horiz-adv-x="445" 
d="M415 19c0 -11 -8 -19 -19 -19h-347c-11 0 -19 8 -19 19v52c0 11 8 19 19 19h106v530h-106c-11 0 -19 8 -19 19v52c0 11 8 19 19 19h347c11 0 19 -8 19 -19v-52c0 -11 -8 -19 -19 -19h-106v-530h106c11 0 19 -8 19 -19v-52zM377 814c0 -13 -8 -24 -19 -32
c0 0 -26 -22 -65 -22c-51 0 -102 36 -141 36c-28 0 -65 -24 -65 -24c-10 -4 -20 0 -20 11v72c0 13 9 23 19 32c0 0 26 22 65 22c61 0 107 -36 141 -36c28 0 64 24 64 24c10 4 21 -1 21 -12v-71z" />
    <glyph glyph-name="itilde" unicode="&#x129;" horiz-adv-x="255" 
d="M195 19c0 -11 -8 -19 -19 -19h-97c-11 0 -19 8 -19 19v462c0 11 8 19 19 19h97c11 0 19 -8 19 -19v-462zM282 625c0 -13 -8 -24 -19 -32c0 0 -26 -22 -65 -22c-51 0 -102 36 -141 36c-28 0 -65 -24 -65 -24c-10 -4 -20 0 -20 11v72c0 13 9 23 19 32c0 0 26 22 65 22
c61 0 107 -36 141 -36c28 0 64 24 64 24c10 4 21 -1 21 -12v-71z" />
    <glyph glyph-name="Imacron" unicode="&#x12a;" horiz-adv-x="445" 
d="M415 19c0 -11 -8 -19 -19 -19h-347c-11 0 -19 8 -19 19v52c0 11 8 19 19 19h106v530h-106c-11 0 -19 8 -19 19v52c0 11 8 19 19 19h347c11 0 19 -8 19 -19v-52c0 -11 -8 -19 -19 -19h-106v-530h106c11 0 19 -8 19 -19v-52zM350 804c0 -11 -8 -19 -19 -19h-217
c-11 0 -19 8 -19 19v77c0 11 8 19 19 19h217c11 0 19 -8 19 -19v-77z" />
    <glyph glyph-name="imacron" unicode="&#x12b;" horiz-adv-x="255" 
d="M195 19c0 -11 -8 -19 -19 -19h-97c-11 0 -19 8 -19 19v462c0 11 8 19 19 19h97c11 0 19 -8 19 -19v-462zM255 604c0 -11 -8 -19 -19 -19h-217c-11 0 -19 8 -19 19v77c0 11 8 19 19 19h217c11 0 19 -8 19 -19v-77z" />
    <glyph glyph-name="Iogonek" unicode="&#x12e;" horiz-adv-x="445" 
d="M219 -200c-68 0 -84 57 -84 100c0 55 25 85 48 100h-134c-11 0 -19 8 -19 19v52c0 11 8 19 19 19h106v530h-106c-11 0 -19 8 -19 19v52c0 11 8 19 19 19h347c11 0 19 -8 19 -19v-52c0 -11 -8 -19 -19 -19h-106v-530h106c11 0 19 -8 19 -19v-52c0 -11 -8 -19 -19 -19h-106
c-26 -19 -49 -52 -49 -80c0 -11 2 -32 19 -32c13 0 33 9 36 9c6 0 6 -7 6 -11v-59c0 -9 -3 -12 -11 -16c-19 -6 -51 -11 -72 -11z" />
    <glyph glyph-name="iogonek" unicode="&#x12f;" horiz-adv-x="255" 
d="M195 19c0 -8 -5 -14 -11 -19c-28 -24 -48 -52 -48 -80c0 -11 2 -32 19 -32c13 0 33 9 36 9c6 0 6 -7 6 -11v-59c0 -9 -3 -12 -11 -16c-19 -6 -51 -11 -72 -11c-68 0 -84 57 -84 100c0 55 25 85 48 100c-11 0 -18 8 -18 19v462c0 11 8 19 19 19h97c11 0 19 -8 19 -19v-462
zM195 594c0 -11 -8 -19 -19 -19h-97c-11 0 -19 8 -19 19v97c0 11 8 19 19 19h97c11 0 19 -8 19 -19v-97z" />
    <glyph glyph-name="Idotaccent" unicode="&#x130;" horiz-adv-x="445" 
d="M415 19c0 -11 -8 -19 -19 -19h-347c-11 0 -19 8 -19 19v52c0 11 8 19 19 19h106v530h-106c-11 0 -19 8 -19 19v52c0 11 8 19 19 19h347c11 0 19 -8 19 -19v-52c0 -11 -8 -19 -19 -19h-106v-530h106c11 0 19 -8 19 -19v-52zM290 769c0 -11 -8 -19 -19 -19h-97
c-11 0 -19 8 -19 19v97c0 11 8 19 19 19h97c11 0 19 -8 19 -19v-97z" />
    <glyph glyph-name="dotlessi" unicode="&#x131;" horiz-adv-x="255" 
d="M195 19c0 -11 -8 -19 -19 -19h-97c-11 0 -19 8 -19 19v462c0 11 8 19 19 19h97c11 0 19 -8 19 -19v-462z" />
    <glyph glyph-name="IJ" unicode="&#x132;" horiz-adv-x="820" 
d="M415 19c0 -11 -8 -19 -19 -19h-347c-11 0 -19 8 -19 19v52c0 11 8 19 19 19h106v530h-106c-11 0 -19 8 -19 19v52c0 11 8 19 19 19h347c11 0 19 -8 19 -19v-52c0 -11 -8 -19 -19 -19h-106v-530h106c11 0 19 -8 19 -19v-52zM760 220c0 -146 -66 -220 -210 -220h-46
c-11 0 -19 8 -19 19v82c0 11 8 19 19 19h21c71 0 100 33 100 110v461c0 11 8 19 19 19h97c11 0 19 -8 19 -19v-471z" />
    <glyph glyph-name="ij" unicode="&#x133;" horiz-adv-x="510" 
d="M195 594c0 -11 -8 -19 -19 -19h-97c-11 0 -19 8 -19 19v97c0 11 8 19 19 19h97c11 0 19 -8 19 -19v-97zM195 19c0 -11 -8 -19 -19 -19h-97c-11 0 -19 8 -19 19v462c0 11 8 19 19 19h97c11 0 19 -8 19 -19v-462zM450 594c0 -11 -8 -19 -19 -19h-97c-11 0 -19 8 -19 19v97
c0 11 8 19 19 19h97c11 0 19 -8 19 -19v-97zM450 -65c0 -98 -42 -135 -119 -135c-39 0 -77 4 -77 4c-11 2 -19 8 -19 19v81c0 11 9 17 19 17c0 0 18 -1 27 -1c23 0 34 11 34 38v523c0 11 8 19 19 19h97c11 0 19 -8 19 -19v-546z" />
    <glyph glyph-name="Jcircumflex" unicode="&#x134;" horiz-adv-x="375" 
d="M315 220c0 -146 -66 -220 -210 -220h-46c-11 0 -19 8 -19 19v82c0 11 8 19 19 19h21c71 0 100 33 100 110v461c0 11 8 19 19 19h97c11 0 19 -8 19 -19v-471zM402 768c0 -11 -9 -17 -19 -13l-136 58l-136 -58c-10 -4 -19 2 -19 13v86c0 11 9 14 19 19l111 56
c18 9 30 11 51 0l110 -56c10 -5 19 -8 19 -19v-86z" />
    <glyph glyph-name="jcircumflex" unicode="&#x135;" horiz-adv-x="255" 
d="M195 -65c0 -98 -42 -135 -119 -135c-39 0 -77 4 -77 4c-11 2 -19 8 -19 19v81c0 11 9 17 19 17c0 0 18 -1 27 -1c23 0 34 11 34 38v523c0 11 8 19 19 19h97c11 0 19 -8 19 -19v-546zM282 559c0 -11 -9 -17 -19 -13l-136 58l-136 -58c-10 -4 -19 2 -19 13v86
c0 11 9 14 19 19l111 56c18 9 30 11 51 0l110 -56c10 -5 19 -8 19 -19v-86z" />
    <glyph glyph-name="Kcommaaccent" unicode="&#x136;" horiz-adv-x="550" 
d="M540 19c5 -10 -3 -19 -14 -19h-112c-11 0 -20 9 -25 19l-193 351l183 321c6 10 14 19 25 19h111c11 0 20 -9 14 -19l-183 -321zM195 19c0 -11 -8 -19 -19 -19h-97c-11 0 -19 8 -19 19v672c0 11 8 19 19 19h97c11 0 19 -8 19 -19v-672zM362 -145l-34 -87
c-4 -10 -9 -17 -19 -17h-45c-10 0 -17 6 -15 16l18 79h-19c-10 0 -17 7 -17 17v96c0 10 7 17 17 17h97c10 0 17 -7 17 -17v-104z" />
    <glyph glyph-name="kcommaaccent" unicode="&#x137;" horiz-adv-x="465" 
d="M457 19c4 -9 -1 -19 -12 -19h-108c-11 0 -21 9 -25 19l-116 261l104 201c5 10 14 19 25 19h108c11 0 17 -9 12 -19l-103 -198zM195 19c0 -11 -8 -19 -19 -19h-97c-11 0 -19 8 -19 19v672c0 11 8 19 19 19h97c11 0 19 -8 19 -19v-672zM322 -145l-34 -87
c-4 -10 -9 -17 -19 -17h-45c-10 0 -17 6 -15 16l18 79h-19c-10 0 -17 7 -17 17v96c0 10 7 17 17 17h97c10 0 17 -7 17 -17v-104z" />
    <glyph glyph-name="Lacute" unicode="&#x139;" horiz-adv-x="505" 
d="M465 19c0 -11 -8 -19 -19 -19h-367c-11 0 -19 8 -19 19v672c0 11 8 19 19 19h97c11 0 19 -8 19 -19v-566h251c11 0 19 -8 19 -19v-87zM281 889l-80 -110c-7 -9 -16 -19 -27 -19h-99c-12 0 -16 11 -11 21l57 110c5 10 16 19 27 19h123c12 0 17 -12 10 -21z" />
    <glyph glyph-name="lacute" unicode="&#x13a;" horiz-adv-x="255" 
d="M195 19c0 -11 -8 -19 -19 -19h-97c-11 0 -19 8 -19 19v672c0 11 8 19 19 19h97c11 0 19 -8 19 -19v-672zM280 909l-80 -110c-7 -9 -16 -19 -27 -19h-99c-12 0 -16 11 -11 21l57 110c5 10 16 19 27 19h123c12 0 17 -12 10 -21z" />
    <glyph glyph-name="Lcommaaccent" unicode="&#x13b;" horiz-adv-x="505" 
d="M465 19c0 -11 -8 -19 -19 -19h-367c-11 0 -19 8 -19 19v672c0 11 8 19 19 19h97c11 0 19 -8 19 -19v-566h251c11 0 19 -8 19 -19v-87zM339 -145l-34 -87c-4 -10 -9 -17 -19 -17h-45c-10 0 -17 6 -15 16l18 79h-19c-10 0 -17 7 -17 17v96c0 10 7 17 17 17h97
c10 0 17 -7 17 -17v-104z" />
    <glyph glyph-name="lcommaaccent" unicode="&#x13c;" horiz-adv-x="255" 
d="M195 19c0 -11 -8 -19 -19 -19h-97c-11 0 -19 8 -19 19v672c0 11 8 19 19 19h97c11 0 19 -8 19 -19v-672zM194 -145l-34 -87c-4 -10 -9 -17 -19 -17h-45c-10 0 -17 6 -15 16l18 79h-19c-10 0 -17 7 -17 17v96c0 10 7 17 17 17h97c10 0 17 -7 17 -17v-104z" />
    <glyph glyph-name="Lcaron" unicode="&#x13d;" horiz-adv-x="505" 
d="M465 19c0 -11 -8 -19 -19 -19h-367c-11 0 -19 8 -19 19v672c0 11 8 19 19 19h97c11 0 19 -8 19 -19v-566h251c11 0 19 -8 19 -19v-87zM364 603l-43 -66c-5 -8 -15 -17 -24 -17h-39c-10 0 -20 8 -15 16l26 43h-19c-10 0 -17 7 -17 17v97c0 10 7 17 17 17h97
c10 0 17 -7 17 -17v-90z" />
    <glyph glyph-name="lcaron" unicode="&#x13e;" horiz-adv-x="255" 
d="M195 19c0 -11 -8 -19 -19 -19h-97c-11 0 -19 8 -19 19v672c0 11 8 19 19 19h97c11 0 19 -8 19 -19v-672zM364 603l-43 -66c-5 -8 -15 -17 -24 -17h-39c-10 0 -20 8 -15 16l26 43h-19c-10 0 -17 7 -17 17v97c0 10 7 17 17 17h97c10 0 17 -7 17 -17v-90z" />
    <glyph glyph-name="Ldot" unicode="&#x13f;" horiz-adv-x="505" 
d="M465 19c0 -11 -8 -19 -19 -19h-367c-11 0 -19 8 -19 19v672c0 11 8 19 19 19h97c11 0 19 -8 19 -19v-566h251c11 0 19 -8 19 -19v-87zM400 347c0 -11 -8 -19 -19 -19h-97c-11 0 -19 8 -19 19v97c0 11 8 19 19 19h97c11 0 19 -8 19 -19v-97z" />
    <glyph glyph-name="ldot" unicode="&#x140;" horiz-adv-x="335" 
d="M195 19c0 -11 -8 -19 -19 -19h-97c-11 0 -19 8 -19 19v672c0 11 8 19 19 19h97c11 0 19 -8 19 -19v-672zM355 307c0 -11 -8 -19 -19 -19h-97c-11 0 -19 8 -19 19v97c0 11 8 19 19 19h97c11 0 19 -8 19 -19v-97z" />
    <glyph glyph-name="Lslash" unicode="&#x141;" horiz-adv-x="505" 
d="M465 19c0 -11 -8 -19 -19 -19h-367c-11 0 -19 8 -19 19v295l-21 -5c-11 -3 -19 4 -19 15v41c0 11 8 16 19 19l21 5v302c0 11 8 19 19 19h97c11 0 19 -8 19 -19v-273l121 26c11 2 19 -3 19 -14v-42c0 -11 -8 -17 -19 -19l-121 -26v-218h251c11 0 19 -8 19 -19v-87z" />
    <glyph glyph-name="lslash" unicode="&#x142;" horiz-adv-x="255" 
d="M235 366c0 -11 -8 -16 -19 -19l-21 -5v-323c0 -11 -8 -19 -19 -19h-97c-11 0 -19 8 -19 19v295l-21 -5c-11 -3 -19 4 -19 15v41c0 11 8 16 19 19l21 5v302c0 11 8 19 19 19h97c11 0 19 -8 19 -19v-274l21 5c11 3 19 -3 19 -14v-42z" />
    <glyph glyph-name="Nacute" unicode="&#x143;" horiz-adv-x="610" 
d="M550 19c0 -11 -8 -19 -19 -19h-101c-13 0 -20 9 -25 19l-210 405v-405c0 -11 -8 -19 -19 -19h-97c-11 0 -19 8 -19 19v672c0 11 8 19 19 19h101c15 0 20 -9 25 -19l210 -405v405c0 11 8 19 19 19h97c11 0 19 -8 19 -19v-672zM459 889l-80 -110c-7 -9 -16 -19 -27 -19h-99
c-12 0 -16 11 -11 21l57 110c5 10 16 19 27 19h123c12 0 17 -12 10 -21z" />
    <glyph glyph-name="nacute" unicode="&#x144;" 
d="M465 19c0 -11 -8 -19 -19 -19h-97c-11 0 -19 8 -19 19v301c0 41 -14 65 -58 65c-24 0 -52 -9 -77 -21v-345c0 -11 -8 -19 -19 -19h-97c-11 0 -19 8 -19 19v462c0 11 8 19 19 19h87c11 0 19 -8 19 -19v-14c31 22 75 43 130 43c113 0 150 -68 150 -170v-321zM418 699
l-80 -110c-7 -9 -16 -19 -27 -19h-99c-12 0 -16 11 -11 21l57 110c5 10 16 19 27 19h123c12 0 17 -12 10 -21z" />
    <glyph glyph-name="Ncommaaccent" unicode="&#x145;" horiz-adv-x="610" 
d="M550 19c0 -11 -8 -19 -19 -19h-101c-13 0 -20 9 -25 19l-210 405v-405c0 -11 -8 -19 -19 -19h-97c-11 0 -19 8 -19 19v672c0 11 8 19 19 19h101c15 0 20 -9 25 -19l210 -405v405c0 11 8 19 19 19h97c11 0 19 -8 19 -19v-672zM382 -145l-34 -87c-4 -10 -9 -17 -19 -17h-45
c-10 0 -17 6 -15 16l18 79h-19c-10 0 -17 7 -17 17v96c0 10 7 17 17 17h97c10 0 17 -7 17 -17v-104z" />
    <glyph glyph-name="ncommaaccent" unicode="&#x146;" 
d="M465 19c0 -11 -8 -19 -19 -19h-97c-11 0 -19 8 -19 19v301c0 41 -14 65 -58 65c-24 0 -52 -9 -77 -21v-345c0 -11 -8 -19 -19 -19h-97c-11 0 -19 8 -19 19v462c0 11 8 19 19 19h87c11 0 19 -8 19 -19v-14c31 22 75 43 130 43c113 0 150 -68 150 -170v-321zM329 -145
l-34 -87c-4 -10 -9 -17 -19 -17h-45c-10 0 -17 6 -15 16l18 79h-19c-10 0 -17 7 -17 17v96c0 10 7 17 17 17h97c10 0 17 -7 17 -17v-104z" />
    <glyph glyph-name="Ncaron" unicode="&#x147;" horiz-adv-x="610" 
d="M550 19c0 -11 -8 -19 -19 -19h-101c-13 0 -20 9 -25 19l-210 405v-405c0 -11 -8 -19 -19 -19h-97c-11 0 -19 8 -19 19v672c0 11 8 19 19 19h101c15 0 20 -9 25 -19l210 -405v405c0 11 8 19 19 19h97c11 0 19 -8 19 -19v-672zM461 830c0 -11 -9 -14 -19 -19l-110 -56
c-21 -11 -33 -9 -51 0l-111 56c-10 5 -19 8 -19 19v86c0 11 9 17 19 13l136 -58l136 58c10 4 19 -2 19 -13v-86z" />
    <glyph glyph-name="ncaron" unicode="&#x148;" 
d="M465 19c0 -11 -8 -19 -19 -19h-97c-11 0 -19 8 -19 19v301c0 41 -14 65 -58 65c-24 0 -52 -9 -77 -21v-345c0 -11 -8 -19 -19 -19h-97c-11 0 -19 8 -19 19v462c0 11 8 19 19 19h87c11 0 19 -8 19 -19v-14c31 22 75 43 130 43c113 0 150 -68 150 -170v-321zM421 618
c0 -11 -9 -14 -19 -19l-110 -56c-21 -11 -33 -9 -51 0l-111 56c-10 5 -19 8 -19 19v89c0 11 9 17 19 13l136 -58l136 58c10 4 19 -2 19 -13v-89z" />
    <glyph glyph-name="napostrophe" unicode="&#x149;" 
d="M465 19c0 -11 -8 -19 -19 -19h-97c-11 0 -19 8 -19 19v301c0 41 -14 65 -58 65c-24 0 -52 -9 -77 -21v-345c0 -11 -8 -19 -19 -19h-97c-11 0 -19 8 -19 19v462c0 11 8 19 19 19h87c11 0 19 -8 19 -19v-14c31 22 75 43 130 43c113 0 150 -68 150 -170v-321zM131 603
l-43 -66c-5 -8 -15 -17 -24 -17h-39c-10 0 -20 8 -15 16l26 43h-19c-10 0 -17 7 -17 17v97c0 10 7 17 17 17h97c10 0 17 -7 17 -17v-90z" />
    <glyph glyph-name="Omacron" unicode="&#x14c;" horiz-adv-x="610" 
d="M550 250c0 -166 -85 -260 -245 -260s-245 94 -245 260v210c0 166 85 260 245 260s245 -94 245 -260v-210zM415 260v190c0 83 -25 145 -110 145s-110 -62 -110 -145v-190c0 -83 25 -145 110 -145s110 62 110 145zM433 804c0 -11 -8 -19 -19 -19h-217c-11 0 -19 8 -19 19
v77c0 11 8 19 19 19h217c11 0 19 -8 19 -19v-77z" />
    <glyph glyph-name="omacron" unicode="&#x14d;" horiz-adv-x="526" 
d="M466 190c0 -135 -75 -200 -203 -200s-203 65 -203 200v120c0 135 75 200 203 200s203 -65 203 -200v-120zM331 188v125c0 45 -16 80 -68 80s-68 -35 -68 -80v-125c0 -45 16 -80 68 -80s68 35 68 80zM391 604c0 -11 -8 -19 -19 -19h-217c-11 0 -19 8 -19 19v77
c0 11 8 19 19 19h217c11 0 19 -8 19 -19v-77z" />
    <glyph glyph-name="Obreve" unicode="&#x14e;" horiz-adv-x="610" 
d="M550 250c0 -166 -85 -260 -245 -260s-245 94 -245 260v210c0 166 85 260 245 260s245 -94 245 -260v-210zM415 260v190c0 83 -25 145 -110 145s-110 -62 -110 -145v-190c0 -83 25 -145 110 -145s110 62 110 145zM463 908c0 -112 -52 -161 -158 -161s-158 49 -158 161
c0 11 8 19 19 19h82c11 0 19 -8 19 -19c0 -50 14 -66 38 -66s38 16 38 66c0 11 8 19 19 19h82c11 0 19 -8 19 -19z" />
    <glyph glyph-name="obreve" unicode="&#x14f;" horiz-adv-x="526" 
d="M466 190c0 -135 -75 -200 -203 -200s-203 65 -203 200v120c0 135 75 200 203 200s203 -65 203 -200v-120zM331 188v125c0 45 -16 80 -68 80s-68 -35 -68 -80v-125c0 -45 16 -80 68 -80s68 35 68 80zM421 696c0 -112 -52 -161 -158 -161s-158 49 -158 161c0 11 8 19 19 19
h82c11 0 19 -8 19 -19c0 -50 14 -66 38 -66s38 16 38 66c0 11 8 19 19 19h82c11 0 19 -8 19 -19z" />
    <glyph glyph-name="Ohungarumlaut" unicode="&#x150;" horiz-adv-x="610" 
d="M550 250c0 -166 -85 -260 -245 -260s-245 94 -245 260v210c0 166 85 260 245 260s245 -94 245 -260v-210zM415 260v190c0 83 -25 145 -110 145s-110 -62 -110 -145v-190c0 -83 25 -145 110 -145s110 62 110 145zM527 918l-66 -142c-5 -10 -14 -19 -25 -19h-92
c-11 0 -18 9 -13 19l66 142c5 10 13 19 24 19h92c11 0 19 -9 14 -19zM337 918l-66 -142c-5 -10 -14 -19 -25 -19h-92c-11 0 -18 9 -13 19l66 142c5 10 13 19 24 19h92c11 0 19 -9 14 -19z" />
    <glyph glyph-name="ohungarumlaut" unicode="&#x151;" horiz-adv-x="526" 
d="M466 190c0 -135 -75 -200 -203 -200s-203 65 -203 200v120c0 135 75 200 203 200s203 -65 203 -200v-120zM331 188v125c0 45 -16 80 -68 80s-68 -35 -68 -80v-125c0 -45 16 -80 68 -80s68 35 68 80zM485 731l-66 -142c-5 -10 -14 -19 -25 -19h-92c-11 0 -18 9 -13 19
l66 142c5 10 13 19 24 19h92c11 0 19 -9 14 -19zM295 731l-66 -142c-5 -10 -14 -19 -25 -19h-92c-11 0 -18 9 -13 19l66 142c5 10 13 19 24 19h92c11 0 19 -9 14 -19z" />
    <glyph glyph-name="OE" unicode="&#x152;" horiz-adv-x="810" 
d="M770 19c0 -11 -8 -19 -19 -19h-317c-11 0 -19 8 -19 19v15c-26 -27 -61 -44 -110 -44c-160 0 -245 94 -245 260v210c0 166 85 260 245 260c49 0 84 -16 110 -42v13c0 11 8 19 19 19h317c11 0 19 -8 19 -19v-87c0 -11 -8 -19 -19 -19h-201v-160h181c11 0 19 -8 19 -19v-87
c0 -11 -8 -19 -19 -19h-181v-175h201c11 0 19 -8 19 -19v-87zM415 260v190c0 83 -25 145 -110 145s-110 -62 -110 -145v-190c0 -83 25 -145 110 -145s110 62 110 145z" />
    <glyph glyph-name="oe" unicode="&#x153;" horiz-adv-x="791" 
d="M736 214c0 -11 -8 -19 -19 -19h-249c7 -55 36 -82 98 -82c54 0 131 13 131 13c12 1 19 -5 19 -16v-86c0 -11 -7 -19 -19 -20c0 0 -73 -14 -139 -14c-63 0 -115 15 -152 48c-32 -32 -80 -48 -143 -48c-128 0 -203 65 -203 200v120c0 135 75 200 203 200
c62 0 110 -15 142 -47c32 30 76 47 134 47c140 0 197 -95 197 -212v-84zM611 292v14c0 57 -16 91 -70 91c-57 0 -74 -37 -75 -105h145zM331 188v125c0 45 -16 80 -68 80s-68 -35 -68 -80v-125c0 -45 16 -80 68 -80s68 35 68 80z" />
    <glyph glyph-name="Racute" unicode="&#x154;" horiz-adv-x="580" 
d="M548 20c6 -9 0 -20 -11 -20h-114c-11 0 -18 10 -24 19l-155 261h-49v-261c0 -11 -8 -19 -19 -19h-97c-11 0 -19 8 -19 19v672c0 11 8 19 19 19h221c144 0 230 -62 230 -215c0 -118 -53 -182 -143 -205zM395 495c0 73 -38 95 -110 95h-90v-190h87c72 0 113 22 113 95z
M428 889l-80 -110c-7 -9 -16 -19 -27 -19h-99c-12 0 -16 11 -11 21l57 110c5 10 16 19 27 19h123c12 0 17 -12 10 -21z" />
    <glyph glyph-name="racute" unicode="&#x155;" horiz-adv-x="330" 
d="M315 373c0 -11 -5 -19 -16 -18c0 0 -6 1 -10 1c-42 0 -73 -27 -94 -59v-278c0 -11 -8 -19 -19 -19h-97c-11 0 -19 8 -19 19v462c0 11 8 19 19 19h87c11 0 19 -8 19 -19v-38c14 36 40 67 91 67c11 0 22 -2 22 -2c13 -1 17 -8 17 -19v-116zM339 699l-80 -110
c-7 -9 -16 -19 -27 -19h-99c-12 0 -16 11 -11 21l57 110c5 10 16 19 27 19h123c12 0 17 -12 10 -21z" />
    <glyph glyph-name="Rcommaaccent" unicode="&#x156;" horiz-adv-x="580" 
d="M548 20c6 -9 0 -20 -11 -20h-114c-11 0 -18 10 -24 19l-155 261h-49v-261c0 -11 -8 -19 -19 -19h-97c-11 0 -19 8 -19 19v672c0 11 8 19 19 19h221c144 0 230 -62 230 -215c0 -118 -53 -182 -143 -205zM395 495c0 73 -38 95 -110 95h-90v-190h87c72 0 113 22 113 95z
M365 -145l-34 -87c-4 -10 -9 -17 -19 -17h-45c-10 0 -17 6 -15 16l18 79h-19c-10 0 -17 7 -17 17v96c0 10 7 17 17 17h97c10 0 17 -7 17 -17v-104z" />
    <glyph glyph-name="rcommaaccent" unicode="&#x157;" horiz-adv-x="330" 
d="M315 373c0 -11 -5 -19 -16 -18c0 0 -6 1 -10 1c-42 0 -73 -27 -94 -59v-278c0 -11 -8 -19 -19 -19h-97c-11 0 -19 8 -19 19v462c0 11 8 19 19 19h87c11 0 19 -8 19 -19v-38c14 36 40 67 91 67c11 0 22 -2 22 -2c13 -1 17 -8 17 -19v-116zM194 -145l-34 -87
c-4 -10 -9 -17 -19 -17h-45c-10 0 -17 6 -15 16l18 79h-19c-10 0 -17 7 -17 17v96c0 10 7 17 17 17h97c10 0 17 -7 17 -17v-104z" />
    <glyph glyph-name="Rcaron" unicode="&#x158;" horiz-adv-x="580" 
d="M548 20c6 -9 0 -20 -11 -20h-114c-11 0 -18 10 -24 19l-155 261h-49v-261c0 -11 -8 -19 -19 -19h-97c-11 0 -19 8 -19 19v672c0 11 8 19 19 19h221c144 0 230 -62 230 -215c0 -118 -53 -182 -143 -205zM395 495c0 73 -38 95 -110 95h-90v-190h87c72 0 113 22 113 95z
M430 830c0 -11 -9 -14 -19 -19l-110 -56c-21 -11 -33 -9 -51 0l-111 56c-10 5 -19 8 -19 19v86c0 11 9 17 19 13l136 -58l136 58c10 4 19 -2 19 -13v-86z" />
    <glyph glyph-name="rcaron" unicode="&#x159;" horiz-adv-x="330" 
d="M315 373c0 -11 -5 -19 -16 -18c0 0 -6 1 -10 1c-42 0 -73 -27 -94 -59v-278c0 -11 -8 -19 -19 -19h-97c-11 0 -19 8 -19 19v462c0 11 8 19 19 19h87c11 0 19 -8 19 -19v-38c14 36 40 67 91 67c11 0 22 -2 22 -2c13 -1 17 -8 17 -19v-116zM342 618c0 -11 -9 -14 -19 -19
l-110 -56c-21 -11 -33 -9 -51 0l-111 56c-10 5 -19 8 -19 19v89c0 11 9 17 19 13l136 -58l136 58c10 4 19 -2 19 -13v-89z" />
    <glyph glyph-name="Sacute" unicode="&#x15a;" horiz-adv-x="535" 
d="M480 197c0 -156 -78 -207 -232 -207c-79 0 -179 22 -179 22c-11 1 -19 8 -19 19v91c0 11 8 17 20 15c0 0 113 -22 170 -22c76 0 105 24 105 82v20c0 44 -34 61 -78 76l-85 28c-71 23 -127 71 -127 176v25c0 142 103 198 228 198c77 0 168 -18 168 -18c11 -1 19 -8 19 -19
v-88c0 -11 -7 -17 -19 -16c0 0 -101 16 -166 16c-69 0 -95 -25 -95 -73v-15c0 -33 24 -51 59 -63l85 -28c76 -25 146 -65 146 -189v-30zM430 889l-80 -110c-7 -9 -16 -19 -27 -19h-99c-12 0 -16 11 -11 21l57 110c5 10 16 19 27 19h123c12 0 17 -12 10 -21z" />
    <glyph glyph-name="sacute" unicode="&#x15b;" horiz-adv-x="485" 
d="M435 162c0 -130 -70 -172 -198 -172c-85 0 -173 24 -173 24c-13 3 -19 8 -19 19v83c0 11 7 18 19 16c0 0 102 -22 161 -22c57 0 75 12 75 37c0 26 -28 32 -65 37l-35 5c-62 9 -150 33 -150 154c0 120 84 167 198 167c81 0 148 -17 148 -17c13 -3 19 -8 19 -19v-82
c0 -11 -6 -17 -19 -16c0 0 -82 14 -141 14c-53 0 -70 -10 -70 -35c0 -24 27 -28 58 -32l42 -6c68 -10 150 -38 150 -155zM391 699l-80 -110c-7 -9 -16 -19 -27 -19h-99c-12 0 -16 11 -11 21l57 110c5 10 16 19 27 19h123c12 0 17 -12 10 -21z" />
    <glyph glyph-name="Scircumflex" unicode="&#x15c;" horiz-adv-x="535" 
d="M480 197c0 -156 -78 -207 -232 -207c-79 0 -179 22 -179 22c-11 1 -19 8 -19 19v91c0 11 8 17 20 15c0 0 113 -22 170 -22c76 0 105 24 105 82v20c0 44 -34 61 -78 76l-85 28c-71 23 -127 71 -127 176v25c0 142 103 198 228 198c77 0 168 -18 168 -18c11 -1 19 -8 19 -19
v-88c0 -11 -7 -17 -19 -16c0 0 -101 16 -166 16c-69 0 -95 -25 -95 -73v-15c0 -33 24 -51 59 -63l85 -28c76 -25 146 -65 146 -189v-30zM431 768c0 -11 -9 -17 -19 -13l-136 58l-136 -58c-10 -4 -19 2 -19 13v86c0 11 9 14 19 19l111 56c18 9 30 11 51 0l110 -56
c10 -5 19 -8 19 -19v-86z" />
    <glyph glyph-name="scircumflex" unicode="&#x15d;" horiz-adv-x="485" 
d="M435 162c0 -130 -70 -172 -198 -172c-85 0 -173 24 -173 24c-13 3 -19 8 -19 19v83c0 11 7 18 19 16c0 0 102 -22 161 -22c57 0 75 12 75 37c0 26 -28 32 -65 37l-35 5c-62 9 -150 33 -150 154c0 120 84 167 198 167c81 0 148 -17 148 -17c13 -3 19 -8 19 -19v-82
c0 -11 -6 -17 -19 -16c0 0 -82 14 -141 14c-53 0 -70 -10 -70 -35c0 -24 27 -28 58 -32l42 -6c68 -10 150 -38 150 -155zM393 559c0 -11 -9 -17 -19 -13l-136 58l-136 -58c-10 -4 -19 2 -19 13v86c0 11 9 14 19 19l111 56c18 9 30 11 51 0l110 -56c10 -5 19 -8 19 -19v-86z
" />
    <glyph glyph-name="Scedilla" unicode="&#x15e;" horiz-adv-x="535" 
d="M365 -115c0 -69 -47 -85 -103 -85c-33 0 -73 7 -73 7c-11 1 -19 8 -19 19v27c0 11 7 17 18 17h20c24 0 37 6 37 26c0 19 -12 24 -34 24h-16c-11 0 -16 8 -14 19l12 54c-64 6 -124 19 -124 19c-11 1 -19 8 -19 19v91c0 11 8 17 20 15c0 0 113 -22 170 -22
c76 0 105 24 105 82v20c0 44 -34 61 -78 76l-85 28c-71 23 -127 71 -127 176v25c0 142 103 198 228 198c77 0 168 -18 168 -18c11 -1 19 -8 19 -19v-88c0 -11 -7 -17 -19 -16c0 0 -101 16 -166 16c-69 0 -95 -25 -95 -73v-15c0 -33 24 -51 59 -63l85 -28
c76 -25 146 -65 146 -189v-30c0 -144 -67 -198 -198 -206l-4 -19h4c47 0 83 -20 83 -87z" />
    <glyph glyph-name="scedilla" unicode="&#x15f;" horiz-adv-x="485" 
d="M344 -115c0 -69 -47 -85 -103 -85c-33 0 -73 7 -73 7c-11 1 -19 8 -19 19v27c0 11 7 17 18 17h20c24 0 37 6 37 26c0 19 -12 24 -34 24h-16c-11 0 -16 8 -14 19l12 55c-60 7 -108 20 -108 20c-13 3 -19 8 -19 19v83c0 11 7 18 19 16c0 0 102 -22 161 -22
c57 0 75 12 75 37c0 26 -28 32 -65 37l-35 5c-62 9 -150 33 -150 154c0 120 84 167 198 167c81 0 148 -17 148 -17c13 -3 19 -8 19 -19v-82c0 -11 -6 -17 -19 -16c0 0 -82 14 -141 14c-53 0 -70 -10 -70 -35c0 -24 27 -28 58 -32l42 -6c68 -10 150 -38 150 -155
c0 -122 -61 -166 -174 -171l-4 -19h4c47 0 83 -20 83 -87z" />
    <glyph glyph-name="Scaron" unicode="&#x160;" horiz-adv-x="535" 
d="M423 830c0 -11 -9 -14 -19 -19l-110 -56c-21 -11 -33 -9 -51 0l-111 56c-10 5 -19 8 -19 19v86c0 11 9 17 19 13l136 -58l136 58c10 4 19 -2 19 -13v-86zM480 197c0 -156 -78 -207 -232 -207c-79 0 -179 22 -179 22c-11 1 -19 8 -19 19v91c0 11 8 17 20 15
c0 0 113 -22 170 -22c76 0 105 24 105 82v20c0 44 -34 61 -78 76l-85 28c-71 23 -127 71 -127 176v25c0 142 103 198 228 198c77 0 168 -18 168 -18c11 -1 19 -8 19 -19v-88c0 -11 -7 -17 -19 -16c0 0 -101 16 -166 16c-69 0 -95 -25 -95 -73v-15c0 -33 24 -51 59 -63
l85 -28c76 -25 146 -65 146 -189v-30z" />
    <glyph glyph-name="scaron" unicode="&#x161;" horiz-adv-x="485" 
d="M398 618c0 -11 -9 -14 -19 -19l-110 -56c-21 -11 -33 -9 -51 0l-111 56c-10 5 -19 8 -19 19v89c0 11 9 17 19 13l136 -58l136 58c10 4 19 -2 19 -13v-89zM435 162c0 -130 -70 -172 -198 -172c-85 0 -173 24 -173 24c-13 3 -19 8 -19 19v83c0 11 7 18 19 16
c0 0 102 -22 161 -22c57 0 75 12 75 37c0 26 -28 32 -65 37l-35 5c-62 9 -150 33 -150 154c0 120 84 167 198 167c81 0 148 -17 148 -17c13 -3 19 -8 19 -19v-82c0 -11 -6 -17 -19 -16c0 0 -82 14 -141 14c-53 0 -70 -10 -70 -35c0 -24 27 -28 58 -32l42 -6
c68 -10 150 -38 150 -155z" />
    <glyph glyph-name="Tcommaaccent" unicode="&#x162;" horiz-adv-x="550" 
d="M520 604c0 -11 -8 -19 -19 -19h-158v-566c0 -11 -8 -19 -19 -19h-97c-11 0 -19 8 -19 19v566h-159c-11 0 -19 8 -19 19v87c0 11 8 19 19 19h452c11 0 19 -8 19 -19v-87zM342 -145l-34 -87c-4 -10 -9 -17 -19 -17h-45c-10 0 -17 6 -15 16l18 79h-19c-10 0 -17 7 -17 17v96
c0 10 7 17 17 17h97c10 0 17 -7 17 -17v-104z" />
    <glyph glyph-name="tcommaaccent" unicode="&#x163;" horiz-adv-x="355" 
d="M345 17c0 -11 -7 -18 -19 -20c0 0 -51 -7 -98 -7c-95 0 -148 50 -148 165v230h-51c-11 0 -19 8 -19 19v77c0 11 8 19 19 19h51v111c0 11 8 19 19 19h97c11 0 19 -8 19 -19v-111h111c11 0 19 -8 19 -19v-77c0 -11 -8 -19 -19 -19h-111v-213c0 -41 18 -57 51 -57
c23 0 60 6 60 6c12 1 19 -3 19 -14v-90zM275 -145l-34 -87c-4 -10 -9 -17 -19 -17h-45c-10 0 -17 6 -15 16l18 79h-19c-10 0 -17 7 -17 17v96c0 10 7 17 17 17h97c10 0 17 -7 17 -17v-104z" />
    <glyph glyph-name="Tcaron" unicode="&#x164;" horiz-adv-x="550" 
d="M520 604c0 -11 -8 -19 -19 -19h-158v-566c0 -11 -8 -19 -19 -19h-97c-11 0 -19 8 -19 19v566h-159c-11 0 -19 8 -19 19v87c0 11 8 19 19 19h452c11 0 19 -8 19 -19v-87zM431 830c0 -11 -9 -14 -19 -19l-110 -56c-21 -11 -33 -9 -51 0l-111 56c-10 5 -19 8 -19 19v86
c0 11 9 17 19 13l136 -58l136 58c10 4 19 -2 19 -13v-86z" />
    <glyph glyph-name="tcaron" unicode="&#x165;" horiz-adv-x="355" 
d="M345 17c0 -11 -7 -18 -19 -20c0 0 -51 -7 -98 -7c-95 0 -148 50 -148 165v230h-51c-11 0 -19 8 -19 19v77c0 11 8 19 19 19h51v111c0 11 8 19 19 19h97c11 0 19 -8 19 -19v-111h111c11 0 19 -8 19 -19v-77c0 -11 -8 -19 -19 -19h-111v-213c0 -41 18 -57 51 -57
c23 0 60 6 60 6c12 1 19 -3 19 -14v-90zM384 603l-43 -66c-5 -8 -15 -17 -24 -17h-39c-10 0 -20 8 -15 16l26 43h-19c-10 0 -17 7 -17 17v97c0 10 7 17 17 17h97c10 0 17 -7 17 -17v-90z" />
    <glyph glyph-name="Tbar" unicode="&#x166;" horiz-adv-x="550" 
d="M463 314c0 -11 -8 -19 -19 -19h-101v-276c0 -11 -8 -19 -19 -19h-97c-11 0 -19 8 -19 19v276h-101c-11 0 -19 8 -19 19v82c0 11 8 19 19 19h101v170h-159c-11 0 -19 8 -19 19v87c0 11 8 19 19 19h452c11 0 19 -8 19 -19v-87c0 -11 -8 -19 -19 -19h-158v-170h101
c11 0 19 -8 19 -19v-82z" />
    <glyph glyph-name="tbar" unicode="&#x167;" horiz-adv-x="355" 
d="M260 232c0 -11 -8 -19 -19 -19h-26v-41c0 -41 18 -57 51 -57c23 0 60 6 60 6c12 1 19 -3 19 -14v-90c0 -11 -7 -18 -19 -20c0 0 -51 -7 -98 -7c-95 0 -148 50 -148 165v58h-26c-11 0 -19 8 -19 19v77c0 11 8 19 19 19h26v57h-51c-11 0 -19 8 -19 19v77c0 11 8 19 19 19
h51v111c0 11 8 19 19 19h97c11 0 19 -8 19 -19v-111h111c11 0 19 -8 19 -19v-77c0 -11 -8 -19 -19 -19h-111v-57h26c11 0 19 -8 19 -19v-77z" />
    <glyph glyph-name="Utilde" unicode="&#x168;" horiz-adv-x="610" 
d="M550 260c0 -191 -89 -270 -245 -270s-245 79 -245 270v431c0 11 8 19 19 19h97c11 0 19 -8 19 -19v-431c0 -83 25 -145 110 -145s110 62 110 145v431c0 11 8 19 19 19h97c11 0 19 -8 19 -19v-431zM460 814c0 -13 -8 -24 -19 -32c0 0 -26 -22 -65 -22
c-51 0 -102 36 -141 36c-28 0 -65 -24 -65 -24c-10 -4 -20 0 -20 11v72c0 13 9 23 19 32c0 0 26 22 65 22c61 0 107 -36 141 -36c28 0 64 24 64 24c10 4 21 -1 21 -12v-71z" />
    <glyph glyph-name="utilde" unicode="&#x169;" 
d="M465 19c0 -11 -8 -19 -19 -19h-87c-11 0 -19 8 -19 19v14c-31 -22 -75 -43 -130 -43c-113 0 -150 68 -150 170v321c0 11 8 19 19 19h97c11 0 19 -8 19 -19v-301c0 -41 14 -65 58 -65c24 0 52 9 77 21v345c0 11 8 19 19 19h97c11 0 19 -8 19 -19v-462zM417 625
c0 -13 -8 -24 -19 -32c0 0 -26 -22 -65 -22c-51 0 -102 36 -141 36c-28 0 -65 -24 -65 -24c-10 -4 -20 0 -20 11v72c0 13 9 23 19 32c0 0 26 22 65 22c61 0 107 -36 141 -36c28 0 64 24 64 24c10 4 21 -1 21 -12v-71z" />
    <glyph glyph-name="Umacron" unicode="&#x16a;" horiz-adv-x="610" 
d="M550 260c0 -191 -89 -270 -245 -270s-245 79 -245 270v431c0 11 8 19 19 19h97c11 0 19 -8 19 -19v-431c0 -83 25 -145 110 -145s110 62 110 145v431c0 11 8 19 19 19h97c11 0 19 -8 19 -19v-431zM433 804c0 -11 -8 -19 -19 -19h-217c-11 0 -19 8 -19 19v77
c0 11 8 19 19 19h217c11 0 19 -8 19 -19v-77z" />
    <glyph glyph-name="umacron" unicode="&#x16b;" 
d="M465 19c0 -11 -8 -19 -19 -19h-87c-11 0 -19 8 -19 19v14c-31 -22 -75 -43 -130 -43c-113 0 -150 68 -150 170v321c0 11 8 19 19 19h97c11 0 19 -8 19 -19v-301c0 -41 14 -65 58 -65c24 0 52 9 77 21v345c0 11 8 19 19 19h97c11 0 19 -8 19 -19v-462zM390 604
c0 -11 -8 -19 -19 -19h-217c-11 0 -19 8 -19 19v77c0 11 8 19 19 19h217c11 0 19 -8 19 -19v-77z" />
    <glyph glyph-name="Ubreve" unicode="&#x16c;" horiz-adv-x="610" 
d="M550 260c0 -191 -89 -270 -245 -270s-245 79 -245 270v431c0 11 8 19 19 19h97c11 0 19 -8 19 -19v-431c0 -83 25 -145 110 -145s110 62 110 145v431c0 11 8 19 19 19h97c11 0 19 -8 19 -19v-431zM463 908c0 -112 -52 -161 -158 -161s-158 49 -158 161c0 11 8 19 19 19
h82c11 0 19 -8 19 -19c0 -50 14 -66 38 -66s38 16 38 66c0 11 8 19 19 19h82c11 0 19 -8 19 -19z" />
    <glyph glyph-name="ubreve" unicode="&#x16d;" 
d="M465 19c0 -11 -8 -19 -19 -19h-87c-11 0 -19 8 -19 19v14c-31 -22 -75 -43 -130 -43c-113 0 -150 68 -150 170v321c0 11 8 19 19 19h97c11 0 19 -8 19 -19v-301c0 -41 14 -65 58 -65c24 0 52 9 77 21v345c0 11 8 19 19 19h97c11 0 19 -8 19 -19v-462zM420 696
c0 -112 -52 -161 -158 -161s-158 49 -158 161c0 11 8 19 19 19h82c11 0 19 -8 19 -19c0 -50 14 -66 38 -66s38 16 38 66c0 11 8 19 19 19h82c11 0 19 -8 19 -19z" />
    <glyph glyph-name="Uring" unicode="&#x16e;" horiz-adv-x="610" 
d="M550 260c0 -191 -89 -270 -245 -270s-245 79 -245 270v431c0 11 8 19 19 19h97c11 0 19 -8 19 -19v-431c0 -83 25 -145 110 -145s110 62 110 145v431c0 11 8 19 19 19h97c11 0 19 -8 19 -19v-431zM430 735c0 -68 -47 -110 -125 -110c-77 0 -125 42 -125 110
s47 110 125 110c77 0 125 -42 125 -110zM345 735c0 26 -11 45 -40 45s-40 -19 -40 -45s11 -45 40 -45s40 19 40 45z" />
    <glyph glyph-name="uring" unicode="&#x16f;" 
d="M465 19c0 -11 -8 -19 -19 -19h-87c-11 0 -19 8 -19 19v14c-31 -22 -75 -43 -130 -43c-113 0 -150 68 -150 170v321c0 11 8 19 19 19h97c11 0 19 -8 19 -19v-301c0 -41 14 -65 58 -65c24 0 52 9 77 21v345c0 11 8 19 19 19h97c11 0 19 -8 19 -19v-462zM387 650
c0 -68 -47 -110 -125 -110c-77 0 -125 42 -125 110s47 110 125 110c77 0 125 -42 125 -110zM302 650c0 26 -11 45 -40 45s-40 -19 -40 -45s11 -45 40 -45s40 19 40 45z" />
    <glyph glyph-name="Uhungarumlaut" unicode="&#x170;" horiz-adv-x="610" 
d="M550 260c0 -191 -89 -270 -245 -270s-245 79 -245 270v431c0 11 8 19 19 19h97c11 0 19 -8 19 -19v-431c0 -83 25 -145 110 -145s110 62 110 145v431c0 11 8 19 19 19h97c11 0 19 -8 19 -19v-431zM527 918l-66 -142c-5 -10 -14 -19 -25 -19h-92c-11 0 -18 9 -13 19
l66 142c5 10 13 19 24 19h92c11 0 19 -9 14 -19zM337 918l-66 -142c-5 -10 -14 -19 -25 -19h-92c-11 0 -18 9 -13 19l66 142c5 10 13 19 24 19h92c11 0 19 -9 14 -19z" />
    <glyph glyph-name="uhungarumlaut" unicode="&#x171;" 
d="M465 19c0 -11 -8 -19 -19 -19h-87c-11 0 -19 8 -19 19v14c-31 -22 -75 -43 -130 -43c-113 0 -150 68 -150 170v321c0 11 8 19 19 19h97c11 0 19 -8 19 -19v-301c0 -41 14 -65 58 -65c24 0 52 9 77 21v345c0 11 8 19 19 19h97c11 0 19 -8 19 -19v-462zM484 731l-66 -142
c-5 -10 -14 -19 -25 -19h-92c-11 0 -18 9 -13 19l66 142c5 10 13 19 24 19h92c11 0 19 -9 14 -19zM294 731l-66 -142c-5 -10 -14 -19 -25 -19h-92c-11 0 -18 9 -13 19l66 142c5 10 13 19 24 19h92c11 0 19 -9 14 -19z" />
    <glyph glyph-name="Uogonek" unicode="&#x172;" horiz-adv-x="610" 
d="M550 260c0 -147 -51 -229 -158 -260c-13 -4 -50 -47 -50 -80c0 -11 2 -32 19 -32c13 0 33 9 36 9c6 0 6 -7 6 -11v-59c0 -9 -3 -12 -11 -16c-19 -6 -51 -11 -72 -11c-68 0 -84 57 -84 100c0 47 18 75 37 92c-136 10 -213 90 -213 268v431c0 11 8 19 19 19h97
c11 0 19 -8 19 -19v-431c0 -83 25 -145 110 -145s110 62 110 145v431c0 11 8 19 19 19h97c11 0 19 -8 19 -19v-431z" />
    <glyph glyph-name="uogonek" unicode="&#x173;" 
d="M465 19c0 -9 -7 -17 -14 -21c-22 -14 -47 -50 -47 -78c0 -11 2 -32 19 -32c13 0 33 9 36 9c6 0 6 -7 6 -11v-59c0 -9 -3 -12 -11 -16c-19 -6 -51 -11 -72 -11c-68 0 -84 57 -84 100c0 58 28 88 51 102c-6 3 -9 9 -9 17v14c-31 -22 -75 -43 -130 -43
c-113 0 -150 68 -150 170v321c0 11 8 19 19 19h97c11 0 19 -8 19 -19v-301c0 -41 14 -65 58 -65c24 0 52 9 77 21v345c0 11 8 19 19 19h97c11 0 19 -8 19 -19v-462z" />
    <glyph glyph-name="Wcircumflex" unicode="&#x174;" horiz-adv-x="935" 
d="M911 689l-142 -670c-2 -11 -11 -19 -23 -19h-133c-13 0 -20 8 -23 19l-122 447l-123 -447c-3 -11 -10 -19 -23 -19h-133c-12 0 -21 8 -23 19l-142 670c-2 11 2 21 14 21h112c11 0 17 -8 19 -19l98 -499l123 499c3 11 11 19 22 19h111c11 0 19 -8 22 -19l123 -499l98 499
c2 11 8 19 19 19h112c12 0 16 -10 14 -21zM622 768c0 -11 -9 -17 -19 -13l-136 58l-136 -58c-10 -4 -19 2 -19 13v86c0 11 9 14 19 19l111 56c18 9 30 11 51 0l110 -56c10 -5 19 -8 19 -19v-86z" />
    <glyph glyph-name="wcircumflex" unicode="&#x175;" horiz-adv-x="775" 
d="M751 480l-102 -461c-2 -11 -10 -19 -23 -19h-144c-12 0 -19 8 -22 19l-72 259l-73 -259c-3 -11 -10 -19 -23 -19h-144c-12 0 -20 8 -22 19l-102 461c-2 11 5 20 16 20h107c11 0 20 -8 22 -19l61 -319l80 319c3 11 11 19 23 19h109c12 0 20 -8 23 -19l80 -319l62 320
c2 11 11 18 22 18h106c11 0 18 -9 16 -20zM542 559c0 -11 -9 -17 -19 -13l-136 58l-136 -58c-10 -4 -19 2 -19 13v86c0 11 9 14 19 19l111 56c18 9 30 11 51 0l110 -56c10 -5 19 -8 19 -19v-86z" />
    <glyph glyph-name="Ycircumflex" unicode="&#x176;" horiz-adv-x="575" 
d="M556 689l-201 -464v-206c0 -11 -8 -19 -19 -19h-97c-11 0 -19 8 -19 19v206l-201 464c-4 10 2 21 14 21h115c11 0 15 -9 19 -19l121 -306l120 306c4 10 8 19 19 19h115c12 0 18 -11 14 -21zM442 768c0 -11 -9 -17 -19 -13l-136 58l-136 -58c-10 -4 -19 2 -19 13v86
c0 11 9 14 19 19l111 56c18 9 30 11 51 0l110 -56c10 -5 19 -8 19 -19v-86z" />
    <glyph glyph-name="ycircumflex" unicode="&#x177;" horiz-adv-x="500" 
d="M483 480l-222 -652c-3 -10 -10 -18 -21 -18h-108c-11 0 -18 10 -15 20l55 162l-156 489c-3 11 5 19 16 19h106c11 0 19 -6 22 -17l85 -277l94 276c3 10 11 18 22 18h106c11 0 19 -10 16 -20zM404 559c0 -11 -9 -17 -19 -13l-136 58l-136 -58c-10 -4 -19 2 -19 13v86
c0 11 9 14 19 19l111 56c18 9 30 11 51 0l110 -56c10 -5 19 -8 19 -19v-86z" />
    <glyph glyph-name="Ydieresis" unicode="&#x178;" horiz-adv-x="575" 
d="M465 769c0 -11 -8 -19 -19 -19h-97c-11 0 -19 8 -19 19v97c0 11 8 19 19 19h97c11 0 19 -8 19 -19v-97zM245 769c0 -11 -8 -19 -19 -19h-97c-11 0 -19 8 -19 19v97c0 11 8 19 19 19h97c11 0 19 -8 19 -19v-97zM556 689l-201 -464v-206c0 -11 -8 -19 -19 -19h-97
c-11 0 -19 8 -19 19v206l-201 464c-4 10 2 21 14 21h115c11 0 15 -9 19 -19l121 -306l120 306c4 10 8 19 19 19h115c12 0 18 -11 14 -21z" />
    <glyph glyph-name="Zacute" unicode="&#x179;" horiz-adv-x="485" 
d="M445 19c0 -11 -8 -19 -19 -19h-367c-11 0 -19 8 -19 19v106l243 460h-224c-11 0 -19 8 -19 19v87c0 11 8 19 19 19h367c11 0 19 -8 19 -19v-106l-243 -460h224c11 0 19 -8 19 -19v-87zM396 889l-80 -110c-7 -9 -16 -19 -27 -19h-99c-12 0 -16 11 -11 21l57 110
c5 10 16 19 27 19h123c12 0 17 -12 10 -21z" />
    <glyph glyph-name="zacute" unicode="&#x17a;" horiz-adv-x="465" 
d="M425 19c0 -11 -8 -19 -19 -19h-347c-11 0 -19 8 -19 19v101l189 260h-170c-11 0 -19 8 -19 19v82c0 11 8 19 19 19h347c11 0 19 -8 19 -19v-101l-189 -260h170c11 0 19 -8 19 -19v-82zM385 699l-80 -110c-7 -9 -16 -19 -27 -19h-99c-12 0 -16 11 -11 21l57 110
c5 10 16 19 27 19h123c12 0 17 -12 10 -21z" />
    <glyph glyph-name="Zdotaccent" unicode="&#x17b;" horiz-adv-x="485" 
d="M445 19c0 -11 -8 -19 -19 -19h-367c-11 0 -19 8 -19 19v106l243 460h-224c-11 0 -19 8 -19 19v87c0 11 8 19 19 19h367c11 0 19 -8 19 -19v-106l-243 -460h224c11 0 19 -8 19 -19v-87zM310 769c0 -11 -8 -19 -19 -19h-97c-11 0 -19 8 -19 19v97c0 11 8 19 19 19h97
c11 0 19 -8 19 -19v-97z" />
    <glyph glyph-name="zdotaccent" unicode="&#x17c;" horiz-adv-x="465" 
d="M425 19c0 -11 -8 -19 -19 -19h-347c-11 0 -19 8 -19 19v101l189 260h-170c-11 0 -19 8 -19 19v82c0 11 8 19 19 19h347c11 0 19 -8 19 -19v-101l-189 -260h170c11 0 19 -8 19 -19v-82zM300 594c0 -11 -8 -19 -19 -19h-97c-11 0 -19 8 -19 19v97c0 11 8 19 19 19h97
c11 0 19 -8 19 -19v-97z" />
    <glyph glyph-name="Zcaron" unicode="&#x17d;" horiz-adv-x="485" 
d="M398 830c0 -11 -9 -14 -19 -19l-110 -56c-21 -11 -33 -9 -51 0l-111 56c-10 5 -19 8 -19 19v86c0 11 9 17 19 13l136 -58l136 58c10 4 19 -2 19 -13v-86zM445 19c0 -11 -8 -19 -19 -19h-367c-11 0 -19 8 -19 19v106l243 460h-224c-11 0 -19 8 -19 19v87c0 11 8 19 19 19
h367c11 0 19 -8 19 -19v-106l-243 -460h224c11 0 19 -8 19 -19v-87z" />
    <glyph glyph-name="zcaron" unicode="&#x17e;" horiz-adv-x="465" 
d="M388 618c0 -11 -9 -14 -19 -19l-110 -56c-21 -11 -33 -9 -51 0l-111 56c-10 5 -19 8 -19 19v89c0 11 9 17 19 13l136 -58l136 58c10 4 19 -2 19 -13v-89zM425 19c0 -11 -8 -19 -19 -19h-347c-11 0 -19 8 -19 19v101l189 260h-170c-11 0 -19 8 -19 19v82c0 11 8 19 19 19
h347c11 0 19 -8 19 -19v-101l-189 -260h170c11 0 19 -8 19 -19v-82z" />
    <glyph glyph-name="florin" unicode="&#x192;" horiz-adv-x="500" 
d="M415 404c0 -11 -8 -19 -19 -19h-81v-450c0 -98 -42 -135 -119 -135c-39 0 -77 4 -77 4c-11 2 -19 8 -19 19v81c0 11 9 17 19 17c0 0 18 -1 27 -1c23 0 34 11 34 38v427h-71c-11 0 -19 8 -19 19v77c0 11 8 19 19 19h71v57c0 127 76 163 150 163c43 0 66 -6 66 -6
c11 -2 19 -8 19 -19v-85c0 -11 -6 -18 -19 -17c0 0 -21 2 -35 2c-23 0 -46 -7 -46 -44v-51h81c11 0 19 -8 19 -19v-77z" />
    <glyph glyph-name="Scommaaccent" unicode="&#x218;" horiz-adv-x="535" 
d="M480 197c0 -156 -78 -207 -232 -207c-79 0 -179 22 -179 22c-11 1 -19 8 -19 19v91c0 11 8 17 20 15c0 0 113 -22 170 -22c76 0 105 24 105 82v20c0 44 -34 61 -78 76l-85 28c-71 23 -127 71 -127 176v25c0 142 103 198 228 198c77 0 168 -18 168 -18c11 -1 19 -8 19 -19
v-88c0 -11 -7 -17 -19 -16c0 0 -101 16 -166 16c-69 0 -95 -25 -95 -73v-15c0 -33 24 -51 59 -63l85 -28c76 -25 146 -65 146 -189v-30zM335 -145l-34 -87c-4 -10 -9 -17 -19 -17h-45c-10 0 -17 6 -15 16l18 79h-19c-10 0 -17 7 -17 17v96c0 10 7 17 17 17h97
c10 0 17 -7 17 -17v-104z" />
    <glyph glyph-name="scommaaccent" unicode="&#x219;" horiz-adv-x="485" 
d="M435 162c0 -130 -70 -172 -198 -172c-85 0 -173 24 -173 24c-13 3 -19 8 -19 19v83c0 11 7 18 19 16c0 0 102 -22 161 -22c57 0 75 12 75 37c0 26 -28 32 -65 37l-35 5c-62 9 -150 33 -150 154c0 120 84 167 198 167c81 0 148 -17 148 -17c13 -3 19 -8 19 -19v-82
c0 -11 -6 -17 -19 -16c0 0 -82 14 -141 14c-53 0 -70 -10 -70 -35c0 -24 27 -28 58 -32l42 -6c68 -10 150 -38 150 -155zM304 -145l-34 -87c-4 -10 -9 -17 -19 -17h-45c-10 0 -17 6 -15 16l18 79h-19c-10 0 -17 7 -17 17v96c0 10 7 17 17 17h97c10 0 17 -7 17 -17v-104z" />
    <glyph glyph-name="uni021A" unicode="&#x21a;" horiz-adv-x="550" 
d="M520 604c0 -11 -8 -19 -19 -19h-158v-566c0 -11 -8 -19 -19 -19h-97c-11 0 -19 8 -19 19v566h-159c-11 0 -19 8 -19 19v87c0 11 8 19 19 19h452c11 0 19 -8 19 -19v-87zM342 -145l-34 -87c-4 -10 -9 -17 -19 -17h-45c-10 0 -17 6 -15 16l18 79h-19c-10 0 -17 7 -17 17v96
c0 10 7 17 17 17h97c10 0 17 -7 17 -17v-104z" />
    <glyph glyph-name="uni021B" unicode="&#x21b;" horiz-adv-x="355" 
d="M345 17c0 -11 -7 -18 -19 -20c0 0 -51 -7 -98 -7c-95 0 -148 50 -148 165v230h-51c-11 0 -19 8 -19 19v77c0 11 8 19 19 19h51v111c0 11 8 19 19 19h97c11 0 19 -8 19 -19v-111h111c11 0 19 -8 19 -19v-77c0 -11 -8 -19 -19 -19h-111v-213c0 -41 18 -57 51 -57
c23 0 60 6 60 6c12 1 19 -3 19 -14v-90zM275 -145l-34 -87c-4 -10 -9 -17 -19 -17h-45c-10 0 -17 6 -15 16l18 79h-19c-10 0 -17 7 -17 17v96c0 10 7 17 17 17h97c10 0 17 -7 17 -17v-104z" />
    <glyph glyph-name="circumflex" unicode="&#x2c6;" horiz-adv-x="410" 
d="M360 559c0 -11 -9 -17 -19 -13l-136 58l-136 -58c-10 -4 -19 2 -19 13v86c0 11 9 14 19 19l111 56c18 9 30 11 51 0l110 -56c10 -5 19 -8 19 -19v-86z" />
    <glyph glyph-name="caron" unicode="&#x2c7;" horiz-adv-x="410" 
d="M360 618c0 -11 -9 -14 -19 -19l-110 -56c-21 -11 -33 -9 -51 0l-111 56c-10 5 -19 8 -19 19v89c0 11 9 17 19 13l136 -58l136 58c10 4 19 -2 19 -13v-89z" />
    <glyph glyph-name="uni02C9" unicode="&#x2c9;" horiz-adv-x="355" 
d="M305 614c0 -11 -8 -19 -19 -19h-217c-11 0 -19 8 -19 19v77c0 11 8 19 19 19h217c11 0 19 -8 19 -19v-77z" />
    <glyph glyph-name="breve" unicode="&#x2d8;" horiz-adv-x="416" 
d="M366 721c0 -112 -52 -161 -158 -161s-158 49 -158 161c0 11 8 19 19 19h82c11 0 19 -8 19 -19c0 -50 14 -66 38 -66s38 16 38 66c0 11 8 19 19 19h82c11 0 19 -8 19 -19z" />
    <glyph glyph-name="dotaccent" unicode="&#x2d9;" horiz-adv-x="235" 
d="M185 594c0 -11 -8 -19 -19 -19h-97c-11 0 -19 8 -19 19v97c0 11 8 19 19 19h97c11 0 19 -8 19 -19v-97z" />
    <glyph glyph-name="ring" unicode="&#x2da;" horiz-adv-x="350" 
d="M300 650c0 -68 -47 -110 -125 -110c-77 0 -125 42 -125 110s47 110 125 110c77 0 125 -42 125 -110zM215 650c0 26 -11 45 -40 45s-40 -19 -40 -45s11 -45 40 -45s40 19 40 45z" />
    <glyph glyph-name="ogonek" unicode="&#x2db;" horiz-adv-x="290" 
d="M240 50c0 0 -55 -53 -55 -130c0 -36 16 -69 29 -89c7 -10 4 -21 -12 -21h-97s-55 34 -55 105c0 95 105 135 105 135h85z" />
    <glyph glyph-name="tilde" unicode="&#x2dc;" horiz-adv-x="410" 
d="M360 625c0 -13 -8 -24 -19 -32c0 0 -26 -22 -65 -22c-51 0 -102 36 -141 36c-28 0 -65 -24 -65 -24c-10 -4 -20 0 -20 11v72c0 13 9 23 19 32c0 0 26 22 65 22c61 0 107 -36 141 -36c28 0 64 24 64 24c10 4 21 -1 21 -12v-71z" />
    <glyph glyph-name="hungarumlaut" unicode="&#x2dd;" horiz-adv-x="486" 
d="M436 701l-66 -142c-5 -10 -14 -19 -25 -19h-92c-11 0 -18 9 -13 19l66 142c5 10 13 19 24 19h92c11 0 19 -9 14 -19zM246 701l-66 -142c-5 -10 -14 -19 -25 -19h-92c-11 0 -18 9 -13 19l66 142c5 10 13 19 24 19h92c11 0 19 -9 14 -19z" />
    <glyph glyph-name="gravecomb" unicode="&#x300;" horiz-adv-x="1" 
d="M-203 591c5 -10 1 -21 -11 -21h-99c-11 0 -20 10 -27 19l-80 110c-7 9 -2 21 10 21h123c11 0 22 -9 27 -19z" />
    <glyph glyph-name="acutecomb" unicode="&#x301;" horiz-adv-x="1" 
d="M-107 699l-80 -110c-7 -9 -16 -19 -27 -19h-99c-12 0 -16 11 -11 21l57 110c5 10 16 19 27 19h123c12 0 17 -12 10 -21z" />
    <glyph glyph-name="uni0302" unicode="&#x302;" horiz-adv-x="1" 
d="M-107 559c0 -11 -9 -17 -19 -13l-136 58l-136 -58c-10 -4 -19 2 -19 13v86c0 11 9 14 19 19l111 56c18 9 30 11 51 0l110 -56c10 -5 19 -8 19 -19v-86z" />
    <glyph glyph-name="tildecomb" unicode="&#x303;" horiz-adv-x="1" 
d="M-107 625c0 -13 -8 -24 -19 -32c0 0 -26 -22 -65 -22c-51 0 -102 36 -141 36c-28 0 -65 -24 -65 -24c-10 -4 -20 0 -20 11v72c0 13 9 23 19 32c0 0 26 22 65 22c61 0 107 -36 141 -36c28 0 64 24 64 24c10 4 21 -1 21 -12v-71z" />
    <glyph glyph-name="uni0304" unicode="&#x304;" horiz-adv-x="1" 
d="M-49 604c0 -11 -8 -19 -19 -19h-217c-11 0 -19 8 -19 19v77c0 11 8 19 19 19h217c11 0 19 -8 19 -19v-77z" />
    <glyph glyph-name="uni0306" unicode="&#x306;" horiz-adv-x="1" 
d="M-49 696c0 -112 -52 -161 -158 -161s-158 49 -158 161c0 11 8 19 19 19h82c11 0 19 -8 19 -19c0 -50 14 -66 38 -66s38 16 38 66c0 11 8 19 19 19h82c11 0 19 -8 19 -19z" />
    <glyph glyph-name="uni0307" unicode="&#x307;" horiz-adv-x="1" 
d="M-59 594c0 -11 -8 -19 -19 -19h-97c-11 0 -19 8 -19 19v97c0 11 8 19 19 19h97c11 0 19 -8 19 -19v-97z" />
    <glyph glyph-name="uni0308" unicode="&#x308;" horiz-adv-x="1" 
d="M-49 594c0 -11 -8 -19 -19 -19h-97c-11 0 -19 8 -19 19v97c0 11 8 19 19 19h97c11 0 19 -8 19 -19v-97zM-269 594c0 -11 -8 -19 -19 -19h-97c-11 0 -19 8 -19 19v97c0 11 8 19 19 19h97c11 0 19 -8 19 -19v-97z" />
    <glyph glyph-name="uni030A" unicode="&#x30a;" horiz-adv-x="1" 
d="M-49 650c0 -68 -47 -110 -125 -110c-77 0 -125 42 -125 110s47 110 125 110c77 0 125 -42 125 -110zM-134 650c0 26 -11 45 -40 45s-40 -19 -40 -45s11 -45 40 -45s40 19 40 45z" />
    <glyph glyph-name="uni030B" unicode="&#x30b;" horiz-adv-x="1" 
d="M-49 731l-66 -142c-5 -10 -14 -19 -25 -19h-92c-11 0 -18 9 -13 19l66 142c5 10 13 19 24 19h92c11 0 19 -9 14 -19zM-239 731l-66 -142c-5 -10 -14 -19 -25 -19h-92c-11 0 -18 9 -13 19l66 142c5 10 13 19 24 19h92c11 0 19 -9 14 -19z" />
    <glyph glyph-name="uni030C" unicode="&#x30c;" horiz-adv-x="1" 
d="M-76 618c0 -11 -9 -14 -19 -19l-110 -56c-21 -11 -33 -9 -51 0l-111 56c-10 5 -19 8 -19 19v89c0 11 9 17 19 13l136 -58l136 58c10 4 19 -2 19 -13v-89z" />
    <glyph glyph-name="uni0312" unicode="&#x312;" horiz-adv-x="1" 
d="M-175 662l43 127c3 10 9 17 18 17h45c10 0 17 -7 15 -16l-26 -119h19c10 0 17 -7 17 -17v-97c0 -10 -7 -17 -17 -17h-97c-10 0 -17 7 -17 17v105z" />
    <glyph glyph-name="uni0313" unicode="&#x313;" horiz-adv-x="1" 
d="M-44 603l-43 -66c-5 -8 -15 -17 -24 -17h-39c-10 0 -20 8 -15 16l26 43h-19c-10 0 -17 7 -17 17v97c0 10 7 17 17 17h97c10 0 17 -7 17 -17v-90z" />
    <glyph glyph-name="uni0326" unicode="&#x326;" horiz-adv-x="1" 
d="M-44 -146l-34 -87c-4 -10 -9 -17 -19 -17h-45c-10 0 -17 6 -15 16l18 79h-19c-10 0 -17 7 -17 17v96c0 10 7 17 17 17h97c10 0 17 -7 17 -17v-104z" />
    <glyph glyph-name="uni0327" unicode="&#x327;" horiz-adv-x="1" 
d="M-49 -115c0 -69 -47 -85 -103 -85c-33 0 -73 7 -73 7c-11 1 -19 8 -19 19v27c0 11 7 17 18 17h20c24 0 37 6 37 26c0 19 -12 24 -34 24h-16c-11 0 -16 8 -14 19l22 101h90l-15 -68h4c47 0 83 -20 83 -87z" />
    <glyph glyph-name="uni0328" unicode="&#x328;" horiz-adv-x="1" 
d="M-175 -200c-68 0 -84 57 -84 100c0 89 67 112 79 113l76 -13c-26 -19 -49 -52 -49 -80c0 -11 2 -32 19 -32c13 0 33 9 36 9c6 0 6 -7 6 -11v-59c0 -9 -3 -12 -11 -16c-19 -6 -51 -11 -72 -11z" />
    <glyph glyph-name="uni0335" unicode="&#x335;" horiz-adv-x="1" 
d="M-49 212c0 -11 -8 -19 -19 -19h-217c-11 0 -19 8 -19 19v77c0 11 8 19 19 19h217c11 0 19 -8 19 -19v-77z" />
    <glyph glyph-name="uni0336" unicode="&#x336;" horiz-adv-x="1" 
d="M-49 209c0 -11 -8 -19 -19 -19h-572c-11 0 -19 8 -19 19v82c0 11 8 19 19 19h572c11 0 19 -8 19 -19v-82z" />
    <glyph glyph-name="Delta" unicode="&#x394;" horiz-adv-x="662" 
d="M626 19c3 -11 -4 -19 -15 -19h-559c-11 0 -19 8 -16 19l214 672c3 11 10 19 21 19h120c11 0 18 -8 21 -19zM447 125l-116 374l-117 -374h233z" />
    <glyph glyph-name="Pi" unicode="&#x3a0;" horiz-adv-x="740" 
d="M730 17c0 -11 -7 -18 -19 -20c0 0 -51 -7 -98 -7c-95 0 -148 50 -148 165v430h-220v-566c0 -11 -8 -19 -19 -19h-97c-11 0 -19 8 -19 19v566h-81c-11 0 -19 8 -19 19v87c0 11 8 19 19 19h682c11 0 19 -8 19 -19v-87c0 -11 -8 -19 -19 -19h-111v-413c0 -41 18 -57 51 -57
c23 0 60 6 60 6c12 1 19 -3 19 -14v-90z" />
    <glyph glyph-name="Sigma" unicode="&#x3a3;" horiz-adv-x="485" 
d="M445 19c0 -11 -8 -19 -19 -19h-367c-11 0 -19 8 -19 19v106l122 230l-122 230v106c0 11 8 19 19 19h367c11 0 19 -8 19 -19v-87c0 -11 -8 -19 -19 -19h-224l115 -213c6 -11 6 -21 0 -32l-115 -215h224c11 0 19 -8 19 -19v-87z" />
    <glyph glyph-name="Omega" unicode="&#x3a9;" horiz-adv-x="610" 
d="M585 19c0 -11 -8 -19 -19 -19h-217c-11 0 -19 8 -19 19v92c53 17 85 58 85 149v190c0 83 -25 145 -110 145s-110 -62 -110 -145v-190c0 -91 32 -132 85 -149v-92c0 -11 -8 -19 -19 -19h-217c-11 0 -19 8 -19 19v87c0 11 8 19 19 19h47c-12 26 -31 63 -31 135v200
c0 166 85 260 245 260s245 -94 245 -260v-200c0 -72 -18 -109 -31 -135h47c11 0 19 -8 19 -19v-87z" />
    <glyph glyph-name="alpha" unicode="&#x3b1;" 
d="M525 17c0 -11 -7 -19 -19 -20c0 0 -34 -7 -72 -7c-41 0 -69 13 -85 42c-32 -20 -73 -42 -124 -42c-113 0 -165 71 -165 180v160c0 109 52 180 165 180c38 0 74 -10 105 -24v5c0 11 8 19 19 19h97c11 0 19 -8 19 -19v-349c0 -22 4 -33 21 -33c8 0 20 1 20 1
c12 1 19 -3 19 -14v-79zM330 131v246c-24 8 -48 13 -69 13c-48 0 -66 -28 -66 -75v-130c0 -47 18 -75 66 -75c21 0 47 11 69 21z" />
    <glyph glyph-name="delta" unicode="&#x3b4;" horiz-adv-x="570" 
d="M510 200c0 -135 -84 -210 -225 -210c-148 0 -225 79 -225 210v42c0 82 43 144 109 172c-27 30 -47 69 -47 123c0 123 84 183 194 183c58 0 131 -18 131 -18c13 -2 19 -8 19 -19v-85c0 -11 -7 -18 -19 -16c0 0 -84 16 -126 16s-63 -21 -63 -58c0 -29 29 -53 62 -71l84 -47
c59 -33 106 -82 106 -182v-40zM375 201v39c0 31 -15 58 -46 75l-62 33c-55 -13 -72 -61 -72 -107v-40c0 -54 27 -91 90 -91c58 0 90 32 90 91z" />
    <glyph glyph-name="mu" unicode="&#x3bc;" 
d="M465 19c0 -11 -8 -19 -19 -19h-87c-11 0 -19 8 -19 19v14c-31 -22 -75 -43 -130 -43h-15v-161c0 -11 -8 -19 -19 -19h-97c-11 0 -19 8 -19 19v652c0 11 8 19 19 19h97c11 0 19 -8 19 -19v-301c0 -41 14 -65 58 -65c24 0 52 9 77 21v345c0 11 8 19 19 19h97
c11 0 19 -8 19 -19v-462z" />
    <glyph glyph-name="pi" unicode="&#x3c0;" horiz-adv-x="625" 
d="M615 17c0 -11 -7 -18 -19 -20c0 0 -51 -7 -98 -7c-95 0 -148 50 -148 165v230h-135v-366c0 -11 -8 -19 -19 -19h-97c-11 0 -19 8 -19 19v366h-51c-11 0 -19 8 -19 19v77c0 11 8 19 19 19h567c11 0 19 -8 19 -19v-77c0 -11 -8 -19 -19 -19h-111v-213c0 -41 18 -57 51 -57
c23 0 60 6 60 6c12 1 19 -3 19 -14v-90z" />
    <glyph glyph-name="omega" unicode="&#x3c9;" horiz-adv-x="713" 
d="M653 200c0 -117 -35 -210 -169 -210c-59 0 -100 22 -128 56c-28 -34 -69 -56 -127 -56c-134 0 -169 93 -169 210v60c0 71 23 199 28 221c3 13 13 19 24 19h96c10 0 17 -6 17 -16c0 -1 -1 -6 -1 -7c-5 -22 -29 -144 -29 -220v-62c0 -53 12 -85 47 -85c31 0 47 22 47 75
v146c0 11 8 19 19 19h97c11 0 19 -8 19 -19v-146c0 -53 16 -75 47 -75c35 0 47 32 47 85v62c0 76 -24 198 -29 220c0 2 -1 5 -1 7c0 9 6 16 15 16h98c11 0 21 -6 24 -19c5 -22 28 -150 28 -221v-60z" />
    <glyph glyph-name="endash" unicode="&#x2013;" horiz-adv-x="610" 
d="M560 309c0 -11 -8 -19 -19 -19h-472c-11 0 -19 8 -19 19v82c0 11 8 19 19 19h472c11 0 19 -8 19 -19v-82z" />
    <glyph glyph-name="emdash" unicode="&#x2014;" horiz-adv-x="710" 
d="M660 309c0 -11 -8 -19 -19 -19h-572c-11 0 -19 8 -19 19v82c0 11 8 19 19 19h572c11 0 19 -8 19 -19v-82z" />
    <glyph glyph-name="quoteleft" unicode="&#x2018;" horiz-adv-x="245" 
d="M195 414c0 -11 -8 -19 -19 -19h-107c-11 0 -19 8 -19 19v116l38 161c3 11 10 19 21 19h50c11 0 17 -7 16 -18l-20 -152h21c11 0 19 -8 19 -19v-107z" />
    <glyph glyph-name="quoteright" unicode="&#x2019;" horiz-adv-x="245" 
d="M195 575l-38 -161c-3 -11 -10 -19 -21 -19h-50c-11 0 -17 7 -16 18l20 152h-21c-11 0 -19 8 -19 19v107c0 11 8 19 19 19h107c11 0 19 -8 19 -19v-116z" />
    <glyph glyph-name="quotesinglbase" unicode="&#x201a;" horiz-adv-x="245" 
d="M195 10l-38 -161c-3 -11 -10 -19 -21 -19h-50c-11 0 -17 7 -16 18l20 152h-21c-11 0 -19 8 -19 19v107c0 11 8 19 19 19h107c11 0 19 -8 19 -19v-116z" />
    <glyph glyph-name="quotedblleft" unicode="&#x201c;" horiz-adv-x="450" 
d="M400 414c0 -11 -8 -19 -19 -19h-107c-11 0 -19 8 -19 19v116l38 161c3 11 10 19 21 19h50c11 0 17 -7 16 -18l-20 -152h21c11 0 19 -8 19 -19v-107zM195 414c0 -11 -8 -19 -19 -19h-107c-11 0 -19 8 -19 19v116l38 161c3 11 10 19 21 19h50c11 0 17 -7 16 -18l-20 -152
h21c11 0 19 -8 19 -19v-107z" />
    <glyph glyph-name="quotedblright" unicode="&#x201d;" horiz-adv-x="450" 
d="M400 575l-38 -161c-3 -11 -10 -19 -21 -19h-50c-11 0 -17 7 -16 18l20 152h-21c-11 0 -19 8 -19 19v107c0 11 8 19 19 19h107c11 0 19 -8 19 -19v-116zM195 575l-38 -161c-3 -11 -10 -19 -21 -19h-50c-11 0 -17 7 -16 18l20 152h-21c-11 0 -19 8 -19 19v107
c0 11 8 19 19 19h107c11 0 19 -8 19 -19v-116z" />
    <glyph glyph-name="quotedblbase" unicode="&#x201e;" horiz-adv-x="450" 
d="M400 10l-38 -161c-3 -11 -10 -19 -21 -19h-50c-11 0 -17 7 -16 18l20 152h-21c-11 0 -19 8 -19 19v107c0 11 8 19 19 19h107c11 0 19 -8 19 -19v-116zM195 10l-38 -161c-3 -11 -10 -19 -21 -19h-50c-11 0 -17 7 -16 18l20 152h-21c-11 0 -19 8 -19 19v107
c0 11 8 19 19 19h107c11 0 19 -8 19 -19v-116z" />
    <glyph glyph-name="dagger" unicode="&#x2020;" horiz-adv-x="520" 
d="M470 414c0 -11 -8 -19 -19 -19h-123v-376c0 -11 -8 -19 -19 -19h-97c-11 0 -19 8 -19 19v376h-124c-11 0 -19 8 -19 19v87c0 11 8 19 19 19h124v171c0 11 8 19 19 19h97c11 0 19 -8 19 -19v-171h123c11 0 19 -8 19 -19v-87z" />
    <glyph glyph-name="daggerdbl" unicode="&#x2021;" horiz-adv-x="520" 
d="M470 179c0 -11 -8 -19 -19 -19h-123v-141c0 -11 -8 -19 -19 -19h-97c-11 0 -19 8 -19 19v141h-124c-11 0 -19 8 -19 19v87c0 11 8 19 19 19h124v140h-124c-11 0 -19 8 -19 19v87c0 11 8 19 19 19h124v141c0 11 8 19 19 19h97c11 0 19 -8 19 -19v-141h123
c11 0 19 -8 19 -19v-87c0 -11 -8 -19 -19 -19h-123v-140h123c11 0 19 -8 19 -19v-87z" />
    <glyph glyph-name="bullet" unicode="&#x2022;" horiz-adv-x="275" 
d="M225 289c0 -11 -8 -19 -19 -19h-137c-11 0 -19 8 -19 19v137c0 11 8 19 19 19h137c11 0 19 -8 19 -19v-137z" />
    <glyph glyph-name="ellipsis" unicode="&#x2026;" horiz-adv-x="655" 
d="M605 19c0 -11 -8 -19 -19 -19h-107c-11 0 -19 8 -19 19v107c0 11 8 19 19 19h107c11 0 19 -8 19 -19v-107zM400 19c0 -11 -8 -19 -19 -19h-107c-11 0 -19 8 -19 19v107c0 11 8 19 19 19h107c11 0 19 -8 19 -19v-107zM195 19c0 -11 -8 -19 -19 -19h-107
c-11 0 -19 8 -19 19v107c0 11 8 19 19 19h107c11 0 19 -8 19 -19v-107z" />
    <glyph glyph-name="perthousand" unicode="&#x2030;" horiz-adv-x="1506" 
d="M1446 186c0 -119 -78 -196 -203 -196s-203 77 -203 196v19c0 119 78 196 203 196s203 -77 203 -196v-19zM1010 186c0 -119 -78 -196 -203 -196s-203 77 -203 196v19c0 119 78 196 203 196s203 -77 203 -196v-19zM771 691l-327 -672c-5 -10 -11 -19 -22 -19h-109
c-11 0 -19 9 -14 19l327 672c5 10 11 19 22 19h109c11 0 19 -9 14 -19zM466 505c0 -119 -78 -196 -203 -196s-203 77 -203 196v19c0 119 78 196 203 196s203 -77 203 -196v-19zM1311 181v29c0 45 -19 76 -68 76s-68 -31 -68 -76v-29c0 -45 19 -76 68 -76s68 31 68 76z
M875 181v29c0 45 -19 76 -68 76s-68 -31 -68 -76v-29c0 -45 19 -76 68 -76s68 31 68 76zM331 500v29c0 45 -19 76 -68 76s-68 -31 -68 -76v-29c0 -45 19 -76 68 -76s68 31 68 76z" />
    <glyph glyph-name="guilsinglleft" unicode="&#x2039;" horiz-adv-x="345" 
d="M284 169c5 -10 -2 -19 -13 -19h-108c-11 0 -19 9 -24 19l-76 137c-10 19 -11 28 0 48l76 137c5 10 13 19 24 19h108c11 0 18 -9 13 -19l-89 -161z" />
    <glyph glyph-name="guilsinglright" unicode="&#x203a;" horiz-adv-x="345" 
d="M282 306l-76 -137c-5 -10 -13 -19 -24 -19h-108c-11 0 -18 9 -13 19l89 161l-89 161c-5 10 2 19 13 19h108c11 0 19 -9 24 -19l76 -137c11 -20 11 -29 0 -48z" />
    <glyph glyph-name="fraction" unicode="&#x2044;" horiz-adv-x="215" 
d="M346 691l-327 -672c-5 -10 -14 -19 -25 -19h-112c-11 0 -18 9 -13 19l327 672c5 10 14 19 25 19h112c11 0 18 -9 13 -19z" />
    <glyph glyph-name="Euro" unicode="&#x20ac;" horiz-adv-x="500" 
d="M480 22c0 -11 -7 -19 -19 -20c0 0 -68 -12 -121 -12c-147 0 -230 79 -243 220h-74c-11 0 -17 8 -16 19l7 77c1 11 8 19 19 19h62v60h-62c-11 0 -17 8 -16 19l7 77c1 11 8 19 19 19h54c13 141 96 220 243 220c53 0 111 -11 111 -11c12 -1 19 -9 19 -20v-89
c0 -11 -8 -17 -20 -16c0 0 -65 8 -110 8c-67 0 -96 -36 -106 -92h188c11 0 17 -8 16 -19l-7 -77c-1 -11 -8 -19 -19 -19h-182v-60h182c11 0 17 -8 16 -19l-7 -77c-1 -11 -8 -19 -19 -19h-168c10 -56 40 -92 111 -92c45 0 116 10 116 10c12 1 19 -5 19 -16v-90z" />
    <glyph glyph-name="trademark" unicode="&#x2122;" horiz-adv-x="935" 
d="M885 374c0 -11 -8 -19 -19 -19h-97c-11 0 -19 8 -19 19v125l-46 -95c-5 -10 -12 -19 -23 -19h-77c-11 0 -18 9 -23 19l-46 95v-125c0 -11 -8 -19 -19 -19h-97c-11 0 -19 8 -19 19v317c0 11 8 19 19 19h122c11 0 19 -9 24 -19l78 -153l77 153c5 10 13 19 24 19h122
c11 0 19 -8 19 -19v-317zM370 604c0 -11 -8 -19 -19 -19h-83v-211c0 -11 -8 -19 -19 -19h-97c-11 0 -19 8 -19 19v211h-84c-11 0 -19 8 -19 19v87c0 11 8 19 19 19h302c11 0 19 -8 19 -19v-87z" />
    <glyph glyph-name="uni2126" unicode="&#x2126;" horiz-adv-x="610" 
d="M585 19c0 -11 -8 -19 -19 -19h-217c-11 0 -19 8 -19 19v92c53 17 85 58 85 149v190c0 83 -25 145 -110 145s-110 -62 -110 -145v-190c0 -91 32 -132 85 -149v-92c0 -11 -8 -19 -19 -19h-217c-11 0 -19 8 -19 19v87c0 11 8 19 19 19h47c-12 26 -31 63 -31 135v200
c0 166 85 260 245 260s245 -94 245 -260v-200c0 -72 -18 -109 -31 -135h47c11 0 19 -8 19 -19v-87z" />
    <glyph glyph-name="arrowleft" unicode="&#x2190;" horiz-adv-x="560" 
d="M508 319c0 -11 -8 -19 -19 -19h-244l82 -149c5 -10 1 -19 -10 -19h-111c-11 0 -19 9 -25 18l-124 197c-7 12 -6 20 0 30l125 197c6 9 14 18 25 18h111c11 0 15 -9 10 -19l-83 -149h244c11 0 19 -8 19 -19v-86z" />
    <glyph glyph-name="arrowup" unicode="&#x2191;" horiz-adv-x="560" 
d="M510 328c0 -11 -9 -15 -19 -10l-147 81v-248c0 -11 -8 -19 -19 -19h-90c-11 0 -19 8 -19 19v248l-147 -82c-10 -5 -19 -1 -19 10v106c0 11 9 19 18 25l197 125c10 6 18 6 30 -1l197 -124c9 -6 18 -14 18 -25v-105z" />
    <glyph glyph-name="arrowright" unicode="&#x2192;" horiz-adv-x="560" 
d="M503 347l-124 -197c-6 -9 -14 -18 -25 -18h-111c-11 0 -15 9 -10 19l82 149h-244c-11 0 -19 8 -19 19v86c0 11 8 19 19 19h244l-83 149c-5 10 -1 19 10 19h111c11 0 19 -9 25 -18l125 -197c6 -10 7 -18 0 -30z" />
    <glyph glyph-name="arrowdown" unicode="&#x2193;" horiz-adv-x="560" 
d="M510 291c0 -11 -9 -19 -18 -25l-197 -124c-12 -7 -20 -7 -30 -1l-197 125c-9 6 -18 14 -18 25v106c0 11 9 15 19 10l147 -82v248c0 11 8 19 19 19h90c11 0 19 -8 19 -19v-248l147 81c10 5 19 1 19 -10v-105z" />
    <glyph glyph-name="uni2196" unicode="&#x2196;" horiz-adv-x="560" 
d="M423 170c-8 -8 -20 -8 -27 0l-173 172l-47 -163c-4 -11 -13 -14 -21 -7l-78 79c-8 8 -7 20 -5 30l51 227c4 14 10 19 22 22l227 50c11 3 23 3 31 -4l78 -79c8 -8 4 -17 -6 -20l-164 -47l172 -173c8 -7 8 -19 0 -27z" />
    <glyph glyph-name="uni2197" unicode="&#x2197;" horiz-adv-x="560" 
d="M77 230c-8 8 -8 20 0 27l172 173l-163 47c-11 4 -14 13 -7 21l79 78c8 8 20 7 30 5l227 -51c14 -4 19 -10 22 -22l50 -227c3 -11 3 -23 -4 -31l-79 -78c-8 -8 -17 -4 -20 6l-47 164l-173 -172c-7 -8 -19 -8 -27 0z" />
    <glyph glyph-name="uni2198" unicode="&#x2198;" horiz-adv-x="560" 
d="M136 554c8 8 20 8 27 0l173 -172l47 163c4 11 13 14 21 7l78 -79c8 -8 7 -20 5 -30l-51 -227c-4 -14 -10 -19 -22 -22l-227 -50c-11 -3 -23 -3 -31 4l-78 79c-8 8 -4 17 6 20l164 47l-172 173c-8 7 -8 19 0 27z" />
    <glyph glyph-name="uni2199" unicode="&#x2199;" horiz-adv-x="560" 
d="M483 494c8 -8 8 -20 0 -27l-172 -173l163 -47c11 -4 14 -13 7 -21l-79 -78c-8 -8 -20 -7 -30 -5l-227 51c-14 4 -19 10 -22 22l-50 227c-3 11 -3 23 4 31l79 78c8 8 17 4 20 -6l47 -164l173 172c7 8 19 8 27 0z" />
    <glyph glyph-name="partialdiff" unicode="&#x2202;" horiz-adv-x="550" 
d="M490 200c0 -135 -77 -210 -215 -210c-143 0 -215 79 -215 210v102c0 113 48 188 176 188c49 0 89 -13 119 -31v21c0 76 -23 115 -110 115c-42 0 -126 -11 -126 -11c-12 -1 -19 5 -19 16v88c0 11 6 17 19 19c0 0 71 13 131 13c151 0 240 -74 240 -250v-270zM355 203v134
c-29 15 -61 28 -90 28c-43 0 -70 -17 -70 -70v-92c0 -54 20 -88 80 -88c56 0 80 29 80 88z" />
    <glyph glyph-name="uni2206" unicode="&#x2206;" horiz-adv-x="662" 
d="M626 19c3 -11 -4 -19 -15 -19h-559c-11 0 -19 8 -16 19l214 672c3 11 10 19 21 19h120c11 0 18 -8 21 -19zM447 125l-116 374l-117 -374h233z" />
    <glyph glyph-name="product" unicode="&#x220f;" horiz-adv-x="740" 
d="M730 -173c0 -11 -7 -18 -19 -20c0 0 -51 -7 -98 -7c-95 0 -148 50 -148 165v620h-220v-756c0 -11 -8 -19 -19 -19h-97c-11 0 -19 8 -19 19v756h-81c-11 0 -19 8 -19 19v87c0 11 8 19 19 19h682c11 0 19 -8 19 -19v-87c0 -11 -8 -19 -19 -19h-111v-603
c0 -41 18 -57 51 -57c23 0 60 6 60 6c12 1 19 -3 19 -14v-90z" />
    <glyph glyph-name="summation" unicode="&#x2211;" horiz-adv-x="485" 
d="M445 -171c0 -11 -8 -19 -19 -19h-367c-11 0 -19 8 -19 19v106l132 325l-132 325v106c0 11 8 19 19 19h367c11 0 19 -8 19 -19v-87c0 -11 -8 -19 -19 -19h-229l130 -308c5 -12 5 -20 0 -32l-130 -310h229c11 0 19 -8 19 -19v-87z" />
    <glyph glyph-name="minus" unicode="&#x2212;" 
d="M475 309c0 -11 -8 -19 -19 -19h-387c-11 0 -19 8 -19 19v82c0 11 8 19 19 19h387c11 0 19 -8 19 -19v-82z" />
    <glyph glyph-name="uni2215" unicode="&#x2215;" horiz-adv-x="215" 
d="M346 691l-327 -672c-5 -10 -14 -19 -25 -19h-112c-11 0 -18 9 -13 19l327 672c5 10 14 19 25 19h112c11 0 18 -9 13 -19z" />
    <glyph glyph-name="uni2219" unicode="&#x2219;" horiz-adv-x="235" 
d="M185 309c0 -11 -8 -19 -19 -19h-97c-11 0 -19 8 -19 19v97c0 11 8 19 19 19h97c11 0 19 -8 19 -19v-97z" />
    <glyph glyph-name="radical" unicode="&#x221a;" horiz-adv-x="585" 
d="M635 704c0 -11 -8 -19 -19 -19h-59l-211 -667c-3 -11 -13 -18 -24 -18h-144c-11 0 -21 7 -24 18l-138 462c-3 11 3 20 15 20h106c11 0 20 -8 23 -19l90 -319l198 638h168c11 0 19 -8 19 -19v-77z" />
    <glyph glyph-name="infinity" unicode="&#x221e;" horiz-adv-x="658" 
d="M608 330c0 -94 -63 -155 -173 -155c-44 0 -79 14 -106 37c-27 -23 -62 -37 -106 -37c-110 0 -173 61 -173 155v25c0 94 63 155 173 155c44 0 79 -14 106 -37c27 23 62 37 106 37c110 0 173 -61 173 -155v-25zM473 335v15c0 23 -10 40 -38 40s-38 -15 -38 -40v-15
c0 -24 10 -40 38 -40s38 16 38 40zM261 335v15c0 25 -10 40 -38 40s-38 -16 -38 -40v-15c0 -24 10 -40 38 -40s38 16 38 40z" />
    <glyph glyph-name="integral" unicode="&#x222b;" horiz-adv-x="335" 
d="M325 610c0 -11 -6 -18 -19 -17c0 0 -21 2 -35 2c-23 0 -46 -7 -46 -44v-616c0 -98 -42 -135 -119 -135c-39 0 -77 4 -77 4c-11 2 -19 8 -19 19v81c0 11 9 17 19 17c0 0 18 -1 27 -1c23 0 34 11 34 38v599c0 127 76 163 150 163c43 0 66 -6 66 -6c11 -2 19 -8 19 -19v-85z
" />
    <glyph glyph-name="approxequal" unicode="&#x2248;" 
d="M475 439c0 -11 -7 -18 -18 -22c0 0 -42 -22 -92 -22c-71 0 -139 30 -207 30c-30 0 -89 -19 -89 -19c-10 -3 -19 2 -19 13v82c0 11 7 18 18 22c0 0 42 22 92 22c71 0 141 -30 207 -30c30 0 89 19 89 19c10 3 19 -2 19 -13v-82zM475 199c0 -11 -7 -18 -18 -22
c0 0 -42 -22 -92 -22c-71 0 -139 30 -207 30c-30 0 -89 -19 -89 -19c-10 -3 -19 2 -19 13v82c0 11 7 18 18 22c0 0 42 22 92 22c71 0 141 -30 207 -30c30 0 89 19 89 19c10 3 19 -2 19 -13v-82z" />
    <glyph glyph-name="notequal" unicode="&#x2260;" 
d="M475 189c0 -11 -8 -19 -19 -19h-193l-44 -131c-4 -10 -12 -19 -23 -19h-82c-11 0 -19 9 -15 19l44 131h-74c-11 0 -19 8 -19 19v82c0 11 8 19 19 19h114l40 120h-154c-11 0 -19 8 -19 19v82c0 11 8 19 19 19h194l44 131c4 10 12 19 23 19h82c11 0 19 -9 15 -19l-44 -131
h73c11 0 19 -8 19 -19v-82c0 -11 -8 -19 -19 -19h-113l-40 -120h153c11 0 19 -8 19 -19v-82z" />
    <glyph glyph-name="lessequal" unicode="&#x2264;" 
d="M475 162c0 -11 -10 -18 -20 -13l-387 173c-10 5 -18 13 -18 24v88c0 11 8 20 18 24l387 173c10 5 20 -2 20 -13v-100c0 -11 -9 -17 -19 -21l-259 -107l259 -107c10 -4 19 -10 19 -21v-100zM475 19c0 -11 -8 -19 -19 -19h-387c-11 0 -19 8 -19 19v82c0 11 8 19 19 19h387
c11 0 19 -8 19 -19v-82z" />
    <glyph glyph-name="greaterequal" unicode="&#x2265;" 
d="M475 346c0 -11 -8 -19 -18 -24l-387 -173c-10 -5 -20 2 -20 13v100c0 11 9 17 19 21l259 107l-259 107c-10 4 -19 10 -19 21v100c0 11 10 18 20 13l387 -173c10 -4 18 -13 18 -24v-88zM475 19c0 -11 -8 -19 -19 -19h-387c-11 0 -19 8 -19 19v82c0 11 8 19 19 19h387
c11 0 19 -8 19 -19v-82z" />
    <glyph glyph-name="lozenge" unicode="&#x25ca;" horiz-adv-x="678" 
d="M642 345l-229 -325c-6 -9 -15 -20 -26 -20h-95c-11 0 -20 11 -26 20l-229 325c-5 7 -5 13 0 20l229 325c6 9 15 20 26 20h95c11 0 20 -11 26 -20l229 -325c5 -7 4 -14 0 -20zM488 355l-149 223l-149 -223l149 -223z" />
    <glyph glyph-name="hyphen.case" horiz-adv-x="350" 
d="M300 314c0 -11 -8 -19 -19 -19h-212c-11 0 -19 8 -19 19v82c0 11 8 19 19 19h212c11 0 19 -8 19 -19v-82z" />
    <glyph glyph-name="guillemotleft.case" horiz-adv-x="560" 
d="M499 194c5 -10 -2 -19 -13 -19h-108c-11 0 -19 9 -24 19l-76 137c-10 19 -11 28 0 48l76 137c5 10 13 19 24 19h108c11 0 18 -9 13 -19l-89 -161zM284 194c5 -10 -2 -19 -13 -19h-108c-11 0 -19 9 -24 19l-76 137c-10 19 -11 28 0 48l76 137c5 10 13 19 24 19h108
c11 0 18 -9 13 -19l-89 -161z" />
    <glyph glyph-name="uni00AD.case" horiz-adv-x="350" 
d="M300 314c0 -11 -8 -19 -19 -19h-212c-11 0 -19 8 -19 19v82c0 11 8 19 19 19h212c11 0 19 -8 19 -19v-82z" />
    <glyph glyph-name="guillemotright.case" horiz-adv-x="560" 
d="M497 331l-76 -137c-5 -10 -13 -19 -24 -19h-108c-11 0 -18 9 -13 19l89 161l-89 161c-5 10 2 19 13 19h108c11 0 19 -9 24 -19l76 -137c11 -20 10 -29 0 -48zM282 331l-76 -137c-5 -10 -13 -19 -24 -19h-108c-11 0 -18 9 -13 19l89 161l-89 161c-5 10 2 19 13 19h108
c11 0 19 -9 24 -19l76 -137c11 -20 10 -29 0 -48z" />
    <glyph glyph-name="gravecomb.case" horiz-adv-x="1" 
d="M-243 781c5 -10 1 -21 -11 -21h-99c-11 0 -20 10 -27 19l-80 110c-7 9 -2 21 10 21h123c11 0 22 -9 27 -19z" />
    <glyph glyph-name="acutecomb.case" horiz-adv-x="1" 
d="M-151 889l-80 -110c-7 -9 -16 -19 -27 -19h-99c-12 0 -16 11 -11 21l57 110c5 10 16 19 27 19h123c12 0 17 -12 10 -21z" />
    <glyph glyph-name="uni0302.case" horiz-adv-x="1" 
d="M-149 768c0 -11 -9 -17 -19 -13l-136 58l-136 -58c-10 -4 -19 2 -19 13v86c0 11 9 14 19 19l111 56c18 9 30 11 51 0l110 -56c10 -5 19 -8 19 -19v-86z" />
    <glyph glyph-name="tildecomb.case" horiz-adv-x="1" 
d="M-149 814c0 -13 -8 -24 -19 -32c0 0 -26 -22 -65 -22c-51 0 -102 36 -141 36c-28 0 -65 -24 -65 -24c-10 -4 -20 0 -20 11v72c0 13 9 23 19 32c0 0 26 22 65 22c61 0 107 -36 141 -36c28 0 64 24 64 24c10 4 21 -1 21 -12v-71z" />
    <glyph glyph-name="uni0304.case" horiz-adv-x="1" 
d="M-49 804c0 -11 -8 -19 -19 -19h-217c-11 0 -19 8 -19 19v77c0 11 8 19 19 19h217c11 0 19 -8 19 -19v-77z" />
    <glyph glyph-name="uni0306.case" horiz-adv-x="1" 
d="M-49 908c0 -112 -52 -161 -158 -161s-158 49 -158 161c0 11 8 19 19 19h82c11 0 19 -8 19 -19c0 -50 14 -66 38 -66s38 16 38 66c0 11 8 19 19 19h82c11 0 19 -8 19 -19z" />
    <glyph glyph-name="uni0307.case" horiz-adv-x="1" 
d="M-49 769c0 -11 -8 -19 -19 -19h-97c-11 0 -19 8 -19 19v97c0 11 8 19 19 19h97c11 0 19 -8 19 -19v-97z" />
    <glyph glyph-name="uni0308.case" horiz-adv-x="1" 
d="M-49 769c0 -11 -8 -19 -19 -19h-97c-11 0 -19 8 -19 19v97c0 11 8 19 19 19h97c11 0 19 -8 19 -19v-97zM-269 769c0 -11 -8 -19 -19 -19h-97c-11 0 -19 8 -19 19v97c0 11 8 19 19 19h97c11 0 19 -8 19 -19v-97z" />
    <glyph glyph-name="uni030A.case" horiz-adv-x="1" 
d="M-49 735c0 -68 -47 -110 -125 -110c-77 0 -125 42 -125 110s47 110 125 110c77 0 125 -42 125 -110zM-134 735c0 26 -11 45 -40 45s-40 -19 -40 -45s11 -45 40 -45s40 19 40 45z" />
    <glyph glyph-name="uni030B.case" horiz-adv-x="1" 
d="M-49 918l-66 -142c-5 -10 -14 -19 -25 -19h-92c-11 0 -18 9 -13 19l66 142c5 10 13 19 24 19h92c11 0 19 -9 14 -19zM-239 918l-66 -142c-5 -10 -14 -19 -25 -19h-92c-11 0 -18 9 -13 19l66 142c5 10 13 19 24 19h92c11 0 19 -9 14 -19z" />
    <glyph glyph-name="uni030C.case" horiz-adv-x="1" 
d="M-86 830c0 -11 -9 -14 -19 -19l-110 -56c-21 -11 -33 -9 -51 0l-111 56c-10 5 -19 8 -19 19v86c0 11 9 17 19 13l136 -58l136 58c10 4 19 -2 19 -13v-86z" />
    <glyph glyph-name="uni0326.case" horiz-adv-x="1" 
d="M-44 -146l-34 -87c-4 -10 -9 -17 -19 -17h-45c-10 0 -17 6 -15 16l18 79h-19c-10 0 -17 7 -17 17v96c0 10 7 17 17 17h97c10 0 17 -7 17 -17v-104z" />
    <glyph glyph-name="uni0327.case" horiz-adv-x="1" 
d="M-49 -115c0 -69 -47 -85 -103 -85c-33 0 -73 7 -73 7c-11 1 -19 8 -19 19v27c0 11 7 17 18 17h20c24 0 37 6 37 26c0 19 -12 24 -34 24h-16c-11 0 -16 8 -14 19l22 101h90l-15 -68h4c47 0 83 -20 83 -87z" />
    <glyph glyph-name="uni0328.case" horiz-adv-x="1" 
d="M-175 -200c-68 0 -84 57 -84 100c0 89 67 112 79 113l76 -13c-26 -19 -49 -52 -49 -80c0 -11 2 -32 19 -32c13 0 33 9 36 9c6 0 6 -7 6 -11v-59c0 -9 -3 -12 -11 -16c-19 -6 -51 -11 -72 -11z" />
    <glyph glyph-name="endash.case" horiz-adv-x="610" 
d="M560 314c0 -11 -8 -19 -19 -19h-472c-11 0 -19 8 -19 19v82c0 11 8 19 19 19h472c11 0 19 -8 19 -19v-82z" />
    <glyph glyph-name="emdash.case" horiz-adv-x="710" 
d="M660 314c0 -11 -8 -19 -19 -19h-572c-11 0 -19 8 -19 19v82c0 11 8 19 19 19h572c11 0 19 -8 19 -19v-82z" />
    <glyph glyph-name="guilsinglleft.case" horiz-adv-x="345" 
d="M284 194c5 -10 -2 -19 -13 -19h-108c-11 0 -19 9 -24 19l-76 137c-10 19 -11 28 0 48l76 137c5 10 13 19 24 19h108c11 0 18 -9 13 -19l-89 -161z" />
    <glyph glyph-name="guilsinglright.case" horiz-adv-x="345" 
d="M282 331l-76 -137c-5 -10 -13 -19 -24 -19h-108c-11 0 -18 9 -13 19l89 161l-89 161c-5 10 2 19 13 19h108c11 0 19 -9 24 -19l76 -137c11 -20 11 -29 0 -48z" />
    </font>
</defs>
</svg>
