<svg xmlns="http://www.w3.org/2000/svg" viewBox="0 0 133 83" width="133" height="83">
	<style>
		tspan { white-space:pre }
		.shp0 { fill: #3498d8 } 
		.shp1 { fill: #ffffff } 
	</style>
	<g id="E-Com copy">
		<g id="CVC_5_ copy">
		</g>
		<g id="Mastercard_5_ copy">
		</g>
		<g id="Visa_6_ copy">
		</g>
		<g id="Discover copy">
		</g>
		<g id="Amex_3_ copy">
			<g id="Amex copy">
				<g id="Layer copy">
					<path id="Layer copy" class="shp0" d="M121.34,0.01l-110.66,0c-4.35,0 -7.9,3.56 -7.9,7.9v67.18c0,4.35 3.56,7.9 7.9,7.9l110.66,0c4.35,0 7.9,-3.56 7.9,-7.9v-67.18c0,-4.35 -3.56,-7.9 -7.9,-7.9z" />
				</g>
			</g>
			<g id="Amex_1_ copy">
				<g id="Layer copy">
					<path id="Layer copy" class="shp1" d="M105.92,41.5l10.28,13.83h-16.2l-3.56,-4.35l-3.95,4.35l-31.62,0v-3.56l-1.19,3.56h-7.9l-1.19,-3.16v3.16h-15.41l-1.58,-4.35h-3.95l-1.58,4.35h-13.83l11.46,-27.66h11.86l1.58,3.16v-3.16h13.83l3.16,7.11l3.16,-7.11l34.38,0l3.56,4.35l3.95,-4.35h16.2zM69.96,51.38v-19.76l-7.51,0l-5.53,13.44l-5.93,-13.44h-7.51v18.57l-7.51,-18.57h-6.72l-8.3,19.76h5.14l1.58,-4.35h9.48l1.58,4.35h9.09v-15.41l6.72,15.41h3.95l6.72,-15.41v15.41zM32.42,34.78l3.16,7.9h-6.32zM100.39,41.5l8.69,-9.88h-5.53l-5.93,6.32l-5.53,-6.32h-18.18v19.76h17.78l5.93,-6.72l5.14,6.72h5.93zM89.72,35.57l4.74,5.53l-5.14,5.93h-11.07v-3.95h9.88v-3.95h-9.88v-3.56z" />
				</g>
			</g>
		</g>
		<g id="Bitcoin_3_ copy">
		</g>
		<g id="Google_Wallet_5_ copy">
		</g>
		<g id="PayPal_3_ copy">
		</g>
		<g id="Square_Payment_1_ copy">
		</g>
		<g id="Shop_5_ copy">
		</g>
		<g id="Postage copy">
		</g>
		<g id="Package_7_ copy">
		</g>
		<g id="Discount_3_ copy">
		</g>
		<g id="Earth_3_ copy">
		</g>
		<g id="Barcode_3_ copy">
		</g>
		<g id="Cart_Plus_6_ copy">
		</g>
		<g id="Cart_Minus_6_ copy">
		</g>
		<g id="Cart_4_ copy">
		</g>
		<g id="Receipt_5_ copy">
		</g>
		<g id="Truck_9_ copy">
		</g>
		<g id="Calculator_6_ copy">
		</g>
		<g id="Euro_Symbol copy">
		</g>
		<g id="Cent_Symbol copy">
		</g>
		<g id="Dollar_Symbol copy">
		</g>
		<g id="Pound_Symbol copy">
		</g>
		<g id="Bank_5_ copy">
		</g>
		<g id="Wallet_3_ copy">
		</g>
		<g id="Coins_6_ copy">
		</g>
		<g id="Bills_6_ copy">
		</g>
		<g id="Dollar_Alt copy">
		</g>
		<g id="Dollar copy">
		</g>
	</g>
	<g id="Lockup copy">
	</g>
</svg>