<svg xmlns="http://www.w3.org/2000/svg" viewBox="0 0 133 84" width="133" height="84">
	<style>
		tspan { white-space:pre }
		.shp0 { fill: #f6f6f6 } 
		.shp1 { fill: #f27a21 } 
		.shp2 { fill: #493290 } 
	</style>
	<g id="Layer">
		<path id="Layer" class="shp0" d="M126.24,0.91h-120.1c-2.34,0 -3.8,0.36 -4.6,1.11c-0.69,0.85 -1.03,2.24 -1.03,4.29v7.68l0,6.19l0,44.28v6.48v7.4c0,3.68 1.9,5.58 5.63,5.58l120.1,0c3.91,0 5.86,-1.9 5.86,-5.58v-7.4v-6.48v-44.31v-6.19v-7.68c0,-3.62 -1.95,-5.37 -5.86,-5.37z" />
		<g id="Layer">
			<path id="Layer" class="shp1" d="M95.32,47.17h6.71l-6.37,-7.14l6.3,-7.07h-6.45l-3.01,3.44l-3.14,-3.44h-6.68l6.32,7.12l-6.32,7.09h6.48l3.06,-3.47l3.11,3.47z" />
			<path id="Layer" class="shp1" d="M70.24,47.17h12.44v-5.01h-7.17v-4.39h7.17v-4.81h-7.17v-3.19h7.17v-4.99l-12.44,0v22.38z" />
			<path id="Layer" class="shp2" d="M65,24.76h5.19v22.38h-5.24v-1.44h-0.05c-0.95,1.41 -2.52,2.26 -4.24,2.26c-3.96,0 -6.84,-3.21 -7.3,-6.91l-10.38,0c0,1.67 1.39,3.06 2.98,3.06c1.39,0 1.9,-0.31 2.6,-1.29l5.09,0c-1.34,3.29 -3.85,5.09 -7.68,5.09c-4.55,0 -8.12,-3.26 -8.12,-7.94c0,-0.77 0.1,-1.52 0.28,-2.21h-5.94v9.41h-5.94v-22.38h13.24v4.99h-7.27v3.19h6.68v2.93c1.34,-2.36 3.88,-3.8 7.12,-3.8c3.96,0 6.66,2.08 7.68,5.5c0.93,-3.11 3.52,-5.45 6.96,-5.45c1.67,0 3.14,0.46 4.29,1.8h0.05zM43.18,37.82c0,0 5.78,0 5.63,0c-0.26,-1.44 -1.31,-2.34 -2.83,-2.34c-1.36,0 -2.47,0.93 -2.8,2.34zM61.81,43.75c2.13,0 3.03,-1.77 3.03,-3.68c0,-2 -0.87,-3.93 -3.03,-3.93c-2.08,0 -3.14,1.93 -3.14,3.93c0,1.88 1.21,3.68 3.14,3.68z" />
			<path id="Layer" class="shp2" d="M86.69,57.84v-0.39c0.51,-0.03 0.69,-0.23 0.69,-0.62v-3.32c0,-0.82 -0.15,-1.11 -0.75,-1.13v-0.39h1.67v1.34h0.03c0.15,-0.64 0.59,-1.49 1.34,-1.49c0.51,0 0.93,0.41 0.93,1.05c0,0.46 -0.26,0.69 -0.59,0.69c-0.26,0 -0.57,-0.18 -0.57,-0.64c0,-0.28 0.26,-0.54 0.36,-0.59c-0.03,-0.1 -0.15,-0.15 -0.21,-0.15c-0.75,0 -1.18,1.8 -1.18,2.85v1.72c0,0.36 0.21,0.59 1.03,0.62v0.39h-2.75z" />
			<path id="Layer" class="shp2" d="M81.39,52.41v-0.41h1.46v1h0.03c0.18,-0.57 0.69,-1.13 1.46,-1.13c1.39,0 2.08,1.82 2.08,3.06c0,1.7 -0.85,3.06 -2.18,3.06c-0.64,0 -1.05,-0.33 -1.28,-0.8h-0.03v1.85c0,0.39 0.21,0.59 0.9,0.62v0.39h-2.72v-0.39c0.57,-0.03 0.77,-0.26 0.77,-0.62v-6.01c0,-0.49 -0.15,-0.59 -0.49,-0.62zM82.93,55.16c0,1.88 0.72,2.44 1.21,2.42c0.64,0 1.08,-0.77 1.08,-2.62c0,-1.88 -0.44,-2.62 -1.05,-2.62c-0.62,0 -1.23,0.77 -1.23,2.83z" />
			<path id="Layer" class="shp2" d="M69.34,57.84v-0.39c0.75,-0.05 0.9,-0.21 0.9,-0.82v-5.94c0,-0.64 -0.15,-0.77 -0.9,-0.82v-0.39h5.73v2.93h-0.39c-0.28,-1.57 -0.72,-2.54 -2.16,-2.54c-0.87,0 -1.11,0.26 -1.11,0.82v2.52h0.44c0.87,0 1.08,-0.46 1.21,-1.46h0.39v3.37h-0.39c-0.18,-1.03 -0.49,-1.44 -1.23,-1.44h-0.39v2.93c0,0.49 0.18,0.82 0.9,0.82c1.57,0 2.31,-0.75 2.52,-2.62h0.39l0,3.03h-5.91z" />
			<path id="Layer" class="shp2" d="M81.16,57.84h-2.52v-0.39c0.46,0 0.57,-0.1 0.57,-0.26c0,-0.18 -0.1,-0.31 -1.03,-1.67c-0.77,1.21 -0.9,1.44 -0.9,1.59c0,0.21 0.21,0.31 0.57,0.33v0.39h-2.08v-0.39c0.46,-0.08 0.8,-0.23 1.16,-0.8l1,-1.57l-1.57,-2.36c-0.15,-0.23 -0.26,-0.28 -0.67,-0.31v-0.39h2.42v0.39c-0.39,0 -0.54,0.03 -0.54,0.26c0,0.18 0.13,0.28 0.98,1.59c0.75,-1.18 0.87,-1.34 0.87,-1.57c0,-0.18 -0.13,-0.26 -0.59,-0.26v-0.39h2v0.39c-0.26,0 -0.62,0.21 -0.9,0.59l-1.13,1.64l1.49,2.29c0.21,0.31 0.36,0.44 0.87,0.51l0,0.36z" />
			<path id="Layer" class="shp2" d="M95.24,54.91c0,-0.01 0,-0.02 0,-0.03h0zM95.24,54.88h-3.37c0,1.7 0.62,2.62 1.44,2.62c0.9,0 1.31,-0.62 1.52,-1.46l0.39,0.1c-0.26,1.18 -0.87,1.88 -2.03,1.88c-1.49,0 -2.49,-1.54 -2.49,-3.06c0,-1.8 0.98,-3.06 2.34,-3.06c1.36,0 2.2,1.25 2.21,2.98zM91.88,54.44h2.16c0,-1.54 -0.36,-2.16 -1,-2.16c-0.69,0 -1.16,0.59 -1.16,2.16z" />
			<path id="Layer" class="shp2" d="M95.86,57.84l0,-2.03h0.39c0.13,0.77 0.62,1.8 1.52,1.8c0.62,0 1.08,-0.36 1.08,-1.05c0,-1.57 -2.93,-0.87 -2.93,-3.01c0,-0.75 0.54,-1.64 1.62,-1.64c0.67,0 0.93,0.36 1.16,0.36c0.13,0 0.15,-0.13 0.21,-0.23h0.39v1.77h-0.39c-0.13,-0.69 -0.54,-1.52 -1.31,-1.52c-0.54,0 -0.9,0.36 -0.9,0.87c0,1.46 3.01,0.8 3.01,3.03c0,0.75 -0.59,1.8 -1.88,1.8c-0.82,0 -1.05,-0.44 -1.36,-0.44c-0.13,0 -0.18,0.18 -0.21,0.28h-0.39z" />
			<path id="Layer" class="shp2" d="M100.13,57.84v-2.03h0.39c0.13,0.77 0.62,1.8 1.52,1.8c0.62,0 1.08,-0.36 1.08,-1.05c0,-1.57 -2.93,-0.87 -2.93,-3.01c0,-0.75 0.54,-1.64 1.62,-1.64c0.67,0 0.93,0.36 1.16,0.36c0.13,0 0.15,-0.13 0.21,-0.23h0.39l0,1.77h-0.39c-0.13,-0.69 -0.54,-1.52 -1.31,-1.52c-0.54,0 -0.9,0.36 -0.9,0.87c0,1.46 3.01,0.8 3.01,3.03c0,0.75 -0.59,1.8 -1.88,1.8c-0.82,0 -1.05,-0.44 -1.36,-0.44c-0.13,0 -0.18,0.18 -0.21,0.28h-0.39z" />
			<path id="Layer" class="shp1" d="M104.91,44.29c0.8,0 1.44,0.64 1.44,1.44c0,0.8 -0.64,1.44 -1.44,1.44c-0.8,0 -1.44,-0.64 -1.44,-1.44c0,-0.8 0.64,-1.44 1.44,-1.44zM104.91,44.55c-0.67,0 -1.18,0.54 -1.18,1.18c0,0.67 0.54,1.18 1.18,1.18c0.64,0 1.18,-0.51 1.18,-1.18c0,-0.64 -0.54,-1.18 -1.18,-1.18zM104.6,46.55h-0.26v-1.7h0.54c0.31,0 0.64,0.08 0.64,0.46c0,0.21 -0.13,0.36 -0.33,0.39c0.23,0.05 0.26,0.15 0.28,0.33c0.03,0.15 0.05,0.33 0.1,0.49h-0.33c-0.03,-0.1 -0.05,-0.21 -0.05,-0.31c-0.03,-0.15 -0.03,-0.28 -0.1,-0.36c-0.08,-0.08 -0.15,-0.05 -0.26,-0.08h-0.23zM104.88,45.55c0.26,0 0.31,-0.1 0.31,-0.23c0,-0.13 -0.05,-0.18 -0.26,-0.18h-0.33v0.44h0.28z" />
		</g>
	</g>
</svg>