<svg xmlns="http://www.w3.org/2000/svg" width="58" height="43" viewBox="0 0 58 43">
  <defs>
    <style>
      .cls-1 {
        fill: #0234fc;
        fill-rule: evenodd;
      }
    </style>
  </defs>
  <path id="astronaut" class="cls-1" d="M266.977,242.727v2.039a0.806,0.806,0,1,1-1.606.079v-2.118a7.317,7.317,0,0,0-5.382-7.022v9.169a0.8,0.8,0,0,1-1.606,0V235.7a14.592,14.592,0,0,1-9.024,4.256v4.921a0.8,0.8,0,0,1-1.606,0v-4.861a14.582,14.582,0,0,1-9.939-4.242v9.1a0.8,0.8,0,0,1-1.6,0v-9.239a7.326,7.326,0,0,0-5.611,7.092v2.118a0.805,0.805,0,1,1-1.605-.079v-2.039a8.929,8.929,0,0,1,5.753-8.321h-0.5a0.8,0.8,0,0,1-.8-0.8v-7.544a2.77,2.77,0,0,1-.342-0.256,3.711,3.711,0,0,1-.752-2.9c0-.16,0-0.324,0-0.49a4.405,4.405,0,0,1,4.045-4.368v-3.5a0.811,0.811,0,0,1,0-.086,5.069,5.069,0,0,1,5.284-4.47h16.365a2.768,2.768,0,0,1,2.894,2.881v5.137a4.42,4.42,0,0,1,4.418,4.405c0,1.072,0,2.783-1.5,3.727v7.461a0.8,0.8,0,0,1-.8.8h-1.847A8.929,8.929,0,0,1,266.977,242.727Zm-28.257-8.293a12.9,12.9,0,0,0,18.5.179s0-.006,0-0.009a0.774,0.774,0,0,1,.04-0.2h-1.638a11.648,11.648,0,0,1-15.1,0h-1.8C238.717,234.415,238.718,234.425,238.72,234.434Zm-3.668-1.627h3.906a11.524,11.524,0,0,1-2.484-5.983h-1.422v5.983Zm1.731-13.195a2.816,2.816,0,0,0-2.819,2.807c0,0.176,0,.349-0.006.518a2.516,2.516,0,0,0,.293,1.748,3.284,3.284,0,0,0,2.171.532,11.494,11.494,0,0,1,1.66-5.605h-1.3Zm17.718-8.018H241.692a3.475,3.475,0,0,0-3.683,3.006v3.413h1.222a11.616,11.616,0,0,1,15.27-2.1v-4.322Zm-6.436,3.963a10.015,10.015,0,1,0,10.056,10.015A10.047,10.047,0,0,0,248.065,215.557Zm11.28-2.681a1.179,1.179,0,0,0-1.288-1.282h-1.95v5.591c0.276,0.263.542,0.538,0.792,0.827h2.446v-5.136Zm4.419,9.542a2.816,2.816,0,0,0-2.819-2.807h-2.9a11.508,11.508,0,0,1,1.661,5.614h1.236C263.633,225.225,263.764,224.211,263.764,222.418Zm-1.5,10.389v-5.983h-2.611a11.533,11.533,0,0,1-2.485,5.983h5.1Zm-14.2,2.341a8.6,8.6,0,0,1-8.6-8.568c0-2.134.172-4.334,1.421-5.976,1.326-1.744,3.673-2.591,7.175-2.591h0.007c7.938,0,8.6,4.424,8.6,8.567A8.6,8.6,0,0,1,248.065,235.148Zm0-15.536h-0.007c-2.965,0-4.893.64-5.895,1.957-0.963,1.266-1.095,3.156-1.095,5.011a7,7,0,0,0,13.995,0C255.063,222.633,254.547,219.614,248.065,219.612Zm5.643,8.434a0.8,0.8,0,0,1-.8-0.8,6.485,6.485,0,0,0-.827-3.841,0.8,0.8,0,0,1,.154-1.12,0.807,0.807,0,0,1,1.125.154,7.788,7.788,0,0,1,1.153,4.807A0.8,0.8,0,0,1,253.708,228.046Zm-2.6-5.538a0.805,0.805,0,0,1-.316-0.065,5.909,5.909,0,0,0-1.316-.369,0.8,0.8,0,1,1,.271-1.576,7.5,7.5,0,0,1,1.678.476A0.8,0.8,0,0,1,251.108,222.508Zm-1.051,7a0.87,0.87,0,0,1,0,1.094,2.679,2.679,0,0,1-4.207,0,0.873,0.873,0,0,1,0-1.094,0.593,0.593,0,0,1,.932,0,1.49,1.49,0,0,0,2.342,0A0.594,0.594,0,0,1,250.057,229.508Zm-4.158-3.723a0.955,0.955,0,0,1-.512-0.137,0.8,0.8,0,0,0-.805-0.014,1.023,1.023,0,0,1-1.021,0,0.368,0.368,0,0,1,0-.666,2.844,2.844,0,0,1,2.849.015,0.367,0.367,0,0,1,0,.665A0.94,0.94,0,0,1,245.9,225.785Zm3.595-.165a0.368,0.368,0,0,1,0-.666,2.842,2.842,0,0,1,2.849.014,0.369,0.369,0,0,1,0,.666,1.017,1.017,0,0,1-1.023,0,0.773,0.773,0,0,0-.415-0.116,0.668,0.668,0,0,0-.39.1A1.018,1.018,0,0,1,249.494,225.62Z" transform="translate(-218.984 -206.344)"/>
</svg>
