<svg xmlns="http://www.w3.org/2000/svg" width="58" height="43" viewBox="0 0 58 43">
  <defs>
    <style>
      .cls-1 {
        fill: #0234fc;
        fill-rule: evenodd;
      }
    </style>
  </defs>
  <path id="astronaut_copy_5" data-name="astronaut copy 5" class="cls-1" d="M266.977,242.727v2.039a0.806,0.806,0,1,1-1.606.079v-2.118a7.335,7.335,0,0,0-5.382-7.048v9.195a0.8,0.8,0,0,1-1.606,0V235.7a14.592,14.592,0,0,1-9.024,4.256v4.921a0.8,0.8,0,0,1-1.606,0v-4.861a14.582,14.582,0,0,1-9.939-4.242v9.1a0.8,0.8,0,0,1-1.6,0v-9.253a7.335,7.335,0,0,0-5.611,7.106v2.118a0.805,0.805,0,1,1-1.605-.079v-2.039a8.929,8.929,0,0,1,5.753-8.321h-0.5a0.8,0.8,0,0,1-.8-0.8v-6.361q0.406-.27.816-0.538c0.913-.6,1.825-1.2,2.713-1.822,0.4-.282.788-0.568,1.164-0.852a10.1,10.1,0,1,0,7.594-8.193,9.814,9.814,0,0,0,.565-1.732,11.481,11.481,0,0,1,10.6,3.9h4.046a4.42,4.42,0,0,1,4.424,4.406c0,1.072,0,2.783-1.5,3.727v7.461a0.8,0.8,0,0,1-.8.8h-1.847A8.929,8.929,0,0,1,266.977,242.727Zm-30.5-15.9h-1.422v5.983h3.906A11.524,11.524,0,0,1,236.474,226.824Zm11.591,10.362a11.635,11.635,0,0,1-7.552-2.78h-1.8c0,0.009,0,.019,0,0.028a12.9,12.9,0,0,0,18.5.179s0-.006,0-0.009a0.774,0.774,0,0,1,.04-0.2h-1.638A11.635,11.635,0,0,1,248.065,237.186Zm15.7-14.768a2.816,2.816,0,0,0-2.819-2.807h-2.9a11.508,11.508,0,0,1,1.661,5.614h1.236C263.633,225.225,263.764,224.211,263.764,222.418Zm-1.5,10.389v-5.983h-2.611a11.533,11.533,0,0,1-2.485,5.983h5.1Zm-14.2-14.794c7.938,0,8.6,4.424,8.6,8.567a8.6,8.6,0,0,1-17.206,0,14.362,14.362,0,0,1,.419-3.91l0.088-.07A30.883,30.883,0,0,0,243,219.769q0.571-.594,1.087-1.243a13.689,13.689,0,0,1,3.974-.513h0.007Zm-5.9,3.556c-0.963,1.266-1.095,3.156-1.095,5.011a7,7,0,0,0,13.995,0c0-3.947-.516-6.966-7-6.968h-0.007C245.093,219.612,243.165,220.252,242.163,221.569Zm7.894,7.939a0.87,0.87,0,0,1,0,1.094,2.679,2.679,0,0,1-4.207,0,0.873,0.873,0,0,1,0-1.094,0.593,0.593,0,0,1,.932,0,1.49,1.49,0,0,0,2.342,0A0.594,0.594,0,0,1,250.057,229.508Zm-4.158-3.723a0.955,0.955,0,0,1-.512-0.137,0.8,0.8,0,0,0-.805-0.014,1.023,1.023,0,0,1-1.021,0,0.368,0.368,0,0,1,0-.666,2.844,2.844,0,0,1,2.849.015,0.367,0.367,0,0,1,0,.665A0.94,0.94,0,0,1,245.9,225.785Zm3.595-.165a0.368,0.368,0,0,1,0-.666,2.842,2.842,0,0,1,2.849.014,0.369,0.369,0,0,1,0,.666,1.017,1.017,0,0,1-1.023,0,0.773,0.773,0,0,0-.415-0.116,0.668,0.668,0,0,0-.39.1A1.018,1.018,0,0,1,249.494,225.62Zm2.738-3.334a0.807,0.807,0,0,1,1.125.154,7.788,7.788,0,0,1,1.153,4.807,0.8,0.8,0,0,1-1.6,0,6.485,6.485,0,0,0-.827-3.841A0.8,0.8,0,0,1,252.232,222.286Zm-1.124.222a0.805,0.805,0,0,1-.316-0.065,5.909,5.909,0,0,0-1.316-.369,0.8,0.8,0,1,1,.271-1.576,7.5,7.5,0,0,1,1.678.476A0.8,0.8,0,0,1,251.108,222.508Zm-9.225-5.6a13.346,13.346,0,0,1-1.552,1.952A23.388,23.388,0,0,1,238.037,221c-0.608.492-1.412,1.132-2.267,1.731-0.673.472-1.364,0.926-2.056,1.38-0.339.223-.678,0.444-1.015,0.67a1.169,1.169,0,0,1-1.358,0c-0.274-.181-0.551-0.358-0.828-0.536-0.622-.4-1.265-0.812-1.884-1.253-0.954-.68-1.878-1.408-2.743-2.095a19.859,19.859,0,0,1-3.164-3.152,7.842,7.842,0,0,1-1.537-3.186c-0.063-.208-0.115-0.452-0.166-0.706L221,213.68l0.059-1.221c0.026-.107.049-0.217,0.072-0.329a7.272,7.272,0,0,1,.222-0.873,6.107,6.107,0,0,1,3.015-3.444,6.786,6.786,0,0,1,4.378-.708,6.647,6.647,0,0,1,3.246,1.461,6.972,6.972,0,0,1,8.841.08,6.014,6.014,0,0,1,1.948,3.057,6.079,6.079,0,0,1,.16.721L243,212.815l-0.054,1.165A7.518,7.518,0,0,1,241.883,216.905Z" transform="translate(-214.984 -204.844)"/>
</svg>
