<svg xmlns="http://www.w3.org/2000/svg" width="27" height="18" viewBox="0 0 27 18">
  <defs>
    <style>
      .cls-1 {
        fill: #0234fc;
        fill-rule: evenodd;
      }
    </style>
  </defs>
  <path id="ig" class="cls-1" d="M81.439,319.455a4.106,4.106,0,1,0,4.106,4.106A4.106,4.106,0,0,0,81.439,319.455Zm0,6.771a2.666,2.666,0,1,1,2.665-2.665A2.665,2.665,0,0,1,81.439,326.226Zm4.268-7.928a0.96,0.96,0,1,0,.959.96A0.96,0.96,0,0,0,85.707,318.3Zm3.24,1.4a5.87,5.87,0,0,0-.372-1.941,4.087,4.087,0,0,0-2.338-2.338,5.863,5.863,0,0,0-1.941-.372C83.444,315.013,83.172,315,81,315s-2.444.009-3.3,0.048a5.863,5.863,0,0,0-1.941.372,4.087,4.087,0,0,0-2.338,2.338,5.87,5.87,0,0,0-.372,1.941c-0.039.853-.048,1.125-0.048,3.3s0.009,2.444.048,3.3a5.858,5.858,0,0,0,.372,1.94,4.085,4.085,0,0,0,2.338,2.339,5.863,5.863,0,0,0,1.941.372c0.853,0.038,1.125.048,3.3,0.048s2.444-.01,3.3-0.048a5.863,5.863,0,0,0,1.941-.372,4.085,4.085,0,0,0,2.338-2.339,5.858,5.858,0,0,0,.372-1.94c0.039-.853.048-1.126,0.048-3.3S88.987,320.556,88.948,319.7Zm-1.439,6.563a4.426,4.426,0,0,1-.275,1.485,2.648,2.648,0,0,1-1.517,1.517,4.4,4.4,0,0,1-1.485.275c-0.843.039-1.1,0.047-3.231,0.047s-2.388-.008-3.231-0.047a4.4,4.4,0,0,1-1.485-.275,2.648,2.648,0,0,1-1.517-1.517,4.426,4.426,0,0,1-.275-1.485c-0.038-.843-0.047-1.1-0.047-3.231s0.008-2.388.047-3.231a4.426,4.426,0,0,1,.275-1.485,2.648,2.648,0,0,1,1.517-1.517,4.4,4.4,0,0,1,1.485-.275c0.843-.039,1.1-0.047,3.231-0.047s2.388,0.008,3.231.047a4.4,4.4,0,0,1,1.485.275,2.648,2.648,0,0,1,1.517,1.517,4.426,4.426,0,0,1,.275,1.485c0.038,0.843.047,1.1,0.047,3.231S87.547,325.423,87.508,326.266Z" transform="translate(-67.5 -314)"/>
</svg>
