<svg xmlns="http://www.w3.org/2000/svg" width="27" height="18" viewBox="0 0 27 18">
  <defs>
    <style>
      .cls-1 {
        fill: #0234fc;
        fill-rule: evenodd;
      }
    </style>
  </defs>
  <path id="mail" class="cls-1" d="M71.188,314.941a2.5,2.5,0,0,0-2.485,2.493v11.084a2.5,2.5,0,0,0,2.485,2.5H90.515a2.5,2.5,0,0,0,2.485-2.5V317.434a2.5,2.5,0,0,0-2.485-2.493H71.188Zm0.483,1.662h18.36l-8.887,7.968a0.572,0.572,0,0,1-.587,0Zm-1.311,1.048,6.2,5.567-6.2,5.154V317.651Zm20.983,0v10.721l-6.2-5.154Zm-13.529,6.685,1.639,1.472a2.075,2.075,0,0,0,2.8,0l1.639-1.472,6.04,5.014H71.775l6.04-5.014h0Z" transform="translate(-67.344 -313.969)"/>
</svg>
