<svg xmlns="http://www.w3.org/2000/svg" width="58" height="43" viewBox="0 0 58 43">
  <defs>
    <style>
      .cls-1 {
        fill: #0234fc;
        fill-rule: evenodd;
      }
    </style>
  </defs>
  <path id="quality" class="cls-1" d="M260.133,224.571v3.792c-3.982,2.4-2.738,1.139-5.1,5.183h-0.5v11.566a0.892,0.892,0,0,1-1.618.5l-4.853-4.93c-1.12,1.138-4.854,5.31-5.6,5.31a0.893,0.893,0,0,1-1-.885V233.546h-0.5c-2.24-4.044-1-2.78-5.1-5.183,0-4.8.5-3.034-1.867-7.079,2.364-4.172,1.867-2.4,1.867-7.206,4.106-2.276,2.862-1.138,5.1-5.183,4.729,0,2.987.5,7.094-1.9,3.982,2.4,2.364,1.9,6.969,1.9,2.364,4.045,1.12,2.907,5.1,5.183,0,4.8-.373,3.034,1.867,7.206Zm-16.8,8.975v9.29l3.982-4.171a1.017,1.017,0,0,1,1.493.126l3.858,4.045v-9.29H251.3l-3.235,1.9-3.236-1.9h-1.493ZM258.267,218.5v-3.287c-3.361-2.023-2.365-.885-4.356-4.425-3.858,0-2.489.38-5.849-1.644-3.485,2.024-1.992,1.644-5.974,1.644-1.991,3.54-.871,2.4-4.356,4.425,0,4.045.374,2.528-1.617,6.068,1.991,3.413,1.617,2.023,1.617,5.942,3.485,2.023,2.365,1.011,4.356,4.425,3.982,0,2.489-.379,5.974,1.643,3.36-2.022,1.991-1.643,5.849-1.643,1.991-3.414,1-2.4,4.356-4.425,0-3.919-.374-2.529,1.617-5.942ZM248,229a8,8,0,1,1,8-8A8.01,8.01,0,0,1,248,229Zm0-14.933A6.933,6.933,0,1,0,254.933,221,6.94,6.94,0,0,0,248,214.067Z" transform="translate(-219 -205)"/>
</svg>
