<svg xmlns="http://www.w3.org/2000/svg" width="58" height="43" viewBox="0 0 58 43">
  <defs>
    <style>
      .cls-1 {
        fill: #0234fc;
        fill-rule: evenodd;
      }
    </style>
  </defs>
  <path class="cls-1" d="M266.717,216.836c-2.665,7.163-8.792,12.214-12.482,14.732-0.127,1.323-.265,3.727-0.282,4.075a1.671,1.671,0,0,1-.58,1.17L247.4,241.9a1.734,1.734,0,0,1-2.005.145,1.646,1.646,0,0,1-.711-1.863l0.991-3.379L245.6,236.7c-0.315.168-.626,0.33-0.923,0.481a1.722,1.722,0,0,1-1.466.04,1.644,1.644,0,0,1-.207.7l-4.011,7.218a1.7,1.7,0,0,1-2.265.666,1.647,1.647,0,0,1-.811-0.957,1.744,1.744,0,0,1-2.277.334,1.647,1.647,0,0,1-.7-1.081,1.628,1.628,0,0,1,.288-1.245l1.494-2.07-0.137.095a1.746,1.746,0,0,1-2.33-.392,1.627,1.627,0,0,1-.292-1.243,1.6,1.6,0,0,1,.092-0.328l-0.632.306a1.718,1.718,0,0,1-2.243-.744,1.632,1.632,0,0,1-.091-1.273,1.652,1.652,0,0,1,.851-0.961l7.768-3.759a1.64,1.64,0,0,1,.426-0.141,1.652,1.652,0,0,1-.042-1.627q0.255-.476.536-0.979l-3.668,1.021a1.712,1.712,0,0,1-1.872-.7,1.651,1.651,0,0,1,.155-2l5.227-5.819a1.692,1.692,0,0,1,1.154-.558c0.053,0,2.763-.142,4.228-0.277,2.585-3.591,7.77-9.56,15.122-12.155A22.346,22.346,0,0,1,265.849,208a2.081,2.081,0,0,1,1.58.5l0.055,0.055C268.781,209.817,267.263,215.376,266.717,216.836Zm-14.876,18.5c0.023-.415.083-1.433,0.155-2.442l-3.725,2.614-1.124,3.829Zm-14.105,8.591a0.593,0.593,0,0,0,.277.07,0.585,0.585,0,0,0,.513-0.3l3.775-6.84a0.564,0.564,0,0,0-.234-0.775,0.59,0.59,0,0,0-.79.23l-3.775,6.841A0.565,0.565,0,0,0,237.736,243.928Zm3.542-8.446-1.184-1.153c-0.013.059-.03,0.117-0.049,0.175a0.394,0.394,0,0,0-.209.708,1.633,1.633,0,0,1,.315.962A1.69,1.69,0,0,1,241.278,235.482Zm-6.347,7.917a0.589,0.589,0,0,0,.811-0.139l3.675-5.124a0.563,0.563,0,0,0-.14-0.8,0.591,0.591,0,0,0-.812.139L234.79,242.6A0.565,0.565,0,0,0,234.931,243.4Zm-1.059-4.207a0.587,0.587,0,0,0,.811.135l4.559-3.168a0.563,0.563,0,0,0,.14-0.8,0.591,0.591,0,0,0-.813-0.134L234.01,238.4A0.565,0.565,0,0,0,233.872,239.192Zm-2.549-2.537a0.57,0.57,0,0,0-.264.766,0.586,0.586,0,0,0,.522.318,0.592,0.592,0,0,0,.259-0.06l7.308-3.56a0.565,0.565,0,0,0,.263-0.766,0.591,0.591,0,0,0-.78-0.258Zm8.614-12.869-4.071,4.531,4.326-1.2,0.047,0.018,2.444-3.512C241.577,223.7,240.4,223.761,239.937,223.786Zm18.749-12.151c-6.538,2.68-11.15,8.215-13.37,11.379l-0.272.388-0.473.056c-0.2.024-.46,0.048-0.74,0.073l-2.734,3.927,1.131,0.432-1.034,1.688c-0.226.368-.442,0.721-0.562,0.933-0.177.309-.342,0.609-0.5,0.9l3.851,3.752c0.3-.157.625-0.325,0.952-0.5l0.074-.04c0.271-.15.7-0.4,1.125-0.647l1.462-.833,0.54,1.341,3.952-2.773c0.029-.333.059-0.639,0.088-0.868l0.06-.478,0.4-.269c3.223-2.143,8.844-6.577,11.617-12.853Zm7.189-1.524h-0.026a20.021,20.021,0,0,0-6.158,1.132c-0.034.012-.065,0.027-0.1,0.039l5.033,5.061c0.031-.081.068-0.158,0.1-0.24A18.684,18.684,0,0,0,265.875,210.111Zm-7.957,12.375a3.484,3.484,0,0,1-2.467,1,3.6,3.6,0,0,1-2.473-.978,3.437,3.437,0,0,1-.028-4.863,3.666,3.666,0,0,1,4.942-.028A3.407,3.407,0,0,1,257.918,222.486Zm-0.848-4.054a2.431,2.431,0,0,0-1.656-.646A2.279,2.279,0,0,0,253.8,221.7a2.413,2.413,0,0,0,1.653.645,2.316,2.316,0,0,0,1.641-.665A2.278,2.278,0,0,0,257.07,218.432Zm-11.939,15.111-3.464-3.4c0.134-.247.274-0.5,0.419-0.757v0l0.038-.064,3.847,3.771-0.07.039Q245.509,233.348,245.131,233.543Z" transform="translate(-219.5 -205.5)"/>
</svg>
