<?xml version="1.0" encoding="UTF-8" standalone="no"?>
<svg
   xmlns:dc="http://purl.org/dc/elements/1.1/"
   xmlns:cc="http://creativecommons.org/ns#"
   xmlns:rdf="http://www.w3.org/1999/02/22-rdf-syntax-ns#"
   xmlns:svg="http://www.w3.org/2000/svg"
   xmlns="http://www.w3.org/2000/svg"
   xmlns:sodipodi="http://sodipodi.sourceforge.net/DTD/sodipodi-0.dtd"
   xmlns:inkscape="http://www.inkscape.org/namespaces/inkscape"
   viewBox="0 0 32 32"
   version="1.1"
   width="512px"
   height="512px"
   id="svg5"
   sodipodi:docname="ttrash.svg"
   inkscape:version="0.92.3 (2405546, 2018-03-11)">
  <metadata
     id="metadata11">
    <rdf:RDF>
      <cc:Work
         rdf:about="">
        <dc:format>image/svg+xml</dc:format>
        <dc:type
           rdf:resource="http://purl.org/dc/dcmitype/StillImage" />
        <dc:title></dc:title>
      </cc:Work>
    </rdf:RDF>
  </metadata>
  <defs
     id="defs9" />
  <sodipodi:namedview
     pagecolor="#ffffff"
     bordercolor="#666666"
     borderopacity="1"
     objecttolerance="10"
     gridtolerance="10"
     guidetolerance="10"
     inkscape:pageopacity="0"
     inkscape:pageshadow="2"
     inkscape:window-width="1361"
     inkscape:window-height="794"
     id="namedview7"
     showgrid="false"
     inkscape:zoom="0.4609375"
     inkscape:cx="-96.542373"
     inkscape:cy="256"
     inkscape:window-x="0"
     inkscape:window-y="0"
     inkscape:window-maximized="0"
     inkscape:current-layer="svg5" />
  <g
     id="surface1"
     transform="matrix(1.2508475,0,0,1.2033898,-4.738983,-3.5254238)">
    <path
       d="M 15,4 C 14.476563,4 13.941406,4.183594 13.5625,4.5625 13.183594,4.941406 13,5.476563 13,6 V 7 H 7 v 2 h 1 v 16 c 0,1.644531 1.355469,3 3,3 h 12 c 1.644531,0 3,-1.355469 3,-3 V 9 h 1 V 7 H 21 V 6 C 21,5.476563 20.816406,4.941406 20.4375,4.5625 20.058594,4.183594 19.523438,4 19,4 Z m 0,2 h 4 v 1 h -4 z m -5,3 h 14 v 16 c 0,0.554688 -0.445312,1 -1,1 H 11 c -0.554687,0 -1,-0.445312 -1,-1 z m 2,3 v 11 h 2 V 12 Z m 4,0 v 11 h 2 V 12 Z m 4,0 v 11 h 2 V 12 Z"
       id="path2"
       inkscape:connector-curvature="0" />
  </g>
</svg>
