<svg xmlns="http://www.w3.org/2000/svg" width="27" height="18" viewBox="0 0 27 18">
  <defs>
    <style>
      .cls-1 {
        fill: #0234fc;
        fill-rule: evenodd;
      }
    </style>
  </defs>
  <path id="tw" class="cls-1" d="M89.954,317.4a7.51,7.51,0,0,1-2.167.6,3.789,3.789,0,0,0,1.659-2.095,7.52,7.52,0,0,1-2.4.92,3.771,3.771,0,0,0-6.527,2.588,3.817,3.817,0,0,0,.1.864,10.711,10.711,0,0,1-7.777-3.954,3.8,3.8,0,0,0,1.168,5.053A3.787,3.787,0,0,1,72.3,320.9c0,0.016,0,.034,0,0.049a3.786,3.786,0,0,0,3.027,3.711,3.747,3.747,0,0,1-.994.133,3.694,3.694,0,0,1-.71-0.069,3.782,3.782,0,0,0,3.525,2.629,7.555,7.555,0,0,1-4.686,1.619,7.86,7.86,0,0,1-.9-0.052,10.724,10.724,0,0,0,16.518-9.069c0-.164,0-0.327-0.011-0.488A7.694,7.694,0,0,0,89.954,317.4Z" transform="translate(-67.266 -314.125)"/>
</svg>
