<svg xmlns="http://www.w3.org/2000/svg" width="27" height="18" viewBox="0 0 27 18">
  <defs>
    <style>
      .cls-1 {
        fill: #0234fc;
        fill-rule: evenodd;
      }
    </style>
  </defs>
  <path id="youtube" class="cls-1" d="M80.759,315.514H80.749s-4.453,0-7.422.216a3.026,3.026,0,0,0-2.126.9,4.612,4.612,0,0,0-.843,2.113,32.233,32.233,0,0,0-.212,3.444V323.8a32.233,32.233,0,0,0,.212,3.444,4.614,4.614,0,0,0,.843,2.114,3.6,3.6,0,0,0,2.339.91c1.7,0.163,7.213.213,7.213,0.213h0s4.458-.008,7.427-0.222a3.028,3.028,0,0,0,2.126-.9,4.617,4.617,0,0,0,.844-2.114,32.308,32.308,0,0,0,.212-3.444v-1.613a32.308,32.308,0,0,0-.212-3.444,4.615,4.615,0,0,0-.844-2.113,3.026,3.026,0,0,0-2.126-.9c-2.969-.216-7.422-0.216-7.422-0.216m-2.185,10.245,5.717-2.981-5.718-2.99v5.971Z" transform="translate(-67.266 -313.985)"/>
</svg>
